<svg width="32" height="32" viewBox="0 0 32 32" fill="none" xmlns="http://www.w3.org/2000/svg">
<path opacity="0.2" d="M21.9629 21.9612C28.5478 15.3764 31.2168 7.36919 27.9244 4.07674C24.632 0.784298 16.6248 3.45335 10.04 10.0382C3.45508 16.6231 0.786031 24.6303 4.07847 27.9227C7.3709 31.2152 15.378 28.5461 21.9629 21.9612Z" fill="#202533"/>
<path opacity="0.2" d="M10.0397 21.9614C3.45481 15.3765 0.785768 7.36938 4.0782 4.07693C7.37064 0.784484 15.3778 3.45354 21.9627 10.0384C28.5475 16.6233 31.2166 24.6305 27.9241 27.9229C24.6317 31.2154 16.6246 28.5463 10.0397 21.9614Z" fill="#202533"/>
<path d="M19.3346 15.9998C19.3346 17.8408 17.8423 19.3332 16.0013 19.3332C14.1604 19.3332 12.668 17.8408 12.668 15.9998C12.668 14.1589 14.1604 12.6665 16.0013 12.6665C17.8423 12.6665 19.3346 14.1589 19.3346 15.9998Z" fill="#202533"/>
</svg>
