<svg width="32" height="32" viewBox="0 0 32 32" fill="none" xmlns="http://www.w3.org/2000/svg">
<path opacity="0.25" d="M5.33203 12.8991C5.33203 7.24778 9.80918 2.6665 15.332 2.6665C20.8549 2.6665 25.332 7.24778 25.332 12.8991C25.332 15.9289 24.044 18.6521 22.0006 20.5244C21.3195 21.1484 20.8149 21.6107 20.4574 21.9462C20.2786 22.1139 20.1419 22.2449 20.041 22.3455C19.9907 22.3956 19.9522 22.4353 19.9236 22.466C19.9094 22.4812 19.8987 22.4931 19.891 22.5019C19.883 22.511 19.8798 22.5151 19.8798 22.5151C19.5644 22.9133 19.4962 23.016 19.4555 23.1091C19.4149 23.2022 19.3856 23.3227 19.306 23.8288C19.2746 24.0286 19.2714 24.3708 19.2714 25.3022V25.3421C19.2714 25.8876 19.2715 26.3581 19.2373 26.7442C19.2011 27.1525 19.121 27.5568 18.906 27.9378C18.6667 28.3621 18.3224 28.7144 17.9078 28.9593C17.5354 29.1793 17.1403 29.2612 16.7413 29.2982C16.364 29.3332 15.9042 29.3332 15.3712 29.3332H15.3711H15.2929H15.2929C14.7599 29.3332 14.3001 29.3332 13.9228 29.2982C13.5237 29.2612 13.1287 29.1793 12.7563 28.9593C12.3417 28.7144 11.9974 28.3621 11.758 27.9378C11.543 27.5568 11.463 27.1525 11.4268 26.7442C11.3926 26.3581 11.3926 25.8876 11.3926 25.3422V25.3421L11.3926 25.3022C11.3926 24.3708 11.3894 24.0286 11.358 23.8288C11.2785 23.3227 11.2492 23.2022 11.2085 23.1091C11.1679 23.016 11.0996 22.9133 10.7843 22.5151C10.7843 22.5151 10.7807 22.5106 10.7731 22.5019C10.7654 22.4931 10.7547 22.4812 10.7405 22.466C10.7118 22.4353 10.6734 22.3956 10.6231 22.3455C10.5222 22.2449 10.3855 22.1139 10.2067 21.9462C9.84913 21.6107 9.34456 21.1484 8.66348 20.5244C6.62006 18.6521 5.33203 15.9289 5.33203 12.8991Z" fill="#1C274C"/>
<path d="M17.4489 26.233H13.2221C13.2261 26.3622 13.2321 26.4752 13.2411 26.5768C13.2658 26.8561 13.3075 26.9575 13.3361 27.0081C13.4159 27.1496 13.5307 27.267 13.6689 27.3486C13.7184 27.3779 13.8175 27.4206 14.0904 27.4459C14.3758 27.4724 14.7524 27.4733 15.3355 27.4733C15.9187 27.4733 16.2953 27.4724 16.5807 27.4459C16.8536 27.4206 16.9527 27.3779 17.0022 27.3486C17.1404 27.267 17.2552 27.1496 17.3349 27.0081C17.3635 26.9575 17.4053 26.8561 17.43 26.5768C17.439 26.4752 17.445 26.3622 17.4489 26.233Z" fill="#1C274C"/>
<path d="M16.8161 10.9023C17.2247 11.201 17.3193 11.7819 17.0275 12.2L15.4569 14.45H17.3267C17.6672 14.45 17.9792 14.6447 18.135 14.9546C18.2909 15.2644 18.2644 15.6374 18.0665 15.9209L15.4691 19.6419C15.1772 20.0599 14.6095 20.1567 14.2009 19.8581C13.7923 19.5595 13.6977 18.9785 13.9895 18.5605L15.5602 16.3105H13.6903C13.3498 16.3105 13.0378 16.1157 12.882 15.8059C12.7262 15.4961 12.7527 15.1231 12.9506 14.8396L15.548 11.1186C15.8398 10.7006 16.4076 10.6037 16.8161 10.9023Z" fill="#1C274C"/>
</svg>
