<svg width="32" height="32" viewBox="0 0 32 32" fill="none" xmlns="http://www.w3.org/2000/svg">
<path d="M15.9987 18.6668C17.4715 18.6668 18.6654 17.4729 18.6654 16.0002C18.6654 14.5274 17.4715 13.3335 15.9987 13.3335C14.5259 13.3335 13.332 14.5274 13.332 16.0002C13.332 17.4729 14.5259 18.6668 15.9987 18.6668Z" fill="#202533"/>
<g opacity="0.2">
<path d="M7.29048 5.8561C7.68062 6.24701 7.67999 6.88018 7.28908 7.27031C5.05093 9.50399 3.66797 12.5896 3.66797 16C3.66797 19.4504 5.08348 22.5683 7.36801 24.8079C7.7624 25.1945 7.76869 25.8276 7.38207 26.222C6.99544 26.6164 6.36231 26.6227 5.96792 26.2361C3.31549 23.6358 1.66797 20.0094 1.66797 16C1.66797 12.0371 3.27758 8.44821 5.87627 5.85469C6.26719 5.46455 6.90035 5.46519 7.29048 5.8561Z" fill="#202533"/>
<path d="M24.8232 5.95261C25.2176 5.56599 25.8507 5.57228 26.2373 5.96667C28.7708 8.55102 30.3346 12.0939 30.3346 16C30.3346 19.9526 28.7334 23.5331 26.1467 26.1251C25.7565 26.516 25.1234 26.5166 24.7324 26.1265C24.3415 25.7363 24.3409 25.1032 24.731 24.7123C26.9589 22.48 28.3346 19.4016 28.3346 16C28.3346 12.6383 26.991 9.5924 24.8091 7.36675C24.4225 6.97237 24.4288 6.33923 24.8232 5.95261Z" fill="#202533"/>
</g>
<g opacity="0.5">
<path d="M11.079 9.98322C11.4563 10.3865 11.4354 11.0193 11.0321 11.3967C9.7669 12.5806 9 14.2001 9 15.9761C9 17.7728 9.78492 19.4095 11.0767 20.597C11.4833 20.9707 11.51 21.6033 11.1362 22.0099C10.7625 22.4165 10.1299 22.4431 9.72326 22.0694C8.0529 20.534 7 18.3763 7 15.9761C7 13.6038 8.02864 11.4682 9.66554 9.93635C10.0688 9.55899 10.7016 9.57997 11.079 9.98322Z" fill="#202533"/>
<path d="M20.9905 10.0339C21.3722 9.63481 22.0053 9.62074 22.4044 10.0025C24.0006 11.5293 25 13.6379 25 15.9761C25 18.3422 23.9767 20.4729 22.3473 22.0039C21.9448 22.382 21.3119 22.3623 20.9337 21.9598C20.5556 21.5573 20.5753 20.9244 20.9778 20.5463C22.2371 19.3631 23 17.7475 23 15.9761C23 14.2254 22.2549 12.6271 21.0219 11.4478C20.6228 11.066 20.6088 10.433 20.9905 10.0339Z" fill="#202533"/>
</g>
</svg>
