<svg width="32" height="32" viewBox="0 0 32 32" fill="none" xmlns="http://www.w3.org/2000/svg">
<path opacity="0.2" d="M4.50335 6.77638C4 7.49354 4 9.62527 4 13.8887V15.9883C4 23.5057 9.65195 27.1538 13.1981 28.7029C14.16 29.1231 14.641 29.3332 16 29.3332C17.359 29.3332 17.84 29.1231 18.8019 28.7029C22.348 27.1538 28 23.5057 28 15.9883V13.8887C28 9.62527 28 7.49354 27.4966 6.77638C26.9933 6.05922 24.9889 5.37311 20.9801 4.00089L20.2164 3.73946C18.1267 3.02416 17.0819 2.6665 16 2.6665C14.9181 2.6665 13.8733 3.02416 11.7836 3.73946L11.0199 4.00089C7.0111 5.37311 5.00671 6.05922 4.50335 6.77638Z" fill="#202533"/>
<path d="M20.0806 13.9995C20.4484 13.5876 20.4126 12.9554 20.0007 12.5876C19.5887 12.2197 18.9565 12.2555 18.5887 12.6675L14.5727 17.1654L13.4139 15.8675C13.0461 15.4555 12.4139 15.4197 12.002 15.7876C11.59 16.1554 11.5542 16.7876 11.922 17.1995L13.8268 19.3329C14.0165 19.5453 14.2879 19.6668 14.5727 19.6668C14.8576 19.6668 15.129 19.5453 15.3187 19.3329L20.0806 13.9995Z" fill="#202533"/>
</svg>
