<svg width="32" height="32" viewBox="0 0 32 32" fill="none" xmlns="http://www.w3.org/2000/svg">
<path fill-rule="evenodd" clip-rule="evenodd" d="M11.6419 7.69494L7.55904 13.219C5.84608 15.5366 4.9896 16.6954 5.46153 17.6066C5.46935 17.6216 5.47739 17.6366 5.48567 17.6515C5.9856 18.5487 7.46485 18.5487 10.4233 18.5487C12.0674 18.5487 12.8894 18.5487 13.405 19.0337L13.4317 19.0593L18.5943 12.9661L18.5676 12.9404C18.0629 12.445 18.0629 11.6552 18.0629 10.0756V9.66266C18.0629 5.28316 18.0629 3.09341 16.8318 2.71612C15.6006 2.33884 14.281 4.1242 11.6419 7.69494Z" fill="#286C66"/>
<path opacity="0.5" d="M13.9373 21.9244L13.9373 22.3372C13.9372 26.7167 13.9372 28.9065 15.1683 29.2838C16.3995 29.6611 17.7191 27.8757 20.3583 24.305L24.4412 18.781C26.1541 16.4634 27.0106 15.3046 26.5387 14.3934C26.5309 14.3783 26.5228 14.3634 26.5146 14.3485C26.0146 13.4512 24.5354 13.4512 21.5769 13.4512C19.9328 13.4512 19.1108 13.4512 18.5952 12.9663L13.4326 19.0596C13.9373 19.555 13.9373 20.3448 13.9373 21.9244Z" fill="#286C66"/>
</svg>
