<svg width="32" height="32" viewBox="0 0 32 32" fill="none" xmlns="http://www.w3.org/2000/svg">
<path fill-rule="evenodd" clip-rule="evenodd" d="M11.6419 7.69512L7.55904 13.2192C5.84608 15.5368 4.9896 16.6956 5.46153 17.6067C5.46935 17.6218 5.47739 17.6368 5.48567 17.6517C5.9856 18.5489 7.46485 18.5489 10.4233 18.5489C12.0674 18.5489 12.8894 18.5489 13.405 19.0339L13.4317 19.0595L18.5943 12.9662L18.5676 12.9406C18.0629 12.4452 18.0629 11.6554 18.0629 10.0758V9.66284C18.0629 5.28334 18.0629 3.09359 16.8318 2.7163C15.6006 2.33902 14.281 4.12439 11.6419 7.69512Z" fill="#1E2330"/>
<path opacity="0.25" d="M13.9373 21.9242L13.9373 22.337C13.9372 26.7166 13.9372 28.9063 15.1683 29.2836C16.3995 29.6609 17.7191 27.8755 20.3583 24.3048L24.4412 18.7808C26.1541 16.4632 27.0106 15.3044 26.5387 14.3932C26.5309 14.3782 26.5228 14.3632 26.5146 14.3483C26.0146 13.4511 24.5354 13.4511 21.5769 13.4511C19.9328 13.4511 19.1108 13.4511 18.5952 12.9661L13.4326 19.0594C13.9373 19.5548 13.9373 20.3446 13.9373 21.9242Z" fill="#1E2330"/>
</svg>
