<svg width="32" height="32" viewBox="0 0 32 32" fill="none" xmlns="http://www.w3.org/2000/svg">
<path opacity="0.2" d="M6.30552 3.64451C6.71271 3.23388 7.2844 2.96616 8.36398 2.81979C9.4753 2.66911 10.9482 2.66675 13.0601 2.66675H18.9451C21.057 2.66675 22.5299 2.66911 23.6412 2.81979C24.7208 2.96616 25.2925 3.23388 25.6997 3.64451C26.1069 4.05514 26.3724 4.63166 26.5175 5.72035C26.6669 6.84106 26.6693 8.3264 26.6693 10.4561L26.6693 24.0001H9.90391C8.45908 24.0001 7.95397 24.0077 7.56689 24.0909C6.88236 24.2381 6.28728 24.5536 5.85341 24.9797C5.7071 25.1234 5.63395 25.1952 5.46521 25.6531C5.36841 25.9157 5.33594 26.0916 5.33594 26.2672V10.4561C5.33594 8.3264 5.33828 6.84106 5.48769 5.72035C5.63284 4.63166 5.89832 4.05514 6.30552 3.64451Z" fill="#202533"/>
<path d="M26.6693 24H9.90391C8.45908 24 7.95397 24.0076 7.56689 24.0909C6.88236 24.2381 6.28728 24.5535 5.85341 24.9796C5.7071 25.1233 5.63395 25.1951 5.46521 25.653C5.29648 26.1108 5.3232 26.305 5.37665 26.6934C5.38608 26.7619 5.39624 26.8288 5.40718 26.8941C5.55288 27.7637 5.81939 28.2243 6.22815 28.5523C6.63692 28.8803 7.21081 29.0942 8.29455 29.2111C9.41016 29.3314 10.8887 29.3333 13.0088 29.3333H18.9165C21.0365 29.3333 22.5151 29.3314 23.6307 29.2111C24.7144 29.0942 25.2883 28.8803 25.6971 28.5523C25.9633 28.3387 26.1691 28.069 26.3205 27.6667H10.6693C10.117 27.6667 9.66927 27.219 9.66927 26.6667C9.66927 26.1144 10.117 25.6667 10.6693 25.6667H26.6364C26.6594 25.1824 26.6669 24.6322 26.6693 24Z" fill="#202533"/>
<path d="M9.66406 9.33325C9.66406 8.78097 10.1118 8.33325 10.6641 8.33325H21.3307C21.883 8.33325 22.3307 8.78097 22.3307 9.33325C22.3307 9.88554 21.883 10.3333 21.3307 10.3333H10.6641C10.1118 10.3333 9.66406 9.88554 9.66406 9.33325Z" fill="#202533"/>
<path d="M10.6641 12.9999C10.1118 12.9999 9.66406 13.4476 9.66406 13.9999C9.66406 14.5522 10.1118 14.9999 10.6641 14.9999H17.3307C17.883 14.9999 18.3307 14.5522 18.3307 13.9999C18.3307 13.4476 17.883 12.9999 17.3307 12.9999H10.6641Z" fill="#202533"/>
</svg>
