<svg width="48" height="48" viewBox="0 0 48 48" fill="none" xmlns="http://www.w3.org/2000/svg">
<g clip-path="url(#clip0_448_14201)">
<path d="M47.2805 29.8062C44.075 42.6634 31.0528 50.4882 18.194 47.2819C5.3405 44.0764 -2.48425 31.0534 0.722752 18.1969C3.92675 5.3382 16.949 -2.4873 29.804 0.718197C42.662 3.9237 50.486 16.9482 47.2805 29.8062Z" fill="#F7931A"/>
<path d="M34.5821 20.5815C35.0599 17.388 32.6284 15.6713 29.3036 14.526L30.3821 10.2L27.7489 9.54378L26.6989 13.7558C26.0066 13.5833 25.2956 13.4205 24.5891 13.2593L25.6466 9.01953L23.0149 8.36328L21.9356 12.6878C21.3626 12.5573 20.8001 12.4283 20.2541 12.2925L20.2571 12.279L16.6256 11.3723L15.9251 14.1848C15.9251 14.1848 17.8789 14.6325 17.8376 14.6603C18.9041 14.9265 19.0969 15.6323 19.0646 16.1918L17.8361 21.12C17.9096 21.1388 18.0049 21.1658 18.1099 21.2078C18.0221 21.186 17.9284 21.162 17.8316 21.1388L16.1096 28.0425C15.9791 28.3665 15.6484 28.8525 14.9029 28.668C14.9291 28.7063 12.9889 28.1903 12.9889 28.1903L11.6816 31.2045L15.1084 32.0588C15.7459 32.2185 16.3706 32.3858 16.9856 32.5433L15.8959 36.9188L18.5261 37.575L19.6054 33.246C20.3239 33.441 21.0214 33.621 21.7039 33.7905L20.6284 38.0993L23.2616 38.7555L24.3514 34.3883C28.8416 35.238 32.2181 34.8953 33.6394 30.834C34.7846 27.564 33.5824 25.6778 31.2199 24.4478C32.9404 24.051 34.2364 22.9193 34.5821 20.5815ZM28.5656 29.0183C27.7519 32.2883 22.2461 30.5205 20.4611 30.0773L21.9071 24.2805C23.6921 24.726 29.4161 25.608 28.5656 29.0183ZM29.3801 20.5343C28.6376 23.5088 24.0551 21.9975 22.5686 21.627L23.8796 16.3695C25.3661 16.74 30.1534 17.4315 29.3801 20.5343Z" fill="white"/>
</g>
<defs>
<clipPath id="clip0_448_14201">
<rect width="48" height="48" fill="white"/>
</clipPath>
</defs>
</svg>
