<svg width="32" height="32" viewBox="0 0 32 32" fill="none" xmlns="http://www.w3.org/2000/svg">
<path d="M9.27747 2.66675C9.83417 2.66675 10.2855 3.08002 10.2855 3.58982V5.45186C11.1796 5.43598 12.1818 5.43598 13.3094 5.43598H18.6854C19.813 5.43598 20.8152 5.43598 21.7093 5.45186V3.58982C21.7093 3.08002 22.1606 2.66675 22.7173 2.66675C23.274 2.66675 23.7253 3.08002 23.7253 3.58982V5.53353C25.6598 5.67538 26.9297 6.02352 27.8627 6.87791C28.7957 7.73231 29.1758 8.89526 29.3307 10.6667V12.0001H2.66406V10.6667C2.81896 8.89526 3.19913 7.73231 4.13212 6.87791C5.06511 6.02352 6.33504 5.67538 8.26948 5.53353V3.58982C8.26948 3.08002 8.72077 2.66675 9.27747 2.66675Z" fill="#202533"/>
<path opacity="0.25" d="M29.3307 18.6667V16C29.3307 14.8813 29.3138 12.887 29.2966 12H2.67187C2.65467 12.887 2.67158 14.8813 2.67158 16V18.6667C2.67158 23.695 2.67158 26.2091 4.23324 27.7712C5.7949 29.3333 8.30835 29.3333 13.3352 29.3333H18.6671C23.694 29.3333 26.2074 29.3333 27.7691 27.7712C29.3307 26.2091 29.3307 23.695 29.3307 18.6667Z" fill="#202533"/>
<path fill-rule="evenodd" clip-rule="evenodd" d="M25 22C23.3431 22 22 23.3431 22 25C22 26.6569 23.3431 28 25 28C26.6569 28 28 26.6569 28 25C28 23.3431 26.6569 22 25 22ZM20 25C20 22.2386 22.2386 20 25 20C27.7614 20 30 22.2386 30 25C30 26.0191 29.6951 26.967 29.1716 27.7574L31.0404 29.6262C31.431 30.0167 31.431 30.6499 31.0404 31.0404C30.6499 31.431 30.0167 31.431 29.6262 31.0404L27.7574 29.1716C26.967 29.6951 26.0191 30 25 30C22.2386 30 20 27.7614 20 25Z" fill="#202533"/>
</svg>
