<svg width="32" height="32" viewBox="0 0 32 32" fill="none" xmlns="http://www.w3.org/2000/svg">
<rect width="32" height="32" rx="16" fill="#272E3F" fill-opacity="0.2"/>
<path d="M20.3259 10C18.5881 10 17.0315 10.829 15.9898 12.1343C15.1548 13.1799 14.6501 14.5282 14.6501 16C14.6501 17.7225 13.3188 19.1191 11.6775 19.1191C10.0362 19.1191 8.70495 17.7225 8.70495 16C8.70495 15.8299 8.7185 15.6634 8.7439 15.5004C8.97256 14.0161 10.1988 12.8827 11.6775 12.8827C12.8344 12.8827 13.8354 13.5756 14.3266 14.5873C14.5417 13.5721 14.9854 12.6177 15.6274 11.812C15.6392 11.7977 15.6511 11.7833 15.6629 11.769C14.6365 10.7055 13.229 10.0483 11.6758 10.0483C8.70664 10.0483 6.26423 12.453 6.02033 15.5022C6.00678 15.667 6 15.8335 6 16.0018C6 19.2838 8.54573 21.9552 11.6758 21.9552C13.4001 21.9552 14.9465 21.1441 15.9881 19.8675C16.8367 18.8272 17.3516 17.4754 17.3516 16.0018C17.3516 14.2668 18.6829 12.8594 20.3242 12.8594C21.9654 12.8594 23.2967 14.2668 23.2967 16.0018C23.2967 16.1719 23.2832 16.3384 23.2595 16.5013C23.0325 18 21.8045 19.1441 20.3242 19.1441C19.1657 19.1441 18.1629 18.4423 17.6717 17.4199C17.4533 18.4369 17.001 19.3912 16.3455 20.1934C16.3337 20.2077 16.3218 20.222 16.31 20.2363C17.3381 21.325 18.7575 22 20.3242 22C23.2951 22 25.7392 19.5757 25.9797 16.4996C25.9932 16.3348 26 16.1683 26 16C26 12.6911 23.4543 10 20.3242 10H20.3259Z" fill="#272E3F"/>
</svg>
