<svg width="32" height="32" viewBox="0 0 32 32" fill="none" xmlns="http://www.w3.org/2000/svg">
<g opacity="0.25">
<path d="M18.6665 3.66699C21.2089 3.66699 23.0152 3.66912 24.3854 3.85334C25.7268 4.03369 26.4997 4.37192 27.064 4.9362C27.7135 5.58571 27.9962 6.08921 28.1528 6.98678C28.3293 7.99846 28.3332 9.44155 28.3332 12.0003C28.3332 12.5526 28.7809 13.0003 29.3332 13.0003C29.8855 13.0003 30.3332 12.5526 30.3332 12.0003L30.3332 11.8719C30.3332 9.47299 30.3333 7.84793 30.123 6.64298C29.8891 5.30253 29.3908 4.43457 28.4782 3.52198C27.4804 2.52417 26.2151 2.08134 24.6519 1.87117C23.1329 1.66696 21.1921 1.66697 18.7418 1.66699H18.6665C18.1142 1.66699 17.6665 2.11471 17.6665 2.66699C17.6665 3.21928 18.1142 3.66699 18.6665 3.66699Z" fill="#272E3F"/>
<path d="M2.66651 19.0003C3.2188 19.0003 3.66651 19.448 3.66651 20.0003C3.66651 22.5591 3.67035 24.0022 3.84689 25.0139C4.00351 25.9114 4.2862 26.4149 4.93572 27.0645C5.49999 27.6287 6.27286 27.967 7.61431 28.1473C8.98453 28.3315 10.7908 28.3337 13.3332 28.3337C13.8855 28.3337 14.3332 28.7814 14.3332 29.3337C14.3332 29.8859 13.8855 30.3337 13.3332 30.3337H13.258C10.8076 30.3337 8.86677 30.3337 7.34781 30.1295C5.78458 29.9193 4.51932 29.4765 3.5215 28.4787C2.60892 27.5661 2.11056 26.6981 1.87666 25.3577C1.6664 24.1527 1.66644 22.5277 1.66651 20.1288L1.66651 20.0003C1.66651 19.448 2.11423 19.0003 2.66651 19.0003Z" fill="#272E3F"/>
<path d="M29.3332 19.0003C29.8855 19.0003 30.3332 19.448 30.3332 20.0003L30.3332 20.1287C30.3332 22.5277 30.3333 24.1527 30.123 25.3577C29.8891 26.6981 29.3908 27.5661 28.4782 28.4787C27.4804 29.4765 26.2151 29.9193 24.6519 30.1295C23.1329 30.3337 21.1921 30.3337 18.7417 30.3337H18.6665C18.1142 30.3337 17.6665 29.8859 17.6665 29.3337C17.6665 28.7814 18.1142 28.3337 18.6665 28.3337C21.2089 28.3337 23.0152 28.3315 24.3854 28.1473C25.7268 27.967 26.4997 27.6287 27.064 27.0645C27.7135 26.4149 27.9962 25.9114 28.1528 25.0139C28.3293 24.0022 28.3332 22.5591 28.3332 20.0003C28.3332 19.448 28.7809 19.0003 29.3332 19.0003Z" fill="#272E3F"/>
<path d="M13.258 1.66699H13.3332C13.8855 1.66699 14.3332 2.11471 14.3332 2.66699C14.3332 3.21928 13.8855 3.66699 13.3332 3.66699C10.7908 3.66699 8.98453 3.66912 7.61431 3.85334C6.27286 4.03369 5.49999 4.37192 4.93572 4.9362C4.2862 5.58571 4.00351 6.08921 3.84689 6.98678C3.67035 7.99846 3.66651 9.44155 3.66651 12.0003C3.66651 12.5526 3.2188 13.0003 2.66651 13.0003C2.11423 13.0003 1.66651 12.5526 1.66651 12.0003L1.66651 11.8719C1.66644 9.47303 1.6664 7.84792 1.87666 6.64298C2.11056 5.30253 2.60892 4.43457 3.5215 3.52198C4.51932 2.52417 5.78458 2.08134 7.34781 1.87117C8.86676 1.66696 10.8076 1.66697 13.258 1.66699Z" fill="#272E3F"/>
</g>
<path d="M15.9998 14.333C15.0794 14.333 14.3332 15.0792 14.3332 15.9997C14.3332 16.9201 15.0794 17.6663 15.9998 17.6663C16.9203 17.6663 17.6665 16.9201 17.6665 15.9997C17.6665 15.0792 16.9203 14.333 15.9998 14.333Z" fill="#272E3F"/>
<path fill-rule="evenodd" clip-rule="evenodd" d="M7.8564 18.7461C7.06314 17.8259 6.6665 17.3658 6.6665 15.9997C6.6665 14.6335 7.06314 14.1734 7.8564 13.2533C9.44034 11.416 12.0967 9.33301 15.9998 9.33301C19.9029 9.33301 22.5593 11.416 24.1433 13.2533C24.9365 14.1734 25.3332 14.6335 25.3332 15.9997C25.3332 17.3658 24.9365 17.8259 24.1433 18.7461C22.5593 20.5834 19.9029 22.6663 15.9998 22.6663C12.0967 22.6663 9.44034 20.5834 7.8564 18.7461ZM12.3332 15.9997C12.3332 13.9746 13.9748 12.333 15.9998 12.333C18.0249 12.333 19.6665 13.9746 19.6665 15.9997C19.6665 18.0247 18.0249 19.6663 15.9998 19.6663C13.9748 19.6663 12.3332 18.0247 12.3332 15.9997Z" fill="#272E3F"/>
</svg>
