<svg width="32" height="32" viewBox="0 0 32 32" fill="none" xmlns="http://www.w3.org/2000/svg">
<path opacity="0.2" d="M9.66002 2.66699H22.34C23.8851 2.66699 24.6577 2.66699 25.2808 2.8838C26.4624 3.29493 27.39 4.24991 27.7894 5.46627C28 6.10772 28 6.90306 28 8.49374V27.1659C28 28.3102 26.6867 28.9174 25.8559 28.1571C25.3678 27.7105 24.6322 27.7105 24.1441 28.1571L23.5 28.7466C22.6446 29.5294 21.3554 29.5294 20.5 28.7466C19.6446 27.9638 18.3554 27.9638 17.5 28.7466C16.6446 29.5294 15.3554 29.5294 14.5 28.7466C13.6446 27.9638 12.3554 27.9638 11.5 28.7466C10.6446 29.5294 9.35545 29.5294 8.5 28.7466L7.85587 28.1571C7.36777 27.7105 6.63223 27.7105 6.14413 28.1571C5.31333 28.9174 4 28.3102 4 27.1659V8.49374C4 6.90306 4 6.10772 4.21061 5.46627C4.60997 4.24991 5.53763 3.29493 6.71918 2.8838C7.34228 2.66699 8.11486 2.66699 9.66002 2.66699Z" fill="#272E3F"/>
<path d="M20.0793 11.333C20.4471 10.921 20.4113 10.2889 19.9993 9.92106C19.5874 9.55323 18.9552 9.58902 18.5874 10.001L14.5714 14.4989L13.4126 13.201C13.0448 12.789 12.4126 12.7532 12.0007 13.1211C11.5887 13.4889 11.5529 14.121 11.9207 14.533L13.8255 16.6664C14.0152 16.8788 14.2866 17.0003 14.5714 17.0003C14.8563 17.0003 15.1276 16.8788 15.3174 16.6664L20.0793 11.333Z" fill="#272E3F"/>
<path d="M10 19.667C9.44772 19.667 9 20.1147 9 20.667C9 21.2193 9.44772 21.667 10 21.667H22C22.5523 21.667 23 21.2193 23 20.667C23 20.1147 22.5523 19.667 22 19.667H10Z" fill="#272E3F"/>
</svg>
