<svg width="32" height="32" viewBox="0 0 32 32" fill="none" xmlns="http://www.w3.org/2000/svg">
<path d="M12.3333 18.6667C14.5424 18.6667 16.3333 20.4576 16.3333 22.6667C16.3333 24.8758 14.5424 26.6667 12.3333 26.6667C10.1241 26.6667 8.33325 24.8758 8.33325 22.6667C8.33325 20.4576 10.1241 18.6667 12.3333 18.6667Z" fill="#1C274C"/>
<path d="M18.9999 5.33337C16.7908 5.33337 14.9999 7.12423 14.9999 9.33337C14.9999 11.5425 16.7908 13.3334 18.9999 13.3334C21.2091 13.3334 22.9999 11.5425 22.9999 9.33337C22.9999 7.12424 21.2091 5.33337 18.9999 5.33337Z" fill="#1C274C"/>
<g opacity="0.5">
<path d="M22.8877 10.2781C22.9611 9.97518 22.9999 9.65881 22.9999 9.33337C22.9999 8.9681 22.951 8.61427 22.8592 8.27808H28.9999C29.5522 8.27808 29.9999 8.72579 29.9999 9.27808C29.9999 9.83036 29.5522 10.2781 28.9999 10.2781L22.8877 10.2781Z" fill="#1C274C"/>
<path d="M15.1406 8.27808C15.0489 8.61427 14.9999 8.9681 14.9999 9.33337C14.9999 9.65881 15.0388 9.97518 15.1121 10.2781L2.33325 10.2781C1.78097 10.2781 1.33325 9.83036 1.33325 9.27808C1.33325 8.72579 1.78097 8.27808 2.33325 8.27808H15.1406Z" fill="#1C274C"/>
<path d="M8.47393 21.6114H2.33325C1.78097 21.6114 1.33325 22.0591 1.33325 22.6114C1.33325 23.1637 1.78097 23.6114 2.33325 23.6114H8.44546C8.37212 23.3085 8.33325 22.9921 8.33325 22.6667C8.33325 22.3014 8.38221 21.9476 8.47393 21.6114Z" fill="#1C274C"/>
<path d="M16.221 23.6114H28.9999C29.5522 23.6114 29.9999 23.1637 29.9999 22.6114C29.9999 22.0591 29.5522 21.6114 28.9999 21.6114H16.1926C16.2843 21.9476 16.3333 22.3014 16.3333 22.6667C16.3333 22.9921 16.2944 23.3085 16.221 23.6114Z" fill="#1C274C"/>
</g>
</svg>
