<svg width="32" height="32" viewBox="0 0 32 32" fill="none" xmlns="http://www.w3.org/2000/svg">
<path opacity="0.2" d="M2.6665 16.0003C2.6665 9.71493 2.6665 6.57223 4.61913 4.61961C6.57175 2.66699 9.71444 2.66699 15.9998 2.66699C22.2852 2.66699 25.4279 2.66699 27.3805 4.61961C29.3332 6.57223 29.3332 9.71493 29.3332 16.0003C29.3332 22.2857 29.3332 25.4284 27.3805 27.381C25.4279 29.3337 22.2852 29.3337 15.9998 29.3337C9.71444 29.3337 6.57175 29.3337 4.61913 27.381C2.6665 25.4284 2.6665 22.2857 2.6665 16.0003Z" fill="#272E3F"/>
<path d="M29.3335 6.66699C29.3335 8.87613 27.5426 10.667 25.3335 10.667C23.1244 10.667 21.3335 8.87613 21.3335 6.66699C21.3335 4.45785 23.1244 2.66699 25.3335 2.66699C27.5426 2.66699 29.3335 4.45785 29.3335 6.66699Z" fill="#272E3F"/>
<path d="M19.3335 14.333C18.7812 14.333 18.3335 13.8853 18.3335 13.333C18.3335 12.7807 18.7812 12.333 19.3335 12.333H22.6668C23.2191 12.333 23.6668 12.7807 23.6668 13.333V16.6663C23.6668 17.2186 23.2191 17.6663 22.6668 17.6663C22.1145 17.6663 21.6668 17.2186 21.6668 16.6663V15.7472L18.9834 18.4306C18.0722 19.3419 16.5948 19.3419 15.6836 18.4306L13.5692 16.3163C13.439 16.1861 13.228 16.1861 13.0978 16.3163L10.0406 19.3734C9.65008 19.764 9.01691 19.764 8.62639 19.3734C8.23587 18.9829 8.23587 18.3498 8.62639 17.9592L11.6836 14.902C12.5948 13.9908 14.0722 13.9908 14.9834 14.902L17.0978 17.0164C17.228 17.1466 17.439 17.1466 17.5692 17.0164L20.2526 14.333H19.3335Z" fill="#272E3F"/>
</svg>
