<svg width="32" height="32" viewBox="0 0 32 32" fill="none" xmlns="http://www.w3.org/2000/svg">
<path fill-rule="evenodd" clip-rule="evenodd" d="M18.6665 27.3337V5.66699C18.6665 4.69591 18.6644 4.0682 18.6022 3.6057C18.5439 3.17196 18.4497 3.03601 18.3736 2.95989C18.2975 2.88376 18.1615 2.78961 17.7278 2.7313C17.2653 2.66912 16.6376 2.66699 15.6665 2.66699C14.6954 2.66699 14.0677 2.66912 13.6052 2.7313C13.1715 2.78961 13.0355 2.88376 12.9594 2.95989C12.8833 3.03601 12.7891 3.17196 12.7308 3.6057C12.6686 4.0682 12.6665 4.69591 12.6665 5.66699V27.3337H18.6665Z" fill="#272E3F"/>
<path opacity="0.5" d="M10.6665 11.667C10.6665 11.1147 10.2188 10.667 9.6665 10.667H5.6665C5.11422 10.667 4.6665 11.1147 4.6665 11.667V27.3337H10.6665V11.667Z" fill="#272E3F"/>
<path opacity="0.5" d="M26.6665 18.333C26.6665 17.7807 26.2188 17.333 25.6665 17.333H21.6665C21.1142 17.333 20.6665 17.7807 20.6665 18.333V27.333H26.6665V18.333Z" fill="#272E3F"/>
<path opacity="0.2" d="M2.3335 27.333C1.78121 27.333 1.3335 27.7807 1.3335 28.333C1.3335 28.8853 1.78121 29.333 2.3335 29.333H29.0002C29.5524 29.333 30.0002 28.8853 30.0002 28.333C30.0002 27.7807 29.5524 27.333 29.0002 27.333H28.6668H26.6668H20.6668H18.6668H12.6668H10.6668H4.66683H2.66683H2.3335Z" fill="#272E3F"/>
</svg>
