<svg width="32" height="32" viewBox="0 0 32 32" fill="none" xmlns="http://www.w3.org/2000/svg">
<path opacity="0.2" d="M28 21.3297V13.3297V13.3297C28 9.55847 28 7.67286 26.8284 6.50129C25.8039 5.47678 24.2334 5.34817 21.3333 5.33203H10.6667C7.76663 5.34817 6.19608 5.47678 5.17157 6.50129C4 7.67286 4 9.55848 4 13.3297V21.3297C4 25.101 4 26.9866 5.17157 28.1581C6.34315 29.3297 8.22876 29.3297 12 29.3297H20C23.7712 29.3297 25.6569 29.3297 26.8284 28.1581C28 26.9866 28 25.101 28 21.3297V21.3297Z" fill="#272E3F"/>
<path d="M10.6665 4.66797C10.6665 3.5634 11.5619 2.66797 12.6665 2.66797H19.3332C20.4377 2.66797 21.3332 3.5634 21.3332 4.66797V6.0013C21.3332 7.10587 20.4377 8.0013 19.3332 8.0013H12.6665C11.5619 8.0013 10.6665 7.10587 10.6665 6.0013V4.66797Z" fill="#272E3F"/>
<path fill-rule="evenodd" clip-rule="evenodd" d="M20.7311 13.9857C21.1079 14.3894 21.0861 15.0222 20.6823 15.399L14.968 20.7324C14.5838 21.091 13.9876 21.091 13.6034 20.7324L11.3177 18.599C10.9139 18.2222 10.8921 17.5894 11.2689 17.1857C11.6458 16.7819 12.2786 16.7601 12.6823 17.1369L14.2857 18.6334L19.3177 13.9369C19.7214 13.5601 20.3542 13.5819 20.7311 13.9857Z" fill="#272E3F"/>
</svg>
