<svg width="123" height="28" viewBox="0 0 123 28" fill="none" xmlns="http://www.w3.org/2000/svg">
<path d="M119.814 15.4712C119.814 13.8794 118.876 12.6753 117.386 12.6753C115.896 12.6753 114.957 13.8794 114.957 15.4712C114.957 17.063 115.896 18.2671 117.386 18.2671C118.876 18.2671 119.814 17.063 119.814 15.4712ZM119.733 11.6141V7.43048C119.733 7.14477 119.916 6.92029 120.182 6.83866L122.386 6.24683V20.3691H119.937V19.1651C119.325 20.063 118.202 20.5936 116.814 20.5936C113.957 20.5936 112.304 18.3079 112.304 15.4508C112.304 12.5937 113.978 10.308 116.814 10.308C118.223 10.3284 119.223 10.9202 119.733 11.6141ZM104.631 10.5529V11.757C105.08 10.9202 106.101 10.3284 107.549 10.3284C109.917 10.3284 111.162 11.8998 111.162 14.2467V20.3895H108.509V14.5529C108.509 13.41 108.019 12.6141 106.835 12.6141C105.55 12.6141 104.835 13.4304 104.835 14.7569V20.3895H102.182V10.5733H104.631V10.5529ZM95.958 20.614C93.0806 20.614 91.4888 19.3691 91.4888 16.1855V10.5529H94.1418V16.2263C94.1418 17.5936 94.754 18.2263 95.9376 18.2263C97.1213 18.2263 97.7335 17.5936 97.7335 16.2263V10.5529H100.386V16.1855C100.407 19.3691 98.8151 20.614 95.958 20.614ZM82.6932 15.4712C82.6932 17.2263 83.7748 18.2671 85.1829 18.2671C86.591 18.2671 87.6726 17.2263 87.6726 15.4712C87.6726 13.7161 86.591 12.6753 85.1829 12.6753C83.7952 12.6753 82.6932 13.6957 82.6932 15.4712ZM85.1829 20.614C82.0401 20.614 80.0198 18.2671 80.0198 15.4712C80.0198 12.6753 82.0197 10.3284 85.1829 10.3284C88.3256 10.3284 90.346 12.6753 90.346 15.4712C90.346 18.2671 88.3461 20.614 85.1829 20.614ZM71.918 15.4712C71.918 17.063 72.8568 18.2671 74.3465 18.2671C75.8363 18.2671 76.775 17.063 76.775 15.4712C76.775 13.8794 75.8363 12.6753 74.3465 12.6753C72.8568 12.6753 71.918 13.8794 71.918 15.4712ZM71.9997 19.3283V23.4099C71.9997 23.6956 71.816 23.9201 71.5507 24.0017L69.3467 24.5732V10.5529H71.7956V11.757C72.4078 10.859 73.5302 10.3284 74.9179 10.3284C77.775 10.3284 79.428 12.6141 79.428 15.4712C79.428 18.3283 77.7546 20.614 74.9179 20.614C73.5098 20.614 72.5099 20.0018 71.9997 19.3283ZM61.4286 14.7978V20.3895H58.7756V14.5529C58.7756 13.4712 58.3879 12.6141 57.2043 12.6141C55.9594 12.6141 55.286 13.41 55.286 14.7365V20.3895H52.633V10.5529H55.0819V11.757C55.5308 10.9202 56.5104 10.3284 57.9185 10.3284C59.245 10.3284 60.2042 10.859 60.7756 11.7162C61.6327 10.757 62.6326 10.3284 64.0408 10.3284C66.408 10.3284 67.6121 11.9611 67.6121 14.2467V20.3895H64.9591V14.5529C64.9591 13.4712 64.5714 12.6141 63.3877 12.6141C62.0816 12.6141 61.4286 13.4304 61.4286 14.7978ZM43.7353 15.4712C43.7353 17.2263 44.8169 18.2671 46.225 18.2671C47.6332 18.2671 48.7148 17.2263 48.7148 15.4712C48.7148 13.7161 47.6332 12.6753 46.225 12.6753C44.8169 12.6753 43.7353 13.6957 43.7353 15.4712ZM46.225 20.614C43.0823 20.614 41.062 18.2671 41.062 15.4712C41.062 12.6753 43.0619 10.3284 46.225 10.3284C49.3882 10.3284 51.3881 12.6753 51.3881 15.4712C51.3881 18.2671 49.3678 20.614 46.225 20.614ZM27.2461 13.6957C27.2461 9.53251 30.1235 6.77743 33.9397 6.77743C37.2662 6.77743 39.8783 8.7366 40.3885 11.9815H37.4702C37.0825 10.308 35.7356 9.36924 33.9397 9.36924C31.5113 9.36924 30.1235 11.0631 30.1235 13.6753C30.1235 16.3079 31.4908 17.9814 33.9397 17.9814C35.7152 17.9814 37.0621 17.0426 37.4702 15.3692H40.3885C39.8783 18.614 37.2662 20.5732 33.9397 20.5732C30.1235 20.6344 27.2461 17.8589 27.2461 13.6957Z" fill="black"/>
<path d="M1.102 21.2092C0.428557 20.801 0 20.0459 0 19.2704V14.8419C0 14.6786 0.040815 14.5154 0.122445 14.3725C0.387742 13.9235 0.979559 13.7603 1.42852 14.0256L11.4282 19.8623C12.02 20.2092 12.3669 20.8214 12.3669 21.5153V26.1071C12.3669 26.3112 12.3057 26.5153 12.2037 26.6989C11.8772 27.2295 11.1629 27.4132 10.6323 27.0867L1.102 21.2092ZM16.0199 12.8011C16.6117 13.1481 16.9586 13.7603 16.9586 14.4542V23.7806C16.9586 24.0663 16.8158 24.3112 16.5709 24.4541L14.3873 25.6785C14.3669 25.6989 14.3261 25.6989 14.3056 25.7193V20.5561C14.3056 19.8827 13.9587 19.2704 13.3873 18.9235L4.61209 13.6787V7.78076C4.61209 7.6175 4.6529 7.45423 4.73454 7.31138C4.99983 6.8624 5.59165 6.69914 6.04061 6.96444L16.0199 12.8011ZM20.3871 5.90323C20.9789 6.25016 21.3258 6.8624 21.3258 7.55627V21.1684C21.3258 21.4541 21.1626 21.699 20.9177 21.8418L18.8361 22.9643V13.495C18.8361 12.8215 18.4892 12.2093 17.9178 11.8623L8.93848 6.47465V0.944096C8.93848 0.780833 8.97929 0.617572 9.06092 0.474716C9.32622 0.0257412 9.91804 -0.137525 10.367 0.127778L20.3871 5.90323Z" fill="#00D395"/>
</svg>
