<svg width="32" height="32" viewBox="0 0 32 32" fill="none" xmlns="http://www.w3.org/2000/svg">
<path opacity="0.25" d="M29.115 14.8352L28.8094 18.0822C28.3059 23.4323 28.0541 26.1074 26.4773 27.7204C24.9004 29.3334 22.5372 29.3334 17.8106 29.3334H14.1842C9.45762 29.3334 7.09434 29.3334 5.51752 27.7204C3.9407 26.1074 3.68893 23.4323 3.1854 18.0821L2.87981 14.8352C2.6398 12.285 2.51979 11.0099 2.95604 10.4828C3.19203 10.1977 3.51294 10.023 3.85604 9.99288C4.49031 9.93717 5.28684 10.844 6.87989 12.6575C7.70375 13.5954 8.11568 14.0644 8.57523 14.137C8.82985 14.1772 9.08929 14.1358 9.32441 14.0175C9.74874 13.804 10.0317 13.2242 10.5975 12.0648L13.58 5.95323C14.6492 3.76224 15.1838 2.66675 15.9974 2.66675C16.811 2.66675 17.3456 3.76224 18.4148 5.95322L21.3973 12.0648C21.9631 13.2242 22.246 13.804 22.6704 14.0175C22.9055 14.1358 23.1649 14.1772 23.4196 14.137C23.8791 14.0644 24.291 13.5954 25.1149 12.6575C26.708 10.844 27.5045 9.93717 28.1387 9.99288C28.4819 10.023 28.8028 10.1977 29.0387 10.4828C29.475 11.0099 29.355 12.285 29.115 14.8352Z" fill="#202533"/>
<path d="M11 24C11 23.4477 11.4477 23 12 23H20C20.5523 23 21 23.4477 21 24C21 24.5523 20.5523 25 20 25H12C11.4477 25 11 24.5523 11 24Z" fill="#202533"/>
</svg>
