<svg width="32" height="32" viewBox="0 0 32 32" fill="none" xmlns="http://www.w3.org/2000/svg">
<path fill-rule="evenodd" clip-rule="evenodd" d="M13.8741 29.9742L14.2408 29.3546C14.8286 28.3616 15.1225 27.865 15.5907 27.5881C16.0588 27.3112 16.6695 27.2917 17.8908 27.2526C19.036 27.216 19.8056 27.116 20.4637 26.8434C21.8493 26.2695 22.9501 25.1687 23.524 23.7832C23.9544 22.744 23.9544 21.4267 23.9544 18.7919V17.661C23.9544 13.959 23.9544 12.108 23.1212 10.7482C22.6549 9.98733 22.0152 9.34762 21.2543 8.88136C19.8946 8.0481 18.0436 8.0481 14.3416 8.0481H10.9488C7.24679 8.0481 5.39579 8.0481 4.03603 8.88136C3.27517 9.34762 2.63546 9.98733 2.1692 10.7482C1.33594 12.108 1.33594 13.959 1.33594 17.661V18.7919C1.33594 21.4267 1.33594 22.744 1.76637 23.7832C2.34028 25.1687 3.44109 26.2695 4.82663 26.8434C5.48472 27.116 6.25437 27.216 7.39953 27.2526C8.62084 27.2917 9.2315 27.3112 9.69965 27.5881C10.1678 27.865 10.4617 28.3616 11.0495 29.3546L11.4162 29.9742C11.9626 30.8974 13.3277 30.8974 13.8741 29.9742ZM17.593 19.3573C18.3737 19.3573 19.0066 18.7244 19.0066 17.9437C19.0066 17.1629 18.3737 16.53 17.593 16.53C16.8122 16.53 16.1793 17.1629 16.1793 17.9437C16.1793 18.7244 16.8122 19.3573 17.593 19.3573ZM14.0588 17.9437C14.0588 18.7244 13.4259 19.3573 12.6452 19.3573C11.8644 19.3573 11.2315 18.7244 11.2315 17.9437C11.2315 17.1629 11.8644 16.53 12.6452 16.53C13.4259 16.53 14.0588 17.1629 14.0588 17.9437ZM7.69738 19.3573C8.47812 19.3573 9.11104 18.7244 9.11104 17.9437C9.11104 17.1629 8.47812 16.53 7.69738 16.53C6.91664 16.53 6.28373 17.1629 6.28373 17.9437C6.28373 18.7244 6.91664 19.3573 7.69738 19.3573Z" fill="#202533"/>
<path opacity="0.25" d="M20.6454 1.33325C22.3346 1.33324 23.6778 1.33323 24.7551 1.43566C25.8597 1.54069 26.7937 1.76084 27.6256 2.27068C28.4816 2.79522 29.2013 3.5149 29.7258 4.37086C30.2357 5.20284 30.4558 6.13679 30.5608 7.24141C30.6633 8.31868 30.6632 9.66202 30.6632 11.3512V12.5048C30.6632 13.707 30.6632 14.6632 30.6103 15.4386C30.5562 16.2319 30.4432 16.913 30.179 17.5509C29.5334 19.1096 28.295 20.348 26.7362 20.9937C26.6972 21.0098 26.6581 21.0254 26.6187 21.0405C26.4306 21.1124 26.2693 21.174 26.1278 21.2199H23.9276C23.9492 20.5545 23.9492 19.7621 23.9492 18.7906V17.6597C23.9492 13.9577 23.9492 12.1067 23.1159 10.7469C22.6497 9.98603 22.01 9.34632 21.2491 8.88006C19.8894 8.04679 18.0384 8.04679 14.3364 8.04679H10.9436C9.62971 8.04679 8.54898 8.04679 7.64062 8.08404V5.88351C7.68424 5.73238 7.74399 5.55914 7.81413 5.35578C7.93342 5.00993 8.08419 4.68284 8.27536 4.37087C8.7999 3.51489 9.51957 2.79522 10.3755 2.27068C11.2075 1.76084 12.1415 1.54069 13.2461 1.43566C14.3234 1.33323 15.6666 1.33324 17.3558 1.33325H20.6454Z" fill="#202533"/>
</svg>
