<svg width="32" height="32" viewBox="0 0 32 32" fill="none" xmlns="http://www.w3.org/2000/svg">
<path opacity="0.2" fill-rule="evenodd" clip-rule="evenodd" d="M29.3327 16.0001C29.3327 23.3639 23.3631 29.3334 15.9993 29.3334C8.63555 29.3334 2.66602 23.3639 2.66602 16.0001C2.66602 8.63628 8.63555 2.66675 15.9993 2.66675C23.3631 2.66675 29.3327 8.63628 29.3327 16.0001Z" fill="#1E2330"/>
<path fill-rule="evenodd" clip-rule="evenodd" d="M16 7C16.5523 7 17 7.44772 17 8V8.42231C19.1739 8.81156 21 10.4448 21 12.6667C21 13.219 20.5523 13.6667 20 13.6667C19.4477 13.6667 19 13.219 19 12.6667C19 11.7621 18.2479 10.8045 17 10.4633V15.089C19.1739 15.4782 21 17.1115 21 19.3333C21 21.5552 19.1739 23.1884 17 23.5777V24C17 24.5523 16.5523 25 16 25C15.4477 25 15 24.5523 15 24V23.5777C12.8261 23.1884 11 21.5552 11 19.3333C11 18.781 11.4477 18.3333 12 18.3333C12.5523 18.3333 13 18.781 13 19.3333C13 20.2379 13.7521 21.1955 15 21.5367V16.911C12.8261 16.5218 11 14.8885 11 12.6667C11 10.4448 12.8261 8.81156 15 8.42231V8C15 7.44772 15.4477 7 16 7ZM15 10.4633C13.7521 10.8045 13 11.7621 13 12.6667C13 13.5713 13.7521 14.5288 15 14.87V10.4633ZM19 19.3333C19 18.4287 18.2479 17.4712 17 17.13V21.5367C18.2479 21.1955 19 20.2379 19 19.3333Z" fill="#1E2330"/>
</svg>
