<svg width="16" height="16" viewBox="0 0 16 16" fill="none" xmlns="http://www.w3.org/2000/svg">
<path d="M7.66953 12.7812H13.4211M1.91797 12.7812H2.98811C3.30073 12.7812 3.45704 12.7812 3.60413 12.7459C3.73455 12.7146 3.85922 12.663 3.97358 12.5929C4.10257 12.5138 4.21309 12.4033 4.43415 12.1823L12.4625 4.15386C12.992 3.62444 12.992 2.76608 12.4625 2.23666C11.9331 1.70724 11.0748 1.70725 10.5454 2.23666L2.51694 10.2651C2.29588 10.4861 2.18536 10.5966 2.10631 10.7256C2.03624 10.84 1.98459 10.9647 1.95328 11.0951C1.91797 11.2422 1.91797 11.3985 1.91797 11.7111V12.7812Z" stroke="#3E4555" stroke-width="1.27813" stroke-linecap="round" stroke-linejoin="round"/>
</svg>
