<svg width="290" height="75" viewBox="0 0 290 75" fill="none" xmlns="http://www.w3.org/2000/svg">
<g clip-path="url(#clip0_457_21544)">
<path d="M2.51562 22.505V51.5139C2.51562 53.2921 3.54802 55.0703 5.03282 55.9536L30.1468 70.458C31.7708 71.3413 33.6964 71.3413 35.3204 70.458L60.4344 55.9536C62.0584 55.0703 62.9516 53.2921 62.9516 51.5139V22.505C62.9516 20.7268 61.9192 18.9486 60.4344 18.0654L35.3088 3.5609C33.6848 2.67762 31.7592 2.67762 30.1352 3.5609L5.02122 18.0654C3.39722 18.9486 2.51562 20.7268 2.51562 22.505Z" fill="#213147"/>
<path d="M38.2682 42.6399L34.7186 52.4141C34.5678 52.7047 34.5678 53.0068 34.7186 53.2974L40.9246 70.1728L48.0122 66.0237L39.4398 42.6399C39.3006 42.0471 38.5582 42.0471 38.2682 42.6399Z" fill="#12AAFF"/>
<path d="M45.3537 26.0695C45.2029 25.4768 44.4721 25.4768 44.1705 26.0695L40.6209 35.8438C40.4701 36.1343 40.4701 36.4365 40.6209 36.7271L50.6665 64.4111L57.7541 60.262L45.3537 26.0695Z" fill="#12AAFF"/>
<path d="M32.6604 4.59857C32.8112 4.59857 32.9504 4.59857 33.1012 4.74966L60.28 20.4396C60.57 20.5907 60.7208 20.8812 60.7208 21.3229V52.7028C60.7208 52.9933 60.57 53.4466 60.28 53.586L33.1012 69.276C32.9504 69.4271 32.8112 69.4271 32.6604 69.4271C32.5096 69.4271 32.3704 69.4271 32.2196 69.276L5.04079 53.586C4.75079 53.435 4.59999 53.1444 4.59999 52.7028V21.3229C4.59999 21.0323 4.75079 20.5791 5.04079 20.4396L32.2196 4.74966C32.3588 4.59857 32.5096 4.59857 32.6604 4.59857ZM32.6604 0.0078125C31.628 0.0078125 30.7348 0.298367 29.8532 0.751632L2.67439 16.4416C0.899588 17.4759 -0.132812 19.2541 -0.132812 21.3229V52.7028C-0.132812 54.632 0.899588 56.5497 2.67439 57.5841L29.8532 73.274C30.7348 73.7157 31.628 74.0178 32.6604 74.0178C33.6928 74.0178 34.586 73.7273 35.4676 73.274L62.6464 57.5841C64.4212 56.5497 65.4536 54.7715 65.4536 52.7028V21.3229C65.4536 19.3936 64.4212 17.4759 62.6464 16.4416L35.6068 0.751632C34.7252 0.309989 33.832 0.0078125 32.7996 0.0078125H32.6604Z" fill="#9DCCED"/>
<path d="M14.7812 64.3965L17.2868 57.5859L22.3096 61.7351L17.5885 66.1747L14.7812 64.3965Z" fill="#213147"/>
<path d="M30.4375 19.0938H23.4891C23.0483 19.0938 22.4567 19.3843 22.3059 19.8376L7.53906 60.3873L14.6267 64.5364L30.8783 19.977C31.0291 19.5354 30.7275 19.0938 30.2867 19.0938H30.4375Z" fill="white"/>
<path d="M42.3968 19.1004H35.4484C35.0076 19.1004 34.416 19.391 34.2652 19.8442L17.4336 66.0191L24.5212 70.1682L42.8376 19.8442C42.9884 19.4026 42.6868 18.9609 42.246 18.9609L42.3968 19.1004Z" fill="white"/>
<path d="M94.7021 27.5391C95.4445 27.5391 96.0361 27.6902 96.4769 27.9807C96.9177 28.2713 97.3585 28.864 97.8109 29.6078L106.824 45.8905C106.975 46.0416 106.975 46.181 106.824 46.3321C106.824 46.4832 106.673 46.4832 106.383 46.4832H102.984C102.694 46.4832 102.544 46.3321 102.393 46.1926L100.456 42.6363H87.7537L85.8281 46.1926C85.6773 46.4832 85.5381 46.4832 85.2365 46.4832H81.6869C81.3969 46.4832 81.2461 46.4832 81.2461 46.3321C81.2461 46.181 81.2461 46.0416 81.2461 45.8905L90.1085 29.6078C90.5493 28.7245 90.9901 28.2713 91.4425 27.9807C91.8949 27.6902 92.3241 27.5391 92.9157 27.5391H94.5397H94.7021ZM89.3777 39.5331H98.6809L94.4005 31.5371C94.2497 31.386 94.2497 31.386 94.1105 31.386H93.9597C93.8089 31.386 93.6697 31.386 93.6697 31.5371L89.3777 39.5331Z" fill="#213147"/>
<path d="M126.46 27.5391C128.525 27.5391 130.01 27.9807 130.891 29.0151C131.773 29.8984 132.225 31.386 132.225 33.1642V34.6402C132.225 36.2673 131.935 37.4528 131.344 38.3361C130.752 39.2193 129.72 39.8121 128.247 40.1143L132.829 45.8905C132.979 46.0416 132.979 46.181 132.979 46.3321C132.979 46.4832 132.829 46.6227 132.539 46.6227H128.989C128.699 46.6227 128.548 46.6227 128.548 46.4716C128.397 46.4716 128.397 46.3205 128.258 46.181L123.978 40.5559H115.266V46.0299C115.266 46.4716 115.115 46.6227 114.675 46.6227H111.717C111.276 46.6227 111.125 46.4716 111.125 46.0299V28.4223C111.125 27.8296 111.415 27.5391 112.007 27.5391H126.634H126.46ZM115.231 37.3017H125.567C126.449 37.3017 127.191 37.1506 127.493 36.709C127.933 36.2673 128.084 35.6746 128.084 34.9308V33.7453C128.084 32.862 127.933 32.2693 127.493 31.9671C127.052 31.5255 126.46 31.3744 125.567 31.3744H115.521C115.231 31.3744 115.231 31.5255 115.231 31.6649V37.3017Z" fill="#213147"/>
<path d="M154.973 27.5391C156.899 27.5391 158.221 27.9807 158.963 28.7245C159.706 29.4683 160.147 30.6538 160.147 32.1298V33.4664C160.147 34.9424 159.555 36.1278 158.372 36.8717C159.555 37.6155 160.297 38.8009 160.297 40.428V42.0552C160.297 42.799 160.147 43.3917 160.007 43.9844C159.868 44.5772 159.567 45.0188 159.265 45.4605C158.824 45.9021 158.383 46.2043 157.792 46.3437C157.2 46.4948 156.458 46.6343 155.576 46.6343H139.475C138.884 46.6343 138.594 46.3437 138.594 45.751V28.434C138.594 27.8412 138.884 27.5507 139.475 27.5507H155.135H154.973V27.5391ZM142.712 35.384H153.79C154.671 35.384 155.263 35.2329 155.565 34.9424C155.866 34.6518 156.005 34.3497 156.005 33.7569V32.8736C156.005 32.2809 155.855 31.8393 155.565 31.6882C155.275 31.3976 154.683 31.2465 154.091 31.2465H143.013C142.723 31.2465 142.723 31.3976 142.723 31.5371V35.384H142.712ZM142.712 38.3477V42.3457C142.712 42.6363 142.863 42.6363 143.002 42.6363H154.08C154.822 42.6363 155.263 42.4852 155.553 42.1946C155.843 41.9041 155.994 41.4508 155.994 41.0092V39.9748C155.994 39.3821 155.843 38.9404 155.553 38.6382C155.263 38.3361 154.671 38.1966 153.627 38.1966H142.561L142.712 38.3477Z" fill="#213147"/>
<path d="M170.331 27.5391C170.772 27.5391 170.922 27.6902 170.922 28.1318V45.8905C170.922 46.3321 170.772 46.4832 170.331 46.4832H167.373C166.932 46.4832 166.781 46.3321 166.781 45.8905V28.1318C166.781 27.6902 166.932 27.5391 167.373 27.5391H170.331Z" fill="#213147"/>
<path d="M198.846 27.5391C199.287 27.5391 199.438 27.6902 199.438 28.1318V30.7933C199.438 31.2349 199.287 31.386 198.846 31.386H190.274V45.8905C190.274 46.3321 190.123 46.4832 189.682 46.4832H186.724C186.284 46.4832 186.133 46.3321 186.133 45.8905V31.386H177.56C177.12 31.386 176.969 31.2349 176.969 30.7933V28.1318C176.969 27.6902 177.12 27.5391 177.56 27.5391H198.684H198.846Z" fill="#213147"/>
<path d="M220.273 27.5391C222.338 27.5391 223.822 27.9807 224.704 29.0151C225.586 29.8984 226.038 31.386 226.038 33.1642V34.6402C226.038 36.2673 225.748 37.4528 225.156 38.3361C224.565 39.2193 223.532 39.8121 222.059 40.1143L226.641 45.8905C226.792 46.0416 226.792 46.181 226.792 46.3321C226.792 46.4832 226.641 46.6227 226.351 46.6227H222.802C222.512 46.6227 222.361 46.6227 222.361 46.4716C222.21 46.4716 222.21 46.3205 222.071 46.181L217.79 40.5559H209.079V46.0299C209.079 46.4716 208.928 46.6227 208.487 46.6227H205.529C205.088 46.6227 204.938 46.4716 204.938 46.0299V28.4223C204.938 27.8296 205.228 27.5391 205.819 27.5391H220.447H220.273ZM209.044 37.3017H219.38C220.261 37.3017 221.004 37.1506 221.305 36.709C221.746 36.2673 221.897 35.6746 221.897 34.9308V33.7453C221.897 32.862 221.746 32.2693 221.305 31.9671C220.864 31.5255 220.273 31.3744 219.38 31.3744H209.334C209.044 31.3744 209.044 31.5255 209.044 31.6649V37.3017Z" fill="#213147"/>
<path d="M235.488 27.5391C235.929 27.5391 236.08 27.6902 236.08 28.1318V38.9404C236.08 39.6842 236.08 40.277 236.23 40.7186C236.381 41.1602 236.52 41.6019 236.822 41.9041C237.124 42.2062 237.414 42.3457 237.854 42.4968C238.295 42.6479 238.887 42.6479 239.629 42.6479H247.169C247.912 42.6479 248.503 42.6479 248.944 42.4968C249.385 42.3457 249.826 42.2062 249.976 41.9041C250.266 41.6135 250.417 41.1602 250.568 40.7186C250.719 40.277 250.719 39.6842 250.719 38.9404V28.1318C250.719 27.6902 250.87 27.5391 251.31 27.5391H254.268C254.709 27.5391 254.86 27.6902 254.86 28.1318V39.3821C254.86 40.7186 254.709 41.753 254.419 42.6363C254.129 43.5195 253.677 44.2634 253.085 44.8561C252.494 45.4488 251.751 45.8905 250.719 46.0416C249.686 46.3321 248.654 46.4832 247.169 46.4832H239.339C238.005 46.4832 236.822 46.3321 235.79 46.0416C234.908 45.751 234.015 45.2977 233.423 44.8561C232.832 44.2634 232.391 43.5195 232.089 42.6363C231.799 41.753 231.648 40.5675 231.648 39.3821V28.1318C231.648 27.6902 231.799 27.5391 232.24 27.5391H235.198H235.488Z" fill="#213147"/>
<path d="M266.51 27.5391C266.95 27.5391 267.252 27.5391 267.542 27.6902C267.832 27.6902 268.134 27.8412 268.284 27.9807C268.435 28.1318 268.725 28.2713 268.876 28.5734C269.027 28.864 269.166 29.1662 269.468 29.6078L275.082 42.6363C275.233 42.7873 275.233 42.9268 275.523 42.9268H275.813C275.964 42.9268 276.103 42.7757 276.254 42.6363L281.868 29.6078C282.019 29.1662 282.158 28.864 282.46 28.5734C282.61 28.2829 282.75 28.1318 283.051 27.9807C283.202 27.8296 283.492 27.6902 283.794 27.6902C284.095 27.6902 284.385 27.5391 284.826 27.5391H287.784C288.666 27.5391 289.408 27.6902 289.71 28.1318C290 28.5734 290.15 29.3173 290.15 30.3516V45.8905C290.15 46.3321 290 46.4832 289.559 46.4832H286.752C286.311 46.4832 286.16 46.3321 286.16 45.8905V31.6882C286.16 31.5371 286.009 31.3976 286.009 31.3976H285.719C285.568 31.3976 285.429 31.5487 285.429 31.5487L279.966 43.6823C279.815 44.1239 279.525 44.5655 279.223 44.8677C278.922 45.1699 278.782 45.4604 278.481 45.751C278.191 45.9021 277.889 46.1926 277.599 46.1926C277.309 46.3437 276.857 46.3437 276.416 46.3437H275.082C274.641 46.3437 274.2 46.3437 273.899 46.1926C273.597 46.0416 273.307 45.9021 273.017 45.751C272.727 45.5999 272.576 45.3094 272.275 44.8677C271.985 44.5772 271.834 44.1239 271.532 43.6823L266.069 31.5487C266.069 31.3976 265.918 31.3976 265.779 31.3976H265.489C265.338 31.3976 265.338 31.5487 265.338 31.6882V45.9021C265.338 46.3437 265.187 46.4948 264.746 46.4948H261.928C261.487 46.4948 261.336 46.3437 261.336 45.9021V30.3516C261.336 29.3173 261.487 28.5734 261.777 28.1318C262.067 27.6902 262.809 27.5391 263.702 27.5391H266.66H266.51Z" fill="#213147"/>
</g>
<defs>
<clipPath id="clip0_457_21544">
<rect width="290" height="74.0332" fill="white"/>
</clipPath>
</defs>
</svg>
