<svg width="290" height="65" viewBox="0 0 290 65" fill="none" xmlns="http://www.w3.org/2000/svg">
<path d="M283.908 36.6857C283.908 32.9138 281.683 30.0607 278.153 30.0607C274.623 30.0607 272.399 32.9138 272.399 36.6857C272.399 40.4576 274.623 43.3107 278.153 43.3107C281.683 43.3107 283.908 40.4576 283.908 36.6857ZM283.714 27.5461V17.6329C283.714 16.9558 284.149 16.4239 284.778 16.2305L290.001 14.8281V48.2915H284.198V45.4384C282.747 47.5662 280.087 48.8234 276.799 48.8234C270.029 48.8234 266.112 43.4074 266.112 36.6374C266.112 29.8673 270.077 24.4513 276.799 24.4513C280.136 24.4996 282.505 25.902 283.714 27.5461ZM247.93 25.0316V27.8847C248.994 25.902 251.412 24.4996 254.845 24.4996C260.454 24.4996 263.404 28.2232 263.404 33.7843V48.3399H257.118V34.5096C257.118 31.8016 255.957 29.9157 253.152 29.9157C250.106 29.9157 248.413 31.85 248.413 34.9932V48.3399H242.127V25.0799H247.93V25.0316ZM227.378 48.8718C220.559 48.8718 216.788 45.922 216.788 38.3782V25.0316H223.074V38.4749C223.074 41.7149 224.525 43.214 227.33 43.214C230.134 43.214 231.585 41.7149 231.585 38.4749V25.0316H237.871V38.3782C237.92 45.922 234.148 48.8718 227.378 48.8718ZM195.946 36.6857C195.946 40.8445 198.509 43.3107 201.845 43.3107C205.182 43.3107 207.745 40.8445 207.745 36.6857C207.745 32.527 205.182 30.0607 201.845 30.0607C198.557 30.0607 195.946 32.4786 195.946 36.6857ZM201.845 48.8718C194.398 48.8718 189.611 43.3107 189.611 36.6857C189.611 30.0607 194.35 24.4996 201.845 24.4996C209.292 24.4996 214.08 30.0607 214.08 36.6857C214.08 43.3107 209.341 48.8718 201.845 48.8718ZM170.413 36.6857C170.413 40.4576 172.637 43.3107 176.167 43.3107C179.698 43.3107 181.922 40.4576 181.922 36.6857C181.922 32.9138 179.698 30.0607 176.167 30.0607C172.637 30.0607 170.413 32.9138 170.413 36.6857ZM170.606 45.8253V55.4968C170.606 56.1738 170.171 56.7057 169.542 56.8992L164.32 58.2532V25.0316H170.123V27.8847C171.573 25.7569 174.233 24.4996 177.521 24.4996C184.291 24.4996 188.208 29.9157 188.208 36.6857C188.208 43.4558 184.243 48.8718 177.521 48.8718C174.185 48.8718 171.815 47.4211 170.606 45.8253ZM145.557 35.0899V48.3399H139.271V34.5096C139.271 31.9467 138.352 29.9157 135.547 29.9157C132.597 29.9157 131.002 31.8016 131.002 34.9449V48.3399H124.715V25.0316H130.518V27.8847C131.582 25.902 133.903 24.4996 137.24 24.4996C140.383 24.4996 142.656 25.7569 144.01 27.7879C146.041 25.5151 148.41 24.4996 151.747 24.4996C157.356 24.4996 160.209 28.3682 160.209 33.7843V48.3399H153.923V34.5096C153.923 31.9467 153.004 29.9157 150.2 29.9157C147.105 29.9157 145.557 31.85 145.557 35.0899ZM103.631 36.6857C103.631 40.8445 106.194 43.3107 109.531 43.3107C112.868 43.3107 115.431 40.8445 115.431 36.6857C115.431 32.527 112.868 30.0607 109.531 30.0607C106.194 30.0607 103.631 32.4786 103.631 36.6857ZM109.531 48.8718C102.084 48.8718 97.2965 43.3107 97.2965 36.6857C97.2965 30.0607 102.036 24.4996 109.531 24.4996C117.026 24.4996 121.765 30.0607 121.765 36.6857C121.765 43.3107 116.978 48.8718 109.531 48.8718ZM64.5586 32.4786C64.5586 22.6137 71.377 16.0854 80.4198 16.0854C88.3021 16.0854 94.4918 20.7277 95.7007 28.4166H88.7856C87.8669 24.4513 84.6753 22.2268 80.4198 22.2268C74.6653 22.2268 71.377 26.2405 71.377 32.4303C71.377 38.6684 74.6169 42.6337 80.4198 42.6337C84.6269 42.6337 87.8185 40.4093 88.7856 36.4439H95.7007C94.4918 44.1328 88.3021 48.7751 80.4198 48.7751C71.377 48.9202 64.5586 42.3435 64.5586 32.4786Z" fill="black"/>
<path d="M2.6113 50.2561C1.01551 49.2889 0 47.4997 0 45.6621V35.1685C0 34.7817 0.096715 34.3948 0.290145 34.0563C0.918791 32.9925 2.32116 32.6056 3.38502 33.2342L27.0801 47.0645C28.4825 47.8866 29.3046 49.3373 29.3046 50.9814V61.8619C29.3046 62.3455 29.1595 62.829 28.9177 63.2643C28.144 64.5216 26.4515 64.9568 25.1942 64.1831L2.6113 50.2561ZM37.9606 30.3328C39.3629 31.1549 40.185 32.6056 40.185 34.2498V56.3491C40.185 57.0261 39.8465 57.6064 39.2662 57.9449L34.092 60.8464C34.0436 60.8948 33.9469 60.8947 33.8985 60.9431V48.7087C33.8985 47.1129 33.0765 45.6621 31.7225 44.8401L10.9288 32.4122V18.4368C10.9288 18.05 11.0255 17.6631 11.2189 17.3246C11.8476 16.2608 13.2499 15.8739 14.3138 16.5025L37.9606 30.3328ZM48.3091 13.9879C49.7114 14.81 50.5335 16.2608 50.5335 17.9049V50.1594C50.5335 50.8364 50.1466 51.4167 49.5663 51.7552L44.6339 54.4148V31.9769C44.6339 30.3812 43.8118 28.9304 42.4578 28.1083L21.1805 15.342V2.23708C21.1805 1.85022 21.2773 1.46336 21.4707 1.12486C22.0993 0.0609949 23.5017 -0.325871 24.5656 0.302777L48.3091 13.9879Z" fill="#00D395"/>
</svg>
