<svg width="159" height="36" viewBox="0 0 159 36" fill="none" xmlns="http://www.w3.org/2000/svg">
<path d="M49.7746 35.928L24.9251 0L0 35.928H34.7286L24.9282 22.2195L20.0673 29.3445H14.8975L24.9282 15.0195L39.4335 35.9265L49.7746 35.928Z" fill="url(#paint0_linear_457_21538)"/>
<path d="M76.3182 18.7022C75.9851 18.7022 75.8443 18.8387 75.8443 19.1717V21.9962C75.8443 22.3262 75.9836 22.4672 76.3182 22.4672H85.7553V27.4097C83.9109 30.4172 80.5855 32.1587 76.1759 32.1587C69.1103 32.1587 64.7476 27.6407 64.7476 18.9782C64.7476 10.3623 69.8689 5.79625 75.7019 5.79625C80.2539 5.79625 83.9533 7.58575 85.139 11.9162C85.1596 12.0498 85.2286 12.1712 85.3331 12.2579C85.4377 12.3447 85.5705 12.3906 85.7068 12.3872H88.743C89.0746 12.3872 89.2639 12.2492 89.2639 11.9162C87.9828 5.32525 82.2906 2.03125 75.7019 2.03125C68.3092 2.03125 60.5742 7.67875 60.5742 18.9782C60.5742 30.1352 67.8716 35.9252 76.3652 35.9252C78.9236 36.0017 81.458 35.4165 83.7186 34.2272C85.9809 33.0373 87.8919 31.2849 89.2639 29.1423C89.6031 28.6068 89.7681 27.9827 89.7379 27.3512V19.1612C89.7379 18.8312 89.5985 18.6902 89.2639 18.6902L76.3167 18.7007L76.3182 18.7022ZM125.542 2.97025C125.542 2.64025 125.401 2.49925 125.066 2.49925H120.561C120.4 2.4835 120.238 2.52121 120.101 2.60647C119.964 2.69174 119.86 2.8197 119.804 2.97025L110.597 23.9192L101.392 2.97025C101.336 2.81985 101.231 2.69204 101.094 2.60681C100.957 2.52159 100.796 2.48376 100.635 2.49925H96.1266C95.795 2.49925 95.6526 2.63725 95.6526 2.97025V34.9817C95.6526 35.3117 95.792 35.4527 96.1266 35.4527H99.1628C99.4944 35.4527 99.6367 35.3147 99.6367 34.9817V8.66725L108.942 29.5232C108.989 29.6478 109.073 29.7552 109.183 29.8309C109.293 29.9066 109.424 29.9468 109.558 29.9462H111.651C111.785 29.9473 111.917 29.9072 112.027 29.8314C112.137 29.7557 112.221 29.6481 112.267 29.5232L121.564 8.66725V34.9832C121.564 35.3132 121.703 35.4543 122.038 35.4543H125.072C125.405 35.4543 125.546 35.3162 125.546 34.9832L125.542 2.97175V2.97025ZM135.878 2.97025C135.547 2.54575 135.547 2.49925 135.215 2.49925H131.564C131.231 2.49925 131.088 2.73475 131.231 2.97025L141.286 18.0812L129.998 34.9832C129.859 35.2172 129.998 35.4527 130.331 35.4527H133.887C134.22 35.4527 134.314 35.4062 134.646 34.9817L143.656 21.5177L152.672 34.9817C153.003 35.4062 153.099 35.4527 153.43 35.4527H156.987C157.319 35.4527 157.461 35.2172 157.319 34.9817L146.027 18.0812L156.08 2.97025C156.22 2.73475 156.08 2.49925 155.749 2.49925H152.096C151.765 2.49925 151.765 2.54575 151.433 2.97025L143.656 14.6012L135.878 2.97025Z" fill="#090A14"/>
<defs>
<linearGradient id="paint0_linear_457_21538" x1="26.6787" y1="0.9345" x2="11.4179" y2="40.1574" gradientUnits="userSpaceOnUse">
<stop stop-color="#03D1CF" stop-opacity="0.988"/>
<stop offset="1" stop-color="#4E09F8"/>
</linearGradient>
</defs>
</svg>
