<svg width="190" height="32" viewBox="0 0 190 32" fill="none" xmlns="http://www.w3.org/2000/svg">
<g clip-path="url(#clip0_457_21526)">
<path d="M174.299 25.3779C170.223 25.3779 166.602 22.3974 165.669 18.2822H189.868C189.868 18.2822 189.998 16.7912 189.998 16.2637C189.998 7.52949 182.957 0.421875 174.303 0.421875C165.65 0.421875 158.609 7.52801 158.609 16.2637C158.609 24.9995 165.61 31.9405 174.303 31.9405C182.996 31.9405 188.072 25.4767 189.339 20.7973H181.963C181.963 20.7973 179.617 25.3779 174.299 25.3779ZM174.303 6.98139C178.211 6.98139 181.604 9.58633 182.766 13.4687H165.841C166.999 9.58633 170.393 6.98139 174.303 6.98139Z" fill="#9391F7"/>
<path d="M81.9611 31.9405C73.3075 31.9405 66.5195 24.9081 66.5195 16.2637C66.5195 7.61936 73.56 0.421875 82.2136 0.421875C90.8673 0.421875 97.9078 7.80796 97.9078 16.1797C97.9078 19.7468 97.9078 31.1552 97.9078 31.1552H91.8146V26.1575L91.371 26.0396C90.298 28.6947 86.4104 31.9405 81.9597 31.9405H81.9611ZM82.2136 6.98139C77.3263 6.98139 73.3484 11.1231 73.3484 16.2151C73.3484 21.3071 77.3249 25.3796 82.2136 25.3796C87.1025 25.3796 91.079 21.2688 91.079 16.2151C91.079 11.1614 87.1025 6.98139 82.2136 6.98139Z" fill="#9391F7"/>
<path d="M115.293 31.9405C106.64 31.9405 99.8516 24.9081 99.8516 16.2637C99.8516 7.61936 106.892 0.421875 115.546 0.421875C124.199 0.421875 131.24 7.80796 131.24 16.1797C131.24 19.7468 131.24 31.1552 131.24 31.1552H125.147V26.1575L124.703 26.0396C123.63 28.6947 119.743 31.9405 115.292 31.9405H115.293ZM115.546 6.98139C110.659 6.98139 106.681 11.1231 106.681 16.2151C106.681 21.3071 110.657 25.3796 115.546 25.3796C120.435 25.3796 124.411 21.2688 124.411 16.2151C124.411 11.1614 120.435 6.98139 115.546 6.98139Z" fill="#9391F7"/>
<path d="M141.467 31.1452L128.961 1.20312H135.803L144.969 23.2597L154.136 1.20312H160.977L148.473 31.1452H141.467Z" fill="#9391F7"/>
<path d="M22.2477 31.8915C25.6507 31.8915 28.4094 29.107 28.4094 25.6722C28.4094 22.2375 25.6507 19.4531 22.2477 19.4531C18.8447 19.4531 16.0859 22.2375 16.0859 25.6722C16.0859 29.107 18.8447 31.8915 22.2477 31.8915Z" fill="#9391F7"/>
<path d="M38.3531 31.8915C41.7562 31.8915 44.515 29.107 44.515 25.6722C44.515 22.2375 41.7562 19.4531 38.3531 19.4531C34.9502 19.4531 32.1914 22.2375 32.1914 25.6722C32.1914 29.107 34.9502 31.8915 38.3531 31.8915Z" fill="#9391F7"/>
<path d="M30.2905 0C13.56 0 -0.0043783 13.9515 1.06014e-06 31.1563H7.73831C7.73831 18.2626 17.7554 7.80892 30.2905 7.80892C42.8257 7.80892 52.8428 18.2626 52.8428 31.1563H60.581C60.584 13.9515 47.0196 0 30.2905 0Z" fill="#9391F7"/>
</g>
<defs>
<clipPath id="clip0_457_21526">
<rect width="190" height="32" fill="white"/>
</clipPath>
</defs>
</svg>
