<svg width="143" height="36" viewBox="0 0 143 36" fill="none" xmlns="http://www.w3.org/2000/svg">
<g clip-path="url(#clip0_457_21541)">
<path d="M49.9631 35.9711C47.1456 35.9711 44.4286 34.9461 42.8276 32.2426H41.8981V35.2018H35.4922V0H41.8981V12.8063H42.8276C44.4721 10.0027 47.5466 8.92218 50.3206 8.92218C57.2416 8.92218 61.9181 14.4293 61.9181 22.1843C61.9181 29.9392 56.7847 35.9578 49.9631 35.9578V35.9722V35.9711ZM48.5767 30.2661C52.5237 30.2661 55.3401 27.05 55.3401 22.4544C55.3401 17.8588 52.4656 14.6428 48.5767 14.6428C44.6878 14.6428 41.9127 17.7021 41.9127 22.4544C41.9127 27.2068 44.7302 30.2661 48.5767 30.2661ZM73.7581 35.9711C68.8391 35.9711 64.8351 33.0119 64.8351 28.1595C64.8351 23.3071 69.2391 20.6035 74.5736 20.0488L82.1102 19.2806V17.8577C82.1102 15.6666 80.3082 14.1292 77.1342 14.1292C73.9603 14.1292 72.3583 15.4521 71.8008 17.4442H65.6518C66.2662 12.5918 70.3138 8.92107 77.1342 8.92107C83.9547 8.92107 88.0592 12.0804 88.0592 18.2557V30.7063C88.0592 32.2859 88.2167 34.477 88.3162 35.0884V35.1885H82.1672C82.1102 34.3203 82.1102 33.5099 82.1102 32.6417H81.1807C79.5932 35.1885 76.8192 35.9566 73.7447 35.9566L73.7592 35.9711H73.7581ZM75.5031 31.1765C79.7071 31.1765 82.1236 28.0172 82.1236 24.8022V23.5216L76.4751 24.1908C72.9861 24.6033 71.2981 25.6138 71.2981 27.8615C71.2981 30.1093 73.0431 31.1765 75.502 31.1765H75.5031ZM103.46 35.9711C96.9956 35.9711 92.3771 32.7551 91.6621 27.7037H97.9687C98.6837 29.9515 101.043 30.9197 103.503 30.9197C105.963 30.9197 108.065 29.8525 108.065 27.9605C108.065 26.0684 106.12 25.556 103.446 25.1002L100.729 24.6444C95.5958 23.7762 92.4207 21.6273 92.4207 17.0462C92.4207 12.465 96.8247 8.93552 102.931 8.93552C109.038 8.93552 112.827 11.6958 113.9 16.4915H107.751C107.036 14.5994 105.134 13.8446 102.975 13.8446C100.815 13.8446 98.6703 14.9685 98.6703 16.5482C98.6703 18.1278 99.9997 18.697 102.775 19.1517L105.492 19.6075C110.468 20.419 114.257 22.4678 114.257 27.4191C114.257 32.3704 109.738 35.9989 103.432 35.9989L103.461 35.97L103.46 35.9711ZM130.329 35.9711C122.435 35.9711 117.202 30.6062 117.202 22.3966C117.202 14.187 122.737 8.92107 130.387 8.92107C138.038 8.92107 143 14.8407 143 22.6523V23.7762H123.466C123.781 28.0161 126.755 30.5062 130.345 30.5062C133.934 30.5062 135.121 29.4812 135.993 27.7026H142.557C141.227 32.4983 136.45 35.97 130.345 35.97H130.33L130.329 35.9711ZM136.736 19.5508C136.221 16.1357 133.504 14.1437 130.33 14.1437C127.156 14.1437 124.181 16.0791 123.567 19.5508H136.752H136.737H136.736Z" fill="black"/>
<path d="M1.54395 35.2146C0.513906 35.2146 0 34.7021 0 33.6782V11.2238C0 10.1989 0.515023 9.6875 1.54395 9.6875H24.1089C25.139 9.6875 25.6529 10.2 25.6529 11.2238V33.6771C25.6529 34.7021 25.1378 35.2134 24.1089 35.2134H1.54395V35.2146Z" fill="#0000FF"/>
</g>
<defs>
<clipPath id="clip0_457_21541">
<rect width="143" height="36" fill="white"/>
</clipPath>
</defs>
</svg>
