<svg width="32" height="32" viewBox="0 0 32 32" fill="none" xmlns="http://www.w3.org/2000/svg">
<path opacity="0.2" d="M2.66675 16.0002C2.66675 18.186 3.23337 18.9221 4.36661 20.3944C6.62937 23.3341 10.4242 26.6668 16.0001 26.6668C21.5759 26.6668 25.3708 23.3341 27.6336 20.3944C28.7668 18.9221 29.3334 18.186 29.3334 16.0002C29.3334 13.8143 28.7668 13.0782 27.6336 11.6059C25.3708 8.66624 21.5759 5.3335 16.0001 5.3335C10.4242 5.3335 6.62937 8.66624 4.36661 11.6059C3.23337 13.0782 2.66675 13.8143 2.66675 16.0002Z" fill="#272E3F"/>
<path fill-rule="evenodd" clip-rule="evenodd" d="M11 16C11 13.2386 13.2386 11 16 11C18.7614 11 21 13.2386 21 16C21 18.7614 18.7614 21 16 21C13.2386 21 11 18.7614 11 16ZM13 16C13 14.3431 14.3431 13 16 13C17.6569 13 19 14.3431 19 16C19 17.6569 17.6569 19 16 19C14.3431 19 13 17.6569 13 16Z" fill="#272E3F"/>
</svg>
