<svg width="32" height="32" viewBox="0 0 32 32" fill="none" xmlns="http://www.w3.org/2000/svg">
<path opacity="0.2" fill-rule="evenodd" clip-rule="evenodd" d="M13.3346 29.3337H18.668C23.6963 29.3337 26.2104 29.3337 27.7725 27.7716C29.3346 26.2095 29.3346 23.6953 29.3346 18.667V18.0842C29.3346 16.9205 29.3346 16.0462 29.2779 15.3338H24.0013L23.8748 15.3338C22.412 15.3339 21.1193 15.334 20.0772 15.1939C18.9477 15.0421 17.8184 14.6934 16.8967 13.7717C15.975 12.85 15.6264 11.7207 15.4745 10.5912C15.3344 9.54918 15.3345 8.25642 15.3346 6.79362L15.3469 3.01441C15.3473 2.9045 15.3567 2.79578 15.3746 2.68921C14.8298 2.66699 14.1824 2.66699 13.3744 2.66699C8.31956 2.66699 5.79216 2.66699 4.23007 4.22909C2.66797 5.79119 2.66797 8.30534 2.66797 13.3337V18.667C2.66797 23.6953 2.66797 26.2095 4.23007 27.7716C5.79216 29.3337 8.30632 29.3337 13.3346 29.3337Z" fill="#202533"/>
<path d="M10.6507 17.2705C11.0354 16.9098 11.6339 16.9098 12.0186 17.2705L14.6852 19.7705C15.0882 20.1482 15.1086 20.781 14.7308 21.1839C14.3531 21.5869 13.7203 21.6073 13.3174 21.2295L12.3346 20.3082L12.3346 24.6667C12.3346 25.219 11.8869 25.6667 11.3346 25.6667C10.7824 25.6667 10.3346 25.219 10.3346 24.6667L10.3346 20.3082L9.35191 21.2295C8.949 21.6073 8.31617 21.5869 7.93843 21.1839C7.5607 20.781 7.58112 20.1482 7.98403 19.7705L10.6507 17.2705Z" fill="#202533"/>
<path d="M15.3444 3.01379L15.332 6.79299C15.3319 8.25579 15.3318 9.54856 15.4719 10.5906C15.6238 11.7201 15.9724 12.8494 16.8941 13.7711C17.8158 14.6928 18.9452 15.0414 20.0746 15.1933C21.1167 15.3334 22.4094 15.3333 23.8722 15.3332L29.2753 15.3332C29.2918 15.5406 29.3035 15.7617 29.3118 15.9997H29.332C29.332 15.643 29.332 15.4647 29.3188 15.2548C29.2434 14.062 28.7476 12.6953 28.0407 11.7317C27.9162 11.5621 27.8312 11.4602 27.661 11.2566C26.6042 9.99178 25.2134 8.41623 23.9987 7.33303C22.9176 6.36893 21.4369 5.31414 20.1456 4.45165C19.0361 3.71065 18.4814 3.34015 17.7208 3.06478C17.5191 2.99177 17.2531 2.91114 17.0449 2.85987C16.5329 2.73384 16.0344 2.69 15.332 2.6748L15.3444 3.01379Z" fill="#202533"/>
</svg>
