<svg width="32" height="32" viewBox="0 0 32 32" fill="none" xmlns="http://www.w3.org/2000/svg">
<circle opacity="0.2" cx="16.0001" cy="13.3333" r="9.33333" fill="#272E3F"/>
<path d="M12.8028 10.9509C12.628 9.00561 11.1278 7.19298 10.3996 6.52982L9.99731 6.18577C11.62 4.82168 13.7138 4 15.9996 4C18.0654 4 19.9745 4.67116 21.5207 5.80733C21.7391 6.47049 21.323 7.85614 20.8861 8.5193C20.7278 8.75951 20.3689 9.05772 19.9755 9.3404C19.0884 9.97778 17.9688 10.293 17.3996 11.4667C17.2369 11.8022 17.2438 12.1301 17.3221 12.4152C17.3784 12.6201 17.4143 12.8429 17.4149 13.0608C17.4167 13.7654 16.7042 14.2744 15.9996 14.2667C14.1663 14.2467 12.9661 12.7692 12.8028 10.9509Z" fill="#272E3F"/>
<path d="M17.341 19.1914C18.2632 17.4534 21.3373 17.4534 21.3373 17.4534C24.5405 17.42 24.9732 15.4752 25.2624 14.4922C24.7447 18.6748 21.4597 21.9996 17.2962 22.578C16.9951 21.9443 16.6384 20.5153 17.341 19.1914Z" fill="#272E3F"/>
<path fill-rule="evenodd" clip-rule="evenodd" d="M24.0048 1.99911C24.3731 1.58758 25.0053 1.55256 25.4169 1.92089C28.433 4.62041 30.3335 8.5466 30.3335 12.9154C30.3335 20.5838 24.4818 26.8856 17.0002 27.5988V28.3327H18.6668C19.2191 28.3327 19.6668 28.7804 19.6668 29.3327C19.6668 29.885 19.2191 30.3327 18.6668 30.3327H13.3335C12.7812 30.3327 12.3335 29.885 12.3335 29.3327C12.3335 28.7804 12.7812 28.3327 13.3335 28.3327H15.0002V27.6547C10.8658 27.494 7.16732 25.6308 4.58837 22.7494C4.22004 22.3379 4.25507 21.7057 4.66659 21.3373C5.07812 20.969 5.71031 21.004 6.07864 21.4156C8.41481 24.0257 11.8066 25.666 15.5828 25.666C22.6248 25.666 28.3335 19.9574 28.3335 12.9154C28.3335 9.13912 26.6932 5.74733 24.083 3.41116C23.6715 3.04283 23.6365 2.41064 24.0048 1.99911Z" fill="#272E3F"/>
</svg>
