<svg width="32" height="32" viewBox="0 0 32 32" fill="none" xmlns="http://www.w3.org/2000/svg">
<path opacity="0.2" d="M2.66602 16.0001C2.66602 9.71469 2.66602 6.57199 4.61864 4.61937C6.57126 2.66675 9.71396 2.66675 15.9993 2.66675C22.2847 2.66675 25.4274 2.66675 27.3801 4.61937C29.3327 6.57199 29.3327 9.71469 29.3327 16.0001C29.3327 22.2855 29.3327 25.4282 27.3801 27.3808C25.4274 29.3334 22.2847 29.3334 15.9993 29.3334C9.71396 29.3334 6.57126 29.3334 4.61864 27.3808C2.66602 25.4282 2.66602 22.2855 2.66602 16.0001Z" fill="#1E2330"/>
<path d="M29.334 6.66675C29.334 8.87589 27.5431 10.6667 25.334 10.6667C23.1248 10.6667 21.334 8.87589 21.334 6.66675C21.334 4.45761 23.1248 2.66675 25.334 2.66675C27.5431 2.66675 29.334 4.45761 29.334 6.66675Z" fill="#1E2330"/>
<path d="M19.334 17.6666C18.7817 17.6666 18.334 18.1143 18.334 18.6666C18.334 19.2189 18.7817 19.6666 19.334 19.6666H22.6673C23.2196 19.6666 23.6673 19.2189 23.6673 18.6666V15.3333C23.6673 14.781 23.2196 14.3333 22.6673 14.3333C22.115 14.3333 21.6673 14.781 21.6673 15.3333V16.2524L18.9839 13.569C18.0727 12.6577 16.5953 12.6577 15.6841 13.569L13.5697 15.6833C13.4395 15.8135 13.2285 15.8135 13.0983 15.6833L10.0411 12.6261C9.65057 12.2356 9.0174 12.2356 8.62688 12.6261C8.23635 13.0167 8.23635 13.6498 8.62688 14.0404L11.6841 17.0975C12.5953 18.0088 14.0727 18.0088 14.9839 17.0975L17.0983 14.9832C17.2285 14.853 17.4395 14.853 17.5697 14.9832L20.2531 17.6666H19.334Z" fill="#1E2330"/>
</svg>
