<svg width="32" height="32" viewBox="0 0 32 32" fill="none" xmlns="http://www.w3.org/2000/svg">
<path opacity="0.2" d="M2.66406 16.0001C2.66406 9.71469 2.66406 6.57199 4.61668 4.61937C6.56931 2.66675 9.712 2.66675 15.9974 2.66675C22.2828 2.66675 25.4255 2.66675 27.3781 4.61937C29.3307 6.57199 29.3307 9.71469 29.3307 16.0001C29.3307 22.2855 29.3307 25.4282 27.3781 27.3808C25.4255 29.3334 22.2828 29.3334 15.9974 29.3334C9.712 29.3334 6.56931 29.3334 4.61668 27.3808C2.66406 25.4282 2.66406 22.2855 2.66406 16.0001Z" fill="#202533"/>
<path d="M29.3359 6.66675C29.3359 8.87589 27.5451 10.6667 25.3359 10.6667C23.1268 10.6667 21.3359 8.87589 21.3359 6.66675C21.3359 4.45761 23.1268 2.66675 25.3359 2.66675C27.5451 2.66675 29.3359 4.45761 29.3359 6.66675Z" fill="#202533"/>
<path d="M19.3359 14.3333C18.7837 14.3333 18.3359 13.8855 18.3359 13.3333C18.3359 12.781 18.7837 12.3333 19.3359 12.3333H22.6693C23.2216 12.3333 23.6693 12.781 23.6693 13.3333V16.6666C23.6693 17.2189 23.2216 17.6666 22.6693 17.6666C22.117 17.6666 21.6693 17.2189 21.6693 16.6666V15.7475L18.9859 18.4309C18.0746 19.3421 16.5972 19.3421 15.686 18.4309L13.5716 16.3165C13.4415 16.1863 13.2304 16.1863 13.1002 16.3165L10.043 19.3737C9.65252 19.7642 9.01935 19.7642 8.62883 19.3737C8.23831 18.9832 8.23831 18.35 8.62883 17.9595L11.686 14.9023C12.5972 13.9911 14.0746 13.9911 14.9859 14.9023L17.1002 17.0167C17.2304 17.1468 17.4415 17.1468 17.5716 17.0167L20.2551 14.3333H19.3359Z" fill="#202533"/>
</svg>
