<svg width="32" height="32" viewBox="0 0 32 32" fill="none" xmlns="http://www.w3.org/2000/svg">
<path opacity="0.2" d="M2.66797 16.0003C2.66797 9.71493 2.66797 6.57223 4.62059 4.61961C6.57321 2.66699 9.71591 2.66699 16.0013 2.66699C22.2867 2.66699 25.4294 2.66699 27.382 4.61961C29.3346 6.57223 29.3346 9.71493 29.3346 16.0003C29.3346 22.2857 29.3346 25.4284 27.382 27.381C25.4294 29.3337 22.2867 29.3337 16.0013 29.3337C9.71591 29.3337 6.57321 29.3337 4.62059 27.381C2.66797 25.4284 2.66797 22.2857 2.66797 16.0003Z" fill="white"/>
<path d="M29.332 6.66699C29.332 8.87613 27.5412 10.667 25.332 10.667C23.1229 10.667 21.332 8.87613 21.332 6.66699C21.332 4.45785 23.1229 2.66699 25.332 2.66699C27.5412 2.66699 29.332 4.45785 29.332 6.66699Z" fill="white"/>
<path d="M19.332 14.333C18.7797 14.333 18.332 13.8853 18.332 13.333C18.332 12.7807 18.7797 12.333 19.332 12.333H22.6654C23.2176 12.333 23.6654 12.7807 23.6654 13.333V16.6663C23.6654 17.2186 23.2176 17.6663 22.6654 17.6663C22.1131 17.6663 21.6654 17.2186 21.6654 16.6663V15.7472L18.9819 18.4306C18.0707 19.3419 16.5933 19.3419 15.6821 18.4306L13.5677 16.3163C13.4376 16.1861 13.2265 16.1861 13.0963 16.3163L10.0391 19.3734C9.64861 19.764 9.01545 19.764 8.62492 19.3734C8.2344 18.9829 8.2344 18.3498 8.62492 17.9592L11.6821 14.902C12.5933 13.9908 14.0707 13.9908 14.9819 14.902L17.0963 17.0164C17.2265 17.1466 17.4376 17.1466 17.5677 17.0164L20.2512 14.333H19.332Z" fill="white"/>
</svg>
