<svg width="32" height="32" viewBox="0 0 32 32" fill="none" xmlns="http://www.w3.org/2000/svg">
<path opacity="0.2" d="M2.66699 16C2.66699 9.71457 2.66699 6.57187 4.61961 4.61925C6.57223 2.66663 9.71493 2.66663 16.0003 2.66663C22.2857 2.66663 25.4284 2.66663 27.381 4.61925C29.3337 6.57187 29.3337 9.71457 29.3337 16C29.3337 22.2854 29.3337 25.428 27.381 27.3807C25.4284 29.3333 22.2857 29.3333 16.0003 29.3333C9.71493 29.3333 6.57223 29.3333 4.61961 27.3807C2.66699 25.428 2.66699 22.2854 2.66699 16Z" fill="#1E2330"/>
<path d="M10.0401 12.6263C9.64959 12.2357 9.01643 12.2357 8.6259 12.6263C8.23538 13.0168 8.23538 13.65 8.6259 14.0405L11.6831 17.0977C12.5943 18.0089 14.0717 18.0089 14.9829 17.0977L17.0973 14.9833C17.2275 14.8531 17.4385 14.8531 17.5687 14.9833L20.2521 17.6667H19.333C18.7807 17.6667 18.333 18.1144 18.333 18.6667C18.333 19.219 18.7807 19.6667 19.333 19.6667H22.6663C23.2186 19.6667 23.6663 19.219 23.6663 18.6667V15.3334C23.6663 14.7811 23.2186 14.3334 22.6663 14.3334C22.1141 14.3334 21.6663 14.7811 21.6663 15.3334V16.2525L18.9829 13.5691C18.0717 12.6579 16.5943 12.6579 15.6831 13.5691L13.5687 15.6835C13.4385 15.8136 13.2275 15.8136 13.0973 15.6835L10.0401 12.6263Z" fill="#1E2330"/>
</svg>
