<svg width="32" height="32" viewBox="0 0 32 32" fill="none" xmlns="http://www.w3.org/2000/svg">
<path fill-rule="evenodd" clip-rule="evenodd" d="M13.2584 1.6665L13.3337 1.6665C13.8859 1.6665 14.3337 2.11422 14.3337 2.6665C14.3337 3.21879 13.8859 3.6665 13.3337 3.6665C10.7912 3.6665 8.98501 3.66863 7.61479 3.85285C6.27334 4.0332 5.50048 4.37143 4.9362 4.93571C4.37192 5.49999 4.03369 6.27285 3.85334 7.6143C3.66912 8.98452 3.66699 10.7907 3.66699 13.3332C3.66699 13.8855 3.21928 14.3332 2.66699 14.3332C2.11471 14.3332 1.66699 13.8855 1.66699 13.3332L1.66699 13.2579C1.66697 10.8076 1.66695 8.86676 1.87117 7.34781C2.08134 5.78458 2.52417 4.51931 3.52198 3.5215C4.5198 2.52368 5.78507 2.08085 7.3483 1.87068C8.86725 1.66647 10.8081 1.66648 13.2584 1.6665ZM24.3859 3.85285C23.0156 3.66863 21.2094 3.6665 18.667 3.6665C18.1147 3.6665 17.667 3.21879 17.667 2.6665C17.667 2.11422 18.1147 1.6665 18.667 1.6665L18.7422 1.6665C21.1926 1.66648 23.1334 1.66647 24.6524 1.87068C26.2156 2.08085 27.4809 2.52368 28.4787 3.5215C29.4765 4.51931 29.9193 5.78458 30.1295 7.34781C30.3337 8.86676 30.3337 10.8076 30.3337 13.258V13.3332C30.3337 13.8855 29.8859 14.3332 29.3337 14.3332C28.7814 14.3332 28.3337 13.8855 28.3337 13.3332C28.3337 10.7907 28.3315 8.98452 28.1473 7.6143C27.967 6.27285 27.6287 5.49999 27.0645 4.93571C26.5002 4.37143 25.7273 4.0332 24.3859 3.85285ZM2.66699 17.6665C3.21928 17.6665 3.66699 18.1142 3.66699 18.6665C3.66699 21.2089 3.66912 23.0152 3.85334 24.3854C4.03369 25.7268 4.37192 26.4997 4.9362 27.064C5.50048 27.6282 6.27334 27.9665 7.61479 28.1468C8.98501 28.331 10.7912 28.3332 13.3337 28.3332C13.8859 28.3332 14.3337 28.7809 14.3337 29.3332C14.3337 29.8855 13.8859 30.3332 13.3337 30.3332H13.2584C10.8081 30.3332 8.86725 30.3332 7.3483 30.129C5.78507 29.9188 4.5198 29.476 3.52198 28.4782C2.52417 27.4804 2.08134 26.2151 1.87117 24.6519C1.66695 23.1329 1.66697 21.1921 1.66699 18.7417L1.66699 18.6665C1.66699 18.1142 2.11471 17.6665 2.66699 17.6665ZM29.3337 17.6665C29.8859 17.6665 30.3337 18.1142 30.3337 18.6665V18.7417C30.3337 21.1921 30.3337 23.1329 30.1295 24.6519C29.9193 26.2151 29.4765 27.4804 28.4787 28.4782C27.4809 29.476 26.2156 29.9188 24.6524 30.129C23.1334 30.3332 21.1926 30.3332 18.7422 30.3332H18.667C18.1147 30.3332 17.667 29.8855 17.667 29.3332C17.667 28.7809 18.1147 28.3332 18.667 28.3332C21.2094 28.3332 23.0156 28.331 24.3859 28.1468C25.7273 27.9665 26.5002 27.6282 27.0645 27.064C27.6287 26.4997 27.967 25.7268 28.1473 24.3854C28.3315 23.0152 28.3337 21.2089 28.3337 18.6665C28.3337 18.1142 28.7814 17.6665 29.3337 17.6665Z" fill="#272E3F"/>
<path opacity="0.2" d="M13.3333 7.3335H18.6667C21.1808 7.3335 22.4379 7.3335 23.219 8.11454C23.9522 8.84783 23.9971 10.0007 23.9998 12.2195L24 16.0225V19.3335C24 21.8477 24 23.1047 23.219 23.8858C22.4379 24.6668 21.1808 24.6668 18.6667 24.6668H13.3333C10.8192 24.6668 9.5621 24.6668 8.78105 23.8858C8 23.1047 8 21.8477 8 19.3335V16.0225L8.00018 12.2195C8.00292 10.0007 8.04777 8.84783 8.78105 8.11454C9.5621 7.3335 10.8192 7.3335 13.3333 7.3335Z" fill="#272E3F"/>
<path d="M24.492 12.3999C24.3347 12.3394 24.1705 12.279 23.9995 12.2193C21.5552 11.1813 14.9333 9.72807 7.99985 12.2193C7.82884 12.2791 7.66471 12.3394 7.50739 12.3999C6.58435 12.7549 5.89913 13.1141 5.4352 13.3924C5.20332 13.5316 5.02691 13.6504 4.90388 13.7383C4.84236 13.7822 4.7942 13.8184 4.75911 13.8455C4.74157 13.8591 4.7273 13.8704 4.71627 13.8793L4.70214 13.8907L4.69689 13.895L4.69472 13.8968L4.69285 13.8984C4.26857 14.2519 4.21125 14.8825 4.56481 15.3068C4.9171 15.7295 5.54441 15.788 5.96863 15.4386L5.98247 15.4278C5.99791 15.4158 6.02579 15.3947 6.06635 15.3657C6.14748 15.3078 6.27941 15.2183 6.4642 15.1074C6.83361 14.8858 7.41505 14.5783 8.22534 14.2666C9.84352 13.6442 12.3885 12.9999 15.9997 12.9999C19.6109 12.9999 22.1559 13.6442 23.7741 14.2666C24.5843 14.5783 25.1658 14.8858 25.5352 15.1074C25.72 15.2183 25.8519 15.3078 25.933 15.3657C25.9736 15.3947 26.0015 15.4158 26.0169 15.4278L26.0308 15.4386C26.455 15.788 27.0823 15.7295 27.4346 15.3068C27.7882 14.8825 27.7308 14.2519 27.3066 13.8984L26.6664 14.6666C27.3066 13.8984 27.3047 13.8968 27.3047 13.8968L27.3025 13.895L27.2973 13.8907L27.2831 13.8793C27.2721 13.8704 27.2578 13.8591 27.2403 13.8455C27.2052 13.8184 27.157 13.7822 27.0955 13.7383C26.9725 13.6504 26.7961 13.5316 26.5642 13.3924C26.1003 13.1141 25.4151 12.7549 24.492 12.3999Z" fill="#272E3F"/>
</svg>
