<svg width="32" height="32" viewBox="0 0 32 32" fill="none" xmlns="http://www.w3.org/2000/svg">
<path d="M6.63877 12.9131C3.99092 11.854 2.66699 11.3244 2.66699 10.6663C2.66699 10.0083 3.99092 9.47871 6.63877 8.41957L10.3834 6.92172C13.0312 5.86258 14.3552 5.33301 16.0003 5.33301C17.6455 5.33301 18.9694 5.86258 21.6173 6.92172L25.3619 8.41957C28.0097 9.47871 29.3337 10.0083 29.3337 10.6663C29.3337 11.3244 28.0097 11.854 25.3619 12.9131L21.6173 14.411C18.9694 15.4701 17.6455 15.9997 16.0003 15.9997C14.3552 15.9997 13.0312 15.4701 10.3834 14.411L6.63877 12.9131Z" fill="#272E3F"/>
<path fill-rule="evenodd" clip-rule="evenodd" d="M2.66699 10.6663C2.66699 11.3244 3.99092 11.854 6.63877 12.9131L10.3834 14.411C13.0312 15.4701 14.3552 15.9997 16.0003 15.9997C17.6455 15.9997 18.9694 15.4701 21.6173 14.411L25.3619 12.9131C28.0097 11.854 29.3337 11.3244 29.3337 10.6663C29.3337 10.0083 28.0097 9.47871 25.3619 8.41957L21.6173 6.92172C18.9694 5.86258 17.6455 5.33301 16.0003 5.33301C14.3552 5.33301 13.0312 5.86258 10.3834 6.92172L6.63877 8.41957C3.99092 9.47871 2.66699 10.0083 2.66699 10.6663Z" fill="#272E3F"/>
<path opacity="0.5" d="M7.6885 13.333L6.63877 13.7529C3.99092 14.812 2.66699 15.3416 2.66699 15.9997C2.66699 16.6577 3.99092 17.1873 6.63877 18.2464L10.3834 19.7443C13.0312 20.8034 14.3552 21.333 16.0003 21.333C17.6455 21.333 18.9694 20.8034 21.6173 19.7443L25.3619 18.2464C28.0097 17.1873 29.3337 16.6577 29.3337 15.9997C29.3337 15.3416 28.0097 14.812 25.3619 13.7529L24.3122 13.333L21.6173 14.411C18.9694 15.4701 17.6455 15.9997 16.0003 15.9997C14.3552 15.9997 13.0312 15.4701 10.3834 14.411L7.6885 13.333Z" fill="#272E3F"/>
<path opacity="0.25" d="M7.6885 18.667L6.63877 19.0869C3.99092 20.146 2.66699 20.6756 2.66699 21.3337C2.66699 21.9917 3.99092 22.5213 6.63877 23.5804L10.3834 25.0783C13.0312 26.1374 14.3552 26.667 16.0003 26.667C17.6455 26.667 18.9694 26.1374 21.6173 25.0783L25.3619 23.5804C28.0097 22.5213 29.3337 21.9917 29.3337 21.3337C29.3337 20.6756 28.0097 20.146 25.3619 19.0869L24.3122 18.667L21.6173 19.7449C18.9694 20.8041 17.6455 21.3337 16.0003 21.3337C14.3552 21.3337 13.0312 20.8041 10.3834 19.7449L7.6885 18.667Z" fill="#272E3F"/>
</svg>
