<svg width="32" height="32" viewBox="0 0 32 32" fill="none" xmlns="http://www.w3.org/2000/svg">
<path opacity="0.2" d="M4.50335 6.77687C4 7.49403 4 9.62575 4 13.8892V15.9888C4 23.5062 9.65195 27.1543 13.1981 28.7034C14.16 29.1236 14.641 29.3337 16 29.3337C17.359 29.3337 17.84 29.1236 18.8019 28.7034C22.348 27.1543 28 23.5062 28 15.9888V13.8892C28 9.62575 28 7.49403 27.4966 6.77687C26.9933 6.05971 24.9889 5.3736 20.9801 4.00138L20.2164 3.73995C18.1267 3.02464 17.0819 2.66699 16 2.66699C14.9181 2.66699 13.8733 3.02464 11.7836 3.73995L11.0199 4.00138C7.0111 5.3736 5.00671 6.05971 4.50335 6.77687Z" fill="#1E2330"/>
<path d="M20.0796 13.999C20.4474 13.5871 20.4117 12.9549 19.9997 12.5871C19.5877 12.2192 18.9556 12.255 18.5877 12.667L14.5718 17.1649L13.4129 15.867C13.0451 15.455 12.413 15.4192 12.001 15.7871C11.589 16.1549 11.5532 16.7871 11.9211 17.199L13.8258 19.3324C14.0156 19.5449 14.2869 19.6664 14.5718 19.6664C14.8566 19.6664 15.128 19.5449 15.3177 19.3324L20.0796 13.999Z" fill="#1E2330"/>
</svg>
