<svg width="32" height="32" viewBox="0 0 32 32" fill="none" xmlns="http://www.w3.org/2000/svg">
<circle cx="16.0003" cy="7.99984" r="5.33333" fill="#272E3F"/>
<path fill-rule="evenodd" clip-rule="evenodd" d="M21.9997 29.3333C19.7998 29.3333 18.6998 29.3333 18.0164 28.6499C17.333 27.9665 17.333 26.8666 17.333 24.6667C17.333 22.4668 17.333 21.3668 18.0164 20.6834C18.6998 20 19.7998 20 21.9997 20C24.1996 20 25.2995 20 25.9829 20.6834C26.6663 21.3668 26.6663 22.4668 26.6663 24.6667C26.6663 26.8666 26.6663 27.9665 25.9829 28.6499C25.2995 29.3333 24.1996 29.3333 21.9997 29.3333ZM24.6237 23.6611C24.9275 23.3573 24.9275 22.8649 24.6237 22.5611C24.32 22.2574 23.8275 22.2574 23.5238 22.5611L20.9626 25.1223L20.4756 24.6352C20.1718 24.3315 19.6794 24.3315 19.3756 24.6352C19.0719 24.939 19.0719 25.4314 19.3756 25.7352L20.4127 26.7722C20.7164 27.0759 21.2089 27.0759 21.5126 26.7722L24.6237 23.6611Z" fill="#272E3F"/>
<path opacity="0.2" d="M24.1266 20.0417C23.5602 20.0002 22.8653 20.0002 22.0003 20.0002C19.8004 20.0002 18.7005 20.0002 18.0171 20.6836C17.3337 21.367 17.3337 22.4669 17.3337 24.6668C17.3337 26.2219 17.3337 27.2274 17.5751 27.9246C17.0631 27.9743 16.537 28.0002 16.0003 28.0002C10.8457 28.0002 6.66699 25.6123 6.66699 22.6668C6.66699 19.7213 10.8457 17.3335 16.0003 17.3335C19.4849 17.3335 22.5235 18.4247 24.1266 20.0417Z" fill="#272E3F"/>
</svg>
