<svg width="32" height="32" viewBox="0 0 32 32" fill="none" xmlns="http://www.w3.org/2000/svg">
<path opacity="0.2" d="M29.3337 16.0003C29.3337 23.3641 23.3641 29.3337 16.0003 29.3337C8.63653 29.3337 2.66699 23.3641 2.66699 16.0003C2.66699 8.63653 8.63653 2.66699 16.0003 2.66699C23.3641 2.66699 29.3337 8.63653 29.3337 16.0003Z" fill="#1C274C"/>
<path d="M22.4096 25.3479C20.5867 26.6002 18.3791 27.333 16.0004 27.333C13.6216 27.333 11.414 26.6001 9.59099 25.3479C8.78585 24.7948 8.44178 23.7412 8.90991 22.8839C9.88034 21.1066 11.88 19.9997 16.0003 19.9997C20.1207 19.9997 22.1203 21.1067 23.0907 22.884C23.5588 23.7413 23.2148 24.7949 22.4096 25.3479Z" fill="#1C274C"/>
<path d="M16.0004 17.333C18.2095 17.333 20.0004 15.5421 20.0004 13.333C20.0004 11.1239 18.2095 9.33301 16.0004 9.33301C13.7912 9.33301 12.0004 11.1239 12.0004 13.333C12.0004 15.5421 13.7912 17.333 16.0004 17.333Z" fill="#1C274C"/>
</svg>
