<svg width="32" height="32" viewBox="0 0 32 32" fill="none" xmlns="http://www.w3.org/2000/svg">
<path fill-rule="evenodd" clip-rule="evenodd" d="M14.9156 4.40852C14.6302 3.91908 13.7984 3.62226 12.9535 4.10513C12.1117 4.58623 11.9637 5.43429 12.2441 5.9152L15.6117 11.69C15.8899 12.1671 15.7287 12.7794 15.2516 13.0576C14.7745 13.3358 14.1622 13.1746 13.884 12.6975L9.39391 4.99776C9.1085 4.50832 8.27676 4.2115 7.43185 4.69437C6.59005 5.17547 6.44199 6.02353 6.72244 6.50444L11.7737 15.1667C12.052 15.6438 11.8907 16.2561 11.4136 16.5343C10.9366 16.8125 10.3243 16.6513 10.046 16.1742L7.80102 12.3243C7.51561 11.8349 6.68386 11.538 5.83896 12.0209C4.99716 12.502 4.8491 13.3501 5.12954 13.831L10.1809 22.4932C12.3261 26.172 17.6199 27.3658 22.1092 24.8002C26.5954 22.2362 28.1902 17.1142 26.0499 13.444L22.6823 7.66916C22.3969 7.17972 21.5652 6.8829 20.7203 7.36577C19.8785 7.84687 19.7304 8.69493 20.0108 9.17585L22.2559 13.0257C22.3902 13.2561 22.427 13.5307 22.3579 13.7883C22.2889 14.046 22.1198 14.2653 21.8882 14.3977C19.8316 15.5731 19.2013 17.8458 20.1017 19.3898C20.3799 19.8669 20.2187 20.4792 19.7416 20.7574C19.2645 21.0356 18.6522 20.8744 18.374 20.3973C17.1571 18.3104 17.6488 15.7975 19.2206 14.0214C19.6601 13.5249 19.8106 12.8026 19.4765 12.2298L14.9156 4.40852Z" fill="#202533"/>
<g opacity="0.2">
<path fill-rule="evenodd" clip-rule="evenodd" d="M5.88704 23.8094C6.36413 23.5312 6.97643 23.6924 7.25464 24.1695C8.35712 26.0601 10.0426 27.4899 12.1211 28.4175C12.6254 28.6426 12.8518 29.2339 12.6267 29.7383C12.4016 30.2426 11.8103 30.469 11.306 30.2439C8.89061 29.1659 6.8642 27.4702 5.52694 25.177C5.24872 24.6999 5.40995 24.0877 5.88704 23.8094Z" fill="#202533"/>
<path fill-rule="evenodd" clip-rule="evenodd" d="M25.2097 5.22665C23.8578 3.84601 21.9299 3.33675 20.0425 3.87379C19.5113 4.02494 18.9581 3.71684 18.807 3.18564C18.6558 2.65444 18.9639 2.10129 19.4951 1.95015C22.0794 1.21483 24.768 1.91686 26.6387 3.8274C27.0251 4.22201 27.0184 4.85514 26.6238 5.24153C26.2292 5.62792 25.5961 5.62126 25.2097 5.22665Z" fill="#202533"/>
</g>
</svg>
