<svg width="32" height="32" viewBox="0 0 32 32" fill="none" xmlns="http://www.w3.org/2000/svg">
<path fill-rule="evenodd" clip-rule="evenodd" d="M14.9195 4.40852C14.6341 3.91908 13.8024 3.62226 12.9575 4.10513C12.1156 4.58623 11.9676 5.43429 12.248 5.9152L15.6156 11.69C15.8938 12.1671 15.7326 12.7794 15.2555 13.0576C14.7784 13.3358 14.1661 13.1746 13.8879 12.6975L9.39782 4.99776C9.11241 4.50832 8.28066 4.2115 7.43576 4.69437C6.59396 5.17547 6.4459 6.02353 6.72634 6.50444L11.7777 15.1667C12.0559 15.6438 11.8946 16.2561 11.4176 16.5343C10.9405 16.8125 10.3282 16.6513 10.05 16.1742L7.80493 12.3243C7.51952 11.8349 6.68777 11.538 5.84287 12.0209C5.00106 12.502 4.85301 13.3501 5.13345 13.831L10.1848 22.4932C12.33 26.172 17.6238 27.3658 22.1131 24.8002C26.5993 22.2362 28.1941 17.1142 26.0538 13.444L22.6862 7.66916C22.4008 7.17972 21.5691 6.8829 20.7242 7.36577C19.8824 7.84687 19.7343 8.69493 20.0148 9.17585L22.2598 13.0257C22.3941 13.2561 22.4309 13.5307 22.3618 13.7883C22.2928 14.046 22.1237 14.2653 21.8921 14.3977C19.8355 15.5731 19.2052 17.8458 20.1056 19.3898C20.3838 19.8669 20.2226 20.4792 19.7455 20.7574C19.2684 21.0356 18.6561 20.8744 18.3779 20.3973C17.161 18.3104 17.6527 15.7975 19.2245 14.0214C19.664 13.5249 19.8145 12.8026 19.4804 12.2298L14.9195 4.40852Z" fill="white"/>
<g opacity="0.25">
<path fill-rule="evenodd" clip-rule="evenodd" d="M5.88313 23.8094C6.36023 23.5312 6.97252 23.6924 7.25073 24.1695C8.35322 26.0601 10.0387 27.4899 12.1172 28.4175C12.6215 28.6426 12.8479 29.2339 12.6228 29.7383C12.3977 30.2426 11.8064 30.469 11.302 30.2439C8.8867 29.1659 6.8603 27.4702 5.52303 25.177C5.24482 24.6999 5.40604 24.0877 5.88313 23.8094Z" fill="white"/>
<path fill-rule="evenodd" clip-rule="evenodd" d="M25.2058 5.22665C23.8539 3.84601 21.926 3.33675 20.0386 3.87379C19.5074 4.02494 18.9542 3.71684 18.8031 3.18564C18.6519 2.65444 18.96 2.10129 19.4912 1.95015C22.0755 1.21483 24.7641 1.91686 26.6348 3.8274C27.0212 4.22201 27.0145 4.85514 26.6199 5.24153C26.2253 5.62792 25.5922 5.62126 25.2058 5.22665Z" fill="white"/>
</g>
</svg>
