<svg width="32" height="32" viewBox="0 0 32 32" fill="none" xmlns="http://www.w3.org/2000/svg">
<path d="M20.051 25.2145C23.9741 22.1219 29.3333 18.6667 29.3333 12.1828C29.3333 5.69888 21.9998 1.10062 16 7.33418L14.3822 10.569C14.1998 10.9338 14.1086 11.1162 14.1531 11.2953C14.1975 11.4744 14.3635 11.593 14.6954 11.83L17.7776 14.0316C18.1934 14.3286 18.4013 14.4771 18.4279 14.6957C18.4544 14.9143 18.2882 15.1082 17.9557 15.4962L15.2693 18.6302C14.9834 18.9638 14.8405 19.1306 14.848 19.3264C14.8555 19.5222 15.0108 19.6775 15.3215 19.9881L16.933 21.5996C17.1285 21.7952 17.2263 21.893 17.2615 22.0199C17.2966 22.1469 17.2631 22.281 17.196 22.5493L16 27.3333C17.3333 27.3333 18.6667 26.3058 20.051 25.2145Z" fill="#1E2330"/>
<path opacity="0.25" d="M10.8097 24.3291C7.06555 21.4444 2.66797 18.0562 2.66797 12.1828C2.66797 5.69888 10.0015 1.10062 16.0013 7.33418L14.511 10.3142C14.2677 10.8007 14.1461 11.0439 14.2054 11.2827C14.2647 11.5215 14.4859 11.6795 14.9285 11.9956L17.4826 13.82C18.037 14.216 18.3142 14.414 18.3496 14.7054C18.385 14.9968 18.1633 15.2554 17.72 15.7727L15.4715 18.3959C15.0903 18.8406 14.8997 19.063 14.9097 19.324C14.9198 19.5851 15.1269 19.7922 15.541 20.2064L16.8008 21.4662C17.0616 21.7269 17.1919 21.8573 17.2388 22.0265C17.2857 22.1958 17.241 22.3747 17.1515 22.7324L16.0013 27.3333C14.668 27.3333 13.3346 26.3058 11.9503 25.2145C11.5809 24.9233 11.1988 24.6289 10.8097 24.3291Z" fill="#1E2330"/>
</svg>
