<svg width="48" height="48" viewBox="0 0 48 48" fill="none" xmlns="http://www.w3.org/2000/svg">
<g clip-path="url(#clip0_448_14200)">
<path d="M24 48C37.3001 48 48 37.3001 48 24C48 10.6999 37.3001 0 24 0C10.6999 0 0 10.6999 0 24C0 37.3001 10.6999 48 24 48Z" fill="#2775CA"/>
<path d="M30.5991 27.7992C30.5991 24.2993 28.4991 23.0993 24.2991 22.5994C21.2991 22.1993 20.6991 21.3994 20.6991 19.9992C20.6991 18.5991 21.6992 17.6993 23.6991 17.6993C25.4991 17.6993 26.4992 18.2993 26.9991 19.7993C27.0992 20.0993 27.3992 20.2992 27.6992 20.2992H29.2991C29.6991 20.2992 29.9991 19.9992 29.9991 19.5994V19.4993C29.5991 17.2992 27.7991 15.5993 25.4991 15.3994V12.9994C25.4991 12.5993 25.1991 12.2993 24.6992 12.1992H23.1992C22.7991 12.1992 22.4991 12.4992 22.3991 12.9994V15.2993C19.3991 15.6994 17.4992 17.6993 17.4992 20.1994C17.4992 23.4994 19.4991 24.7992 23.6991 25.2994C26.4992 25.7993 27.3992 26.3993 27.3992 27.9994C27.3992 29.5995 25.9991 30.6994 24.0992 30.6994C21.4991 30.6994 20.5991 29.5992 20.2991 28.0992C20.1992 27.6994 19.8992 27.4992 19.5992 27.4992H17.8991C17.4992 27.4992 17.1992 27.7992 17.1992 28.1993V28.2994C17.5991 30.7992 19.1991 32.5992 22.4991 33.0994V35.4994C22.4991 35.8992 22.7991 36.1992 23.2991 36.2993H24.7991C25.1991 36.2993 25.4991 35.9993 25.5992 35.4994V33.0994C28.5992 32.5992 30.5991 30.4992 30.5991 27.7992Z" fill="white"/>
<path d="M18.9 38.3C11.1 35.5001 7.09992 26.8001 10.0001 19.1C11.5001 14.9 14.8001 11.7 18.9 10.2C19.3001 10.0001 19.5 9.70012 19.5 9.19996V7.80004C19.5 7.39996 19.3001 7.09996 18.9 7.00012C18.7999 7.00012 18.6 7.00012 18.4999 7.09996C9 10.1 3.79992 20.2001 6.79992 29.7C8.59992 35.3 12.9 39.6 18.4999 41.4C18.9 41.6 19.3001 41.4 19.3999 41C19.5 40.9001 19.5 40.8 19.5 40.6001V39.2C19.5 38.9 19.2 38.5001 18.9 38.3ZM29.5001 7.09996C29.1 6.90004 28.6999 7.09996 28.6001 7.50004C28.5 7.60012 28.5 7.69996 28.5 7.90012V9.30004C28.5 9.70012 28.8 10.1 29.1 10.3001C36.9 13.1 40.9001 21.8 37.9999 29.5001C36.4999 33.7001 33.1999 36.9 29.1 38.4C28.6999 38.6 28.5 38.9 28.5 39.4001V40.8C28.5 41.2001 28.6999 41.5001 29.1 41.6C29.2001 41.6 29.4 41.6 29.5001 41.5001C39 38.5001 44.2001 28.4 41.2001 18.9C39.4001 13.2 34.9999 8.89996 29.5001 7.09996Z" fill="white"/>
</g>
<defs>
<clipPath id="clip0_448_14200">
<rect width="48" height="48" fill="white"/>
</clipPath>
</defs>
</svg>
