<svg width="289" height="36" viewBox="0 0 289 36" fill="none" xmlns="http://www.w3.org/2000/svg">
<path d="M45.3516 29.7271H57.5454V26.6478H49.0295L57.3688 13.3769V10.1833H45.6788V13.2645H53.6153L45.3516 26.5356V29.7271Z" fill="#070E11"/>
<path d="M72.0967 15.3068H68.7222V22.3629C68.7222 24.2106 68.1912 27.1511 65.7486 27.1511C63.5815 27.1511 63.5569 24.7716 63.5569 23.0076V15.3068H60.1797V24.4071C60.1797 27.6556 61.5166 30.063 64.5891 30.063C66.3532 30.063 67.8149 29.1674 68.847 27.7672H68.8968V29.7264H72.0967V15.3068Z" fill="#070E11"/>
<path fill-rule="evenodd" clip-rule="evenodd" d="M84.515 15.3061V17.2666H84.4652C83.5327 15.6135 82.1966 14.9701 80.484 14.9701C76.6051 14.9701 74.9922 18.9749 74.9922 22.4458C74.9922 26.3098 76.4532 29.7257 80.2823 29.7257C82.1733 29.7257 83.6846 28.6621 84.3138 27.4305H84.3631C84.3631 29.9215 84.1877 33.0306 80.4589 33.0306C79.4002 33.0306 77.7136 32.386 76.6802 31.7692L76.4041 34.9626C78.0156 35.7182 79.5515 35.9419 80.887 35.9419C86.3291 35.9419 87.7403 32.2465 87.7403 28.3255V15.3061H84.515ZM81.3914 26.8137C79.4512 26.8137 78.518 24.4064 78.518 22.4458C78.518 20.2343 79.2495 17.8827 81.5421 17.8827C83.5067 17.8827 84.3631 19.8984 84.3631 22.3622C84.3631 24.7708 83.5067 26.8137 81.3914 26.8137Z" fill="#070E11"/>
<path fill-rule="evenodd" clip-rule="evenodd" d="M101.884 25.8631C100.626 26.6472 99.2141 27.3184 97.5768 27.3184C95.4859 27.3184 94.0242 26.0025 93.8723 23.6788H102.842C102.842 18.6389 101.482 14.9708 96.6701 14.9708C92.6377 14.9708 90.6484 18.4146 90.6484 22.5866C90.6484 27.3184 93.1415 30.063 97.426 30.063C99.2388 30.063 100.65 29.6706 101.884 28.9144V25.8631ZM93.8723 21.1035C94.0242 19.1708 94.9828 17.7142 96.8704 17.7142C98.7614 17.7142 99.5169 19.283 99.617 21.1035H93.8723Z" fill="#070E11"/>
<path d="M105.805 29.7271H109.18V24.4356C109.18 22.3636 109.18 18.5546 111.927 18.5546C112.531 18.5546 113.135 18.6675 113.438 18.8634V15.0838C113.085 14.9715 112.732 14.9715 112.404 14.9715C110.389 14.9715 109.003 17.2388 108.852 18.5825H108.802V15.3075H105.805V29.7271Z" fill="#070E11"/>
<path d="M121.57 29.7271H125.098V20.6553H125.148L131.471 29.7271H136.083L128.55 19.3959L135.78 10.1833H131.447L125.098 18.5825V10.1833H121.57V29.7271Z" fill="#070E11"/>
<path fill-rule="evenodd" clip-rule="evenodd" d="M140.724 25.5543C140.724 23.3428 142.966 23.0627 144.477 23.0627H145.94C145.94 24.1834 145.788 25.2191 145.233 26.031C144.704 26.8145 143.898 27.3184 142.865 27.3184C141.656 27.3184 140.724 26.7866 140.724 25.5543ZM139.011 19.283C140.146 18.3303 141.581 17.7142 143.016 17.7142C145.007 17.7142 145.94 18.4982 145.94 20.822H144.074C142.664 20.822 141.002 20.9634 139.716 21.6625C138.432 22.3629 137.5 23.6223 137.5 25.7787C137.5 28.5227 139.742 30.063 142.034 30.063C143.57 30.063 145.259 29.1674 146.041 27.5707H146.089C146.115 28.0188 146.115 28.9709 146.241 29.7264H149.215C149.138 28.6077 149.088 27.5985 149.063 26.5071C149.039 25.4435 149.013 24.3507 149.013 22.8947V21.047C149.013 16.7906 147.375 14.9708 143.421 14.9708C141.984 14.9708 140.219 15.3911 138.911 16.0623L139.011 19.283Z" fill="#070E11"/>
<path d="M152.586 29.7271H155.962V22.671C155.962 20.8226 156.491 17.8841 158.934 17.8841C161.101 17.8841 161.126 20.2636 161.126 22.0283V29.7271H164.502V20.6274C164.502 17.3795 163.167 14.9715 160.094 14.9715C158.33 14.9715 156.894 15.6149 155.836 17.268H155.785V15.3075H152.586V29.7271Z" fill="#070E11"/>
<path d="M169.347 25.387C169.347 28.2432 170.808 30.063 173.454 30.063C174.462 30.063 175.242 29.9508 175.947 29.7264L175.846 26.7587C175.495 27.0103 174.915 27.1511 174.31 27.1511C173.024 27.1511 172.722 26.0025 172.722 24.7716V18.0514H175.721V15.3068H172.722V11.2184L169.347 12.4221V15.3068H166.852V18.0514H169.347V25.387Z" fill="#070E11"/>
<path fill-rule="evenodd" clip-rule="evenodd" d="M180.973 22.167C180.973 20.0113 182.031 17.8834 184.223 17.8834C186.441 17.8834 187.499 19.9549 187.499 22.167C187.499 24.5744 186.818 27.1511 184.223 27.1511C181.654 27.1511 180.973 24.5465 180.973 22.167ZM177.445 22.6158C177.445 26.7587 179.94 30.063 184.223 30.063C188.531 30.063 191.027 26.7587 191.027 22.6158C191.027 17.8556 188.077 14.9708 184.223 14.9708C180.393 14.9708 177.445 17.8556 177.445 22.6158Z" fill="#070E11"/>
<path d="M193.93 29.7271H197.306V22.671C197.306 20.8226 197.834 17.8841 200.278 17.8841C202.446 17.8841 202.472 20.2636 202.472 22.0283V29.7271H205.846V20.6274C205.846 17.3795 204.511 14.9715 201.438 14.9715C199.675 14.9715 198.237 15.6149 197.18 17.268H197.131V15.3075H193.93V29.7271Z" fill="#070E11"/>
<path fill-rule="evenodd" clip-rule="evenodd" d="M211.967 25.5543C211.967 23.3428 214.209 23.0627 215.719 23.0627H217.182C217.182 24.1834 217.031 25.2191 216.477 26.031C215.947 26.8145 215.141 27.3184 214.108 27.3184C212.898 27.3184 211.967 26.7866 211.967 25.5543ZM210.253 19.283C211.386 18.3303 212.824 17.7142 214.26 17.7142C216.249 17.7142 217.182 18.4982 217.182 20.822H215.318C213.906 20.822 212.243 20.9634 210.96 21.6625C209.673 22.3629 208.742 23.6223 208.742 25.7787C208.742 28.5227 210.983 30.063 213.277 30.063C214.813 30.063 216.501 29.1674 217.282 27.5707H217.333C217.357 28.0188 217.357 28.9709 217.485 29.7264H220.456C220.382 28.6077 220.331 27.5985 220.307 26.5071C220.28 25.4435 220.256 24.3507 220.256 22.8947V21.047C220.256 16.7906 218.618 14.9708 214.662 14.9708C213.226 14.9708 211.463 15.3911 210.153 16.0623L210.253 19.283Z" fill="#070E11"/>
<path d="M223.898 29.7271H227.276V8.72807H223.898V29.7271Z" fill="#070E11"/>
<path fill-rule="evenodd" clip-rule="evenodd" d="M231.336 29.7264H234.61V27.9637H234.661C235.643 29.5033 237.205 30.063 238.641 30.063C242.622 30.063 244.083 26.4228 244.083 22.4751C244.083 18.4982 242.622 14.9708 238.641 14.9708C236.879 14.9708 235.694 15.7829 234.763 17.1552H234.712V8.72741H231.336V29.7264ZM234.738 22.4751C234.738 20.4588 235.594 17.8835 237.761 17.8835C239.953 17.8835 240.556 20.5424 240.556 22.4751C240.556 24.4622 239.925 27.1511 237.71 27.1511C235.467 27.1511 234.738 24.5193 234.738 22.4751Z" fill="#070E11"/>
<path fill-rule="evenodd" clip-rule="evenodd" d="M249.374 25.5543C249.374 23.3428 251.615 23.0627 253.127 23.0627H254.59C254.59 24.1834 254.437 25.2191 253.885 26.031C253.355 26.8145 252.548 27.3184 251.515 27.3184C250.305 27.3184 249.374 26.7866 249.374 25.5543ZM247.661 19.283C248.792 18.3303 250.23 17.7142 251.666 17.7142C253.657 17.7142 254.59 18.4982 254.59 20.822H252.724C251.314 20.822 249.65 20.9634 248.366 21.6625C247.081 22.3629 246.148 23.6223 246.148 25.7787C246.148 28.5227 248.391 30.063 250.684 30.063C252.221 30.063 253.909 29.1674 254.689 27.5707H254.74C254.765 28.0188 254.765 28.9709 254.893 29.7264H257.864C257.788 28.6077 257.737 27.5985 257.713 26.5071C257.688 25.4435 257.662 24.3507 257.662 22.8947V21.047C257.662 16.7906 256.024 14.9708 252.07 14.9708C250.634 14.9708 248.869 15.3911 247.56 16.0623L247.661 19.283Z" fill="#070E11"/>
<path d="M261.234 29.7271H264.609V22.671C264.609 20.8226 265.139 17.8841 267.583 17.8841C269.749 17.8841 269.775 20.2636 269.775 22.0283V29.7271H273.151V20.6274C273.151 17.3795 271.815 14.9715 268.741 14.9715C266.976 14.9715 265.542 15.6149 264.483 17.268H264.432V15.3075H261.234V29.7271Z" fill="#070E11"/>
<path d="M276.961 29.7271H280.336V22.7274H280.387L284.719 29.7271H289.003L283.561 21.7481L288.398 15.3075H284.417L280.387 21.0756H280.336V8.72807H276.961V29.7271Z" fill="#070E11"/>
<path d="M0 32.5552H32.5484V6.86646e-05H0V32.5552Z" fill="#3C85CE"/>
<path d="M1.24219 31.3052H31.2934V1.24767H1.24219V31.3052Z" fill="white"/>
<path d="M6.25781 16.2726L14.5394 29.7349H29.5634L21.2811 16.2726L29.5634 2.81043H14.5394L6.25781 16.2726Z" fill="#3C85CE"/>
</svg>
