<svg width="206" height="50" viewBox="0 0 206 50" fill="none" xmlns="http://www.w3.org/2000/svg">
<path d="M28.6853 0L0 49.6856H3.98025L28.6853 7.13716V14.1371L8.09775 49.6856H12.2153L28.6853 21.2742V28.4114L16.3328 49.6856H20.4503L28.6853 35.5485V42.5484L24.5678 49.6856H57.3706L28.6853 0Z" fill="#DA291C"/>
<path d="M58.3594 23.9622H71.3098V26.7277H61.4621V31.2469H70.2306V34.0125H61.4621V38.6666H71.4447V41.4321H58.3594V23.9622ZM91.2077 23.9622L85.1372 32.4611L91.4775 41.3647H87.8352L83.2486 34.687L78.6619 41.3647H75.1545L81.4274 32.4611L75.3569 23.8948H78.9992L83.316 30.1677L87.7003 23.8948H91.2077V23.9622ZM93.9732 32.7309C93.9732 27.7395 97.7504 23.6924 103.146 23.6924C108.475 23.6924 112.252 27.7395 112.252 32.6634C112.252 37.5874 108.475 41.7019 103.079 41.7019C97.7504 41.7019 93.9732 37.6548 93.9732 32.7309ZM109.015 32.7309C109.015 29.2909 106.519 26.5254 103.079 26.5254C99.639 26.5254 97.2108 29.2909 97.2108 32.6634C97.2108 36.036 99.7065 38.8689 103.146 38.8689C106.586 38.8689 109.015 36.1034 109.015 32.7309ZM116.029 38.8689L117.851 36.6431C119.537 38.0595 121.223 38.9364 123.382 38.9364C125.27 38.9364 126.484 38.0595 126.484 36.7105V36.6431C126.484 35.429 125.81 34.7544 122.572 33.945C118.862 33.0682 116.771 31.9215 116.771 28.7513V28.6838C116.771 25.716 119.267 23.625 122.707 23.625C125.27 23.625 127.294 24.367 129.047 25.8509L127.429 28.1442C125.877 26.9976 124.258 26.3231 122.707 26.3231C120.886 26.3231 119.874 27.2674 119.874 28.414V28.4815C119.874 29.8305 120.684 30.4376 124.056 31.247C127.766 32.1239 129.654 33.4729 129.654 36.3733V36.4408C129.654 39.6784 127.091 41.6345 123.449 41.6345C120.684 41.6345 118.12 40.6901 116.029 38.8689ZM133.769 32.7309C133.769 27.7395 137.479 23.6924 142.74 23.6924C145.977 23.6924 147.934 24.8391 149.62 26.3905L147.664 28.6838C146.247 27.4022 144.763 26.5254 142.74 26.5254C139.435 26.5254 137.007 29.2234 137.007 32.6634C137.007 36.1034 139.435 38.8689 142.74 38.8689C144.898 38.8689 146.247 37.9921 147.731 36.6431L149.687 38.6666C147.866 40.5552 145.843 41.7694 142.605 41.7694C137.546 41.7019 133.769 37.7223 133.769 32.7309ZM160.547 23.8273H163.38L171.069 41.3647H167.831L166.078 37.1827H157.849L156.028 41.3647H152.857L160.547 23.8273ZM164.931 34.4846L161.896 27.5371L158.928 34.4846H164.931ZM175.453 23.9622H178.489V38.5991H187.662V41.3647H175.453V23.9622ZM192.248 23.9622H205.199V26.7277H195.351V31.2469H204.12V34.0125H195.351V38.6666H205.334V41.4321H192.248V23.9622Z" fill="black"/>
</svg>
