<svg width="206" height="48" viewBox="0 0 206 48" fill="none" xmlns="http://www.w3.org/2000/svg">
<g clip-path="url(#clip0_5799_7304)">
<path d="M74.3088 0.460938H69.7812V36.8037H90.8998V32.6529H74.3088V0.460938ZM111.289 11.5196C109.421 10.5152 107.265 10.013 104.842 10.013C102.419 10.013 100.191 10.5766 98.2918 11.704C96.3822 12.8314 94.9038 14.4098 93.8463 16.4595C92.7889 18.4991 92.255 20.8768 92.255 23.5723C92.255 26.2678 92.7991 28.6045 93.8977 30.6646C94.9962 32.7246 96.5259 34.3132 98.4971 35.4406C100.468 36.568 102.778 37.1317 105.417 37.1317C108.435 37.1317 110.981 36.2708 113.066 34.5592C115.15 32.8476 116.443 30.6441 116.967 27.9384H112.645C112.193 29.6294 111.3 30.9618 109.965 31.915C108.63 32.8681 107.008 33.3396 105.099 33.3396C102.635 33.3396 100.643 32.5606 99.1131 31.0028C97.5834 29.445 96.7929 27.3644 96.721 24.7714V24.4025H117.316C117.388 23.5723 117.419 22.9676 117.419 22.5884C117.347 20.0262 116.772 17.7919 115.704 15.8856C114.636 13.9793 113.168 12.5239 111.289 11.5196ZM96.9879 20.8666C97.1933 18.7553 98.0659 17.0437 99.5854 15.7319C101.115 14.42 102.881 13.7641 104.893 13.7641C107.152 13.7641 109.01 14.3893 110.489 15.6294C111.967 16.8695 112.809 18.6221 113.014 20.8768L96.9879 20.8666ZM200.702 10.3307L192.797 31.9355L184.624 10.3307H180.097L190.497 37.0189L188.012 43.3015H181.493V47.1961H186.595C187.807 47.1961 188.782 47.0014 189.511 46.6222C190.24 46.243 190.846 45.6485 191.328 44.8594C191.811 44.06 192.365 42.8711 192.992 41.2722L205.219 10.3204L200.702 10.3307ZM172.735 14.9017C171.873 13.3439 170.672 12.1447 169.142 11.2941C167.612 10.4434 165.775 10.0232 163.629 10.0232C161.196 10.0232 159.019 10.5971 157.079 11.7348C155.138 12.8827 153.619 14.4712 152.531 16.5108C151.442 18.5503 150.888 20.9076 150.888 23.5723C150.888 26.3805 151.432 28.7993 152.531 30.8388C153.619 32.8784 155.128 34.4362 157.058 35.5123C158.988 36.5885 161.175 37.1214 163.639 37.1214C167.797 37.1214 170.836 35.4918 172.746 32.2429V35.3586C172.746 40.934 169.881 43.7217 164.163 43.7217C161.945 43.7217 160.128 43.2708 158.701 42.3689C157.284 41.467 156.391 40.1859 156.052 38.5255H151.678C152.028 41.3952 153.28 43.609 155.446 45.1771C157.613 46.7349 160.415 47.5139 163.844 47.5139C172.612 47.5139 177.006 43.5168 177.006 35.5226V10.3307H173.31L172.735 14.9017ZM171.698 28.6865C170.97 30.1624 169.933 31.3 168.608 32.1097C167.274 32.9194 165.754 33.3293 164.06 33.3293C161.422 33.3293 159.307 32.4172 157.684 30.6031C156.073 28.789 155.262 26.442 155.262 23.5723C155.262 20.7026 156.062 18.3556 157.684 16.5415C159.296 14.7275 161.422 13.8153 164.06 13.8153C165.764 13.8153 167.274 14.2355 168.608 15.0657C169.943 15.8959 170.98 17.0642 171.698 18.5708C172.417 20.0774 172.787 21.7787 172.787 23.6851C172.787 25.5914 172.427 27.2107 171.698 28.6865ZM142.705 14.379C141.843 13.0261 140.642 11.9603 139.112 11.1813C137.582 10.4024 135.745 10.013 133.599 10.013C131.166 10.013 128.989 10.5869 127.049 11.7245C125.108 12.8724 123.589 14.461 122.501 16.5005C121.412 18.5401 120.858 20.8973 120.858 23.5621C120.858 26.3703 121.402 28.789 122.501 30.8286C123.589 32.8681 125.098 34.4259 127.028 35.5021C128.958 36.5782 131.145 37.1112 133.609 37.1112C137.459 37.1112 140.488 35.5841 142.716 32.5401L143.291 36.7935H146.987V0.460938H142.705V14.379ZM141.668 28.6865C140.94 30.1624 139.903 31.3 138.578 32.1097C137.244 32.9194 135.724 33.3293 134.03 33.3293C131.392 33.3293 129.277 32.4172 127.654 30.6031C126.043 28.789 125.232 26.442 125.232 23.5723C125.232 20.7026 126.032 18.3556 127.654 16.5415C129.266 14.7275 131.392 13.8153 134.03 13.8153C135.734 13.8153 137.244 14.2355 138.578 15.0657C139.913 15.8959 140.95 17.0642 141.668 18.5708C142.387 20.0774 142.757 21.7787 142.757 23.6851C142.757 25.5914 142.397 27.2107 141.668 28.6865Z" fill="#0F172A"/>
<path d="M17.596 0.152344L0.101562 10.2271V16.9504L17.596 6.8654V0.152344ZM35.0904 37.1203L52.5848 27.0353V20.312L35.0904 30.397V37.1203ZM35.0904 0.152344L0.101562 20.312V27.0353L35.0904 6.87565V0.152344ZM17.596 37.1203L52.5848 16.9504V10.2373L17.596 30.397V37.1203ZM0.101562 30.397V37.1203L52.5848 6.87565V0.152344L0.101562 30.397Z" fill="#5A1EFF"/>
</g>
<defs>
<clipPath id="clip0_5799_7304">
<rect width="205.333" height="47.6576" fill="white"/>
</clipPath>
</defs>
</svg>
