<svg width="32" height="32" viewBox="0 0 32 32" fill="none" xmlns="http://www.w3.org/2000/svg">
<path opacity="0.2" d="M2.66675 15.9998C2.66675 9.71444 2.66675 6.57175 4.61937 4.61913C6.57199 2.6665 9.71469 2.6665 16.0001 2.6665C22.2855 2.6665 25.4282 2.6665 27.3808 4.61913C29.3334 6.57175 29.3334 9.71444 29.3334 15.9998C29.3334 22.2852 29.3334 25.4279 27.3808 27.3805C25.4282 29.3332 22.2855 29.3332 16.0001 29.3332C9.71469 29.3332 6.57199 29.3332 4.61937 27.3805C2.66675 25.4279 2.66675 22.2852 2.66675 15.9998Z" fill="#272E3F"/>
<path fill-rule="evenodd" clip-rule="evenodd" d="M29.3333 8.95994C29.3333 12.4357 26.504 15.2534 23.014 15.2534C22.3772 15.2534 20.9272 15.107 20.2218 14.5216L19.34 15.3998C18.8215 15.9161 18.9615 16.0681 19.1922 16.3185C19.2884 16.423 19.4004 16.5446 19.4869 16.717C19.4869 16.717 20.2217 17.7415 19.4869 18.766C19.0461 19.3514 17.8116 20.171 16.4008 18.766L16.1069 19.0587C16.1069 19.0587 16.9886 20.0832 16.2538 21.1077C15.813 21.6932 14.6373 22.2786 13.6086 21.2541L12.5798 22.2786C11.8744 22.9811 11.0123 22.5713 10.6694 22.2786L9.78766 21.4005C8.96469 20.5808 9.44475 19.6929 9.78766 19.3514L17.4295 11.7408C17.4295 11.7408 16.6947 10.5699 16.6947 8.95994C16.6947 5.48417 19.524 2.6665 23.014 2.6665C26.504 2.6665 29.3333 5.48417 29.3333 8.95994ZM25.2186 8.95987C25.2186 10.1723 24.2317 11.1553 23.0142 11.1553C21.7968 11.1553 20.8098 10.1723 20.8098 8.95987C20.8098 7.74739 21.7968 6.76449 23.0142 6.76449C24.2317 6.76449 25.2186 7.74739 25.2186 8.95987Z" fill="#272E3F"/>
</svg>
