<svg width="32" height="32" viewBox="0 0 32 32" fill="none" xmlns="http://www.w3.org/2000/svg">
<path d="M6.63877 12.9134C3.99092 11.8543 2.66699 11.3247 2.66699 10.6666C2.66699 10.0086 3.99092 9.47901 6.63877 8.41987L10.3834 6.92202C13.0312 5.86288 14.3552 5.33331 16.0003 5.33331C17.6455 5.33331 18.9694 5.86288 21.6173 6.92202L25.3619 8.41987C28.0097 9.47901 29.3337 10.0086 29.3337 10.6666C29.3337 11.3247 28.0097 11.8543 25.3619 12.9134L21.6173 14.4113C18.9694 15.4704 17.6455 16 16.0003 16C14.3552 16 13.0312 15.4704 10.3834 14.4113L6.63877 12.9134Z" fill="#1C274C"/>
<path fill-rule="evenodd" clip-rule="evenodd" d="M2.66699 10.6666C2.66699 11.3247 3.99092 11.8543 6.63877 12.9134L10.3834 14.4113C13.0312 15.4704 14.3552 16 16.0003 16C17.6455 16 18.9694 15.4704 21.6173 14.4113L25.3619 12.9134C28.0097 11.8543 29.3337 11.3247 29.3337 10.6666C29.3337 10.0086 28.0097 9.47901 25.3619 8.41987L21.6173 6.92202C18.9694 5.86288 17.6455 5.33331 16.0003 5.33331C14.3552 5.33331 13.0312 5.86288 10.3834 6.92202L6.63877 8.41987C3.99092 9.47901 2.66699 10.0086 2.66699 10.6666Z" fill="#1E2330"/>
<path opacity="0.5" d="M7.6885 13.3333L6.63877 13.7532C3.99092 14.8123 2.66699 15.3419 2.66699 16C2.66699 16.658 3.99092 17.1876 6.63877 18.2468L10.3834 19.7446C13.0312 20.8037 14.3552 21.3333 16.0003 21.3333C17.6455 21.3333 18.9694 20.8037 21.6173 19.7446L25.3619 18.2468C28.0097 17.1876 29.3337 16.658 29.3337 16C29.3337 15.3419 28.0097 14.8123 25.3619 13.7532L24.3122 13.3333L21.6173 14.4113C18.9694 15.4704 17.6455 16 16.0003 16C14.3552 16 13.0312 15.4704 10.3834 14.4113L7.6885 13.3333Z" fill="#1E2330"/>
<path opacity="0.25" d="M7.6885 18.6667L6.63877 19.0866C3.99092 20.1457 2.66699 20.6753 2.66699 21.3334C2.66699 21.9914 3.99092 22.521 6.63877 23.5801L10.3834 25.078C13.0312 26.1371 14.3552 26.6667 16.0003 26.6667C17.6455 26.6667 18.9694 26.1371 21.6173 25.078L25.3619 23.5801C28.0097 22.521 29.3337 21.9914 29.3337 21.3334C29.3337 20.6753 28.0097 20.1457 25.3619 19.0866L24.3122 18.6667L21.6173 19.7446C18.9694 20.8038 17.6455 21.3334 16.0003 21.3334C14.3552 21.3334 13.0312 20.8038 10.3834 19.7446L7.6885 18.6667Z" fill="#1E2330"/>
</svg>
