<svg width="152" height="36" viewBox="0 0 152 36" fill="none" xmlns="http://www.w3.org/2000/svg">
<g clip-path="url(#clip0_126_469)">
<path d="M82.8107 10.4102C76.5666 10.4102 72.3733 14.3848 72.3733 20.2973C72.3733 26.2097 76.4087 30.0669 82.6528 30.0669C85.3399 30.0669 87.169 29.0369 88.4254 28.0599L88.4773 29.7304H93.2481V20.2996C93.2481 14.3848 89.0524 10.4125 82.8107 10.4125V10.4102ZM88.1826 21.5622C87.7607 23.8088 85.5285 25.5023 82.9946 25.5023C79.8101 25.5023 77.7546 23.4586 77.7546 20.2973C77.7546 17.136 79.8124 15.0922 82.9946 15.0922C85.5285 15.0922 88.2345 16.4586 88.2345 20.2973C88.2345 20.401 88.218 21.371 88.1826 21.5622Z" fill="#101729"/>
<path d="M110.7 12.9348C109.444 11.9579 107.615 10.9279 104.927 10.9279C98.6834 10.9279 94.6479 14.762 94.6479 20.6975C94.6479 26.633 98.8437 30.5846 105.085 30.5846C111.327 30.5846 115.523 26.6099 115.523 20.6975V5.5293H110.752L110.7 12.9348ZM105.269 25.9003C102.085 25.9003 100.029 23.8565 100.029 20.6952C100.029 17.5339 102.087 15.4901 105.269 15.4901C107.805 15.4901 110.035 17.1837 110.457 19.4302C110.493 19.6215 110.509 20.5915 110.509 20.6952C110.509 24.5339 107.803 25.9003 105.269 25.9003Z" fill="#101729"/>
<path d="M73.71 10.7166C71.2138 10.4401 68.1142 10.6014 66.5113 13.0461L66.4595 11.0599H61.7476V29.8594H66.9757V20.3087C66.9757 20.205 67.0275 19.2396 67.0275 19.0437C67.0275 16.0576 69.0688 15.2396 71.3623 15.1221C71.9516 13.9355 72.7342 12.8364 73.71 11.7719V10.7166Z" fill="#101729"/>
<path d="M55.5763 6.25195L50.063 7.12292V11.0584H48.5049V15.0722H50.063V24.3326C50.063 27.9294 52.5969 29.8579 55.9487 29.8579C57.8156 29.8579 59.3477 29.5722 59.3477 29.5722V24.9939C59.3477 24.9939 58.4685 25.0837 58.1503 25.1045C56.8161 25.1897 55.5787 25.252 55.5787 23.9409V15.0722H59.3477V11.0584H55.5787V6.25426L55.5763 6.25195Z" fill="#101729"/>
<path d="M142.19 11.0156C139.126 11.0156 136.38 12.3682 134.544 14.4949C133.07 16.2 132.182 18.3981 132.182 20.799C132.182 23.6078 129.834 25.8843 126.94 25.8843C124.045 25.8843 121.697 23.6078 121.697 20.799C121.697 20.5225 121.721 20.2483 121.766 19.9834C122.169 17.5617 124.33 15.7138 126.94 15.7138C128.978 15.7138 130.744 16.8451 131.611 18.4926C131.991 16.8382 132.773 15.2806 133.907 13.9672C133.928 13.9442 133.95 13.9189 133.971 13.8958C132.163 12.1608 129.679 11.0894 126.94 11.0894C121.704 11.0894 117.396 15.0087 116.967 19.9834C116.943 20.253 116.931 20.5248 116.931 20.799C116.931 26.1516 121.421 30.5064 126.94 30.5064C129.98 30.5064 132.707 29.1838 134.544 27.1032C136.04 25.405 136.948 23.2023 136.948 20.799C136.948 17.9695 139.296 15.6746 142.19 15.6746C145.085 15.6746 147.433 17.9695 147.433 20.799C147.433 21.0755 147.409 21.3497 147.367 21.6147C146.966 24.0571 144.802 25.9235 142.19 25.9235C140.147 25.9235 138.379 24.7806 137.514 23.1124C137.127 24.7714 136.33 26.3267 135.175 27.6354C135.154 27.6585 135.133 27.6815 135.112 27.7069C136.924 29.4834 139.428 30.5824 142.19 30.5824C147.428 30.5824 151.739 26.6285 152.163 21.6147C152.187 21.3451 152.199 21.0732 152.199 20.799C152.199 15.405 147.708 11.0156 142.19 11.0156Z" fill="#101729"/>
<path d="M18.414 0C8.24527 0 0 8.0576 0 18C0 27.9424 8.24527 36 18.414 36C28.5827 36 36.8279 27.9401 36.8279 18C36.8279 8.05991 28.585 0 18.414 0ZM32.3022 18.6429C31.9675 22.5991 28.5662 25.7189 24.4317 25.7189C22.2514 25.7189 20.2761 24.8502 18.8453 23.4493C18.8618 23.4309 18.8783 23.4124 18.8948 23.394C19.4652 22.7488 19.9249 22.0276 20.262 21.2581C20.467 20.7949 20.6273 20.3157 20.7405 19.8249C21.424 21.1406 22.8195 22.0438 24.4317 22.0438C26.4919 22.0438 28.2008 20.5691 28.5167 18.6429C28.552 18.4332 28.5685 18.2189 28.5685 18C28.5685 15.765 26.7182 13.9539 24.4317 13.9539C23.2909 13.9539 22.2561 14.4055 21.5065 15.1382C20.7593 15.871 20.295 16.8825 20.295 18C20.295 19.1175 20.0687 20.0829 19.6585 21.0069C19.3427 21.7258 18.9137 22.3871 18.3975 22.9747C16.9478 24.6175 14.7958 25.6613 12.3962 25.6613C8.0402 25.6613 4.49742 22.2235 4.49742 18C4.49742 17.7834 4.50685 17.5668 4.5257 17.3548C4.86513 13.4309 8.26412 10.3387 12.3962 10.3387C14.5577 10.3387 16.5165 11.1843 17.9449 12.553C17.9284 12.5714 17.9119 12.5899 17.8954 12.6083C17.167 13.4516 16.6225 14.4194 16.2855 15.4539C16.2077 15.6912 16.1393 15.9355 16.0828 16.1797C15.3992 14.8779 14.0061 13.9862 12.3962 13.9862C10.336 13.9862 8.62948 15.4447 8.31362 17.3548C8.27827 17.5645 8.25941 17.7811 8.25941 18C8.25941 20.2166 10.1121 22.0115 12.3962 22.0115C13.537 22.0115 14.5718 21.5622 15.3214 20.8364C16.0686 20.1106 16.533 19.1083 16.533 18C16.533 17.1705 16.6673 16.3733 16.9172 15.6244C17.2354 14.6613 17.7445 13.7788 18.3975 13.023C19.8471 11.3456 22.0133 10.2788 24.4317 10.2788C28.7877 10.2788 32.3305 13.7419 32.3305 18C32.3305 18.2166 32.3211 18.4309 32.3022 18.6429Z" fill="#101729"/>
</g>
<defs>
<clipPath id="clip0_126_469">
<rect width="152" height="36" fill="white"/>
</clipPath>
</defs>
</svg>
