<svg width="136" height="36" viewBox="0 0 136 36" fill="none" xmlns="http://www.w3.org/2000/svg">
<g clip-path="url(#clip0_126_1017)">
<path d="M71.4459 11.1943C66.0237 11.1943 62.3823 14.7584 62.3823 20.06C62.3823 25.3617 65.8866 28.8204 71.3087 28.8204C73.6421 28.8204 75.2305 27.8968 76.3215 27.0208L76.3665 28.5187H80.5094V20.0621C80.5094 14.7584 76.866 11.1964 71.4459 11.1964V11.1943ZM76.1107 21.1943C75.7443 23.2088 73.8059 24.7274 71.6055 24.7274C68.8402 24.7274 67.0553 22.8947 67.0553 20.06C67.0553 17.2253 68.8422 15.3927 71.6055 15.3927C73.8059 15.3927 76.1557 16.6179 76.1557 20.06C76.1557 20.153 76.1414 21.0228 76.1107 21.1943Z" fill="white"/>
<path d="M99.8544 20.4196V6.81836H95.7115L95.6665 13.4589C94.5755 12.5828 92.9871 11.6593 90.6537 11.6593C85.2315 11.6593 81.7273 15.0973 81.7273 20.4196C81.7273 25.7419 85.3707 29.2853 90.7908 29.2853C96.2109 29.2853 99.8544 25.7213 99.8544 20.4196ZM95.4986 20.4196C95.4986 23.8617 93.1468 25.087 90.9484 25.087C88.1831 25.087 86.3982 23.2543 86.3982 20.4196C86.3982 17.5849 88.1852 15.7522 90.9484 15.7522C93.1509 15.7522 95.0872 17.2708 95.4536 19.2853C95.4843 19.4568 95.4986 20.3266 95.4986 20.4196Z" fill="white"/>
<path d="M63.5429 12.4172V11.4709C61.3752 11.2229 58.6836 11.3676 57.2917 13.5597L57.2467 11.7787H53.155V28.6362H57.695V20.0721C57.695 19.9791 57.74 19.1134 57.74 18.9378C57.74 16.2601 59.5126 15.5267 61.5042 15.4213C62.0159 14.3572 62.6955 13.3717 63.5429 12.4172Z" fill="white"/>
<path d="M51.0693 15.3758V11.7766H47.7964V7.46875L43.0087 8.24974V11.7787H41.6558V15.3778H43.0087V23.6816C43.0087 26.9068 45.2091 28.6361 48.1177 28.6361C49.7388 28.6361 51.0693 28.3799 51.0693 28.3799V24.2745C51.0693 24.2745 50.3058 24.3551 50.0295 24.3737C48.871 24.4502 47.7964 24.5059 47.7964 23.3303V15.3778H51.0693V15.3758Z" fill="white"/>
<path d="M123.006 11.7393C120.346 11.7393 117.961 12.9521 116.366 14.8591C115.087 16.388 114.315 18.3591 114.315 20.512C114.315 23.0306 112.277 25.0719 109.763 25.0719C107.25 25.0719 105.211 23.0306 105.211 20.512C105.211 20.2641 105.231 20.0182 105.27 19.7806C105.62 17.6091 107.497 15.9521 109.763 15.9521C111.534 15.9521 113.067 16.9665 113.82 18.4438C114.15 16.9603 114.829 15.5636 115.814 14.386C115.832 14.3653 115.851 14.3426 115.869 14.3219C114.299 12.7661 112.142 11.8054 109.763 11.8054C105.217 11.8054 101.475 15.3198 101.103 19.7806C101.082 20.0223 101.072 20.2661 101.072 20.512C101.072 25.3116 104.972 29.2165 109.763 29.2165C112.404 29.2165 114.772 28.0306 116.366 26.1649C117.666 24.6422 118.454 22.6669 118.454 20.512C118.454 17.9748 120.493 15.9169 123.006 15.9169C125.52 15.9169 127.559 17.9748 127.559 20.512C127.559 20.7599 127.538 21.0058 127.501 21.2434C127.153 23.4335 125.274 25.107 123.006 25.107C121.232 25.107 119.697 24.0822 118.946 22.5864C118.61 24.074 117.918 25.4686 116.915 26.6421C116.897 26.6628 116.878 26.6835 116.86 26.7062C118.434 28.2992 120.608 29.2847 123.006 29.2847C127.555 29.2847 131.298 25.7393 131.667 21.2434C131.687 21.0017 131.697 20.7579 131.697 20.512C131.697 15.6752 127.798 11.7393 123.006 11.7393Z" fill="white"/>
<path d="M136 8.82848C136 10.0268 135.069 10.9669 133.855 10.9669C132.641 10.9669 131.698 10.0268 131.698 8.82848C131.698 7.63013 132.655 6.71484 133.855 6.71484C135.054 6.71484 136 7.65493 136 8.82848ZM132.234 8.82848C132.234 9.76856 132.924 10.5165 133.867 10.5165C134.811 10.5165 135.464 9.76856 135.464 8.84088C135.464 7.91319 134.786 7.14046 133.855 7.14046C132.924 7.14046 132.234 7.90079 132.234 8.82848ZM133.523 9.93798H133.038V7.82435C133.231 7.78509 133.499 7.7603 133.843 7.7603C134.238 7.7603 134.418 7.82435 134.571 7.91526C134.686 8.00617 134.776 8.17352 134.776 8.38013C134.776 8.61154 134.598 8.79336 134.342 8.8698V8.8946C134.547 8.97104 134.661 9.126 134.725 9.41112C134.788 9.73344 134.827 9.86154 134.878 9.94005H134.354C134.291 9.8636 134.252 9.66939 134.189 9.42352C134.15 9.19212 134.023 9.08881 133.755 9.08881H133.525V9.94005L133.523 9.93798ZM133.536 8.73757H133.765C134.033 8.73757 134.25 8.64666 134.25 8.42765C134.25 8.23344 134.109 8.10534 133.804 8.10534C133.677 8.10534 133.587 8.11774 133.536 8.13013V8.7355V8.73757Z" fill="white"/>
<path d="M17.8323 0C7.99916 0 0 8.07438 0 18C0 27.9256 7.99916 36 17.8323 36C27.6655 36 35.6646 27.9256 35.6646 18C35.6646 8.07438 27.6655 0 17.8323 0ZM17.8323 34.1405C9.00212 34.1405 1.84218 26.9132 1.84218 18C1.84218 9.08678 9.00212 1.8595 17.8323 1.8595C26.6625 1.8595 33.8224 9.08678 33.8224 18C33.8224 26.9132 26.6625 34.1405 17.8323 34.1405Z" fill="white"/>
<path d="M23.058 11.0762C20.9579 11.0762 19.0769 12.0328 17.818 13.539C16.8089 14.7456 16.199 16.3014 16.199 17.9997C16.199 19.9873 14.5901 21.5989 12.6067 21.5989C10.6233 21.5989 9.01445 19.9873 9.01445 17.9997C9.01445 17.8034 9.03083 17.6113 9.06153 17.4233C9.33786 15.7105 10.8198 14.4026 12.6067 14.4026C14.0047 14.4026 15.2144 15.2022 15.808 16.3696C16.068 15.1981 16.6042 14.0968 17.38 13.1671C17.3943 13.1506 17.4087 13.134 17.423 13.1175C16.1826 11.8902 14.4816 11.132 12.6047 11.132C9.0165 11.132 6.06492 13.9067 5.77017 17.4253C5.75379 17.6154 5.74561 17.8076 5.74561 18.0018C5.74561 21.789 8.82205 24.8716 12.6047 24.8716C14.6884 24.8716 16.5572 23.9357 17.816 22.4625C18.8415 21.2621 19.4637 19.7022 19.4637 18.0018C19.4637 15.9997 21.0725 14.3758 23.056 14.3758C25.0394 14.3758 26.6482 15.9997 26.6482 18.0018C26.6482 18.1981 26.6318 18.3902 26.6032 18.5782C26.3289 20.3076 24.8449 21.6278 23.056 21.6278C21.6559 21.6278 20.4442 20.8179 19.8506 19.6382C19.5865 20.8117 19.04 21.9129 18.2479 22.8386C18.2335 22.8551 18.2192 22.8716 18.2049 22.8882C19.4473 24.1444 21.1626 24.9233 23.056 24.9233C26.6462 24.9233 29.5998 22.1258 29.8904 18.5762C29.9068 18.3861 29.915 18.1939 29.915 17.9997C29.915 14.1815 26.8386 11.0762 23.056 11.0762H23.058Z" fill="white"/>
</g>
<defs>
<clipPath id="clip0_126_1017">
<rect width="136" height="36" fill="white"/>
</clipPath>
</defs>
</svg>
