<svg width="98" height="16" viewBox="0 0 98 16" fill="none" xmlns="http://www.w3.org/2000/svg">
<g clip-path="url(#clip0_5584_5794)">
<path d="M89.6092 12.7296C87.5138 12.7296 85.6519 11.2345 85.1723 9.1702H97.6131C97.6131 9.1702 97.68 8.42224 97.68 8.15765C97.68 3.77632 94.0603 0.210938 89.6114 0.210938C85.1625 0.210938 81.543 3.77558 81.543 8.15765C81.543 12.5398 85.1423 16.0216 89.6114 16.0216C94.0806 16.0216 96.69 12.7792 97.3414 10.4318H93.5493C93.5493 10.4318 92.3432 12.7296 89.6092 12.7296ZM89.6114 3.50138C91.6205 3.50138 93.3647 4.80809 93.962 6.75559H85.2608C85.856 4.80809 87.6009 3.50138 89.6114 3.50138Z" fill="#9391F7"/>
<path d="M42.1379 16.0216C37.689 16.0216 34.1992 12.4939 34.1992 8.15765C34.1992 3.8214 37.8188 0.210938 42.2677 0.210938C46.7167 0.210938 50.3362 3.91601 50.3362 8.11552C50.3362 9.90486 50.3362 15.6277 50.3362 15.6277H47.2037V13.1206L46.9756 13.0615C46.424 14.3934 44.4253 16.0216 42.1372 16.0216H42.1379ZM42.2677 3.50138C39.7551 3.50138 37.71 5.57896 37.71 8.13326C37.71 10.6876 39.7544 12.7304 42.2677 12.7304C44.7811 12.7304 46.8255 10.6683 46.8255 8.13326C46.8255 5.59818 44.7811 3.50138 42.2677 3.50138Z" fill="#9391F7"/>
<path d="M59.2747 16.0216C54.8257 16.0216 51.3359 12.4939 51.3359 8.15765C51.3359 3.8214 54.9556 0.210938 59.4045 0.210938C63.8534 0.210938 67.473 3.91601 67.473 8.11552C67.473 9.90486 67.473 15.6277 67.473 15.6277H64.3405V13.1206L64.1123 13.0615C63.5607 14.3934 61.5622 16.0216 59.2739 16.0216H59.2747ZM59.4045 3.50138C56.8919 3.50138 54.8468 5.57896 54.8468 8.13326C54.8468 10.6876 56.8911 12.7304 59.4045 12.7304C61.9179 12.7304 63.9622 10.6683 63.9622 8.13326C63.9622 5.59818 61.9179 3.50138 59.4045 3.50138Z" fill="#9391F7"/>
<path d="M72.7302 15.6214L66.3008 0.601562H69.8183L74.5307 11.6657L79.2438 0.601562H82.7605L76.3319 15.6214H72.7302Z" fill="#9391F7"/>
<path d="M11.4413 16.0051C13.1907 16.0051 14.6091 14.6083 14.6091 12.8853C14.6091 11.1624 13.1907 9.76562 11.4413 9.76562C9.69172 9.76562 8.27344 11.1624 8.27344 12.8853C8.27344 14.6083 9.69172 16.0051 11.4413 16.0051Z" fill="#9391F7"/>
<path d="M19.7185 16.0051C21.4681 16.0051 22.8864 14.6083 22.8864 12.8853C22.8864 11.1624 21.4681 9.76562 19.7185 9.76562C17.9691 9.76562 16.5508 11.1624 16.5508 12.8853C16.5508 14.6083 17.9691 16.0051 19.7185 16.0051Z" fill="#9391F7"/>
<path d="M15.5726 0C6.9713 0 -0.00225093 6.99846 5.45027e-07 15.6289H3.97834C3.97834 9.16104 9.1282 3.91718 15.5726 3.91718C22.0171 3.91718 27.167 9.16104 27.167 15.6289H31.1453C31.1468 6.99846 24.1732 0 15.5726 0Z" fill="#9391F7"/>
</g>
<defs>
<clipPath id="clip0_5584_5794">
<rect width="98" height="16" fill="white"/>
</clipPath>
</defs>
</svg>
