<svg width="136" height="36" viewBox="0 0 136 36" fill="none" xmlns="http://www.w3.org/2000/svg">
<path d="M71.4463 11.1942C66.0242 11.1942 62.3828 14.7582 62.3828 20.0599C62.3828 25.3615 65.8871 28.8202 71.3092 28.8202C73.6426 28.8202 75.231 27.8967 76.322 27.0206L76.367 28.5186H80.5099V20.062C80.5099 14.7582 76.8664 11.1962 71.4463 11.1962V11.1942ZM76.1112 21.1942C75.7448 23.2086 73.8064 24.7272 71.606 24.7272C68.8407 24.7272 67.0558 22.8946 67.0558 20.0599C67.0558 17.2252 68.8427 15.3925 71.606 15.3925C73.8064 15.3925 76.1562 16.6177 76.1562 20.0599C76.1562 20.1529 76.1419 21.0227 76.1112 21.1942Z" fill="white"/>
<path d="M99.8536 20.4194V6.81815H95.7108L95.6657 13.4586C94.5748 12.5826 92.9864 11.6591 90.653 11.6591C85.2308 11.6591 81.7266 15.0971 81.7266 20.4194C81.7266 25.7417 85.37 29.2851 90.7901 29.2851C96.2102 29.2851 99.8536 25.721 99.8536 20.4194ZM95.4979 20.4194C95.4979 23.8615 93.146 25.0867 90.9477 25.0867C88.1824 25.0867 86.3975 23.2541 86.3975 20.4194C86.3975 17.5847 88.1844 15.752 90.9477 15.752C93.1501 15.752 95.0865 17.2706 95.4529 19.2851C95.4836 19.4566 95.4979 20.3264 95.4979 20.4194Z" fill="white"/>
<path d="M63.5441 12.4172V11.4709C61.3765 11.2229 58.6848 11.3676 57.293 13.5597L57.2479 11.7787H53.1562V28.6362H57.6962V20.0721C57.6962 19.9791 57.7412 19.1134 57.7412 18.9378C57.7412 16.2601 59.5138 15.5267 61.5054 15.4213C62.0171 14.3572 62.6967 13.3717 63.5441 12.4172Z" fill="white"/>
<path d="M51.0698 15.376V11.7768H47.7969V7.46896L43.0092 8.24996V11.7789H41.6562V15.3781H43.0092V23.6818C43.0092 26.907 45.2096 28.6363 48.1182 28.6363C49.7393 28.6363 51.0698 28.3801 51.0698 28.3801V24.2747C51.0698 24.2747 50.3063 24.3553 50.03 24.3739C48.8715 24.4504 47.7969 24.5062 47.7969 23.3305V15.3781H51.0698V15.376Z" fill="white"/>
<path d="M123.005 11.7393C120.344 11.7393 117.959 12.9521 116.365 14.8591C115.085 16.388 114.314 18.3591 114.314 20.512C114.314 23.0306 112.275 25.0719 109.761 25.0719C107.248 25.0719 105.209 23.0306 105.209 20.512C105.209 20.2641 105.23 20.0182 105.268 19.7806C105.618 17.6091 107.495 15.9521 109.761 15.9521C111.532 15.9521 113.065 16.9665 113.818 18.4438C114.148 16.9603 114.827 15.5636 115.812 14.386C115.83 14.3653 115.849 14.3426 115.867 14.3219C114.297 12.7661 112.14 11.8054 109.761 11.8054C105.215 11.8054 101.474 15.3198 101.101 19.7806C101.081 20.0223 101.07 20.2661 101.07 20.512C101.07 25.3116 104.97 29.2165 109.761 29.2165C112.402 29.2165 114.77 28.0306 116.365 26.1649C117.664 24.6422 118.452 22.6669 118.452 20.512C118.452 17.9748 120.491 15.9169 123.005 15.9169C125.518 15.9169 127.557 17.9748 127.557 20.512C127.557 20.7599 127.536 21.0058 127.499 21.2434C127.151 23.4335 125.272 25.107 123.005 25.107C121.23 25.107 119.695 24.0822 118.944 22.5864C118.608 24.074 117.916 25.4686 116.913 26.6421C116.895 26.6628 116.876 26.6835 116.858 26.7062C118.432 28.2992 120.606 29.2847 123.005 29.2847C127.553 29.2847 131.296 25.7393 131.665 21.2434C131.685 21.0017 131.696 20.7579 131.696 20.512C131.696 15.6752 127.796 11.7393 123.005 11.7393Z" fill="white"/>
<path d="M136.002 8.82848C136.002 10.0268 135.07 10.9669 133.857 10.9669C132.643 10.9669 131.699 10.0268 131.699 8.82848C131.699 7.63013 132.657 6.71484 133.857 6.71484C135.056 6.71484 136.002 7.65493 136.002 8.82848ZM132.236 8.82848C132.236 9.76856 132.925 10.5165 133.869 10.5165C134.813 10.5165 135.465 9.76856 135.465 8.84088C135.465 7.91319 134.788 7.14046 133.857 7.14046C132.925 7.14046 132.236 7.90079 132.236 8.82848ZM133.525 9.93798H133.04V7.82435C133.232 7.78509 133.5 7.7603 133.844 7.7603C134.239 7.7603 134.42 7.82435 134.573 7.91526C134.688 8.00617 134.778 8.17352 134.778 8.38013C134.778 8.61154 134.6 8.79336 134.344 8.8698V8.8946C134.548 8.97104 134.663 9.126 134.727 9.41112C134.79 9.73344 134.829 9.86154 134.88 9.94005H134.356C134.293 9.8636 134.254 9.66939 134.19 9.42352C134.151 9.19212 134.024 9.08881 133.756 9.08881H133.527V9.94005L133.525 9.93798ZM133.537 8.73757H133.767C134.035 8.73757 134.252 8.64666 134.252 8.42765C134.252 8.23344 134.11 8.10534 133.805 8.10534C133.679 8.10534 133.588 8.11774 133.537 8.13013V8.7355V8.73757Z" fill="white"/>
<path d="M17.8323 0C7.99916 0 0 8.07438 0 18C0 27.9256 7.99916 36 17.8323 36C27.6655 36 35.6646 27.9256 35.6646 18C35.6646 8.07438 27.6655 0 17.8323 0ZM17.8323 34.1405C9.00212 34.1405 1.84218 26.9132 1.84218 18C1.84218 9.08678 9.00212 1.8595 17.8323 1.8595C26.6625 1.8595 33.8224 9.08678 33.8224 18C33.8224 26.9132 26.6625 34.1405 17.8323 34.1405Z" fill="white"/>
<path d="M23.0585 11.0762C20.9584 11.0762 19.0773 12.0328 17.8185 13.539C16.8094 14.7456 16.1994 16.3014 16.1994 17.9997C16.1994 19.9873 14.5906 21.5989 12.6072 21.5989C10.6238 21.5989 9.01494 19.9873 9.01494 17.9997C9.01494 17.8034 9.03132 17.6113 9.06202 17.4233C9.33835 15.7105 10.8203 14.4026 12.6072 14.4026C14.0052 14.4026 15.2149 15.2022 15.8085 16.3696C16.0684 15.1981 16.6047 14.0968 17.3805 13.1671C17.3948 13.1506 17.4091 13.134 17.4235 13.1175C16.1831 11.8902 14.4821 11.132 12.6051 11.132C9.01699 11.132 6.06541 13.9067 5.77066 17.4253C5.75428 17.6154 5.74609 17.8076 5.74609 18.0018C5.74609 21.789 8.82254 24.8716 12.6051 24.8716C14.6889 24.8716 16.5576 23.9357 17.8165 22.4625C18.842 21.2621 19.4642 19.7022 19.4642 18.0018C19.4642 15.9997 21.073 14.3758 23.0564 14.3758C25.0399 14.3758 26.6487 15.9997 26.6487 18.0018C26.6487 18.1981 26.6323 18.3902 26.6037 18.5782C26.3294 20.3076 24.8454 21.6278 23.0564 21.6278C21.6564 21.6278 20.4446 20.8179 19.8511 19.6382C19.587 20.8117 19.0405 21.9129 18.2484 22.8386C18.234 22.8551 18.2197 22.8716 18.2054 22.8882C19.4478 24.1444 21.1631 24.9233 23.0564 24.9233C26.6467 24.9233 29.6003 22.1258 29.8909 18.5762C29.9073 18.3861 29.9155 18.1939 29.9155 17.9997C29.9155 14.1815 26.8391 11.0762 23.0564 11.0762H23.0585Z" fill="white"/>
</svg>
