<svg width="32" height="32" viewBox="0 0 32 32" fill="none" xmlns="http://www.w3.org/2000/svg">
<path opacity="0.25" d="M2.66797 21.3335C2.66797 17.5623 2.66797 15.6766 3.83954 14.5051C5.01111 13.3335 6.89673 13.3335 10.668 13.3335H21.3346C25.1059 13.3335 26.9915 13.3335 28.1631 14.5051C29.3346 15.6766 29.3346 17.5623 29.3346 21.3335C29.3346 25.1047 29.3346 26.9904 28.1631 28.1619C26.9915 29.3335 25.1059 29.3335 21.3346 29.3335H10.668C6.89673 29.3335 5.01111 29.3335 3.83954 28.1619C2.66797 26.9904 2.66797 25.1047 2.66797 21.3335Z" fill="#1E2330"/>
<path d="M9 10.6665C9 6.80051 12.134 3.6665 16 3.6665C19.866 3.6665 23 6.80051 23 10.6665V13.3379C23.7565 13.345 24.418 13.3625 25 13.406V10.6665C25 5.69594 20.9706 1.6665 16 1.6665C11.0294 1.6665 7 5.69594 7 10.6665V13.406C7.58201 13.3625 8.24352 13.345 9 13.3379V10.6665Z" fill="#1E2330"/>
</svg>
