<svg width="32" height="32" viewBox="0 0 32 32" fill="none" xmlns="http://www.w3.org/2000/svg">
<path d="M10.668 6.6665C10.668 8.87564 8.87711 10.6665 6.66797 10.6665C4.45883 10.6665 2.66797 8.87564 2.66797 6.6665C2.66797 4.45736 4.45883 2.6665 6.66797 2.6665C8.87711 2.6665 10.668 4.45736 10.668 6.6665Z" fill="#1E2330"/>
<path d="M29.332 6.6665C29.332 8.87564 27.5412 10.6665 25.332 10.6665C23.1229 10.6665 21.332 8.87564 21.332 6.6665C21.332 4.45736 23.1229 2.6665 25.332 2.6665C27.5412 2.6665 29.332 4.45736 29.332 6.6665Z" fill="#1E2330"/>
<path d="M10.668 25.3335C10.668 27.5426 8.87711 29.3335 6.66797 29.3335C4.45883 29.3335 2.66797 27.5426 2.66797 25.3335C2.66797 23.1244 4.45883 21.3335 6.66797 21.3335C8.87711 21.3335 10.668 23.1244 10.668 25.3335Z" fill="#1E2330"/>
<path d="M29.332 25.3335C29.332 27.5426 27.5412 29.3335 25.332 29.3335C23.1229 29.3335 21.332 27.5426 21.332 25.3335C21.332 23.1244 23.1229 21.3335 25.332 21.3335C27.5412 21.3335 29.332 23.1244 29.332 25.3335Z" fill="#1E2330"/>
<g opacity="0.25">
<path d="M21.4587 5.67412C21.418 5.66909 21.3766 5.6665 21.3346 5.6665H10.668C10.626 5.6665 10.5846 5.66909 10.5439 5.67412C10.6249 5.99145 10.668 6.32395 10.668 6.6665C10.668 7.00906 10.6249 7.34156 10.5439 7.65888C10.5846 7.66391 10.626 7.6665 10.668 7.6665H21.3346C21.3766 7.6665 21.418 7.66391 21.4587 7.65888C21.3777 7.34156 21.3346 7.00906 21.3346 6.6665C21.3346 6.32395 21.3777 5.99145 21.4587 5.67412Z" fill="#1E2330"/>
<path d="M25.3346 10.6665C25.6772 10.6665 26.0097 10.6234 26.327 10.5424C26.332 10.5831 26.3346 10.6245 26.3346 10.6665V21.3332C26.3346 21.3752 26.332 21.4166 26.327 21.4572C26.0097 21.3762 25.6772 21.3332 25.3346 21.3332C24.9921 21.3332 24.6596 21.3762 24.3423 21.4572C24.3372 21.4166 24.3346 21.3752 24.3346 21.3332V10.6665C24.3346 10.6245 24.3372 10.5831 24.3423 10.5424C24.6596 10.6234 24.9921 10.6665 25.3346 10.6665Z" fill="#1E2330"/>
<path d="M21.4587 24.3408C21.4181 24.3358 21.3766 24.3332 21.3346 24.3332H10.668C10.626 24.3332 10.5846 24.3358 10.5439 24.3408C10.6249 24.6581 10.668 24.9906 10.668 25.3332C10.668 25.6757 10.6249 26.0082 10.5439 26.3255C10.5846 26.3306 10.626 26.3332 10.668 26.3332H21.3346C21.3766 26.3332 21.4181 26.3306 21.4587 26.3255C21.3777 26.0082 21.3346 25.6757 21.3346 25.3332C21.3346 24.9906 21.3777 24.6581 21.4587 24.3408Z" fill="#1E2330"/>
<path d="M6.66797 10.6665C6.32541 10.6665 5.99291 10.6234 5.67559 10.5424C5.67056 10.5831 5.66797 10.6245 5.66797 10.6665V21.3332C5.66797 21.3752 5.67056 21.4166 5.67559 21.4572C5.99291 21.3762 6.32541 21.3332 6.66797 21.3332C7.01052 21.3332 7.34303 21.3762 7.66035 21.4572C7.66538 21.4166 7.66797 21.3752 7.66797 21.3332L7.66797 10.6665C7.66797 10.6245 7.66538 10.5831 7.66035 10.5424C7.34302 10.6234 7.01053 10.6665 6.66797 10.6665Z" fill="#1E2330"/>
</g>
</svg>
