<svg width="32" height="32" viewBox="0 0 32 32" fill="none" xmlns="http://www.w3.org/2000/svg">
<path opacity="0.2" d="M2.66797 15.9998C2.66797 9.71444 2.66797 6.57175 4.62059 4.61913C6.57321 2.6665 9.71591 2.6665 16.0013 2.6665C22.2867 2.6665 25.4294 2.6665 27.382 4.61913C29.3346 6.57175 29.3346 9.71444 29.3346 15.9998C29.3346 22.2852 29.3346 25.4279 27.382 27.3805C25.4294 29.3332 22.2867 29.3332 16.0013 29.3332C9.71591 29.3332 6.57321 29.3332 4.62059 27.3805C2.66797 25.4279 2.66797 22.2852 2.66797 15.9998Z" fill="#1E2330"/>
<path d="M29.332 6.6665C29.332 8.87564 27.5412 10.6665 25.332 10.6665C23.1229 10.6665 21.332 8.87564 21.332 6.6665C21.332 4.45736 23.1229 2.6665 25.332 2.6665C27.5412 2.6665 29.332 4.45736 29.332 6.6665Z" fill="#1E2330"/>
<path d="M19.332 14.3335C18.7797 14.3335 18.332 13.8858 18.332 13.3335C18.332 12.7812 18.7797 12.3335 19.332 12.3335H22.6654C23.2176 12.3335 23.6654 12.7812 23.6654 13.3335V16.6668C23.6654 17.2191 23.2176 17.6668 22.6654 17.6668C22.1131 17.6668 21.6654 17.2191 21.6654 16.6668V15.7477L18.9819 18.4311C18.0707 19.3424 16.5933 19.3423 15.6821 18.4311L13.5677 16.3167C13.4376 16.1866 13.2265 16.1866 13.0963 16.3167L10.0391 19.3739C9.64861 19.7645 9.01545 19.7645 8.62492 19.3739C8.2344 18.9834 8.2344 18.3502 8.62492 17.9597L11.6821 14.9025C12.5933 13.9913 14.0707 13.9913 14.9819 14.9025L17.0963 17.0169C17.2265 17.1471 17.4376 17.1471 17.5677 17.0169L20.2512 14.3335H19.332Z" fill="#1E2330"/>
</svg>
