<svg width="32" height="32" viewBox="0 0 32 32" fill="none" xmlns="http://www.w3.org/2000/svg">
<path d="M13.7478 23.1256C14.7712 21.9579 15.2828 21.3741 15.9146 21.3361C15.9724 21.3326 16.0303 21.3326 16.088 21.3361C16.7198 21.3741 17.2314 21.9579 18.2548 23.1256C20.4814 25.6664 21.5948 26.9368 21.2831 28.0329C21.2563 28.1271 21.223 28.2187 21.1836 28.307C20.7248 29.3335 19.1503 29.3335 16.0013 29.3335C12.8523 29.3335 11.2778 29.3335 10.819 28.307C10.7796 28.2187 10.7463 28.1271 10.7195 28.0329C10.4078 26.9368 11.5212 25.6664 13.7478 23.1256Z" fill="#1E2330"/>
<path d="M19.3346 16.6668C19.3346 18.5078 17.8423 20.0002 16.0013 20.0002C14.1604 20.0002 12.668 18.5078 12.668 16.6668C12.668 14.8259 14.1604 13.3335 16.0013 13.3335C17.8423 13.3335 19.3346 14.8259 19.3346 16.6668Z" fill="#1E2330"/>
<g opacity="0.5">
<path fill-rule="evenodd" clip-rule="evenodd" d="M16.001 10.7131C12.4047 10.7131 9.48937 13.582 9.48937 17.1209C9.48937 18.8907 10.2172 20.4914 11.3966 21.652C11.7599 22.0094 11.7599 22.589 11.3966 22.9465C11.0333 23.304 10.4443 23.304 10.081 22.9465C8.567 21.4566 7.62891 19.3957 7.62891 17.1209C7.62891 12.5709 11.3772 8.88232 16.001 8.88232C20.6248 8.88232 24.3731 12.5709 24.3731 17.1209C24.3731 19.3957 23.435 21.4566 21.921 22.9465C21.5577 23.304 20.9687 23.304 20.6054 22.9465C20.2421 22.589 20.2421 22.0094 20.6054 21.652C21.7848 20.4914 22.5126 18.8907 22.5126 17.1209C22.5126 13.582 19.5973 10.7131 16.001 10.7131Z" fill="#1C274C"/>
</g>
<g opacity="0.25">
<path fill-rule="evenodd" clip-rule="evenodd" d="M16.0013 5.8308C9.66501 5.8308 4.52843 10.8855 4.52843 17.1208C4.52843 20.2387 5.81156 23.0599 7.88876 25.104C8.25204 25.4615 8.25204 26.0411 7.88876 26.3986C7.52548 26.756 6.93649 26.756 6.57321 26.3986C4.16137 24.0252 2.66797 20.7437 2.66797 17.1208C2.66797 9.87437 8.63751 4 16.0013 4C23.3651 4 29.3346 9.87437 29.3346 17.1208C29.3346 20.7437 27.8412 24.0252 25.4294 26.3986C25.0661 26.756 24.4771 26.756 24.1138 26.3986C23.7506 26.0411 23.7506 25.4615 24.1138 25.104C26.191 23.0599 27.4742 20.2387 27.4742 17.1208C27.4742 10.8855 22.3376 5.8308 16.0013 5.8308Z" fill="#1C274C"/>
</g>
</svg>
