<svg width="32" height="32" viewBox="0 0 32 32" fill="none" xmlns="http://www.w3.org/2000/svg">
<path d="M12.332 18.6668C14.5412 18.6668 16.332 20.4577 16.332 22.6668C16.332 24.876 14.5412 26.6668 12.332 26.6668C10.1229 26.6668 8.33203 24.876 8.33203 22.6668C8.33203 20.4577 10.1229 18.6668 12.332 18.6668Z" fill="#1C274C"/>
<path d="M18.9987 5.3335C16.7896 5.3335 14.9987 7.12436 14.9987 9.3335C14.9987 11.5426 16.7896 13.3335 18.9987 13.3335C21.2078 13.3335 22.9987 11.5426 22.9987 9.3335C22.9987 7.12436 21.2078 5.3335 18.9987 5.3335Z" fill="#1C274C"/>
<g opacity="0.25">
<path d="M22.8865 10.2778C22.9598 9.97493 22.9987 9.65857 22.9987 9.33313C22.9987 8.96786 22.9497 8.61403 22.858 8.27783H28.9987C29.551 8.27783 29.9987 8.72555 29.9987 9.27783C29.9987 9.83012 29.551 10.2778 28.9987 10.2778L22.8865 10.2778Z" fill="#1E2330"/>
<path d="M15.1394 8.27783C15.0477 8.61403 14.9987 8.96786 14.9987 9.33313C14.9987 9.65857 15.0376 9.97493 15.1109 10.2778L2.33203 10.2778C1.77975 10.2778 1.33203 9.83012 1.33203 9.27783C1.33203 8.72555 1.77975 8.27783 2.33203 8.27783H15.1394Z" fill="#1E2330"/>
<path d="M8.47271 21.6112H2.33203C1.77975 21.6112 1.33203 22.0589 1.33203 22.6112C1.33203 23.1634 1.77975 23.6112 2.33203 23.6112H8.44424C8.3709 23.3083 8.33203 22.9919 8.33203 22.6665C8.33203 22.3012 8.38099 21.9474 8.47271 21.6112Z" fill="#1E2330"/>
<path d="M16.2198 23.6112H28.9987C29.551 23.6112 29.9987 23.1634 29.9987 22.6112C29.9987 22.0589 29.551 21.6112 28.9987 21.6112H16.1914C16.2831 21.9474 16.332 22.3012 16.332 22.6665C16.332 22.9919 16.2932 23.3083 16.2198 23.6112Z" fill="#1E2330"/>
</g>
</svg>
