<svg width="32" height="32" viewBox="0 0 32 32" fill="none" xmlns="http://www.w3.org/2000/svg">
<path d="M6.63974 12.9136C3.99189 11.8545 2.66797 11.3249 2.66797 10.6668C2.66797 10.0088 3.99189 9.47919 6.63974 8.42005L10.3844 6.92221C13.0322 5.86307 14.3561 5.3335 16.0013 5.3335C17.6465 5.3335 18.9704 5.86307 21.6182 6.92221L25.3629 8.42005C28.0107 9.47919 29.3346 10.0088 29.3346 10.6668C29.3346 11.3249 28.0107 11.8545 25.3629 12.9136L21.6182 14.4115C18.9704 15.4706 17.6465 16.0002 16.0013 16.0002C14.3561 16.0002 13.0322 15.4706 10.3844 14.4115L6.63974 12.9136Z" fill="#1C274C"/>
<path fill-rule="evenodd" clip-rule="evenodd" d="M2.66797 10.6668C2.66797 11.3249 3.99189 11.8545 6.63974 12.9136L10.3844 14.4115C13.0322 15.4706 14.3561 16.0002 16.0013 16.0002C17.6465 16.0002 18.9704 15.4706 21.6182 14.4115L25.3629 12.9136C28.0107 11.8545 29.3346 11.3249 29.3346 10.6668C29.3346 10.0088 28.0107 9.47919 25.3629 8.42005L21.6182 6.92221C18.9704 5.86307 17.6465 5.3335 16.0013 5.3335C14.3561 5.3335 13.0322 5.86307 10.3844 6.92221L6.63974 8.42005C3.99189 9.47919 2.66797 10.0088 2.66797 10.6668Z" fill="#1E2330"/>
<path opacity="0.5" d="M7.68947 13.3335L6.63974 13.7534C3.99189 14.8125 2.66797 15.3421 2.66797 16.0002C2.66797 16.6582 3.99189 17.1878 6.63974 18.2469L10.3844 19.7448C13.0322 20.8039 14.3561 21.3335 16.0013 21.3335C17.6465 21.3335 18.9704 20.8039 21.6182 19.7448L25.3629 18.2469C28.0107 17.1878 29.3346 16.6582 29.3346 16.0002C29.3346 15.3421 28.0107 14.8125 25.3629 13.7534L24.3131 13.3335L21.6182 14.4115C18.9704 15.4706 17.6465 16.0002 16.0013 16.0002C14.3561 16.0002 13.0322 15.4706 10.3844 14.4115L7.68947 13.3335Z" fill="#1E2330"/>
<path opacity="0.25" d="M7.68947 18.6665L6.63974 19.0864C3.99189 20.1455 2.66797 20.6751 2.66797 21.3332C2.66797 21.9912 3.99189 22.5208 6.63974 23.5799L10.3844 25.0778C13.0322 26.1369 14.3561 26.6665 16.0013 26.6665C17.6465 26.6665 18.9704 26.1369 21.6182 25.0778L25.3629 23.5799C28.0107 22.5208 29.3346 21.9912 29.3346 21.3332C29.3346 20.6751 28.0107 20.1455 25.3629 19.0864L24.3131 18.6665L21.6182 19.7445C18.9704 20.8036 17.6465 21.3332 16.0013 21.3332C14.3561 21.3332 13.0322 20.8036 10.3844 19.7445L7.68947 18.6665Z" fill="#1E2330"/>
</svg>
