<svg width="32" height="32" viewBox="0 0 32 32" fill="none" xmlns="http://www.w3.org/2000/svg">
<path fill-rule="evenodd" clip-rule="evenodd" d="M15.9974 21.3333C21.1521 21.3333 25.3307 17.1546 25.3307 12C25.3307 6.8453 21.1521 2.66663 15.9974 2.66663C10.8427 2.66663 6.66406 6.8453 6.66406 12C6.66406 17.1546 10.8427 21.3333 15.9974 21.3333ZM15.9974 7.99996C15.6187 7.99996 15.3653 8.45441 14.8587 9.36331L14.7276 9.59845C14.5836 9.85673 14.5116 9.98587 14.3994 10.0711C14.2871 10.1563 14.1473 10.1879 13.8677 10.2512L13.6132 10.3088C12.6293 10.5314 12.1374 10.6427 12.0204 11.0191C11.9033 11.3954 12.2387 11.7876 12.9094 12.5719L13.083 12.7748C13.2736 12.9977 13.3689 13.1092 13.4117 13.247C13.4546 13.3849 13.4402 13.5336 13.4114 13.831L13.3852 14.1017C13.2837 15.1482 13.233 15.6714 13.5395 15.904C13.8459 16.1367 14.3065 15.9246 15.2277 15.5004L15.466 15.3907C15.7278 15.2702 15.8587 15.2099 15.9974 15.2099C16.1361 15.2099 16.267 15.2702 16.5288 15.3907L16.7671 15.5004C17.6883 15.9246 18.1489 16.1367 18.4553 15.904C18.7617 15.6714 18.711 15.1482 18.6096 14.1017L18.5834 13.831C18.5546 13.5336 18.5402 13.3849 18.583 13.247C18.6259 13.1092 18.7212 12.9977 18.9118 12.7749L19.0854 12.5719C19.7561 11.7876 20.0915 11.3954 19.9744 11.0191C19.8574 10.6427 19.3655 10.5314 18.3816 10.3088L18.127 10.2512C17.8475 10.1879 17.7077 10.1563 17.5954 10.0711C17.4832 9.98587 17.4112 9.85673 17.2672 9.59845L17.1361 9.36331C16.6295 8.45441 16.3761 7.99996 15.9974 7.99996Z" fill="#202533"/>
<path opacity="0.25" d="M8.95232 23.0973L9.80148 20L10.6667 17.3334H21.3333L22.1985 20L23.0477 23.0973L23.0477 23.0973C23.8855 26.1531 24.3044 27.681 23.7454 28.5175C23.5495 28.8106 23.2867 29.0459 22.9817 29.2012C22.1115 29.6442 20.768 28.9441 18.0809 27.544C17.1868 27.0781 16.7398 26.8452 16.2648 26.7946C16.0887 26.7758 15.9113 26.7758 15.7352 26.7946C15.2602 26.8452 14.8132 27.0781 13.9191 27.544C11.232 28.9441 9.88846 29.6442 9.01829 29.2012C8.71334 29.0459 8.45053 28.8106 8.25463 28.5175C7.69564 27.681 8.11453 26.1531 8.95232 23.0973Z" fill="#202533"/>
</svg>
