<svg width="359" height="154" viewBox="0 0 359 154" fill="none" xmlns="http://www.w3.org/2000/svg">
<g clip-path="url(#clip0_5545_5081)">
<path d="M357.505 21.3913C357.505 21.3913 308.05 36.8561 271.671 36.8561C235.291 36.8561 215.557 33.038 185.836 21.3913C156.112 9.74453 137.862 5.15039 99.9983 5.15039C62.1346 5.15039 14.1641 21.0479 14.1641 21.0479V132.228C14.1641 132.228 62.1385 116.33 99.9983 116.33C137.858 116.33 156.112 120.924 185.832 132.571C215.553 144.218 235.287 148.036 271.667 148.036C308.046 148.036 357.501 132.571 357.501 132.571V21.3913H357.505Z" fill="url(#paint0_radial_5545_5081)"/>
<path d="M229.588 26.8904L230.771 19.7118L231.951 19.9061L233.009 24.8409C233.036 24.9575 233.066 25.1044 233.1 25.2814C233.137 25.4558 233.173 25.6366 233.208 25.8239C233.247 26.0084 233.28 26.1772 233.308 26.3302C233.383 26.1941 233.467 26.0447 233.56 25.8818C233.657 25.7162 233.749 25.5566 233.837 25.4028C233.929 25.2464 234.004 25.117 234.064 25.0147L236.62 20.675L237.805 20.8702L236.623 28.0489L235.77 27.9084L236.455 23.7458C236.498 23.4888 236.548 23.2035 236.606 22.8898C236.665 22.5728 236.723 22.2591 236.781 21.9486C236.58 22.3049 236.396 22.6309 236.229 22.9266C236.062 23.2223 235.923 23.4602 235.815 23.6402L233.462 27.5284L232.749 27.4109L231.758 22.9721C231.714 22.7769 231.66 22.5223 231.597 22.2083C231.533 21.8942 231.461 21.5476 231.382 21.1683C231.343 21.4654 231.301 21.762 231.255 22.058C231.213 22.3546 231.172 22.6249 231.132 22.869L230.446 27.0317L229.588 26.8904ZM239.496 28.5128C238.989 28.45 238.58 28.2665 238.27 27.9623C237.963 27.6586 237.842 27.2515 237.905 26.7411C237.941 26.4471 238.028 26.2151 238.164 26.045C238.303 25.8753 238.474 25.7505 238.677 25.6708C238.884 25.5882 239.112 25.5345 239.362 25.5096C239.614 25.4851 239.87 25.4726 240.129 25.4719C240.461 25.4671 240.722 25.4651 240.912 25.4657C241.102 25.4663 241.239 25.4456 241.323 25.4035C241.41 25.3618 241.462 25.2764 241.478 25.1472L241.484 25.0987C241.518 24.8209 241.447 24.5791 241.269 24.3734C241.094 24.168 240.828 24.0431 240.469 23.9987C240.114 23.9546 239.81 24.0056 239.559 24.1516C239.312 24.2948 239.163 24.4927 239.112 24.7455L238.274 24.6416C238.329 24.3303 238.46 24.0645 238.668 23.8442C238.876 23.6207 239.142 23.4569 239.467 23.3528C239.791 23.2487 240.155 23.2217 240.559 23.2718C241.157 23.3459 241.611 23.5596 241.921 23.913C242.235 24.2636 242.361 24.6924 242.298 25.1996L241.861 28.7273L241.046 28.6264L241.137 27.8995L241.117 27.8971C241.041 28.0123 240.935 28.1254 240.8 28.2366C240.665 28.3445 240.491 28.4279 240.277 28.4866C240.066 28.5426 239.806 28.5513 239.496 28.5128ZM239.704 27.7907C240.04 27.8324 240.32 27.8065 240.545 27.713C240.77 27.6162 240.943 27.477 241.064 27.2952C241.185 27.1133 241.259 26.911 241.287 26.6881L241.366 26.0485C241.298 26.099 241.128 26.1321 240.857 26.1477C240.586 26.1601 240.302 26.169 240.002 26.1746C239.802 26.176 239.609 26.198 239.423 26.2406C239.241 26.2803 239.088 26.3515 238.964 26.4542C238.84 26.5537 238.766 26.7003 238.742 26.8941C238.712 27.1332 238.783 27.3322 238.953 27.4911C239.127 27.6504 239.377 27.7503 239.704 27.7907ZM243.083 28.8634L243.589 23.7321L244.377 23.8098L244.297 24.6164L244.316 24.6183C244.437 24.3619 244.607 24.1628 244.827 24.021C245.047 23.8792 245.317 23.8241 245.638 23.8557C245.712 23.8631 245.78 23.8731 245.841 23.8856C245.905 23.8985 245.953 23.9098 245.985 23.9194L245.903 24.7455C245.872 24.7326 245.81 24.715 245.717 24.6928C245.628 24.6676 245.524 24.6491 245.404 24.6373C245.119 24.6092 244.861 24.6851 244.631 24.8652C244.4 25.0453 244.264 25.3523 244.221 25.7864L243.909 28.9449L243.083 28.8634ZM246.194 29.1596L246.782 21.908L247.609 21.9751L247.25 26.399L247.26 26.3998L249.837 24.2818L250.908 24.3686L248.466 26.3849L250.657 29.5214L249.605 29.4362L247.791 26.8544L247.175 27.3286L247.021 29.2267L246.194 29.1596ZM253.15 29.7786C252.647 29.7493 252.223 29.6088 251.879 29.3573C251.538 29.1059 251.285 28.7733 251.12 28.3593C250.955 27.9421 250.888 27.4752 250.918 26.9585C250.949 26.4353 251.075 25.9763 251.297 25.5817C251.519 25.187 251.812 24.8845 252.176 24.6743C252.541 24.4607 252.95 24.3672 253.405 24.3937C253.883 24.4216 254.291 24.5595 254.629 24.8074C254.966 25.0553 255.218 25.3879 255.382 25.8051C255.55 26.2225 255.619 26.6976 255.588 27.2306L255.575 27.4597L251.724 27.2353C251.714 27.7401 251.835 28.158 252.086 28.489C252.337 28.8199 252.707 28.9996 253.194 29.028C253.561 29.0494 253.865 28.9823 254.106 28.8268C254.35 28.6714 254.518 28.4628 254.612 28.2008L255.44 28.2491C255.356 28.5736 255.205 28.8549 254.985 29.0932C254.766 29.3283 254.498 29.5067 254.181 29.6284C253.868 29.7503 253.524 29.8004 253.15 29.7786ZM251.775 26.5242L254.787 26.6997C254.768 26.2454 254.631 25.8771 254.377 25.5949C254.123 25.3127 253.785 25.1593 253.362 25.1347C252.94 25.1101 252.588 25.2232 252.306 25.4742C252.024 25.7251 251.847 26.0751 251.775 26.5242ZM258.858 24.7878L258.827 25.5L257.783 25.4543L257.644 28.6446C257.635 28.843 257.67 28.9846 257.747 29.0695C257.829 29.1512 257.975 29.1967 258.186 29.206L258.664 29.2269L258.633 29.9391L258.077 29.9148C257.199 29.8764 256.777 29.4702 256.811 28.6962L256.954 25.4181L256.037 25.378L256.068 24.6658L256.985 24.7059L257.047 23.301L257.876 23.3372L257.815 24.7421L258.858 24.7878ZM264.122 30.1977C263.647 30.1879 263.231 30.0654 262.874 29.8301C262.521 29.5917 262.248 29.2686 262.054 28.8609C261.864 28.4532 261.774 27.9874 261.785 27.4634C261.796 26.9362 261.905 26.4712 262.112 26.0685C262.322 25.6658 262.609 25.3526 262.971 25.129C263.337 24.9053 263.758 24.7984 264.233 24.8082C264.624 24.8163 264.972 24.9016 265.278 25.0642C265.584 25.2235 265.832 25.4402 266.021 25.7144C266.214 25.9886 266.33 26.3003 266.368 26.6495L265.529 26.6322C265.473 26.3282 265.335 26.0763 265.115 25.8764C264.897 25.6733 264.598 25.5679 264.218 25.56C263.733 25.55 263.348 25.7195 263.064 26.0686C262.784 26.4177 262.637 26.8884 262.625 27.4807C262.613 28.0665 262.74 28.538 263.006 28.8951C263.272 29.2522 263.649 29.4358 264.138 29.4459C264.525 29.4539 264.823 29.3656 265.032 29.1811C265.241 28.9933 265.389 28.7424 265.477 28.4284L266.331 28.446C266.279 28.7835 266.151 29.0869 265.946 29.3562C265.746 29.6223 265.487 29.8319 265.172 29.9849C264.859 30.1347 264.509 30.2057 264.122 30.1977ZM269.357 30.2647C268.882 30.262 268.465 30.1457 268.104 29.9158C267.748 29.6826 267.47 29.3636 267.27 28.9588C267.074 28.554 266.977 28.0896 266.98 27.5655C266.983 27.0382 267.085 26.5717 267.286 26.1659C267.49 25.7602 267.772 25.4428 268.131 25.2137C268.494 24.9846 268.913 24.8715 269.388 24.8742C269.867 24.877 270.284 24.9949 270.641 25.2281C270.998 25.4612 271.274 25.7818 271.471 26.1899C271.67 26.5979 271.768 27.0656 271.765 27.5929C271.762 28.117 271.659 28.5803 271.455 28.9828C271.254 29.3853 270.974 29.7011 270.614 29.9301C270.255 30.156 269.836 30.2675 269.357 30.2647ZM269.362 29.5128C269.85 29.5156 270.232 29.342 270.507 28.992C270.783 28.6388 270.922 28.1708 270.925 27.5881C270.929 26.999 270.793 26.5262 270.519 26.1698C270.247 25.8101 269.869 25.6289 269.384 25.6262C268.899 25.6234 268.517 25.7986 268.238 26.1518C267.963 26.5051 267.823 26.9779 267.82 27.5704C267.817 28.1563 267.951 28.6258 268.222 28.9789C268.494 29.332 268.873 29.51 269.362 29.5128ZM273.464 27.107L273.547 30.1234L272.717 30.1463L272.575 24.992L273.385 24.9697L273.406 25.7262C273.577 25.4284 273.789 25.2077 274.042 25.0639C274.299 24.9168 274.59 24.8388 274.915 24.8298C275.263 24.8202 275.583 24.8879 275.873 25.0329C276.164 25.1747 276.398 25.3946 276.575 25.6926C276.756 25.9904 276.853 26.3688 276.865 26.8276L276.954 30.0295L276.124 30.0524L276.037 26.909C276.025 26.4632 275.908 26.131 275.687 25.9124C275.47 25.6905 275.167 25.5848 274.78 25.5955C274.406 25.6058 274.088 25.7302 273.828 25.9686C273.571 26.2069 273.449 26.5864 273.464 27.107ZM280.157 29.9351C279.712 29.9652 279.313 29.8797 278.96 29.6785C278.61 29.4738 278.329 29.178 278.117 28.791C277.904 28.4008 277.78 27.9427 277.745 27.4165C277.709 26.8872 277.77 26.4165 277.928 26.0044C278.086 25.5892 278.325 25.2582 278.644 25.0114C278.966 24.7645 279.35 24.6259 279.795 24.5958C280.13 24.5731 280.445 24.6236 280.74 24.7471C281.035 24.8674 281.276 25.0665 281.461 25.3443L281.471 25.3437L281.276 22.4694L282.104 22.4133L282.596 29.6721L281.787 29.7268L281.734 28.9474L281.724 28.948C281.559 29.2561 281.34 29.4928 281.068 29.6581C280.795 29.8201 280.491 29.9125 280.157 29.9351ZM280.233 29.1812C280.71 29.1488 281.077 28.9478 281.332 28.5782C281.591 28.2083 281.701 27.7327 281.662 27.1513C281.622 26.57 281.449 26.1135 281.143 25.7818C280.84 25.4467 280.449 25.2954 279.972 25.3277C279.527 25.3578 279.173 25.5466 278.909 25.894C278.649 26.2411 278.54 26.7297 278.583 27.3598C278.625 27.9899 278.799 28.4593 279.104 28.7682C279.412 29.0737 279.788 29.2113 280.233 29.1812ZM283.822 29.5746L283.352 24.4397L284.179 24.3642L284.648 29.499L283.822 29.5746ZM283.674 23.4002C283.519 23.4145 283.381 23.3715 283.26 23.2714C283.14 23.1712 283.073 23.0433 283.059 22.8877C283.044 22.7321 283.087 22.5942 283.188 22.4739C283.288 22.3536 283.416 22.2864 283.571 22.2721C283.727 22.2579 283.865 22.3009 283.985 22.401C284.105 22.5012 284.173 22.629 284.187 22.7846C284.201 22.9402 284.158 23.0782 284.058 23.1985C283.958 23.3188 283.83 23.386 283.674 23.4002ZM287.602 23.9782L287.685 24.6862L286.648 24.8084L287.021 27.9798C287.044 28.1771 287.101 28.3113 287.191 28.3826C287.284 28.4503 287.436 28.4718 287.646 28.4471L288.121 28.3911L288.205 29.0992L287.652 29.1642C286.779 29.2669 286.297 28.9336 286.207 28.1642L285.823 24.9054L284.912 25.0127L284.828 24.3047L285.74 24.1974L285.576 22.8008L286.4 22.7038L286.564 24.1004L287.602 23.9782ZM289.063 28.9955L288.438 23.8773L289.262 23.7767L289.887 28.8949L289.063 28.9955ZM288.728 22.8285C288.573 22.8475 288.433 22.8087 288.31 22.7123C288.187 22.6158 288.116 22.49 288.097 22.3349C288.078 22.1798 288.117 22.0407 288.213 21.9174C288.31 21.7941 288.435 21.723 288.59 21.7041C288.746 21.6851 288.885 21.7239 289.008 21.8203C289.131 21.9168 289.202 22.0425 289.221 22.1976C289.24 22.3527 289.201 22.4919 289.105 22.6152C289.009 22.7385 288.883 22.8096 288.728 22.8285ZM293.231 28.5542C292.76 28.6204 292.33 28.5658 291.941 28.3905C291.554 28.2115 291.233 27.9362 290.976 27.5646C290.724 27.1925 290.561 26.747 290.488 26.228C290.414 25.7058 290.448 25.2294 290.587 24.7988C290.731 24.3678 290.963 24.0129 291.286 23.7342C291.611 23.455 292.01 23.2823 292.48 23.2161C292.954 23.1495 293.384 23.2057 293.771 23.3847C294.158 23.5637 294.478 23.8408 294.731 24.2161C294.988 24.5909 295.153 25.0394 295.226 25.5616C295.299 26.0806 295.264 26.554 295.12 26.9818C294.98 27.4092 294.748 27.7622 294.426 28.041C294.103 28.3165 293.705 28.4876 293.231 28.5542ZM293.126 27.8096C293.61 27.7416 293.962 27.5145 294.184 27.1283C294.406 26.7388 294.476 26.2556 294.395 25.6786C294.313 25.0951 294.11 24.647 293.786 24.3342C293.466 24.0177 293.065 23.8932 292.585 23.9607C292.105 24.0283 291.752 24.257 291.528 24.6469C291.306 25.0363 291.237 25.5244 291.319 26.1111C291.401 26.6913 291.602 27.1364 291.921 27.4465C292.241 27.7566 292.643 27.8776 293.126 27.8096ZM296.873 24.8455L297.358 27.8239L296.539 27.9573L295.71 22.868L296.51 22.7378L296.632 23.4848C296.761 23.1669 296.942 22.9198 297.174 22.7435C297.409 22.5635 297.687 22.4474 298.008 22.3951C298.352 22.3391 298.677 22.3637 298.985 22.4687C299.291 22.5704 299.553 22.7571 299.768 23.0287C299.987 23.2998 300.134 23.6619 300.207 24.1149L300.722 27.2764L299.902 27.4098L299.397 24.3061C299.326 23.8659 299.166 23.5522 298.918 23.3651C298.672 23.1741 298.358 23.1098 297.976 23.172C297.607 23.2322 297.309 23.3977 297.082 23.6687C296.859 23.9392 296.789 24.3315 296.873 24.8455ZM303.721 26.8469C303.359 26.9149 303.02 26.9174 302.704 26.8544C302.387 26.7914 302.115 26.6571 301.888 26.4514C301.66 26.2426 301.5 25.9564 301.408 25.5927L302.214 25.441C302.389 26.0508 302.84 26.2871 303.57 26.1499C303.922 26.0837 304.185 25.9581 304.359 25.773C304.536 25.5873 304.603 25.3825 304.561 25.1586C304.525 24.9666 304.426 24.8263 304.263 24.7376C304.101 24.6489 303.901 24.6004 303.664 24.5919L302.812 24.5534C301.817 24.5088 301.25 24.1186 301.112 23.3828C301.057 23.0949 301.086 22.8261 301.198 22.5765C301.313 22.3231 301.496 22.1081 301.748 21.9316C302.002 21.7513 302.31 21.6271 302.672 21.5591C303.023 21.4929 303.351 21.5008 303.655 21.5828C303.961 21.661 304.218 21.8064 304.427 22.0188C304.639 22.2306 304.782 22.5036 304.855 22.8377L304.058 22.9876C304.004 22.7194 303.863 22.5157 303.635 22.3765C303.407 22.2373 303.13 22.1983 302.803 22.2597C302.493 22.3181 302.259 22.4399 302.102 22.6252C301.945 22.8104 301.887 23.0118 301.927 23.2294C301.964 23.4213 302.063 23.5632 302.226 23.6551C302.389 23.7438 302.597 23.7941 302.851 23.8059L303.703 23.8444C304.211 23.8681 304.6 23.9738 304.87 24.1614C305.14 24.3458 305.309 24.6203 305.378 24.985C305.437 25.2985 305.403 25.5832 305.275 25.839C305.148 26.0949 304.948 26.3097 304.676 26.4834C304.407 26.6565 304.089 26.7777 303.721 26.8469Z" fill="#E6E8EB"/>
</g>
<line x1="14.1836" y1="76.5156" x2="358.028" y2="76.5156" stroke="#365C8D"/>
<path d="M14.1836 76.8078C14.1836 76.8078 66.6125 34.6797 100.207 34.6797C133.801 34.6797 156.443 46.8187 186.23 77.6138C216.016 108.409 238.658 118.503 272.252 118.503C305.847 118.503 358.275 77.6138 358.275 77.6138" stroke="#D9904F"/>
<path d="M14.1836 76.9226C14.1836 76.9226 66.6125 45.6875 100.207 45.6875C133.801 45.6875 156.443 54.6385 186.23 77.346C216.016 100.053 238.658 107.497 272.252 107.497C305.847 107.497 358.275 77.346 358.275 77.346" stroke="#D1C972"/>
<path d="M14.1836 76.8109C14.1836 76.8109 66.6129 57.125 100.207 57.125C133.801 57.125 156.443 62.7654 186.23 77.0742C216.017 91.383 238.659 96.0734 272.253 96.0734C305.847 96.0734 358.276 77.0742 358.276 77.0742" stroke="#78B76A"/>
<path d="M14.1836 76.8261C14.1836 76.8261 66.6125 66.8516 100.207 66.8516C133.801 66.8516 156.443 69.6718 186.23 76.8261C216.016 83.9805 238.658 86.3257 272.253 86.3257C305.847 86.3257 358.275 76.8262 358.275 76.8262" stroke="#418B77"/>
<path d="M14.1836 76.7423C14.1836 76.7423 62.2625 21.9766 100.207 21.9766C138.151 21.9766 156.443 37.7941 186.23 77.921C216.016 118.048 235.792 131.201 272.252 131.201C308.713 131.201 358.275 77.921 358.275 77.921" stroke="#C74343"/>
<path d="M7.27539 112.277L-2.4585e-08 112.277L-1.8555e-07 107.546L0.78125 107.546L0.78125 111.398L3.15918 111.398L3.15918 107.829L3.94043 107.829L3.94043 111.398L6.49414 111.398L6.49414 107.546L7.27539 107.546L7.27539 112.277ZM7.27539 107.053L4.64844 105.129L2.11914 106.94L2.11914 105.964L3.13477 105.266C3.28776 105.161 3.43913 105.059 3.58887 104.958C3.73861 104.857 3.88835 104.756 4.03809 104.655C3.88835 104.551 3.73861 104.449 3.58887 104.348C3.43913 104.247 3.28776 104.143 3.13477 104.035L2.11914 103.327L2.11914 102.365L4.64355 104.177L7.27539 102.277L7.27539 103.249L6.10352 104.069C5.96029 104.17 5.81706 104.27 5.67383 104.367C5.5306 104.465 5.38737 104.562 5.24414 104.66C5.38737 104.758 5.5306 104.857 5.67383 104.958C5.81706 105.056 5.96029 105.155 6.10352 105.256L7.27539 106.086L7.27539 107.053ZM9.31641 101.516L2.11914 101.516L2.11914 100.705L2.88086 100.705L2.88086 100.695C2.59115 100.529 2.3763 100.3 2.23633 100.007C2.0931 99.7139 2.02148 99.3997 2.02148 99.0645C2.02148 98.6152 2.13379 98.223 2.3584 97.8877C2.58301 97.5524 2.89713 97.292 3.30078 97.1064C3.70117 96.9209 4.16667 96.8281 4.69727 96.8281C5.22461 96.8281 5.6901 96.9209 6.09375 97.1064C6.49414 97.292 6.80827 97.5524 7.03613 97.8877C7.26074 98.223 7.37305 98.6152 7.37305 99.0645C7.37305 99.3997 7.30143 99.7057 7.1582 99.9824C7.01172 100.259 6.79036 100.49 6.49414 100.676L6.49414 100.686L9.31641 100.686L9.31641 101.516ZM6.62598 99.1914C6.62598 98.7454 6.46322 98.3809 6.13769 98.0977C5.80892 97.8112 5.32878 97.668 4.69727 97.668C4.06575 97.668 3.58561 97.8112 3.25684 98.0977C2.92806 98.3809 2.76367 98.7454 2.76367 99.1914C2.76367 99.6699 2.94108 100.051 3.2959 100.334C3.64746 100.614 4.11458 100.754 4.69727 100.754C5.27995 100.754 5.74707 100.614 6.09863 100.334C6.45019 100.051 6.62598 99.6699 6.62598 99.1914ZM7.39258 93.7324C7.39258 94.2077 7.27865 94.626 7.05078 94.9873C6.81966 95.3454 6.50228 95.6253 6.09863 95.8271C5.69499 96.0257 5.23112 96.125 4.70703 96.125C4.17969 96.125 3.71256 96.0257 3.30566 95.8271C2.89876 95.6253 2.57975 95.3454 2.34863 94.9873C2.11751 94.626 2.00195 94.2077 2.00195 93.7324C2.00195 93.2539 2.11751 92.8356 2.34863 92.4775C2.57975 92.1195 2.89876 91.8411 3.30566 91.6426C3.71256 91.4408 4.17969 91.3398 4.70703 91.3398C5.23112 91.3398 5.69499 91.4408 6.09863 91.6426C6.50228 91.8411 6.81966 92.1195 7.05078 92.4775C7.27865 92.8356 7.39258 93.2539 7.39258 93.7324ZM6.64062 93.7324C6.64062 93.2441 6.46484 92.8633 6.11328 92.5898C5.75846 92.3164 5.28971 92.1797 4.70703 92.1797C4.11784 92.1797 3.64583 92.318 3.29101 92.5947C2.93294 92.8682 2.75391 93.2474 2.75391 93.7324C2.75391 94.2174 2.93131 94.5983 3.28613 94.875C3.64095 95.1484 4.11458 95.2852 4.70703 95.2852C5.29297 95.2852 5.76172 95.1484 6.11328 94.875C6.46484 94.6016 6.64062 94.2207 6.64062 93.7324ZM7.39258 88.5762C7.39258 88.944 7.33236 89.2777 7.21191 89.5771C7.09147 89.8766 6.90918 90.1191 6.66504 90.3047C6.41764 90.4902 6.10677 90.5944 5.73242 90.6172L5.73242 89.7969C6.36393 89.7383 6.67969 89.3379 6.67969 88.5957C6.67969 88.2376 6.60482 87.9561 6.45508 87.751C6.30534 87.5426 6.11654 87.4385 5.88867 87.4385C5.69336 87.4385 5.53711 87.5101 5.41992 87.6533C5.30273 87.7965 5.2181 87.9837 5.16601 88.2148L4.9707 89.0449C4.74284 90.015 4.25456 90.5 3.50586 90.5C3.21289 90.5 2.9541 90.4219 2.72949 90.2656C2.50163 90.1061 2.32422 89.8864 2.19726 89.6064C2.06706 89.3232 2.00195 88.9977 2.00195 88.6299C2.00195 88.2718 2.07031 87.9512 2.20703 87.668C2.34049 87.3815 2.53092 87.1553 2.77832 86.9893C3.02572 86.82 3.32031 86.7305 3.66211 86.7207L3.66211 87.5312C3.38867 87.5345 3.16243 87.6354 2.9834 87.834C2.80436 88.0326 2.71484 88.2979 2.71484 88.6299C2.71484 88.9456 2.79134 89.1979 2.94434 89.3867C3.09733 89.5755 3.2845 89.6699 3.50586 89.6699C3.70117 89.6699 3.85905 89.5983 3.97949 89.4551C4.09668 89.3118 4.18457 89.1165 4.24316 88.8691L4.43848 88.0391C4.55566 87.5443 4.73144 87.1813 4.96582 86.9502C5.19694 86.7191 5.49805 86.6035 5.86914 86.6035C6.18815 86.6035 6.46159 86.6898 6.68945 86.8623C6.91732 87.0348 7.09147 87.2708 7.21191 87.5703C7.33236 87.8665 7.39258 88.2018 7.39258 88.5762ZM7.37305 83.7324C7.37305 84.0775 7.29818 84.3949 7.14844 84.6846C6.99544 84.971 6.76758 85.2005 6.46484 85.373C6.15885 85.5423 5.77799 85.627 5.32226 85.627L2.11914 85.627L2.11914 84.7969L5.26367 84.7969C5.70963 84.7969 6.04655 84.6895 6.27441 84.4746C6.49902 84.2598 6.61133 83.9603 6.61133 83.5762C6.61133 83.1986 6.49577 82.8779 6.26465 82.6143C6.03353 82.3506 5.65755 82.2187 5.13672 82.2187L2.11914 82.2187L2.11914 81.3887L7.27539 81.3887L7.27539 82.1992L6.51855 82.1992C6.81152 82.3783 7.02799 82.598 7.16797 82.8584C7.30469 83.1156 7.37305 83.4069 7.37305 83.7324ZM7.27539 80.1582L2.11914 80.1582L2.11914 79.3672L2.92969 79.3672L2.92969 79.3477C2.66276 79.2533 2.44792 79.1035 2.28516 78.8984C2.12239 78.6934 2.04101 78.4297 2.04101 78.1074C2.04101 78.0326 2.04427 77.9642 2.05078 77.9023C2.05729 77.8372 2.0638 77.7884 2.07031 77.7559L2.90039 77.7559C2.89062 77.7884 2.87923 77.8519 2.86621 77.9463C2.84993 78.0374 2.8418 78.1432 2.8418 78.2637C2.8418 78.5501 2.94271 78.7992 3.14453 79.0107C3.34635 79.2223 3.66536 79.3281 4.10156 79.3281L7.27539 79.3281L7.27539 80.1582ZM7.39258 74.9043C7.39258 75.4089 7.27702 75.8402 7.0459 76.1982C6.81478 76.5531 6.49739 76.8249 6.09375 77.0137C5.68685 77.2025 5.22461 77.2969 4.70703 77.2969C4.18294 77.2969 3.71745 77.1976 3.31055 76.999C2.90364 76.8005 2.58463 76.5254 2.35351 76.1738C2.11914 75.8223 2.00195 75.4186 2.00195 74.9629C2.00195 74.4844 2.11588 74.0693 2.34375 73.7178C2.57161 73.3662 2.889 73.096 3.2959 72.9072C3.7028 72.7152 4.17318 72.6191 4.70703 72.6191L4.93652 72.6191L4.93652 76.4766C5.44108 76.457 5.85124 76.3122 6.16699 76.042C6.48275 75.7718 6.64062 75.3926 6.64062 74.9043C6.64062 74.5365 6.55599 74.237 6.38672 74.0059C6.21745 73.7715 5.99935 73.6152 5.73242 73.5371L5.73242 72.707C6.0612 72.7721 6.35091 72.9072 6.60156 73.1123C6.84896 73.3174 7.04264 73.5745 7.18262 73.8838C7.32259 74.1898 7.39258 74.5299 7.39258 74.9043ZM4.22363 76.4668L4.22363 73.4492C3.77116 73.4948 3.41146 73.6527 3.14453 73.9229C2.8776 74.193 2.74414 74.5397 2.74414 74.9629C2.74414 75.3861 2.8776 75.7311 3.14453 75.998C3.41146 76.265 3.77116 76.4212 4.22363 76.4668ZM7.27539 69.0645L-1.4947e-06 69.0645L-1.58656e-06 66.3643C-1.61237e-06 65.6058 0.198566 65.0052 0.595701 64.5625C0.989582 64.1165 1.52669 63.8936 2.20703 63.8936C2.72461 63.8936 3.16243 64.0335 3.52051 64.3135C3.87858 64.5902 4.13086 64.9661 4.27734 65.4414L7.27539 63.8057L7.27539 64.8311L4.41894 66.3643C4.41894 66.387 4.41894 66.4098 4.41894 66.4326L4.41894 68.1855L7.27539 68.1855L7.27539 69.0645ZM3.63769 68.1855L3.63769 66.3838C3.63769 65.8792 3.51074 65.4837 3.25683 65.1973C2.99967 64.9076 2.64974 64.7627 2.20703 64.7627C1.76432 64.7627 1.41601 64.9092 1.16211 65.2021C0.908202 65.4919 0.781248 65.889 0.781248 66.3936L0.781248 68.1855L3.63769 68.1855ZM7.35351 61.3691C7.35351 61.8802 7.22168 62.3083 6.95801 62.6533C6.69433 62.9951 6.30534 63.166 5.79101 63.166C5.49479 63.166 5.2539 63.109 5.06836 62.9951C4.88281 62.8779 4.73795 62.7233 4.63379 62.5312C4.52637 62.3359 4.44499 62.1162 4.38965 61.8721C4.33431 61.6247 4.29036 61.3724 4.25781 61.1152C4.21224 60.7865 4.17806 60.5277 4.15527 60.3389C4.13249 60.1501 4.09505 60.0166 4.04297 59.9385C3.99088 59.8571 3.89974 59.8164 3.76953 59.8164L3.7207 59.8164C3.44075 59.8164 3.20963 59.9173 3.02734 60.1191C2.84505 60.3177 2.7539 60.5977 2.7539 60.959C2.7539 61.3171 2.8418 61.6117 3.01758 61.8428C3.1901 62.0706 3.40495 62.1943 3.66211 62.2139L3.66211 63.0586C3.34635 63.0423 3.0664 62.9447 2.82226 62.7656C2.57487 62.5866 2.37956 62.3424 2.23633 62.0332C2.0931 61.724 2.02148 61.3659 2.02148 60.959C2.02148 60.3568 2.17773 59.8799 2.49023 59.5283C2.79948 59.1735 3.20963 58.9961 3.7207 58.9961L7.27539 58.9961L7.27539 59.8164L6.54297 59.8164L6.54297 59.8359C6.66666 59.8978 6.79199 59.9889 6.91894 60.1094C7.04264 60.2298 7.14681 60.3926 7.23144 60.5977C7.31282 60.7995 7.35351 61.0566 7.35351 61.3691ZM6.61133 61.252C6.61133 60.9134 6.5511 60.6383 6.43066 60.4268C6.30696 60.2152 6.14746 60.0605 5.95215 59.9629C5.75683 59.8652 5.54687 59.8164 5.32226 59.8164L4.67773 59.8164C4.73633 59.8783 4.79004 60.0426 4.83887 60.3096C4.88444 60.5765 4.92838 60.8581 4.9707 61.1543C4.99674 61.3529 5.04232 61.5417 5.10742 61.7207C5.16927 61.8965 5.25879 62.0397 5.37597 62.1504C5.48991 62.2611 5.64453 62.3164 5.83984 62.3164C6.08073 62.3164 6.26953 62.222 6.40625 62.0332C6.54297 61.8411 6.61133 61.5807 6.61133 61.252ZM4.25781 56.9355L7.27539 56.9355L7.27539 57.7656L2.11914 57.7656L2.11914 56.9551L2.87597 56.9551C2.58301 56.776 2.36816 56.5579 2.23144 56.3008C2.09147 56.0404 2.02148 55.7474 2.02148 55.4219C2.02148 55.0736 2.09798 54.7562 2.25097 54.4697C2.40071 54.1833 2.62695 53.9554 2.92969 53.7861C3.23242 53.6136 3.61328 53.5273 4.07226 53.5273L7.27539 53.5273L7.27539 54.3574L4.13086 54.3574C3.68489 54.3574 3.34961 54.4648 3.125 54.6797C2.89713 54.8913 2.7832 55.1908 2.7832 55.5781C2.7832 55.9525 2.89876 56.2731 3.12988 56.54C3.361 56.8037 3.73698 56.9355 4.25781 56.9355ZM9.38476 50.1387C9.38476 50.7181 9.2513 51.208 8.98437 51.6084C8.71745 52.0088 8.33008 52.2415 7.82226 52.3066L7.82226 51.457C8.09896 51.3822 8.30566 51.2275 8.44238 50.9932C8.58235 50.7555 8.65234 50.4707 8.65234 50.1387C8.65234 49.6895 8.5319 49.3363 8.29101 49.0791C8.05338 48.8219 7.71484 48.6934 7.27539 48.6934L6.49414 48.6934L6.49414 48.6982C6.79362 48.887 7.01497 49.1214 7.1582 49.4014C7.30143 49.6781 7.37304 49.9857 7.37304 50.3242C7.37304 50.7702 7.26074 51.1624 7.03613 51.501C6.80827 51.8363 6.49414 52.0967 6.09375 52.2822C5.6901 52.4678 5.22461 52.5605 4.69726 52.5605C4.16666 52.5605 3.70117 52.4678 3.30078 52.2822C2.89713 52.0967 2.58301 51.8363 2.3584 51.501C2.13379 51.1624 2.02148 50.7702 2.02148 50.3242C2.02148 49.9889 2.0931 49.6781 2.23633 49.3916C2.3763 49.1019 2.60579 48.8675 2.9248 48.6885L2.9248 48.6836L2.11914 48.6836L2.11914 47.873L7.27539 47.873C7.7832 47.873 8.19173 47.9788 8.50097 48.1904C8.81022 48.3988 9.03483 48.6755 9.1748 49.0205C9.31478 49.3656 9.38476 49.7383 9.38476 50.1387ZM6.62597 50.1973C6.62597 49.7187 6.45019 49.3395 6.09863 49.0596C5.74707 48.7764 5.27995 48.6348 4.69726 48.6348C4.11458 48.6348 3.64746 48.7764 3.2959 49.0596C2.94108 49.3395 2.76367 49.7187 2.76367 50.1973C2.76367 50.6432 2.92806 51.0094 3.25683 51.2959C3.58561 51.5791 4.06575 51.7207 4.69726 51.7207C5.32877 51.7207 5.80892 51.5791 6.13769 51.2959C6.46321 51.0094 6.62597 50.6432 6.62597 50.1973ZM7.39258 44.5137C7.39258 45.0182 7.27702 45.4495 7.0459 45.8076C6.81478 46.1624 6.49739 46.4342 6.09375 46.623C5.68685 46.8118 5.22461 46.9062 4.70703 46.9062C4.18294 46.9062 3.71745 46.807 3.31054 46.6084C2.90364 46.4098 2.58463 46.1348 2.35351 45.7832C2.11914 45.4316 2.00195 45.028 2.00195 44.5723C2.00195 44.0937 2.11588 43.6787 2.34375 43.3271C2.57161 42.9756 2.889 42.7054 3.2959 42.5166C3.7028 42.3245 4.17317 42.2285 4.70703 42.2285L4.93652 42.2285L4.93652 46.0859C5.44108 46.0664 5.85123 45.9215 6.16699 45.6514C6.48275 45.3812 6.64062 45.002 6.64062 44.5137C6.64062 44.1458 6.55599 43.8464 6.38672 43.6152C6.21745 43.3809 5.99935 43.2246 5.73242 43.1465L5.73242 42.3164C6.0612 42.3815 6.35091 42.5166 6.60156 42.7217C6.84896 42.9268 7.04264 43.1839 7.18261 43.4932C7.32259 43.7992 7.39258 44.1393 7.39258 44.5137ZM4.22363 46.0762L4.22363 43.0586C3.77116 43.1042 3.41146 43.262 3.14453 43.5322C2.8776 43.8024 2.74414 44.1491 2.74414 44.5723C2.74414 44.9954 2.8776 45.3405 3.14453 45.6074C3.41146 45.8743 3.77116 46.0306 4.22363 46.0762Z" fill="#E6E8EB"/>
<defs>
<radialGradient id="paint0_radial_5545_5081" cx="0" cy="0" r="1" gradientUnits="userSpaceOnUse" gradientTransform="translate(185.834 76.5931) scale(171.67 250.239)">
<stop stop-color="#1E2330"/>
<stop offset="1" stop-color="#141824"/>
</radialGradient>
<clipPath id="clip0_5545_5081">
<rect width="343.319" height="153.19" fill="white" transform="translate(14.1836)"/>
</clipPath>
</defs>
</svg>
