<svg width="32" height="32" viewBox="0 0 32 32" fill="none" xmlns="http://www.w3.org/2000/svg">
<path opacity="0.2" d="M4.22616 9.5621C5.35121 8.43704 6.97012 8.12228 9.66645 8.03421L11.6668 8.0025C12.1887 8 12.7425 8 13.3307 8H18.6641C19.2523 8 19.8061 8 20.328 8.0025L22.3283 8.03421C25.0247 8.12228 26.6436 8.43704 27.7686 9.5621C29.3307 11.1242 29.3307 13.6384 29.3307 18.6667C29.3307 23.695 29.3307 26.2091 27.7686 27.7712C26.2065 29.3333 23.6924 29.3333 18.6641 29.3333H18.6641H13.3307H13.3307C8.3024 29.3333 5.78825 29.3333 4.22616 27.7712C2.66406 26.2091 2.66406 23.695 2.66406 18.6667C2.66406 13.6384 2.66406 11.1242 4.22616 9.5621Z" fill="#202533"/>
<path d="M17.0026 13.3334C17.0026 12.7811 16.5549 12.3334 16.0026 12.3334C15.4503 12.3334 15.0026 12.7811 15.0026 13.3334V13.347C13.5509 13.7128 12.3359 14.8574 12.3359 16.4445C12.3359 18.387 14.156 19.6667 16.0026 19.6667C17.1015 19.6667 17.6693 20.3769 17.6693 20.8889C17.6693 21.401 17.1015 22.1112 16.0026 22.1112C14.9037 22.1112 14.3359 21.401 14.3359 20.8889C14.3359 20.3366 13.8882 19.8889 13.3359 19.8889C12.7837 19.8889 12.3359 20.3366 12.3359 20.8889C12.3359 22.476 13.5509 23.6207 15.0026 23.9864V24C15.0026 24.5523 15.4503 25 16.0026 25C16.5549 25 17.0026 24.5523 17.0026 24V23.9864C18.4543 23.6207 19.6693 22.476 19.6693 20.8889C19.6693 18.9464 17.8492 17.6667 16.0026 17.6667C14.9037 17.6667 14.3359 16.9565 14.3359 16.4445C14.3359 15.9324 14.9037 15.2223 16.0026 15.2223C17.1015 15.2223 17.6693 15.9324 17.6693 16.4445C17.6693 16.9968 18.117 17.4445 18.6693 17.4445C19.2216 17.4445 19.6693 16.9968 19.6693 16.4445C19.6693 14.8574 18.4543 13.7128 17.0026 13.347V13.3334Z" fill="#202533"/>
<path d="M16.0722 1.66663H15.9335C14.7355 1.66659 13.7365 1.66656 12.9435 1.77318C12.1065 1.88572 11.3507 2.13328 10.7434 2.74057C10.1361 3.34787 9.88857 4.1036 9.77604 4.94066C9.6996 5.50914 9.67798 6.86859 9.67188 8.03417L11.6723 8.00246C11.6783 6.87361 11.6975 5.65872 11.7582 5.20715C11.8409 4.59187 11.9839 4.32854 12.1576 4.15479C12.3314 3.98103 12.5947 3.83807 13.21 3.75534C13.8541 3.66875 14.7175 3.66663 16.0028 3.66663C17.2882 3.66663 18.1516 3.66875 18.7956 3.75534C19.4109 3.83807 19.6742 3.98103 19.848 4.15479C20.0218 4.32854 20.1647 4.59187 20.2474 5.20715C20.3082 5.65872 20.3273 6.87361 20.3334 8.00246L22.3338 8.03417C22.3277 6.86859 22.306 5.50914 22.2296 4.94066C22.1171 4.1036 21.8695 3.34787 21.2622 2.74057C20.6549 2.13328 19.8992 1.88572 19.0621 1.77318C18.2691 1.66656 17.2701 1.66659 16.0722 1.66663Z" fill="#202533"/>
</svg>
