<svg width="96" height="19" viewBox="0 0 96 19" fill="none" xmlns="http://www.w3.org/2000/svg">
<path d="M2.35547 12.405V17.721C2.35547 18.0483 2.63773 18.1841 2.72554 18.215C2.81334 18.252 3.10816 18.3323 3.37159 18.0915L7.47014 14.2268C7.81915 13.8977 8.15602 13.5518 8.40914 13.147C8.52829 12.9568 8.57768 12.8496 8.57768 12.8496C8.82862 12.3495 8.82862 11.8679 8.5839 11.3863C8.22025 10.6701 7.29185 9.94152 5.89304 9.25L3.50332 10.5589C2.79455 10.9541 2.35547 11.6518 2.35547 12.405Z" fill="#004EC3"/>
<path d="M0 0.586556V6.16189C0 6.85959 0.476708 7.47701 1.15414 7.67459C3.46235 8.32904 7.48295 9.73676 8.4552 11.8051C8.58055 12.0768 8.65585 12.3423 8.6811 12.6201C9.32711 11.4656 9.62187 10.1381 9.4839 8.79211C9.29566 6.88427 8.26694 5.1493 6.66131 4.04412L0.934596 0.111138C0.834226 0.0370465 0.715053 0 0.595882 0C0.495513 0 0.4077 0.0185233 0.31362 0.0679175C0.12544 0.172879 0 0.364286 0 0.586556Z" fill="#2470FF"/>
<path d="M17.5986 12.405V17.721C17.5986 18.0483 17.3165 18.1841 17.2286 18.215C17.1409 18.252 16.8459 18.3323 16.5826 18.0915L12.3886 14.1369C12.1031 13.8677 11.8305 13.5829 11.6155 13.2566C11.4452 12.9984 11.3765 12.8496 11.3765 12.8496C11.1256 12.3495 11.1256 11.8679 11.3701 11.3863C11.734 10.6701 12.6623 9.94152 14.0609 9.25L16.4508 10.5589C17.1659 10.9541 17.5986 11.6518 17.5986 12.405Z" fill="#004EC3"/>
<path d="M19.9587 0.586555V6.16188C19.9587 6.85956 19.4819 7.47698 18.8044 7.67455C16.4962 8.32903 12.4757 9.73677 11.5035 11.8051C11.3779 12.0768 11.3026 12.3423 11.2776 12.6201C10.6315 11.4656 10.3368 10.1381 10.4747 8.7921C10.6628 6.88426 11.6915 5.14932 13.2974 4.04413L19.0241 0.111135C19.1244 0.0370443 19.2435 0 19.3627 0C19.463 0 19.5509 0.0185232 19.6448 0.0679172C19.8331 0.172879 19.9587 0.364282 19.9587 0.586555Z" fill="#2470FF"/>
<path d="M29.6758 1.79688H31.8682L36.9491 13.3281H37.0997L42.1806 1.79688H44.3351V15.0915H42.7356V4.5112H42.5851L37.9277 15.0915H36.0835L31.4259 4.5112H31.2753V15.0915H29.6758V1.79688Z" fill="#0F0F0F"/>
<path d="M46.1016 10.3988C46.1016 7.22291 48.0682 5.46875 50.985 5.46875C53.8923 5.46875 55.8682 7.22291 55.8682 10.3988C55.8682 13.5656 53.8923 15.3197 50.985 15.3197C48.0682 15.3197 46.1016 13.5656 46.1016 10.3988ZM47.7764 10.3988C47.7764 12.7254 49.0656 13.9902 50.985 13.9902C52.8949 13.9902 54.1841 12.7254 54.1841 10.3988C54.1841 8.06305 52.8949 6.80745 50.985 6.80745C49.0656 6.80745 47.7764 8.06305 47.7764 10.3988Z" fill="#0F0F0F"/>
<path d="M57.4492 5.67755H59.0488V6.80391H59.1993C59.5288 6.13917 60.1309 5.64062 61.5704 5.64062H62.9065V7.04395H61.608C59.811 7.04395 59.1052 8.01335 59.1052 9.92446V15.0854H57.4492V5.67755Z" fill="#0F0F0F"/>
<path d="M64.1797 18.7819V5.68109H65.7981V6.98286H65.9486C66.6637 5.89344 67.8304 5.46875 69.1853 5.46875C71.6786 5.46875 73.5888 7.13058 73.5888 10.3896C73.5888 13.6394 71.6786 15.3013 69.1853 15.3013C67.8585 15.3013 66.7013 14.8858 65.9862 13.8425H65.8357V18.7819H64.1797ZM65.7792 10.3896C65.7792 12.67 67.0212 13.9533 68.8466 13.9533C70.6812 13.9533 71.9235 12.67 71.9235 10.3896C71.9235 8.09998 70.6812 6.81668 68.8466 6.81668C67.0212 6.81668 65.7792 8.09998 65.7792 10.3896Z" fill="#0F0F0F"/>
<path d="M75.1758 1.79688H76.8318V6.84699H76.9823C77.6691 5.84989 78.8077 5.47137 80.1531 5.47137C82.3831 5.47137 83.7945 6.57925 83.7945 8.87812V15.0915H82.1385V9.03507C82.1385 7.50249 81.2821 6.82853 79.7862 6.82853C78.1491 6.82853 76.8318 7.77947 76.8318 9.83829V15.0915H75.1758V1.79688Z" fill="#0F0F0F"/>
<path d="M85.2852 10.3988C85.2852 7.22291 87.2515 5.46875 90.1683 5.46875C93.0759 5.46875 95.0518 7.22291 95.0518 10.3988C95.0518 13.5656 93.0759 15.3197 90.1683 15.3197C87.2515 15.3197 85.2852 13.5656 85.2852 10.3988ZM86.96 10.3988C86.96 12.7254 88.2489 13.9902 90.1683 13.9902C92.0785 13.9902 93.3674 12.7254 93.3674 10.3988C93.3674 8.06305 92.0785 6.80745 90.1683 6.80745C88.2489 6.80745 86.96 8.06305 86.96 10.3988Z" fill="#0F0F0F"/>
</svg>
