<svg width="32" height="32" viewBox="0 0 32 32" fill="none" xmlns="http://www.w3.org/2000/svg">
<path opacity="0.2" d="M18.3327 2.67102C17.6069 2.6665 16.8306 2.6665 15.9993 2.6665C9.71396 2.6665 6.57126 2.6665 4.61864 4.61913C2.66602 6.57175 2.66602 9.71444 2.66602 15.9998C2.66602 22.2852 2.66602 25.4279 4.61864 27.3805C6.57126 29.3332 9.71396 29.3332 15.9993 29.3332C22.2847 29.3332 25.4274 29.3332 27.3801 27.3805C29.3327 25.4279 29.3327 22.2852 29.3327 15.9998C29.3327 15.1686 29.3327 14.3923 29.3282 13.6665C28.5619 13.6653 27.796 13.3724 27.2113 12.7878L25.3327 10.9092L23.454 12.7878C22.2825 13.9594 20.383 13.9594 19.2114 12.7878C18.0398 11.6163 18.0398 9.71676 19.2114 8.54518L21.0901 6.66652L19.2114 4.78782C18.6267 4.20319 18.3338 3.43728 18.3327 2.67102Z" fill="#1E2330"/>
<path fill-rule="evenodd" clip-rule="evenodd" d="M20.6269 1.9594C21.0174 1.56887 21.6506 1.56887 22.0411 1.9594L25.334 5.25231L28.6269 1.95943C29.0174 1.56891 29.6506 1.56891 30.0411 1.95943C30.4316 2.34995 30.4316 2.98312 30.0411 3.37364L26.7482 6.66652L30.0411 9.95937C30.4316 10.3499 30.4316 10.9831 30.0411 11.3736C29.6505 11.7641 29.0174 11.7641 28.6268 11.3736L25.334 8.08074L22.0411 11.3736C21.6506 11.7641 21.0174 11.7641 20.6269 11.3736C20.2364 10.9831 20.2364 10.3499 20.6269 9.9594L23.9198 6.66652L20.6269 3.37361C20.2364 2.98309 20.2364 2.34992 20.6269 1.9594Z" fill="#1E2330"/>
<path fill-rule="evenodd" clip-rule="evenodd" d="M8.33398 18.6665C8.33398 18.1142 8.7817 17.6665 9.33398 17.6665H21.334C21.8863 17.6665 22.334 18.1142 22.334 18.6665C22.334 19.2188 21.8863 19.6665 21.334 19.6665H9.33398C8.7817 19.6665 8.33398 19.2188 8.33398 18.6665Z" fill="#1E2330"/>
<path fill-rule="evenodd" clip-rule="evenodd" d="M8.33398 23.3332C8.33398 22.7809 8.7817 22.3332 9.33398 22.3332H17.334C17.8863 22.3332 18.334 22.7809 18.334 23.3332C18.334 23.8855 17.8863 24.3332 17.334 24.3332H9.33398C8.7817 24.3332 8.33398 23.8855 8.33398 23.3332Z" fill="#1E2330"/>
</svg>
