<svg width="32" height="32" viewBox="0 0 32 32" fill="none" xmlns="http://www.w3.org/2000/svg">
<path opacity="0.3" fill-rule="evenodd" clip-rule="evenodd" d="M4.33594 29.3333C4.33594 28.781 4.78365 28.3333 5.33594 28.3333H26.6693C27.2216 28.3333 27.6693 28.781 27.6693 29.3333C27.6693 29.8855 27.2216 30.3333 26.6693 30.3333H5.33594C4.78365 30.3333 4.33594 29.8855 4.33594 29.3333Z" fill="#202533"/>
<path opacity="0.3" d="M25.4422 9.82891C27.0807 8.19047 27.0807 5.53403 25.4422 3.89558C23.8038 2.25714 21.1473 2.25714 19.5089 3.89558L18.5625 4.84196C18.5755 4.8811 18.5889 4.92077 18.6028 4.96096C18.9497 5.9608 19.6042 7.2715 20.8354 8.50272C22.0667 9.73394 23.3774 10.3884 24.3772 10.7353C24.4172 10.7492 24.4567 10.7626 24.4957 10.7755L25.4422 9.82891Z" fill="#202533"/>
<path d="M18.5989 4.79956L18.5581 4.84031C18.5711 4.87944 18.5845 4.91912 18.5985 4.95931C18.9453 5.95915 19.5998 7.26984 20.8311 8.50106C22.0623 9.73228 23.373 10.3868 24.3728 10.7337C24.4125 10.7474 24.4516 10.7607 24.4903 10.7735L15.3571 19.9066C14.7414 20.5224 14.4334 20.8303 14.094 21.0951C13.6935 21.4074 13.2602 21.6752 12.8017 21.8937C12.4131 22.0789 12 22.2166 11.1739 22.492L6.81735 23.9442C6.41079 24.0797 5.96257 23.9739 5.65954 23.6709C5.35651 23.3678 5.2507 22.9196 5.38622 22.5131L6.83839 18.1565C7.11377 17.3304 7.25146 16.9173 7.43669 16.5287C7.65518 16.0702 7.92297 15.6369 8.23532 15.2365C8.50009 14.897 8.80798 14.5891 9.42368 13.9734L18.5989 4.79956Z" fill="#202533"/>
</svg>
