<svg width="32" height="32" viewBox="0 0 32 32" fill="none" xmlns="http://www.w3.org/2000/svg">
<path opacity="0.25" fill-rule="evenodd" clip-rule="evenodd" d="M4.33398 29.3334C4.33398 28.7811 4.7817 28.3334 5.33398 28.3334H26.6673C27.2196 28.3334 27.6673 28.7811 27.6673 29.3334C27.6673 29.8857 27.2196 30.3334 26.6673 30.3334H5.33398C4.7817 30.3334 4.33398 29.8857 4.33398 29.3334Z" fill="#1E2330"/>
<path opacity="0.25" d="M25.4403 9.82879C27.0787 8.19035 27.0787 5.5339 25.4403 3.89546C23.8018 2.25701 21.1454 2.25701 19.5069 3.89546L18.5605 4.84184C18.5735 4.88098 18.5869 4.92065 18.6009 4.96084C18.9478 5.96068 19.6023 7.27138 20.8335 8.5026C22.0647 9.73381 23.3754 10.3883 24.3752 10.7352C24.4152 10.7491 24.4547 10.7625 24.4937 10.7754L25.4403 9.82879Z" fill="#1E2330"/>
<path d="M18.6008 4.79944L18.5601 4.84019C18.573 4.87932 18.5865 4.919 18.6004 4.95919C18.9473 5.95902 19.6018 7.26972 20.833 8.50094C22.0642 9.73216 23.3749 10.3867 24.3748 10.7335C24.4144 10.7473 24.4536 10.7606 24.4922 10.7734L15.3591 19.9065C14.7433 20.5223 14.4354 20.8302 14.0959 21.095C13.6955 21.4073 13.2622 21.6751 12.8037 21.8936C12.415 22.0788 12.002 22.2165 11.1758 22.4919L6.8193 23.9441C6.41275 24.0796 5.96452 23.9738 5.66149 23.6708C5.35846 23.3677 5.25265 22.9195 5.38817 22.5129L6.84034 18.1564C7.11572 17.3303 7.25342 16.9172 7.43864 16.5285C7.65713 16.0701 7.92493 15.6368 8.23727 15.2363C8.50205 14.8969 8.80993 14.589 9.42564 13.9733L18.6008 4.79944Z" fill="#1E2330"/>
</svg>
