<svg width="32" height="32" viewBox="0 0 32 32" fill="none" xmlns="http://www.w3.org/2000/svg">
<path opacity="0.25" fill-rule="evenodd" clip-rule="evenodd" d="M12.2168 5.03363C12.3823 5.56053 12.0894 6.12183 11.5624 6.28732C6.98467 7.72512 3.66602 12.0024 3.66602 17.0522C3.66602 23.2825 8.71674 28.3333 14.9471 28.3333C19.9969 28.3333 24.2742 25.0146 25.712 20.4368C25.8775 19.9099 26.4388 19.617 26.9657 19.7824C27.4926 19.9479 27.7856 20.5092 27.6201 21.0361C25.928 26.4235 20.8955 30.3333 14.9471 30.3333C7.61217 30.3333 1.66602 24.3871 1.66602 17.0522C1.66602 11.1038 5.57576 6.07131 10.9631 4.37923C11.4901 4.21373 12.0514 4.50672 12.2168 5.03363Z" fill="#1E2330"/>
<path d="M29.2168 13.2631C27.8014 8.19258 23.8068 4.19802 18.7363 2.78262C16.5449 2.17088 14.666 4.07233 14.666 6.34757V15.2736C14.666 16.4112 15.5882 17.3334 16.7259 17.3334H25.6519C27.9271 17.3334 29.8285 15.4546 29.2168 13.2631Z" fill="#1E2330"/>
</svg>
