<svg width="27" height="27" viewBox="0 0 27 27" fill="none" xmlns="http://www.w3.org/2000/svg">
<path opacity="0.2" d="M0 13.3333C0 7.04794 0 3.90524 1.95262 1.95262C3.90524 0 7.04794 0 13.3333 0C19.6187 0 22.7614 0 24.714 1.95262C26.6667 3.90524 26.6667 7.04794 26.6667 13.3333C26.6667 19.6187 26.6667 22.7614 24.714 24.714C22.7614 26.6667 19.6187 26.6667 13.3333 26.6667C7.04794 26.6667 3.90524 26.6667 1.95262 24.714C0 22.7614 0 19.6187 0 13.3333Z" fill="#202533"/>
<path d="M15.3369 11.3369H19.3359V15.3369H15.3369V19.333H11.3369V15.3369H7.33594V11.3369H11.3369V7.33301H15.3369V11.3369Z" fill="#202533"/>
</svg>
