<svg width="1393" height="446" viewBox="0 0 1393 446" fill="none" xmlns="http://www.w3.org/2000/svg">
<g clip-path="url(#clip0_5545_5080)">
<path d="M1389 62.2841C1389 62.2841 1196.71 107.309 1055.25 107.309C913.802 107.309 837.069 96.1927 721.508 62.2841C605.931 28.3755 534.97 15 387.746 15C240.522 15 54 61.2844 54 61.2844V384.975C54 384.975 240.537 338.691 387.746 338.691C534.955 338.691 605.931 352.067 721.492 385.975C837.054 419.884 913.787 431 1055.24 431C1196.69 431 1388.98 385.975 1388.98 385.975V62.2841H1389Z" fill="url(#paint0_radial_5545_5080)"/>
<path d="M890.287 78.1445L892.222 63.7229L894.593 64.0411L897.003 73.8431C897.064 74.0746 897.133 74.3663 897.21 74.7183C897.295 75.0647 897.379 75.424 897.46 75.7962C897.549 76.1628 897.625 76.4983 897.689 76.8025C897.832 76.526 897.991 76.2221 898.166 75.891C898.35 75.5543 898.525 75.2296 898.691 74.917C898.865 74.5988 899.009 74.3356 899.122 74.1275L903.972 65.2995L906.353 65.6189L904.418 80.0405L902.705 79.8106L903.827 71.448C903.896 70.9318 903.98 70.3584 904.078 69.7278C904.176 69.0907 904.274 68.4601 904.371 67.8359C903.991 68.5601 903.643 69.2228 903.326 69.824C903.009 70.4252 902.747 70.909 902.54 71.2753L898.069 79.1886L896.636 78.9964L894.39 70.1819C894.291 69.7942 894.169 69.2884 894.022 68.6644C893.876 68.0405 893.712 67.3518 893.531 66.5983C893.471 67.1946 893.404 67.7899 893.331 68.3844C893.264 68.9798 893.198 69.5227 893.132 70.0131L892.01 78.3756L890.287 78.1445ZM910.178 80.8984C909.163 80.7792 908.343 80.4174 907.719 79.8131C907.102 79.2096 906.853 78.397 906.973 77.3754C907.042 76.787 907.212 76.3218 907.481 75.9798C907.757 75.6386 908.098 75.387 908.504 75.2249C908.917 75.0571 909.373 74.9468 909.871 74.8938C910.375 74.8416 910.886 74.8132 911.405 74.8086C912.068 74.7948 912.59 74.7873 912.971 74.7861C913.351 74.7849 913.625 74.7417 913.792 74.6565C913.966 74.5721 914.068 74.4005 914.099 74.1419L914.11 74.0449C914.175 73.4888 914.029 73.0062 913.67 72.597C913.319 72.1885 912.784 71.9421 912.066 71.8578C911.355 71.7742 910.749 71.8801 910.249 72.1753C909.756 72.4648 909.46 72.8627 909.361 73.3689L907.684 73.1717C907.79 72.5483 908.049 72.0151 908.461 71.5719C908.875 71.1223 909.405 70.7913 910.053 70.579C910.701 70.3667 911.429 70.308 912.237 70.403C913.433 70.5435 914.344 70.9652 914.969 71.668C915.602 72.3651 915.859 73.2212 915.739 74.2363L914.91 81.2971L913.28 81.1057L913.451 79.6508L913.412 79.6463C913.261 79.8776 913.05 80.1052 912.782 80.3293C912.513 80.5469 912.166 80.7158 911.739 80.836C911.319 80.9506 910.798 80.9714 910.178 80.8984ZM910.584 79.4516C911.256 79.5306 911.817 79.4752 912.265 79.2853C912.714 79.089 913.059 78.8082 913.298 78.4431C913.538 78.0779 913.684 77.6723 913.736 77.2261L913.887 75.9459C913.75 76.0478 913.411 76.1161 912.869 76.1508C912.329 76.179 911.759 76.2006 911.161 76.2155C910.76 76.2209 910.375 76.2674 910.004 76.3549C909.64 76.4367 909.335 76.5811 909.088 76.788C908.841 76.9885 908.695 77.2827 908.649 77.6707C908.593 78.1492 908.737 78.5462 909.08 78.8619C909.429 79.1783 909.931 79.3748 910.584 79.4516ZM917.355 81.5695L918.435 71.3137L920.008 71.4793L919.838 73.0915L919.877 73.0956C920.121 72.5844 920.464 72.1885 920.906 71.9077C921.348 71.6269 921.889 71.5202 922.53 71.5877C922.679 71.6034 922.814 71.6242 922.936 71.6501C923.064 71.6767 923.16 71.6998 923.223 71.7196L923.049 73.3706C922.987 73.3444 922.863 73.3084 922.678 73.2628C922.5 73.2113 922.291 73.173 922.052 73.1478C921.482 73.0878 920.965 73.2363 920.502 73.5935C920.039 73.9506 919.762 74.563 919.671 75.4306L919.006 81.7433L917.355 81.5695ZM923.572 82.2146L924.986 67.7328L926.638 67.8942L925.775 76.7291L925.795 76.731L931.018 72.5804L933.156 72.7892L928.208 76.741L932.484 83.0852L930.385 82.8801L926.843 77.6575L925.594 78.5855L925.224 82.376L923.572 82.2146ZM937.455 83.7448C936.45 83.6579 935.611 83.3534 934.937 82.8312C934.27 82.3095 933.783 81.6303 933.476 80.7935C933.17 79.9502 933.062 79.0129 933.151 77.9816C933.241 76.9373 933.519 76.0269 933.985 75.2503C934.45 74.4737 935.054 73.8854 935.794 73.4855C936.535 73.079 937.359 72.9151 938.267 72.9936C939.221 73.076 940.028 73.3745 940.689 73.8891C941.351 74.4037 941.834 75.0826 942.14 75.9259C942.453 76.7698 942.563 77.7236 942.471 78.7873L942.432 79.2446L934.746 78.5802C934.698 79.5889 934.916 80.4311 935.4 81.1068C935.884 81.7825 936.612 82.1624 937.585 82.2465C938.318 82.3099 938.929 82.1928 939.419 81.8954C939.915 81.5985 940.264 81.1908 940.466 80.6724L942.12 80.8154C941.933 81.4593 941.614 82.0133 941.162 82.4774C940.711 82.935 940.165 83.2766 939.525 83.5023C938.891 83.7285 938.201 83.8093 937.455 83.7448ZM934.888 77.1614L940.901 77.6812C940.888 76.7717 940.635 76.0278 940.143 75.4494C939.65 74.871 938.983 74.5453 938.139 74.4724C937.296 74.3995 936.586 74.606 936.008 75.0919C935.43 75.5778 935.057 76.2676 934.888 77.1614ZM949.198 74.1205L949.089 75.5421L947.005 75.3816L946.514 81.7494C946.484 82.1454 946.543 82.4307 946.693 82.6055C946.85 82.7743 947.139 82.875 947.561 82.9075L948.515 82.981L948.406 84.4026L947.296 84.317C945.543 84.182 944.727 83.342 944.846 81.7971L945.35 75.254L943.519 75.113L943.629 73.6914L945.459 73.8324L945.675 71.0283L947.331 71.1558L947.115 73.96L949.198 74.1205ZM959.351 85.3892C958.403 85.3283 957.582 85.0472 956.89 84.5461C956.205 84.0389 955.687 83.3695 955.336 82.538C954.992 81.7069 954.853 80.7683 954.92 79.7223C954.988 78.6698 955.246 77.7502 955.695 76.9635C956.15 76.1773 956.749 75.5765 957.494 75.1611C958.244 74.7462 959.094 74.5692 960.043 74.6302C960.822 74.6803 961.511 74.8811 962.108 75.2326C962.705 75.5776 963.182 76.0323 963.537 76.5966C963.899 77.1613 964.103 77.7942 964.149 78.4952L962.473 78.3875C962.388 77.7754 962.134 77.26 961.711 76.8413C961.295 76.4166 960.706 76.1798 959.946 76.131C958.978 76.0688 958.195 76.374 957.597 77.0467C957.006 77.7198 956.673 78.6476 956.597 79.83C956.521 80.9995 956.734 81.9526 957.235 82.6894C957.735 83.4261 958.473 83.8258 959.448 83.8884C960.221 83.9381 960.824 83.7877 961.258 83.4372C961.692 83.0801 962.01 82.5918 962.213 81.972L963.918 82.0816C963.784 82.7514 963.501 83.3465 963.07 83.8668C962.645 84.381 962.111 84.7772 961.467 85.0555C960.83 85.3277 960.124 85.4389 959.351 85.3892ZM969.803 86.0081C968.854 85.9562 968.031 85.6831 967.335 85.1886C966.645 84.688 966.12 84.0237 965.761 83.1956C965.409 82.3678 965.261 81.4306 965.318 80.384C965.376 79.3309 965.625 78.4089 966.066 77.6179C966.513 76.8274 967.107 76.2208 967.848 75.7983C968.594 75.3762 969.442 75.191 970.391 75.2429C971.347 75.2951 972.17 75.5715 972.86 76.0721C973.55 76.5727 974.071 77.2401 974.423 78.0744C974.781 78.909 974.932 79.8528 974.874 80.906C974.817 81.9526 974.565 82.8679 974.118 83.652C973.677 84.4364 973.087 85.0399 972.347 85.4624C971.607 85.8784 970.759 86.0603 969.803 86.0081ZM969.885 84.5064C970.861 84.5597 971.64 84.2502 972.225 83.5779C972.81 82.8992 973.134 81.978 973.197 80.8143C973.261 79.6377 973.037 78.68 972.523 77.9413C972.016 77.1964 971.278 76.7974 970.309 76.7445C969.341 76.6916 968.561 77.0044 967.97 77.6828C967.385 78.3615 967.06 79.2925 966.996 80.4756C966.932 81.6457 967.154 82.5968 967.661 83.3287C968.169 84.0606 968.91 84.4532 969.885 84.5064ZM978.457 80.1753L978.184 86.2042L976.526 86.1291L976.993 75.8272L978.612 75.9005L978.543 77.4127C978.928 76.8435 979.383 76.434 979.909 76.1841C980.442 75.9281 981.034 75.8147 981.684 75.8442C982.38 75.8757 983.007 76.0573 983.566 76.3889C984.124 76.714 984.559 77.1867 984.87 77.8068C985.187 78.4273 985.325 79.1961 985.284 80.1131L984.994 86.5128L983.335 86.4376L983.62 80.155C983.66 79.264 983.476 78.5844 983.067 78.1162C982.665 77.6418 982.077 77.387 981.303 77.3519C980.555 77.3181 979.904 77.5199 979.35 77.9575C978.802 78.3954 978.505 79.1347 978.457 80.1753ZM991.388 86.9523C990.497 86.9198 989.721 86.6667 989.061 86.1931C988.407 85.7133 987.91 85.0665 987.568 84.2527C987.227 83.4324 987.075 82.4953 987.114 81.4413C987.152 80.3808 987.372 79.4572 987.772 78.6705C988.172 77.8772 988.715 77.2684 989.402 76.8439C990.095 76.4197 990.887 76.2238 991.778 76.2563C992.449 76.2807 993.065 76.4465 993.627 76.7537C994.189 77.0543 994.626 77.5002 994.936 78.0914L994.956 78.0921L995.166 72.3342L996.825 72.3947L996.295 86.9358L994.674 86.8767L994.731 85.3153L994.712 85.3146C994.319 85.8931 993.835 86.3184 993.258 86.5905C992.682 86.8562 992.058 86.9768 991.388 86.9523ZM991.697 85.4684C992.653 85.5033 993.424 85.1796 994.009 84.4974C994.6 83.8154 994.918 82.8921 994.96 81.7275C995.003 80.5629 994.754 79.6189 994.213 78.8956C993.679 78.166 992.934 77.7838 991.978 77.7489C991.087 77.7164 990.343 78.0183 989.746 78.6545C989.156 79.291 988.838 80.2403 988.792 81.5025C988.746 82.7647 988.994 83.7347 989.536 84.4124C990.085 85.0839 990.805 85.4359 991.697 85.4684ZM998.753 87.0162L999.051 76.708L1000.71 76.7559L1000.41 87.0641L998.753 87.0162ZM999.939 74.7211C999.627 74.7121 999.363 74.5937 999.148 74.3661C998.933 74.1384 998.831 73.8684 998.84 73.556C998.849 73.2437 998.967 72.98 999.195 72.7652C999.422 72.5503 999.692 72.4474 1000 72.4564C1000.32 72.4654 1000.58 72.5838 1000.8 72.8114C1001.01 73.0391 1001.11 73.3091 1001.1 73.6215C1001.1 73.9338 1000.98 74.1975 1000.75 74.4123C1000.52 74.6272 1000.25 74.7301 999.939 74.7211ZM1007.87 76.9627L1007.82 78.3879L1005.74 78.3275L1005.55 84.7116C1005.54 85.1086 1005.61 85.3907 1005.77 85.5581C1005.94 85.7192 1006.23 85.8059 1006.65 85.8181L1007.61 85.8457L1007.57 87.2709L1006.46 87.2388C1004.7 87.188 1003.84 86.3882 1003.89 84.8393L1004.08 78.2796L1002.24 78.2265L1002.28 76.8014L1004.12 76.8544L1004.2 74.0431L1005.86 74.091L1005.78 76.9024L1007.87 76.9627ZM1009.3 87.3122L1009.52 77.0021L1011.18 77.0384L1010.96 87.3484L1009.3 87.3122ZM1010.4 75.009C1010.08 75.0022 1009.82 74.8857 1009.6 74.6596C1009.39 74.4334 1009.28 74.1642 1009.29 73.8517C1009.29 73.5393 1009.41 73.2749 1009.64 73.0584C1009.86 72.8419 1010.13 72.7371 1010.44 72.7439C1010.76 72.7508 1011.02 72.8672 1011.24 73.0934C1011.45 73.3195 1011.56 73.5888 1011.55 73.9012C1011.55 74.2136 1011.43 74.4781 1011.2 74.6945C1010.98 74.911 1010.71 75.0158 1010.4 75.009ZM1017.67 87.7159C1016.72 87.6975 1015.89 87.4535 1015.17 86.9838C1014.47 86.5078 1013.92 85.8623 1013.53 85.0474C1013.15 84.2325 1012.97 83.3011 1012.99 82.2531C1013.01 81.1987 1013.23 80.2684 1013.64 79.4625C1014.06 78.6567 1014.63 78.0296 1015.35 77.5813C1016.09 77.1332 1016.93 76.9183 1017.88 76.9367C1018.83 76.9552 1019.67 77.2025 1020.37 77.6786C1021.08 78.1546 1021.62 78.8033 1022.01 79.6246C1022.39 80.4461 1022.58 81.3841 1022.56 82.4386C1022.54 83.4865 1022.32 84.4102 1021.9 85.2095C1021.49 86.0089 1020.92 86.6328 1020.19 87.0811C1019.47 87.5229 1018.63 87.7345 1017.67 87.7159ZM1017.7 86.2123C1018.67 86.2312 1019.44 85.8945 1020 85.2021C1020.56 84.5032 1020.86 83.5712 1020.88 82.406C1020.9 81.2278 1020.64 80.2787 1020.1 79.5584C1019.57 78.8318 1018.82 78.4591 1017.85 78.4403C1016.88 78.4215 1016.11 78.7615 1015.54 79.4603C1014.98 80.1592 1014.69 81.101 1014.67 82.2857C1014.65 83.4573 1014.9 84.4 1015.43 85.1136C1015.97 85.8271 1016.72 86.1934 1017.7 86.2123ZM1026.13 81.5889L1026.05 87.6236L1024.39 87.6031L1024.52 77.2914L1026.14 77.3114L1026.12 78.825C1026.49 78.2435 1026.93 77.8192 1027.45 77.5521C1027.97 77.2786 1028.56 77.1459 1029.21 77.1539C1029.9 77.1625 1030.54 77.3234 1031.11 77.6364C1031.68 77.9429 1032.13 78.401 1032.46 79.0106C1032.79 79.6203 1032.96 80.384 1032.95 81.3019L1032.87 87.7077L1031.21 87.6872L1031.28 81.3986C1031.3 80.5068 1031.09 79.8336 1030.67 79.3791C1030.25 78.9182 1029.65 78.683 1028.88 78.6734C1028.13 78.6642 1027.48 78.8874 1026.94 79.343C1026.41 79.7987 1026.14 80.5473 1026.13 81.5889ZM1038.92 87.9843C1038.18 87.9802 1037.52 87.856 1036.92 87.6118C1036.32 87.3675 1035.84 87.0002 1035.47 86.5099C1035.1 86.013 1034.9 85.3901 1034.86 84.6412L1036.5 84.6504C1036.61 85.914 1037.4 86.55 1038.89 86.5584C1039.6 86.5624 1040.17 86.4158 1040.58 86.1186C1041 85.8215 1041.21 85.4451 1041.21 84.9893C1041.21 84.5987 1041.07 84.2854 1040.79 84.0494C1040.5 83.8135 1040.13 83.6421 1039.67 83.5353L1038.01 83.1354C1036.07 82.6688 1035.11 81.6868 1035.12 80.1894C1035.12 79.6035 1035.28 79.0868 1035.59 78.6393C1035.91 78.1854 1036.36 77.8331 1036.92 77.5823C1037.49 77.3251 1038.14 77.1985 1038.87 77.2027C1039.59 77.2067 1040.23 77.347 1040.79 77.6236C1041.37 77.8937 1041.82 78.2771 1042.15 78.7738C1042.48 79.2705 1042.66 79.8607 1042.67 80.5444L1041.05 80.5353C1041.05 79.9883 1040.85 79.5347 1040.45 79.1745C1040.06 78.8142 1039.53 78.6321 1038.86 78.6284C1038.23 78.6249 1037.73 78.775 1037.35 79.0789C1036.97 79.3828 1036.78 79.756 1036.78 80.1987C1036.77 80.5894 1036.92 80.9059 1037.2 81.1484C1037.49 81.3844 1037.88 81.5624 1038.37 81.6823L1040.03 82.0823C1041.02 82.3222 1041.74 82.6778 1042.2 83.1492C1042.66 83.614 1042.89 84.2175 1042.88 84.9597C1042.88 85.5977 1042.7 86.1436 1042.36 86.5974C1042.01 87.0511 1041.53 87.3968 1040.93 87.6343C1040.34 87.8719 1039.67 87.9885 1038.92 87.9843Z" fill="#E6E8EB"/>
</g>
<line x1="54.0781" y1="223.234" x2="1391.04" y2="223.234" stroke="#365C8D" stroke-width="2"/>
<path d="M54.0781 223.629C54.0781 223.629 257.936 100.977 388.558 100.977C519.181 100.977 607.22 136.318 723.038 225.976C838.857 315.634 926.896 345.023 1057.52 345.023C1188.14 345.023 1392 225.976 1392 225.976" stroke="#D9904F" stroke-width="2"/>
<path d="M54.0781 223.962C54.0781 223.962 257.936 133.023 388.558 133.023C519.181 133.023 607.22 159.084 723.038 225.195C838.857 291.306 926.896 312.977 1057.52 312.977C1188.14 312.977 1392 225.195 1392 225.195" stroke="#D1C972" stroke-width="2"/>
<path d="M54.0781 223.619C54.0781 223.619 257.937 166.305 388.56 166.305C519.182 166.305 607.222 182.726 723.04 224.385C838.858 266.044 926.898 279.7 1057.52 279.7C1188.14 279.7 1392 224.385 1392 224.385" stroke="#78B76A" stroke-width="2"/>
<path d="M54.0781 223.689C54.0781 223.689 257.936 194.648 388.558 194.648C519.181 194.648 607.22 202.859 723.038 223.689C838.857 244.518 926.896 251.346 1057.52 251.346C1188.14 251.346 1392 223.689 1392 223.689" stroke="#418B77" stroke-width="2"/>
<path d="M54.0781 223.446C54.0781 223.446 241.022 64 388.558 64C536.095 64 607.22 110.052 723.038 226.878C838.857 343.705 915.749 382 1057.52 382C1199.29 382 1392 226.878 1392 226.878" stroke="#C74343" stroke-width="2"/>
<path d="M21 293.555L6.44922 293.555L6.44922 284.092L8.01172 284.092L8.01172 291.797L12.7676 291.797L12.7676 284.658L14.3301 284.658L14.3301 291.797L19.4375 291.797L19.4375 284.092L21 284.092L21 293.555ZM21 283.105L15.7461 279.258L10.6875 282.881L10.6875 280.928L12.7187 279.531C13.0247 279.323 13.3275 279.118 13.627 278.916C13.9264 278.714 14.2259 278.512 14.5254 278.311C14.2259 278.102 13.9264 277.897 13.627 277.695C13.3275 277.493 13.0247 277.285 12.7187 277.07L10.6875 275.654L10.6875 273.73L15.7363 277.354L21 273.555L21 275.498L18.6562 277.139C18.3698 277.34 18.0833 277.539 17.7969 277.734C17.5104 277.93 17.224 278.125 16.9375 278.32C17.224 278.516 17.5104 278.714 17.7969 278.916C18.0833 279.111 18.3698 279.31 18.6562 279.512L21 281.172L21 283.105ZM25.082 272.031L10.6875 272.031L10.6875 270.41L12.2109 270.41L12.2109 270.391C11.6315 270.059 11.2018 269.6 10.9219 269.014C10.6354 268.428 10.4922 267.799 10.4922 267.129C10.4922 266.23 10.7168 265.446 11.166 264.775C11.6152 264.105 12.2435 263.584 13.0508 263.213C13.8516 262.842 14.7826 262.656 15.8437 262.656C16.8984 262.656 17.8294 262.842 18.6367 263.213C19.4375 263.584 20.0658 264.105 20.5215 264.775C20.9707 265.446 21.1953 266.23 21.1953 267.129C21.1953 267.799 21.0521 268.411 20.7656 268.965C20.4727 269.518 20.0299 269.98 19.4375 270.352L19.4375 270.371L25.082 270.371L25.082 272.031ZM19.7012 267.383C19.7012 266.491 19.3756 265.762 18.7246 265.195C18.0671 264.622 17.1068 264.336 15.8437 264.336C14.5807 264.336 13.6204 264.622 12.9629 265.195C12.3053 265.762 11.9766 266.491 11.9766 267.383C11.9766 268.34 12.3314 269.102 13.041 269.668C13.7441 270.228 14.6784 270.508 15.8437 270.508C17.0091 270.508 17.9434 270.228 18.6465 269.668C19.3496 269.102 19.7012 268.34 19.7012 267.383ZM21.2344 256.465C21.2344 257.415 21.0065 258.252 20.5508 258.975C20.0885 259.691 19.4538 260.251 18.6465 260.654C17.8392 261.051 16.9115 261.25 15.8633 261.25C14.8086 261.25 13.8743 261.051 13.0605 260.654C12.2467 260.251 11.6087 259.691 11.1465 258.975C10.6842 258.252 10.4531 257.415 10.4531 256.465C10.4531 255.508 10.6842 254.671 11.1465 253.955C11.6087 253.239 12.2467 252.682 13.0605 252.285C13.8743 251.882 14.8086 251.68 15.8633 251.68C16.9115 251.68 17.8392 251.882 18.6465 252.285C19.4538 252.682 20.0885 253.239 20.5508 253.955C21.0065 254.671 21.2344 255.508 21.2344 256.465ZM19.7305 256.465C19.7305 255.488 19.3789 254.727 18.6758 254.18C17.9661 253.633 17.0286 253.359 15.8633 253.359C14.6849 253.359 13.7409 253.636 13.0312 254.189C12.3151 254.736 11.957 255.495 11.957 256.465C11.957 257.435 12.3118 258.197 13.0215 258.75C13.7311 259.297 14.6784 259.57 15.8633 259.57C17.0352 259.57 17.9727 259.297 18.6758 258.75C19.3789 258.203 19.7305 257.441 19.7305 256.465ZM21.2344 246.152C21.2344 246.888 21.1139 247.555 20.873 248.154C20.6322 248.753 20.2676 249.238 19.7793 249.609C19.2845 249.98 18.6628 250.189 17.9141 250.234L17.9141 248.594C19.1771 248.477 19.8086 247.676 19.8086 246.191C19.8086 245.475 19.6589 244.912 19.3594 244.502C19.0599 244.085 18.6823 243.877 18.2266 243.877C17.8359 243.877 17.5234 244.02 17.2891 244.307C17.0547 244.593 16.8854 244.967 16.7812 245.43L16.3906 247.09C15.9349 249.03 14.9583 250 13.4609 250C12.875 250 12.3574 249.844 11.9082 249.531C11.4525 249.212 11.0977 248.773 10.8437 248.213C10.5833 247.646 10.4531 246.995 10.4531 246.26C10.4531 245.544 10.5898 244.902 10.8633 244.336C11.1302 243.763 11.5111 243.311 12.0059 242.979C12.5006 242.64 13.0898 242.461 13.7734 242.441L13.7734 244.062C13.2266 244.069 12.7741 244.271 12.416 244.668C12.0579 245.065 11.8789 245.596 11.8789 246.26C11.8789 246.891 12.0319 247.396 12.3379 247.773C12.6439 248.151 13.0182 248.34 13.4609 248.34C13.8516 248.34 14.1673 248.197 14.4082 247.91C14.6426 247.624 14.8184 247.233 14.9355 246.738L15.3262 245.078C15.5605 244.089 15.9121 243.363 16.3809 242.9C16.8431 242.438 17.4453 242.207 18.1875 242.207C18.8255 242.207 19.3724 242.38 19.8281 242.725C20.2839 243.07 20.6322 243.542 20.873 244.141C21.1139 244.733 21.2344 245.404 21.2344 246.152ZM21.1953 236.465C21.1953 237.155 21.0456 237.79 20.7461 238.369C20.4401 238.942 19.9844 239.401 19.3789 239.746C18.7669 240.085 18.0052 240.254 17.0937 240.254L10.6875 240.254L10.6875 238.594L16.9766 238.594C17.8685 238.594 18.5423 238.379 18.998 237.949C19.4473 237.52 19.6719 236.921 19.6719 236.152C19.6719 235.397 19.4408 234.756 18.9785 234.229C18.5163 233.701 17.7643 233.437 16.7227 233.437L10.6875 233.437L10.6875 231.777L21 231.777L21 233.398L19.4863 233.398C20.0723 233.757 20.5052 234.196 20.7852 234.717C21.0586 235.231 21.1953 235.814 21.1953 236.465ZM21 229.316L10.6875 229.316L10.6875 227.734L12.3086 227.734L12.3086 227.695C11.7747 227.507 11.345 227.207 11.0195 226.797C10.694 226.387 10.5312 225.859 10.5312 225.215C10.5312 225.065 10.5378 224.928 10.5508 224.805C10.5638 224.674 10.5768 224.577 10.5898 224.512L12.25 224.512C12.2305 224.577 12.2077 224.704 12.1816 224.893C12.1491 225.075 12.1328 225.286 12.1328 225.527C12.1328 226.1 12.3346 226.598 12.7383 227.021C13.1419 227.445 13.7799 227.656 14.6523 227.656L21 227.656L21 229.316ZM21.2344 218.809C21.2344 219.818 21.0033 220.68 20.541 221.396C20.0788 222.106 19.444 222.65 18.6367 223.027C17.8229 223.405 16.8984 223.594 15.8633 223.594C14.8151 223.594 13.8841 223.395 13.0703 222.998C12.2565 222.601 11.6185 222.051 11.1562 221.348C10.6875 220.645 10.4531 219.837 10.4531 218.926C10.4531 217.969 10.681 217.139 11.1367 216.436C11.5924 215.732 12.2272 215.192 13.041 214.814C13.8548 214.43 14.7956 214.238 15.8633 214.238L16.3223 214.238L16.3223 221.953C17.3314 221.914 18.1517 221.624 18.7832 221.084C19.4147 220.544 19.7305 219.785 19.7305 218.809C19.7305 218.073 19.5612 217.474 19.2227 217.012C18.8841 216.543 18.4479 216.23 17.9141 216.074L17.9141 214.414C18.5716 214.544 19.151 214.814 19.6523 215.225C20.1471 215.635 20.5345 216.149 20.8144 216.768C21.0944 217.38 21.2344 218.06 21.2344 218.809ZM14.8965 221.934L14.8965 215.898C13.9915 215.99 13.2721 216.305 12.7383 216.846C12.2044 217.386 11.9375 218.079 11.9375 218.926C11.9375 219.772 12.2044 220.462 12.7383 220.996C13.2721 221.53 13.9915 221.842 14.8965 221.934ZM21 207.129L6.44921 207.129L6.44921 201.729C6.44921 200.212 6.84635 199.01 7.64062 198.125C8.42838 197.233 9.5026 196.787 10.8633 196.787C11.8984 196.787 12.7741 197.067 13.4902 197.627C14.2064 198.18 14.7109 198.932 15.0039 199.883L21 196.611L21 198.662L15.2871 201.729C15.2871 201.774 15.2871 201.82 15.2871 201.865L15.2871 205.371L21 205.371L21 207.129ZM13.7246 205.371L13.7246 201.768C13.7246 200.758 13.4707 199.967 12.9629 199.395C12.4486 198.815 11.7487 198.525 10.8633 198.525C9.97786 198.525 9.28125 198.818 8.77343 199.404C8.26562 199.984 8.01171 200.778 8.01171 201.787L8.01171 205.371L13.7246 205.371ZM21.1562 191.738C21.1562 192.76 20.8926 193.617 20.3652 194.307C19.8379 194.99 19.0599 195.332 18.0312 195.332C17.4388 195.332 16.957 195.218 16.5859 194.99C16.2148 194.756 15.9251 194.447 15.7168 194.062C15.5019 193.672 15.3392 193.232 15.2285 192.744C15.1178 192.249 15.0299 191.745 14.9648 191.23C14.8737 190.573 14.8053 190.055 14.7598 189.678C14.7142 189.3 14.6393 189.033 14.5352 188.877C14.431 188.714 14.2487 188.633 13.9883 188.633L13.8906 188.633C13.3307 188.633 12.8685 188.835 12.5039 189.238C12.1393 189.635 11.957 190.195 11.957 190.918C11.957 191.634 12.1328 192.223 12.4844 192.686C12.8294 193.141 13.2591 193.389 13.7734 193.428L13.7734 195.117C13.1419 195.085 12.582 194.889 12.0937 194.531C11.599 194.173 11.2083 193.685 10.9219 193.066C10.6354 192.448 10.4922 191.732 10.4922 190.918C10.4922 189.714 10.8047 188.76 11.4297 188.057C12.0482 187.347 12.8685 186.992 13.8906 186.992L21 186.992L21 188.633L19.5352 188.633L19.5352 188.672C19.7825 188.796 20.0332 188.978 20.2871 189.219C20.5345 189.46 20.7428 189.785 20.9121 190.195C21.0749 190.599 21.1562 191.113 21.1562 191.738ZM19.6719 191.504C19.6719 190.827 19.5514 190.277 19.3105 189.854C19.0631 189.43 18.7441 189.121 18.3535 188.926C17.9629 188.73 17.543 188.633 17.0937 188.633L15.8047 188.633C15.9219 188.757 16.0293 189.085 16.1269 189.619C16.2181 190.153 16.306 190.716 16.3906 191.309C16.4427 191.706 16.5338 192.083 16.6641 192.441C16.7878 192.793 16.9668 193.079 17.2012 193.301C17.429 193.522 17.7383 193.633 18.1289 193.633C18.6107 193.633 18.9883 193.444 19.2617 193.066C19.5352 192.682 19.6719 192.161 19.6719 191.504ZM14.9648 182.871L21 182.871L21 184.531L10.6875 184.531L10.6875 182.91L12.2012 182.91C11.6152 182.552 11.1855 182.116 10.9121 181.602C10.6322 181.081 10.4922 180.495 10.4922 179.844C10.4922 179.147 10.6452 178.512 10.9512 177.939C11.2506 177.367 11.7031 176.911 12.3086 176.572C12.9141 176.227 13.6758 176.055 14.5937 176.055L21 176.055L21 177.715L14.7109 177.715C13.819 177.715 13.1484 177.93 12.6992 178.359C12.2435 178.783 12.0156 179.382 12.0156 180.156C12.0156 180.905 12.2467 181.546 12.709 182.08C13.1712 182.607 13.9232 182.871 14.9648 182.871ZM25.2187 169.277C25.2187 170.436 24.9518 171.416 24.418 172.217C23.8841 173.018 23.1094 173.483 22.0937 173.613L22.0937 171.914C22.6471 171.764 23.0605 171.455 23.334 170.986C23.6139 170.511 23.7539 169.941 23.7539 169.277C23.7539 168.379 23.513 167.673 23.0312 167.158C22.556 166.644 21.8789 166.387 21 166.387L19.4375 166.387L19.4375 166.396C20.0365 166.774 20.4792 167.243 20.7656 167.803C21.0521 168.356 21.1953 168.971 21.1953 169.648C21.1953 170.54 20.9707 171.325 20.5215 172.002C20.0657 172.673 19.4375 173.193 18.6367 173.564C17.8294 173.936 16.8984 174.121 15.8437 174.121C14.7825 174.121 13.8516 173.936 13.0508 173.564C12.2435 173.193 11.6152 172.673 11.166 172.002C10.7168 171.325 10.4922 170.54 10.4922 169.648C10.4922 168.978 10.6354 168.356 10.9219 167.783C11.2018 167.204 11.6608 166.735 12.2988 166.377L12.2988 166.367L10.6875 166.367L10.6875 164.746L21 164.746C22.0156 164.746 22.8327 164.958 23.4512 165.381C24.0697 165.798 24.5189 166.351 24.7988 167.041C25.0788 167.731 25.2187 168.477 25.2187 169.277ZM19.7012 169.395C19.7012 168.437 19.3496 167.679 18.6465 167.119C17.9434 166.553 17.0091 166.27 15.8437 166.27C14.6784 166.27 13.7441 166.553 13.041 167.119C12.3314 167.679 11.9766 168.437 11.9766 169.395C11.9766 170.286 12.3053 171.019 12.9629 171.592C13.6204 172.158 14.5807 172.441 15.8437 172.441C17.1068 172.441 18.0671 172.158 18.7246 171.592C19.3756 171.019 19.7012 170.286 19.7012 169.395ZM21.2344 158.027C21.2344 159.036 21.0032 159.899 20.541 160.615C20.0788 161.325 19.444 161.868 18.6367 162.246C17.8229 162.624 16.8984 162.812 15.8633 162.812C14.8151 162.812 13.8841 162.614 13.0703 162.217C12.2565 161.82 11.6185 161.27 11.1562 160.566C10.6875 159.863 10.4531 159.056 10.4531 158.145C10.4531 157.187 10.681 156.357 11.1367 155.654C11.5924 154.951 12.2272 154.411 13.041 154.033C13.8548 153.649 14.7956 153.457 15.8633 153.457L16.3223 153.457L16.3223 161.172C17.3314 161.133 18.1517 160.843 18.7832 160.303C19.4147 159.762 19.7305 159.004 19.7305 158.027C19.7305 157.292 19.5612 156.693 19.2227 156.23C18.8841 155.762 18.4479 155.449 17.9141 155.293L17.9141 153.633C18.5716 153.763 19.151 154.033 19.6523 154.443C20.1471 154.854 20.5345 155.368 20.8144 155.986C21.0944 156.598 21.2344 157.279 21.2344 158.027ZM14.8965 161.152L14.8965 155.117C13.9915 155.208 13.2721 155.524 12.7383 156.064C12.2044 156.605 11.9375 157.298 11.9375 158.145C11.9375 158.991 12.2044 159.681 12.7383 160.215C13.2721 160.749 13.9915 161.061 14.8965 161.152Z" fill="#E6E8EB"/>
<defs>
<radialGradient id="paint0_radial_5545_5080" cx="0" cy="0" r="1" gradientUnits="userSpaceOnUse" gradientTransform="translate(721.5 223) scale(667.5 728.553)">
<stop stop-color="#1E2330"/>
<stop offset="1" stop-color="#141824"/>
</radialGradient>
<clipPath id="clip0_5545_5080">
<rect width="1334.92" height="446" fill="white" transform="translate(54.0781)"/>
</clipPath>
</defs>
</svg>
