<svg width="32" height="32" viewBox="0 0 32 32" fill="none" xmlns="http://www.w3.org/2000/svg">
<g opacity="0.25">
<path d="M7.33268 21.3332L7.33268 10.6665C7.33268 8.45737 5.54182 6.6665 3.33268 6.66651C2.96449 6.66651 2.66602 6.96498 2.66602 7.33317L2.66602 24.6665C2.66602 25.0347 2.96449 25.3332 3.33268 25.3332C5.54182 25.3332 7.33268 23.5423 7.33268 21.3332Z" fill="#1E2330"/>
<path d="M24.666 10.6665V21.3332C24.666 23.5423 26.4569 25.3332 28.666 25.3332C29.0342 25.3332 29.3327 25.0347 29.3327 24.6665L29.3327 7.33317C29.3327 6.96498 29.0342 6.6665 28.666 6.6665C26.4569 6.6665 24.666 8.45736 24.666 10.6665Z" fill="#1E2330"/>
</g>
<path d="M15.3333 25.3332C12.8192 25.3332 11.5621 25.3332 10.781 24.5521C10 23.7711 10 22.514 10 19.9998L10 11.9998C10 9.48568 10 8.2286 10.781 7.44755C11.5621 6.6665 12.8192 6.6665 15.3333 6.6665L16.6667 6.6665C19.1808 6.6665 20.4379 6.6665 21.219 7.44755C22 8.2286 22 9.48568 22 11.9998V19.9998C22 22.514 22 23.7711 21.219 24.5521C20.4379 25.3332 19.1808 25.3332 16.6667 25.3332H15.3333Z" fill="#1E2330"/>
</svg>
