<svg width="32" height="32" viewBox="0 0 32 32" fill="none" xmlns="http://www.w3.org/2000/svg">
<path fill-rule="evenodd" clip-rule="evenodd" d="M2.66699 28.3333C2.11471 28.3333 1.66699 28.781 1.66699 29.3333C1.66699 29.8856 2.11471 30.3333 2.66699 30.3333H29.3337C29.8859 30.3333 30.3337 29.8856 30.3337 29.3333C30.3337 28.781 29.8859 28.3333 29.3337 28.3333H28.0003H24.667H22.667V21.3333C22.667 18.8192 22.667 17.5621 21.8859 16.781C21.1049 16 19.8478 16 17.3337 16H14.667C12.1528 16 10.8958 16 10.1147 16.781C9.33366 17.5621 9.33366 18.8192 9.33366 21.3333V28.3333H7.33366H4.00033H2.66699ZM12.3337 20C12.3337 19.4477 12.7814 19 13.3337 19H18.667C19.2193 19 19.667 19.4477 19.667 20C19.667 20.5523 19.2193 21 18.667 21H13.3337C12.7814 21 12.3337 20.5523 12.3337 20ZM12.3337 24C12.3337 23.4477 12.7814 23 13.3337 23H18.667C19.2193 23 19.667 23.4477 19.667 24C19.667 24.5523 19.2193 25 18.667 25H13.3337C12.7814 25 12.3337 24.5523 12.3337 24Z" fill="#1E2330"/>
<g opacity="0.2">
<path d="M10.6667 6C11.9237 6 12.5523 6 12.9428 6.39052C13.3333 6.78105 13.3333 7.40959 13.3333 8.66667L13.3333 11.0566C13.5424 11.1582 13.7242 11.2863 13.8856 11.4477C14.4244 11.9865 14.5915 12.7518 14.6434 14V16C12.1447 16 10.893 16.0024 10.1144 16.781C9.33333 17.5621 9.33333 18.8192 9.33333 21.3333V28.3333H4V16C4 13.4858 4 12.2288 4.78105 11.4477C4.9425 11.2863 5.1243 11.1582 5.33333 11.0566V8.66667C5.33333 7.40959 5.33333 6.78105 5.72386 6.39052C6.11438 6 6.74292 6 8 6H8.33333V4C8.33333 3.44772 8.78105 3 9.33333 3C9.88562 3 10.3333 3.44772 10.3333 4V6H10.6667Z" fill="#1E2330"/>
<path d="M27.5251 6.99568C27.0503 6.31045 26.2133 5.99658 24.5393 5.36885C21.2657 4.14122 19.6288 3.5274 18.4811 4.32279C17.3333 5.11818 17.3333 6.86632 17.3333 10.3626V16C19.8475 16 21.1046 16 21.8856 16.781C22.6667 17.5621 22.6667 18.8192 22.6667 21.3333V28.3333H28V10.3626C28 8.5748 28 7.68091 27.5251 6.99568Z" fill="#1E2330"/>
</g>
</svg>
