<svg width="32" height="32" viewBox="0 0 32 32" fill="none" xmlns="http://www.w3.org/2000/svg">
<path d="M20.051 25.2145C23.9741 22.1219 29.3333 18.6667 29.3333 12.1828C29.3333 5.69888 21.9998 1.10062 16 7.33418L14.3822 10.569C14.1998 10.9338 14.1086 11.1162 14.1531 11.2953C14.1975 11.4744 14.3635 11.593 14.6954 11.83L17.7776 14.0316C18.1934 14.3286 18.4013 14.4771 18.4279 14.6957C18.4544 14.9143 18.2882 15.1082 17.9557 15.4962L15.2693 18.6302C14.9834 18.9638 14.8405 19.1306 14.848 19.3264C14.8555 19.5222 15.0108 19.6775 15.3215 19.9881L16.933 21.5996C17.1285 21.7952 17.2263 21.893 17.2615 22.0199C17.2966 22.1469 17.2631 22.281 17.196 22.5493L16 27.3333C17.3333 27.3333 18.6667 26.3058 20.051 25.2145Z" fill="#1E2330"/>
<path opacity="0.25" d="M10.8087 24.3291C7.06457 21.4444 2.66699 18.0562 2.66699 12.1828C2.66699 5.69888 10.0005 1.10062 16.0003 7.33418L14.51 10.3142C14.2667 10.8007 14.1451 11.0439 14.2044 11.2827C14.2637 11.5215 14.485 11.6795 14.9275 11.9956L17.4816 13.82C18.036 14.216 18.3132 14.414 18.3486 14.7054C18.384 14.9968 18.1624 15.2554 17.719 15.7727L15.4705 18.3959C15.0893 18.8406 14.8987 19.063 14.9088 19.324C14.9188 19.5851 15.1259 19.7922 15.5401 20.2064L16.7998 21.4662C17.0606 21.7269 17.1909 21.8573 17.2378 22.0265C17.2847 22.1958 17.24 22.3747 17.1506 22.7324L16.0003 27.3333C14.667 27.3333 13.3337 26.3058 11.9493 25.2145C11.5799 24.9233 11.1978 24.6289 10.8087 24.3291Z" fill="#1E2330"/>
</svg>
