<svg width="32" height="32" viewBox="0 0 32 32" fill="none" xmlns="http://www.w3.org/2000/svg">
<path opacity="0.2" d="M18.3337 2.67102C17.6078 2.6665 16.8316 2.6665 16.0003 2.6665C9.71493 2.6665 6.57223 2.6665 4.61961 4.61913C2.66699 6.57175 2.66699 9.71444 2.66699 15.9998C2.66699 22.2852 2.66699 25.4279 4.61961 27.3805C6.57224 29.3332 9.71493 29.3332 16.0003 29.3332C22.2857 29.3332 25.4284 29.3332 27.381 27.3805C29.3337 25.4279 29.3337 22.2852 29.3337 15.9998C29.3337 15.1686 29.3337 14.3923 29.3291 13.6665C28.5629 13.6653 27.7969 13.3724 27.2123 12.7878L25.3337 10.9092L23.455 12.7878C22.2834 13.9594 20.3839 13.9594 19.2124 12.7878C18.0408 11.6163 18.0408 9.71676 19.2124 8.54518L21.091 6.66652L19.2123 4.78782C18.6277 4.20319 18.3348 3.43728 18.3337 2.67102Z" fill="#1E2330"/>
<path fill-rule="evenodd" clip-rule="evenodd" d="M20.6259 1.9594C21.0164 1.56887 21.6496 1.56887 22.0401 1.9594L25.333 5.25231L28.6259 1.95943C29.0164 1.56891 29.6496 1.56891 30.0401 1.95943C30.4306 2.34995 30.4306 2.98312 30.0401 3.37364L26.7472 6.66652L30.0401 9.95937C30.4306 10.3499 30.4306 10.9831 30.0401 11.3736C29.6496 11.7641 29.0164 11.7641 28.6259 11.3736L25.333 8.08074L22.0401 11.3736C21.6496 11.7641 21.0165 11.7641 20.6259 11.3736C20.2354 10.9831 20.2354 10.3499 20.6259 9.9594L23.9188 6.66652L20.6259 3.37361C20.2354 2.98309 20.2354 2.34992 20.6259 1.9594Z" fill="#1E2330"/>
<path fill-rule="evenodd" clip-rule="evenodd" d="M8.33301 18.6665C8.33301 18.1142 8.78072 17.6665 9.33301 17.6665H21.333C21.8853 17.6665 22.333 18.1142 22.333 18.6665C22.333 19.2188 21.8853 19.6665 21.333 19.6665H9.33301C8.78072 19.6665 8.33301 19.2188 8.33301 18.6665Z" fill="#1E2330"/>
<path fill-rule="evenodd" clip-rule="evenodd" d="M8.33301 23.3332C8.33301 22.7809 8.78072 22.3332 9.33301 22.3332H17.333C17.8853 22.3332 18.333 22.7809 18.333 23.3332C18.333 23.8855 17.8853 24.3332 17.333 24.3332H9.33301C8.78072 24.3332 8.33301 23.8855 8.33301 23.3332Z" fill="#1E2330"/>
</svg>
