<svg width="32" height="32" viewBox="0 0 32 32" fill="none" xmlns="http://www.w3.org/2000/svg">
<path opacity="0.2" d="M2.66797 16.0003C2.66797 9.71493 2.66797 6.57223 4.62059 4.61961C6.57321 2.66699 9.71591 2.66699 16.0013 2.66699C22.2867 2.66699 25.4294 2.66699 27.382 4.61961C29.3346 6.57223 29.3346 9.71493 29.3346 16.0003C29.3346 22.2857 29.3346 25.4284 27.382 27.381C25.4294 29.3337 22.2867 29.3337 16.0013 29.3337C9.71591 29.3337 6.57321 29.3337 4.62059 27.381C2.66797 25.4284 2.66797 22.2857 2.66797 16.0003Z" fill="#202533"/>
<path d="M8.56383 12.6928C8.9174 12.2686 9.54796 12.2112 9.97224 12.5648L10.3408 12.8719L10.3409 12.872C11.1474 13.5441 11.8341 14.1162 12.3093 14.6425C12.814 15.2014 13.208 15.8443 13.208 16.6664C13.208 17.4885 12.814 18.1313 12.3093 18.6903C11.8341 19.2165 11.1474 19.7887 10.3408 20.4608L9.97224 20.7679C9.54796 21.1215 8.9174 21.0642 8.56383 20.6399C8.21027 20.2156 8.2676 19.585 8.69187 19.2315L9.00441 18.971C9.8825 18.2393 10.4567 17.7577 10.8249 17.3499C11.1746 16.9626 11.208 16.781 11.208 16.6664C11.208 16.5517 11.1746 16.3701 10.8249 15.9829C10.4567 15.5751 9.8825 15.0934 9.00441 14.3617L8.69187 14.1013C8.2676 13.7477 8.21027 13.1171 8.56383 12.6928Z" fill="#202533"/>
<path d="M23.6654 19.9997C23.6654 20.552 23.2177 20.9997 22.6654 20.9997H15.9987C15.4464 20.9997 14.9987 20.552 14.9987 19.9997C14.9987 19.4474 15.4464 18.9997 15.9987 18.9997H22.6654C23.2177 18.9997 23.6654 19.4474 23.6654 19.9997Z" fill="#202533"/>
</svg>
