<svg width="32" height="32" viewBox="0 0 32 32" fill="none" xmlns="http://www.w3.org/2000/svg">
<path d="M16.1045 3C9.71321 3 4.45905 7.884 3.94675 14.1111H2.66605C2.26087 14.1111 1.89574 14.3556 1.74142 14.7302C1.5871 15.1049 1.6741 15.5356 1.96172 15.821L4.20147 18.0432C4.59135 18.43 5.22024 18.43 5.61012 18.0432L7.84987 15.821C8.13749 15.5356 8.22449 15.1049 8.07017 14.7302C7.91585 14.3556 7.55072 14.1111 7.14554 14.1111H5.95508C6.46137 9.00222 10.8057 5 16.1045 5C19.7972 5 23.0296 6.9446 24.8201 9.85705C25.1094 10.3275 25.7252 10.4745 26.1957 10.1852C26.6662 9.89598 26.8131 9.2801 26.5239 8.80961C24.3821 5.3257 20.5158 3 16.1045 3Z" fill="#1E2330"/>
<path opacity="0.25" d="M27.789 13.9555C27.3994 13.5705 26.7726 13.5705 26.383 13.9555L24.1347 16.1777C23.8463 16.4628 23.7586 16.8938 23.9127 17.269C24.0668 17.6441 24.4322 17.889 24.8377 17.889H26.0365C25.5282 22.995 21.1686 27.0001 15.8444 27.0001C12.1344 27.0001 8.88858 25.0538 7.09137 22.1416C6.80133 21.6716 6.1852 21.5257 5.7152 21.8158C5.24521 22.1058 5.09933 22.7219 5.38938 23.1919C7.53952 26.6761 11.4195 29.0001 15.8444 29.0001C22.2549 29.0001 27.5307 24.1191 28.0449 17.889H29.3343C29.7398 17.889 30.1052 17.6441 30.2593 17.269C30.4134 16.8938 30.3257 16.4628 30.0373 16.1777L27.789 13.9555Z" fill="#1E2330"/>
</svg>
