<svg width="32" height="32" viewBox="0 0 32 32" fill="none" xmlns="http://www.w3.org/2000/svg">
<path opacity="0.2" d="M15.9993 29.3334C23.3631 29.3334 29.3327 23.3639 29.3327 16.0001C29.3327 8.63628 23.3631 2.66675 15.9993 2.66675C8.63555 2.66675 2.66602 8.63628 2.66602 16.0001C2.66602 23.3639 8.63555 29.3334 15.9993 29.3334Z" fill="#1E2330"/>
<path d="M17.9146 9.94806C17.4652 9.62705 16.8407 9.73115 16.5197 10.1806C16.1987 10.63 16.3028 11.2545 16.7522 11.5755L21.0476 14.6437C21.9781 15.3084 21.9781 16.6914 21.0476 17.3561L16.7522 20.4243C16.3028 20.7453 16.1987 21.3698 16.5197 21.8192C16.8407 22.2686 17.4652 22.3727 17.9146 22.0517L22.21 18.9836C24.2573 17.5212 24.2573 14.4785 22.21 13.0162L17.9146 9.94806Z" fill="#1E2330"/>
<path d="M10 20.1758V11.8252C10 10.7602 11.1869 10.125 12.0729 10.7158L18.3359 14.8911C19.1275 15.4188 19.1275 16.5821 18.3359 17.1099L12.0729 21.2852C11.1869 21.8759 10 21.2407 10 20.1758Z" fill="#1E2330"/>
</svg>
