<svg width="27" height="27" viewBox="0 0 27 27" fill="none" xmlns="http://www.w3.org/2000/svg">
<path opacity="0.2" d="M0 13.3333C0 7.04794 0 3.90524 1.95262 1.95262C3.90524 0 7.04794 0 13.3333 0C19.6187 0 22.7614 0 24.714 1.95262C26.6667 3.90524 26.6667 7.04794 26.6667 13.3333C26.6667 19.6187 26.6667 22.7614 24.714 24.714C22.7614 26.6667 19.6187 26.6667 13.3333 26.6667C7.04794 26.6667 3.90524 26.6667 1.95262 24.714C0 22.7614 0 19.6187 0 13.3333Z" fill="#1E2330"/>
<path d="M26.6641 4C26.6641 6.20914 24.8732 8 22.6641 8C20.4549 8 18.6641 6.20914 18.6641 4C18.6641 1.79086 20.4549 0 22.6641 0C24.8732 0 26.6641 1.79086 26.6641 4Z" fill="#1E2330"/>
<path d="M16.6641 11.666C16.1118 11.666 15.6641 11.2183 15.6641 10.666C15.6641 10.1137 16.1118 9.66602 16.6641 9.66602H19.9974C20.5497 9.66602 20.9974 10.1137 20.9974 10.666V13.9993C20.9974 14.5516 20.5497 14.9993 19.9974 14.9993C19.4451 14.9993 18.9974 14.5516 18.9974 13.9993V13.0802L16.314 15.7636C15.4028 16.6749 13.9254 16.6749 13.0141 15.7636L10.8998 13.6493C10.7696 13.5191 10.5585 13.5191 10.4284 13.6493L7.37117 16.7065C6.98064 17.097 6.34748 17.097 5.95696 16.7065C5.56643 16.3159 5.56643 15.6828 5.95696 15.2922L9.01415 12.2351C9.92537 11.3238 11.4028 11.3238 12.314 12.2351L14.4284 14.3494C14.5585 14.4796 14.7696 14.4796 14.8998 14.3494L17.5832 11.666H16.6641Z" fill="#1E2330"/>
</svg>