<svg width="27" height="27" viewBox="0 0 27 27" fill="none" xmlns="http://www.w3.org/2000/svg">
<path opacity="0.2" d="M0 13.3333C0 7.04794 0 3.90524 1.95262 1.95262C3.90524 0 7.04794 0 13.3333 0C19.6187 0 22.7614 0 24.714 1.95262C26.6667 3.90524 26.6667 7.04794 26.6667 13.3333C26.6667 19.6187 26.6667 22.7614 24.714 24.714C22.7614 26.6667 19.6187 26.6667 13.3333 26.6667C7.04794 26.6667 3.90524 26.6667 1.95262 24.714C0 22.7614 0 19.6187 0 13.3333Z" fill="#1E2330"/>
<path fill-rule="evenodd" clip-rule="evenodd" d="M26.6641 6.29344C26.6641 9.7692 23.8348 12.5869 20.3448 12.5869C19.708 12.5869 18.258 12.4405 17.5526 11.8551L16.6708 12.7333C16.1524 13.2496 16.2924 13.4016 16.523 13.652C16.6192 13.7565 16.7312 13.8781 16.8177 14.0505C16.8177 14.0505 17.5525 15.075 16.8177 16.0995C16.3769 16.6849 15.1424 17.5045 13.7316 16.0995L13.4377 16.3922C13.4377 16.3922 14.3194 17.4167 13.5846 18.4412C13.1438 19.0267 11.9681 19.6121 10.9394 18.5876L9.91066 19.6121C9.20525 20.3146 8.34312 19.9048 8.00022 19.6121L7.11847 18.7339C6.2955 17.9143 6.77556 17.0264 7.11847 16.6849L14.7604 9.07426C14.7604 9.07426 14.0256 7.90338 14.0256 6.29344C14.0256 2.81767 16.8548 0 20.3448 0C23.8348 0 26.6641 2.81767 26.6641 6.29344ZM22.5494 6.29337C22.5494 7.50584 21.5625 8.48875 20.345 8.48875C19.1276 8.48875 18.1406 7.50584 18.1406 6.29337C18.1406 5.08089 19.1276 4.09798 20.345 4.09798C21.5625 4.09798 22.5494 5.08089 22.5494 6.29337Z" fill="#1E2330"/>
</svg>
