<svg width="32" height="32" viewBox="0 0 32 32" fill="none" xmlns="http://www.w3.org/2000/svg">
<path opacity="0.2" d="M4.50335 6.77687C4 7.49403 4 9.62575 4 13.8892V15.9888C4 23.5062 9.65195 27.1543 13.1981 28.7034C14.16 29.1236 14.641 29.3337 16 29.3337C17.359 29.3337 17.84 29.1236 18.8019 28.7034C22.348 27.1543 28 23.5062 28 15.9888V13.8892C28 9.62575 28 7.49403 27.4966 6.77687C26.9933 6.05971 24.9889 5.3736 20.9801 4.00138L20.2164 3.73995C18.1267 3.02464 17.0819 2.66699 16 2.66699C14.9181 2.66699 13.8733 3.02464 11.7836 3.73995L11.0199 4.00138C7.0111 5.3736 5.00671 6.05971 4.50335 6.77687Z" fill="#272E3F"/>
<path d="M20.0791 13.999C20.4469 13.5871 20.4112 12.9549 19.9992 12.5871C19.5872 12.2192 18.9551 12.255 18.5872 12.667L14.5713 17.1649L13.4125 15.867C13.0446 15.455 12.4125 15.4192 12.0005 15.7871C11.5885 16.1549 11.5527 16.7871 11.9206 17.199L13.8253 19.3324C14.0151 19.5449 14.2864 19.6664 14.5713 19.6664C14.8561 19.6664 15.1275 19.5449 15.3172 19.3324L20.0791 13.999Z" fill="#272E3F"/>
</svg>
