<svg width="27" height="22" viewBox="0 0 27 22" fill="none" xmlns="http://www.w3.org/2000/svg">
<path opacity="0.2" d="M0 10.6667C0 12.8525 0.566619 13.5886 1.69986 15.0609C3.96262 18.0006 7.75748 21.3333 13.3333 21.3333C18.9092 21.3333 22.704 18.0006 24.9668 15.0609C26.1 13.5886 26.6667 12.8525 26.6667 10.6667C26.6667 8.48083 26.1 7.7447 24.9668 6.27244C22.704 3.33274 18.9092 0 13.3333 0C7.75748 0 3.96262 3.33275 1.69986 6.27244C0.566619 7.7447 0 8.48083 0 10.6667Z" fill="#1E2330"/>
<path fill-rule="evenodd" clip-rule="evenodd" d="M8.33203 10.667C8.33203 7.90557 10.5706 5.66699 13.332 5.66699C16.0935 5.66699 18.332 7.90557 18.332 10.667C18.332 13.4284 16.0935 15.667 13.332 15.667C10.5706 15.667 8.33203 13.4284 8.33203 10.667ZM10.332 10.667C10.332 9.01014 11.6752 7.66699 13.332 7.66699C14.9889 7.66699 16.332 9.01014 16.332 10.667C16.332 12.3238 14.9889 13.667 13.332 13.667C11.6752 13.667 10.332 12.3238 10.332 10.667Z" fill="#1E2330"/>
</svg>