<svg width="27" height="28" viewBox="0 0 27 28" fill="none" xmlns="http://www.w3.org/2000/svg">
<path opacity="0.25" d="M0 19.667C0 15.8958 0 14.0101 1.17157 12.8386C2.34315 11.667 4.22876 11.667 8 11.667H18.6667C22.4379 11.667 24.3235 11.667 25.4951 12.8386C26.6667 14.0101 26.6667 15.8958 26.6667 19.667C26.6667 23.4382 26.6667 25.3238 25.4951 26.4954C24.3235 27.667 22.4379 27.667 18.6667 27.667H8C4.22876 27.667 2.34315 27.667 1.17157 26.4954C0 25.3238 0 23.4382 0 19.667Z" fill="#1E2330"/>
<path d="M6.33203 9C6.33203 5.13401 9.46604 2 13.332 2C17.198 2 20.332 5.13401 20.332 9V11.6714C21.0885 11.6785 21.75 11.696 22.332 11.7395V9C22.332 4.02944 18.3026 0 13.332 0C8.36147 0 4.33203 4.02944 4.33203 9V11.7395C4.91404 11.696 5.57555 11.6785 6.33203 11.6714V9Z" fill="#1E2330"/>
</svg>