<svg width="29" height="28" viewBox="0 0 29 28" fill="none" xmlns="http://www.w3.org/2000/svg">
<path fill-rule="evenodd" clip-rule="evenodd" d="M1 25.3333C0.447715 25.3333 0 25.781 0 26.3333C0 26.8856 0.447715 27.3333 1 27.3333H27.6667C28.219 27.3333 28.6667 26.8856 28.6667 26.3333C28.6667 25.781 28.219 25.3333 27.6667 25.3333H26.3333H23H21V18.3333C21 15.8192 21 14.5621 20.219 13.781C19.4379 13 18.1808 13 15.6667 13H13C10.4858 13 9.22876 13 8.44771 13.781C7.66667 14.5621 7.66667 15.8192 7.66667 18.3333V25.3333H5.66667H2.33333H1ZM10.6667 17C10.6667 16.4477 11.1144 16 11.6667 16H17C17.5523 16 18 16.4477 18 17C18 17.5523 17.5523 18 17 18H11.6667C11.1144 18 10.6667 17.5523 10.6667 17ZM10.6667 21C10.6667 20.4477 11.1144 20 11.6667 20H17C17.5523 20 18 20.4477 18 21C18 21.5523 17.5523 22 17 22H11.6667C11.1144 22 10.6667 21.5523 10.6667 21Z" fill="#1E2330"/>
<g opacity="0.2">
<path d="M8.9987 3C10.2558 3 10.8843 3 11.2748 3.39052C11.6654 3.78105 11.6654 4.40959 11.6654 5.66667L11.6653 8.05657C11.8744 8.15818 12.0562 8.28626 12.2176 8.44771C12.7564 8.9865 12.9236 9.7518 12.9754 11V13C10.4768 13 9.22504 13.0024 8.44641 13.781C7.66536 14.5621 7.66536 15.8192 7.66536 18.3333V25.3333H2.33203V13C2.33203 10.4858 2.33203 9.22876 3.11308 8.44771C3.27453 8.28626 3.45633 8.15818 3.66536 8.05658V5.66667C3.66536 4.40959 3.66536 3.78105 4.05589 3.39052C4.44641 3 5.07495 3 6.33203 3H6.66536V1C6.66536 0.447715 7.11308 0 7.66536 0C8.21765 0 8.66536 0.447715 8.66536 1V3H8.9987Z" fill="#1E2330"/>
<path d="M25.8572 3.99568C25.3823 3.31045 24.5453 2.99658 22.8714 2.36885C19.5977 1.14122 17.9609 0.527404 16.8131 1.32279C15.6654 2.11818 15.6654 3.86632 15.6654 7.3626V13C18.1795 13 19.4366 13 20.2176 13.781C20.9987 14.5621 20.9987 15.8192 20.9987 18.3333V25.3333H26.332V7.3626C26.332 5.5748 26.332 4.68091 25.8572 3.99568Z" fill="#1E2330"/>
</g>
</svg>