<svg width="24" height="27" viewBox="0 0 24 27" fill="none" xmlns="http://www.w3.org/2000/svg">
<path opacity="0.2" d="M0.503354 4.10988C0 4.82704 0 6.95876 0 11.2222V13.3218C0 20.8392 5.65195 24.4873 9.19808 26.0364C10.16 26.4566 10.641 26.6667 12 26.6667C13.359 26.6667 13.84 26.4566 14.8019 26.0364C18.348 24.4873 24 20.8392 24 13.3218V11.2222C24 6.95876 24 4.82704 23.4966 4.10988C22.9933 3.39272 20.9889 2.70661 16.9801 1.33439L16.2164 1.07296C14.1267 0.357652 13.0819 0 12 0C10.9181 0 9.87331 0.357652 7.78363 1.07296L7.01988 1.33439C3.0111 2.70661 1.00671 3.39272 0.503354 4.10988Z" fill="#1C274C"/>
<path d="M16.0806 11.332C16.4484 10.9201 16.4126 10.2879 16.0007 9.92009C15.5887 9.55226 14.9565 9.58804 14.5887 10L10.5727 14.4979L9.41392 13.2C9.04609 12.788 8.41393 12.7523 8.00196 13.1201C7.58999 13.4879 7.55421 14.1201 7.92204 14.532L9.8268 16.6654C10.0165 16.8779 10.2879 16.9994 10.5727 16.9994C10.8576 16.9994 11.129 16.8779 11.3187 16.6654L16.0806 11.332Z" fill="#1C274C"/>
</svg>