<svg width="32" height="32" viewBox="0 0 32 32" fill="none" xmlns="http://www.w3.org/2000/svg">
<path fill-rule="evenodd" clip-rule="evenodd" d="M19.2609 21.836L27.0567 14.0636C28.1794 12.9442 28.7408 12.3846 29.0365 11.6729C29.3322 10.9612 29.3322 10.1697 29.3322 8.5867V7.83045C29.3322 5.39626 29.3322 4.17916 28.5737 3.42295C27.8152 2.66675 26.5945 2.66675 24.1529 2.66675H23.3945C21.8067 2.66675 21.0128 2.66675 20.299 2.96155C19.5851 3.25634 19.0238 3.81601 17.9011 4.93536L10.1052 12.7078C8.79336 14.0157 7.97991 14.8267 7.66492 15.6101C7.56539 15.8576 7.51562 16.1023 7.51562 16.3591C7.51562 17.4285 8.37883 18.2891 10.1052 20.0104L10.3373 20.2417L13.0553 17.4831C13.4429 17.0897 14.0761 17.085 14.4695 17.4727C14.8629 17.8603 14.8676 18.4934 14.4799 18.8868L11.7536 21.6538L11.9364 21.836C13.6628 23.5572 14.526 24.4178 15.5986 24.4178C15.8357 24.4178 16.0624 24.3758 16.2906 24.2918C17.0949 23.9955 17.916 23.1769 19.2609 21.836ZM22.9234 12.7084C21.912 13.7166 20.2724 13.7166 19.2611 12.7084C18.2498 11.7001 18.2498 10.0653 19.2611 9.05707C20.2724 8.04879 21.912 8.04879 22.9234 9.05707C23.9347 10.0653 23.9347 11.7001 22.9234 12.7084Z" fill="#202533"/>
<g opacity="0.25">
<path d="M12.0431 7.95073L8.65225 11.3314C8.02898 11.9528 7.45723 12.5228 7.00572 13.0381C6.71576 13.369 6.426 13.7312 6.18056 14.1313L6.14751 14.0984C6.0848 14.0359 6.0534 14.0046 6.02191 13.974C5.43254 13.4022 4.73928 12.9475 3.97921 12.6343C3.93859 12.6176 3.89737 12.6013 3.81492 12.5686L3.31006 12.3686C2.62611 12.0975 2.44382 11.2171 2.96425 10.6982C4.45786 9.20912 6.25115 7.42125 7.11661 7.06216C7.87987 6.74547 8.70438 6.6401 9.49959 6.75762C10.2282 6.8653 10.9175 7.23957 12.0431 7.95073Z" fill="#202533"/>
<path d="M17.833 25.7509C18.1062 26.0282 18.2877 26.2241 18.4517 26.4334C18.6682 26.7096 18.8618 27.003 19.0305 27.3106C19.2204 27.6568 19.3678 28.0267 19.6627 28.7664C19.9028 29.3686 20.7003 29.5278 21.1635 29.066L21.2755 28.9543C22.7691 27.4651 24.5623 25.6772 24.9225 24.8144C25.2401 24.0534 25.3458 23.2314 25.228 22.4385C25.12 21.7122 24.7447 21.0251 24.0315 19.9031L20.6294 23.2951C19.992 23.9306 19.4075 24.5133 18.8789 24.9698C18.5622 25.2433 18.2156 25.5168 17.833 25.7509Z" fill="#202533"/>
</g>
</svg>
