<svg width="32" height="32" viewBox="0 0 32 32" fill="none" xmlns="http://www.w3.org/2000/svg">
<path fill-rule="evenodd" clip-rule="evenodd" d="M19.2609 21.8362L27.0567 14.0638C28.1794 12.9445 28.7408 12.3848 29.0365 11.6731C29.3322 10.9614 29.3322 10.1699 29.3322 8.58694V7.83069C29.3322 5.3965 29.3322 4.1794 28.5737 3.4232C27.8152 2.66699 26.5945 2.66699 24.1529 2.66699H23.3945C21.8067 2.66699 21.0128 2.66699 20.299 2.96179C19.5851 3.25659 19.0238 3.81626 17.9011 4.9356L10.1052 12.708C8.79336 14.016 7.97991 14.827 7.66492 15.6103C7.56539 15.8578 7.51562 16.1025 7.51562 16.3593C7.51562 17.4288 8.37883 18.2894 10.1052 20.0106L10.3373 20.2419L13.0553 17.4834C13.4429 17.09 14.0761 17.0853 14.4695 17.4729C14.8629 17.8605 14.8676 18.4937 14.4799 18.8871L11.7536 21.654L11.9364 21.8362C13.6628 23.5575 14.526 24.4181 15.5986 24.4181C15.8357 24.4181 16.0624 24.3761 16.2906 24.292C17.0949 23.9958 17.916 23.1772 19.2609 21.8362ZM22.9234 12.7086C21.912 13.7169 20.2724 13.7169 19.2611 12.7086C18.2498 11.7003 18.2498 10.0656 19.2611 9.05731C20.2724 8.04904 21.912 8.04904 22.9234 9.05731C23.9347 10.0656 23.9347 11.7003 22.9234 12.7086Z" fill="white"/>
<g opacity="0.25">
<path d="M12.047 7.95073L8.65616 11.3314C8.03288 11.9528 7.46114 12.5228 7.00962 13.0381C6.71967 13.369 6.4299 13.7312 6.18446 14.1313L6.15142 14.0984C6.08871 14.0359 6.05731 14.0046 6.02582 13.974C5.43645 13.4022 4.74318 12.9475 3.98311 12.6343C3.9425 12.6176 3.90127 12.6013 3.81883 12.5686L3.31396 12.3686C2.63001 12.0975 2.44773 11.2171 2.96816 10.6982C4.46177 9.20912 6.25506 7.42125 7.12051 7.06216C7.88377 6.74547 8.70828 6.6401 9.50349 6.75762C10.2321 6.8653 10.9214 7.23957 12.047 7.95073Z" fill="white"/>
<path d="M17.8369 25.7509C18.1101 26.0282 18.2916 26.2241 18.4556 26.4334C18.6721 26.7096 18.8657 27.003 19.0344 27.3106C19.2243 27.6568 19.3717 28.0267 19.6666 28.7664C19.9067 29.3686 20.7042 29.5278 21.1674 29.066L21.2794 28.9543C22.773 27.4651 24.5662 25.6772 24.9264 24.8144C25.2441 24.0534 25.3497 23.2314 25.2319 22.4385C25.1239 21.7122 24.7486 21.0251 24.0355 19.9031L20.6333 23.2951C19.9959 23.9306 19.4114 24.5133 18.8828 24.9698C18.5661 25.2433 18.2195 25.5168 17.8369 25.7509Z" fill="white"/>
</g>
</svg>
