<svg width="32" height="32" viewBox="0 0 32 32" fill="none" xmlns="http://www.w3.org/2000/svg">
<path fill-rule="evenodd" clip-rule="evenodd" d="M23.2929 21.9596C23.6834 21.5691 24.3166 21.5691 24.7071 21.9596L27.3738 24.6263C27.7643 25.0168 27.7643 25.65 27.3738 26.0405L24.7071 28.7072C24.3166 29.0977 23.6834 29.0977 23.2929 28.7072C22.9024 28.3167 22.9024 27.6835 23.2929 27.293L25.2525 25.3334L23.2929 23.3739C22.9024 22.9833 22.9024 22.3502 23.2929 21.9596Z" fill="#202533"/>
<path d="M10.6693 6.66667C10.6693 8.13943 9.47536 9.33333 8.0026 9.33333C6.52984 9.33333 5.33594 8.13943 5.33594 6.66667C5.33594 5.19391 6.52984 4 8.0026 4C9.47536 4 10.6693 5.19391 10.6693 6.66667Z" fill="#202533"/>
<path opacity="0.3" d="M10.4754 7.66675C10.6004 7.35794 10.6693 7.02038 10.6693 6.66675C10.6693 6.31311 10.6004 5.97556 10.4754 5.66675H22.0026C25.1322 5.66675 27.6693 8.2038 27.6693 11.3334C27.6693 14.463 25.1322 17.0001 22.0026 17.0001H10.0026C7.97756 17.0001 6.33594 18.6417 6.33594 20.6667C6.33594 22.6918 7.97756 24.3334 10.0026 24.3334H24.2551L25.2551 25.3334L24.2551 26.3334H10.0026C6.87299 26.3334 4.33594 23.7964 4.33594 20.6667C4.33594 17.5371 6.87299 15.0001 10.0026 15.0001H22.0026C24.0276 15.0001 25.6693 13.3585 25.6693 11.3334C25.6693 9.30837 24.0276 7.66675 22.0026 7.66675H10.4754Z" fill="#202533"/>
</svg>
