<svg width="32" height="32" viewBox="0 0 32 32" fill="none" xmlns="http://www.w3.org/2000/svg">
<path opacity="0.2" fill-rule="evenodd" clip-rule="evenodd" d="M19.0384 2.86998C18.5446 2.66699 17.9186 2.66699 16.6667 2.66699C15.4147 2.66699 14.7887 2.66699 14.2949 2.86998C13.6365 3.14063 13.1135 3.65976 12.8407 4.31317C12.7163 4.61145 12.6675 4.95833 12.6485 5.46431C12.6204 6.2079 12.2362 6.89618 11.5869 7.26823C10.9376 7.64028 10.1449 7.62638 9.48198 7.27867C9.03091 7.04206 8.70385 6.91049 8.38132 6.86835C7.67479 6.77603 6.96024 6.96605 6.39487 7.39659C5.97085 7.7195 5.65786 8.25752 5.03187 9.33357C4.40589 10.4096 4.09289 10.9476 4.02313 11.4735C3.93011 12.1747 4.12157 12.8839 4.5554 13.445C4.75341 13.7011 5.0317 13.9164 5.46361 14.1857C6.09855 14.5816 6.5071 15.2561 6.50705 16.0004C6.50701 16.7445 6.09849 17.4189 5.4636 17.8148C5.03162 18.0842 4.7533 18.2995 4.55526 18.5556C4.12144 19.1167 3.92998 19.8258 4.023 20.527C4.09276 21.0529 4.40575 21.5909 5.03174 22.667C5.65772 23.743 5.97072 24.2811 6.39474 24.604C6.96011 25.0345 7.67466 25.2245 8.38119 25.1322C8.7037 25.0901 9.03074 24.9585 9.48177 24.7219C10.1447 24.3742 10.9375 24.3603 11.5868 24.7324C12.2362 25.1045 12.6204 25.7928 12.6485 26.5364C12.6675 27.0424 12.7163 27.3892 12.8407 27.6875C13.1135 28.3409 13.6365 28.86 14.2949 29.1307C14.7887 29.3337 15.4147 29.3337 16.6667 29.3337C17.9186 29.3337 18.5446 29.3337 19.0384 29.1307C19.6968 28.86 20.2199 28.3409 20.4926 27.6875C20.6171 27.3892 20.6658 27.0423 20.6849 26.5363C20.7129 25.7927 21.0971 25.1045 21.7464 24.7324C22.3957 24.3602 23.1885 24.3741 23.8515 24.7219C24.3025 24.9584 24.6295 25.09 24.952 25.1321C25.6585 25.2244 26.3731 25.0344 26.9385 24.6039C27.3625 24.281 27.6755 23.7429 28.3015 22.6669C28.9275 21.5909 29.2404 21.0528 29.3102 20.5269C29.4032 19.8257 29.2118 19.1166 28.7779 18.5555C28.5799 18.2994 28.3016 18.0841 27.8697 17.8147C27.2347 17.4188 26.8262 16.7444 26.8263 16.0002C26.8263 15.2561 27.2348 14.5818 27.8697 14.1859C28.3017 13.9165 28.58 13.7012 28.7781 13.4451C29.2119 12.884 29.4034 12.1748 29.3103 11.4736C29.2406 10.9477 28.9276 10.4097 28.3016 9.33366C27.6756 8.25761 27.3626 7.71959 26.9386 7.39668C26.3732 6.96614 25.6587 6.77613 24.9521 6.86844C24.6296 6.91058 24.3026 7.04213 23.8516 7.27872C23.1886 7.62645 22.3959 7.64035 21.7465 7.26827C21.0971 6.8962 20.7129 6.20787 20.6849 5.46424C20.6658 4.9583 20.6171 4.61143 20.4926 4.31317C20.2199 3.65976 19.6968 3.14063 19.0384 2.86998Z" fill="white"/>
<path d="M20.6976 16C20.6976 18.2091 18.8931 20 16.6672 20C14.4412 20 12.6367 18.2091 12.6367 16C12.6367 13.7909 14.4412 12 16.6672 12C18.8931 12 20.6976 13.7909 20.6976 16Z" fill="white"/>
</svg>
