<svg width="32" height="32" viewBox="0 0 32 32" fill="none" xmlns="http://www.w3.org/2000/svg">
<path opacity="0.2" d="M4 13.8887C4 9.62527 4 7.49354 4.50335 6.77638C5.00671 6.05922 7.0111 5.37311 11.0199 4.00089L11.7836 3.73946C13.8733 3.02416 14.9181 2.6665 16 2.6665C17.0819 2.6665 18.1267 3.02416 20.2164 3.73946L20.9801 4.00089C24.9889 5.37311 26.9933 6.05922 27.4966 6.77638C28 7.49354 28 9.62527 28 13.8887V15.9883C28 23.5057 22.348 27.1538 18.8019 28.7029C17.84 29.1231 17.359 29.3332 16 29.3332C14.641 29.3332 14.16 29.1231 13.1981 28.7029C9.65195 27.1538 4 23.5057 4 15.9883V13.8887Z" fill="#141824"/>
<path d="M18 19.9998C18 20.7362 17.403 21.3332 16.6667 21.3332H15.3333C14.597 21.3332 14 20.7362 14 19.9998V18.1314C12.8044 17.4398 12 16.1471 12 14.6665C12 12.4574 13.7909 10.6665 16 10.6665C18.2091 10.6665 20 12.4574 20 14.6665C20 16.1471 19.1956 17.4398 18 18.1314V19.9998Z" fill="#141824"/>
</svg>
