<svg width="32" height="32" viewBox="0 0 32 32" fill="none" xmlns="http://www.w3.org/2000/svg">
<path opacity="0.2" d="M4.50335 6.7765C4 7.49366 4 9.62539 4 13.8888V15.9884C4 23.5059 9.65195 27.1539 13.1981 28.703C14.16 29.1232 14.641 29.3333 16 29.3333C17.359 29.3333 17.84 29.1232 18.8019 28.703C22.348 27.1539 28 23.5059 28 15.9884V13.8888C28 9.62539 28 7.49366 27.4966 6.7765C26.9933 6.05934 24.9889 5.37324 20.9801 4.00102L20.2164 3.73958C18.1267 3.02428 17.0819 2.66663 16 2.66663C14.9181 2.66663 13.8733 3.02428 11.7836 3.73958L11.0199 4.00102C7.0111 5.37324 5.00671 6.05934 4.50335 6.7765Z" fill="#1C274C"/>
<path d="M20.0796 13.9994C20.4474 13.5874 20.4117 12.9553 19.9997 12.5874C19.5877 12.2196 18.9556 12.2554 18.5877 12.6674L14.5718 17.1653L13.4129 15.8674C13.0451 15.4554 12.413 15.4196 12.001 15.7874C11.589 16.1553 11.5532 16.7874 11.9211 17.1994L13.8258 19.3327C14.0156 19.5452 14.2869 19.6667 14.5718 19.6667C14.8566 19.6667 15.128 19.5452 15.3177 19.3327L20.0796 13.9994Z" fill="#1C274C"/>
</svg>
