<svg width="32" height="32" viewBox="0 0 32 32" fill="none" xmlns="http://www.w3.org/2000/svg">
<path opacity="0.25" d="M5.33301 21.3333V28.3333H26.6663V21.3333C26.6663 15.4423 21.8907 10.6666 15.9997 10.6666C10.1086 10.6666 5.33301 15.4423 5.33301 21.3333Z" fill="#1E2330"/>
<path d="M17 2.66663C17 2.11434 16.5523 1.66663 16 1.66663C15.4477 1.66663 15 2.11434 15 2.66663V6.66663C15 7.21891 15.4477 7.66663 16 7.66663C16.5523 7.66663 17 7.21891 17 6.66663V2.66663Z" fill="#1E2330"/>
<path d="M28.7071 7.29285C29.0976 7.68338 29.0976 8.31654 28.7071 8.70707L26.7071 10.7071C26.3166 11.0976 25.6834 11.0976 25.2929 10.7071C24.9024 10.3165 24.9024 9.68338 25.2929 9.29285L27.2929 7.29285C27.6834 6.90233 28.3166 6.90233 28.7071 7.29285Z" fill="#1E2330"/>
<path d="M4.70711 7.29285C4.31658 6.90233 3.68342 6.90233 3.29289 7.29285C2.90237 7.68338 2.90237 8.31654 3.29289 8.70707L5.29289 10.7071C5.68342 11.0976 6.31658 11.0976 6.70711 10.7071C7.09763 10.3165 7.09763 9.68338 6.70711 9.29285L4.70711 7.29285Z" fill="#1E2330"/>
<path d="M19.4292 14.4063C18.9173 14.1991 18.3343 14.4461 18.127 14.9581C17.9198 15.47 18.1668 16.053 18.6788 16.2602C19.7647 16.6998 20.6331 17.5682 21.0727 18.6541C21.2799 19.1661 21.8629 19.4131 22.3748 19.2059C22.8868 18.9986 23.1338 18.4156 22.9266 17.9037C22.2838 16.3158 21.0172 15.0491 19.4292 14.4063Z" fill="#1E2330"/>
<path d="M17 25.0658C17.5978 24.72 18 24.0737 18 23.3334C18 22.2288 17.1046 21.3334 16 21.3334C14.8954 21.3334 14 22.2288 14 23.3334C14 24.0737 14.4022 24.72 15 25.0658V28.3334H17V25.0658Z" fill="#1E2330"/>
<path d="M5.33366 28.3334H2.66699C2.11471 28.3334 1.66699 28.7811 1.66699 29.3334C1.66699 29.8857 2.11471 30.3334 2.66699 30.3334H29.3337C29.8859 30.3334 30.3337 29.8857 30.3337 29.3334C30.3337 28.7811 29.8859 28.3334 29.3337 28.3334H26.667H17.0003H15.0003H5.33366Z" fill="#1E2330"/>
</svg>
