<svg width="28" height="28" viewBox="0 0 28 28" fill="none" xmlns="http://www.w3.org/2000/svg">
<g clip-path="url(#clip0_5918_9948)">
<path d="M27.578 17.3869C25.7081 24.887 18.1118 29.4514 10.6109 27.5811C3.11301 25.7113 -1.45142 18.1145 0.419327 10.6149C2.28833 3.11395 9.88464 -1.45093 17.3834 0.418948C24.8839 2.28882 29.4479 9.88645 27.578 17.3869Z" fill="#F7931A"/>
<path d="M20.1711 12.0059C20.4498 10.143 19.0314 9.14154 17.092 8.47348L17.7211 5.94998L16.1851 5.56717L15.5726 8.02417C15.1687 7.92354 14.754 7.8286 14.3419 7.73454L14.9587 5.26135L13.4236 4.87854L12.794 7.40117C12.4597 7.32504 12.1316 7.24979 11.8131 7.1706L11.8149 7.16273L9.6965 6.63379L9.28787 8.27442C9.28787 8.27442 10.4276 8.5356 10.4035 8.55179C11.0256 8.7071 11.1381 9.11879 11.1192 9.44517L10.4026 12.32C10.4455 12.3309 10.5011 12.3467 10.5623 12.3712C10.5111 12.3585 10.4564 12.3445 10.4 12.3309L9.3955 16.3581C9.31937 16.5471 9.12644 16.8306 8.69156 16.723C8.70687 16.7453 7.57506 16.4443 7.57506 16.4443L6.8125 18.2026L8.81144 18.7009C9.18331 18.7941 9.54775 18.8917 9.9065 18.9835L9.27081 21.5359L10.8051 21.9187L11.4347 19.3935C11.8538 19.5072 12.2607 19.6122 12.6588 19.7111L12.0314 22.2245L13.5675 22.6074L14.2032 20.0598C16.8225 20.5555 18.7921 20.3555 19.6212 17.9865C20.2892 16.079 19.5879 14.9787 18.2098 14.2612C19.2134 14.0297 19.9694 13.3695 20.1711 12.0059ZM16.6615 16.9273C16.1868 18.8348 12.9751 17.8036 11.9339 17.545L12.7774 14.1636C13.8186 14.4235 17.1576 14.938 16.6615 16.9273ZM17.1366 11.9783C16.7035 13.7134 14.0304 12.8319 13.1632 12.6157L13.928 9.54885C14.7951 9.76498 17.5877 10.1684 17.1366 11.9783Z" fill="white"/>
</g>
<defs>
<clipPath id="clip0_5918_9948">
<rect width="28" height="28" fill="white"/>
</clipPath>
</defs>
</svg>
