<svg width="32" height="32" viewBox="0 0 32 32" fill="none" xmlns="http://www.w3.org/2000/svg">
<path d="M18.9556 4.6662C17.0609 3.77793 14.9376 3.77793 13.043 4.6662L4.12149 8.84879C2.68682 9.52139 2.31277 11.418 2.99935 12.7289L2.99935 19.3333C2.99935 19.8856 3.44706 20.3333 3.99935 20.3333C4.55163 20.3333 4.99935 19.8856 4.99935 19.3333V14.2294L13.0431 18.0005C14.9378 18.8887 17.0611 18.8887 18.9557 18.0005L27.8772 13.8179C29.8178 12.9081 29.8178 9.75866 27.8772 8.84885L18.9556 4.6662Z" fill="#1C274C"/>
<path opacity="0.25" d="M6.66602 15.0107L13.0431 18.0005C14.9378 18.8887 17.0611 18.8887 18.9557 18.0005L25.3327 15.0108V22.167C25.3327 23.511 24.6613 24.7694 23.4856 25.4205C21.5277 26.5048 18.394 27.9998 15.9993 27.9998C13.6047 27.9998 10.471 26.5048 8.51313 25.4205C7.33735 24.7694 6.66602 23.511 6.66602 22.167V15.0107Z" fill="#1E2330"/>
</svg>
