<svg width="153" height="36" viewBox="0 0 153 36" fill="none" xmlns="http://www.w3.org/2000/svg">
<path d="M77.8124 10.4102C71.5683 10.4102 67.375 14.3848 67.375 20.2973C67.375 26.2097 71.4104 30.0668 77.6545 30.0668C80.3416 30.0668 82.1708 29.0369 83.4271 28.0599L83.479 29.7304H88.2498V20.2996C88.2498 14.3848 84.0541 10.4125 77.8124 10.4125V10.4102ZM83.1843 21.5622C82.7624 23.8088 80.5302 25.5023 77.9963 25.5023C74.8118 25.5023 72.7563 23.4585 72.7563 20.2973C72.7563 17.136 74.8141 15.0922 77.9963 15.0922C80.5302 15.0922 83.2362 16.4585 83.2362 20.2973C83.2362 20.4009 83.2197 21.371 83.1843 21.5622Z" fill="#101729"/>
<path d="M105.701 12.9348C104.444 11.9579 102.615 10.9279 99.9279 10.9279C93.6839 10.9279 89.6484 14.762 89.6484 20.6975C89.6484 26.633 93.8441 30.5846 100.086 30.5846C106.328 30.5846 110.523 26.6099 110.523 20.6975V5.5293H105.752L105.701 12.9348ZM100.27 25.9003C97.0852 25.9003 95.0298 23.8565 95.0298 20.6952C95.0298 17.5339 97.0876 15.4901 100.27 15.4901C102.806 15.4901 105.036 17.1837 105.458 19.4302C105.493 19.6215 105.51 20.5915 105.51 20.6952C105.51 24.5339 102.804 25.9003 100.27 25.9003Z" fill="#101729"/>
<path d="M68.7125 10.7165C66.2163 10.44 63.1166 10.6013 61.5138 13.046L61.4619 11.0598H56.75V29.8593H61.9781V20.3086C61.9781 20.205 62.03 19.2395 62.03 19.0437C62.03 16.0575 64.0713 15.2395 66.3648 15.122C66.954 13.9354 67.7366 12.8363 68.7125 11.7718V10.7165Z" fill="#101729"/>
<path d="M50.5714 6.25195L45.0581 7.12292V11.0584H43.5V15.0722H45.0581V24.3326C45.0581 27.9294 47.592 29.8579 50.9438 29.8579C52.8107 29.8579 54.3428 29.5722 54.3428 29.5722V24.9939C54.3428 24.9939 53.4636 25.0837 53.1454 25.1045C51.8113 25.1897 50.5738 25.252 50.5738 23.9409V15.0722H54.3428V11.0584H50.5738V6.25426L50.5714 6.25195Z" fill="#101729"/>
<path d="M137.189 11.0156C134.124 11.0156 131.378 12.3682 129.542 14.4949C128.069 16.2 127.18 18.3981 127.18 20.799C127.18 23.6078 124.833 25.8843 121.938 25.8843C119.044 25.8843 116.696 23.6078 116.696 20.799C116.696 20.5225 116.719 20.2483 116.764 19.9834C117.167 17.5617 119.329 15.7138 121.938 15.7138C123.977 15.7138 125.743 16.8451 126.61 18.4926C126.989 16.8382 127.772 15.2806 128.906 13.9672C128.927 13.9442 128.948 13.9189 128.969 13.8958C127.162 12.1608 124.677 11.0894 121.938 11.0894C116.703 11.0894 112.394 15.0087 111.965 19.9834C111.941 20.253 111.93 20.5248 111.93 20.799C111.93 26.1516 116.42 30.5064 121.938 30.5064C124.979 30.5064 127.706 29.1838 129.542 27.1032C131.039 25.405 131.947 23.2023 131.947 20.799C131.947 17.9695 134.294 15.6746 137.189 15.6746C140.083 15.6746 142.431 17.9695 142.431 20.799C142.431 21.0755 142.407 21.3497 142.365 21.6147C141.964 24.0571 139.8 25.9235 137.189 25.9235C135.145 25.9235 133.377 24.7806 132.512 23.1124C132.126 24.7714 131.329 26.3267 130.174 27.6354C130.153 27.6585 130.132 27.6815 130.11 27.7069C131.923 29.4834 134.426 30.5824 137.189 30.5824C142.426 30.5824 146.738 26.6285 147.162 21.6147C147.185 21.3451 147.197 21.0732 147.197 20.799C147.197 15.405 142.707 11.0156 137.189 11.0156Z" fill="#101729"/>
<path d="M149.688 5.41406C148.306 5.41406 147.203 6.46245 147.203 7.77121C147.203 9.07996 148.306 10.156 149.688 10.156C151.069 10.156 152.158 9.10761 152.158 7.77121C152.158 6.4348 151.085 5.41406 149.688 5.41406ZM149.702 9.65369C148.613 9.65369 147.821 8.81959 147.821 7.77121C147.821 6.72282 148.615 5.88872 149.688 5.88872C150.76 5.88872 151.54 6.73664 151.54 7.78503C151.54 8.83342 150.76 9.65369 149.702 9.65369Z" fill="#101729"/>
<path d="M150.236 7.8431V7.81545C150.531 7.7302 150.736 7.52743 150.736 7.26937C150.736 7.03895 150.632 6.85232 150.5 6.75094C150.323 6.64955 150.118 6.57812 149.661 6.57812C149.265 6.57812 148.956 6.60578 148.734 6.64955V9.0067H149.293V8.05739H149.557C149.866 8.05739 150.012 8.1726 150.057 8.43066C150.13 8.70485 150.175 8.91914 150.248 9.0067H150.851C150.792 8.92144 150.747 8.77628 150.674 8.41683C150.601 8.10117 150.469 7.92836 150.234 7.8408L150.236 7.8431ZM149.574 7.67029H149.31V6.99518C149.368 6.98135 149.472 6.96753 149.618 6.96753C149.972 6.96753 150.132 7.11038 150.132 7.32697C150.132 7.57121 149.882 7.6726 149.574 7.6726V7.67029Z" fill="#101729"/>
<path d="M18.414 0C8.24527 0 0 8.0576 0 18C0 27.9424 8.24527 36 18.414 36C28.5827 36 36.8279 27.9401 36.8279 18C36.8279 8.05991 28.585 0 18.414 0ZM32.3022 18.6429C31.9675 22.5991 28.5662 25.7189 24.4317 25.7189C22.2514 25.7189 20.2761 24.8502 18.8453 23.4493C18.8618 23.4309 18.8783 23.4124 18.8948 23.394C19.4652 22.7488 19.9249 22.0276 20.262 21.2581C20.467 20.7949 20.6273 20.3157 20.7405 19.8249C21.424 21.1406 22.8195 22.0438 24.4317 22.0438C26.4919 22.0438 28.2008 20.5691 28.5167 18.6429C28.552 18.4332 28.5685 18.2189 28.5685 18C28.5685 15.765 26.7182 13.9539 24.4317 13.9539C23.2909 13.9539 22.2561 14.4055 21.5065 15.1382C20.7593 15.871 20.295 16.8825 20.295 18C20.295 19.1175 20.0687 20.0829 19.6585 21.0069C19.3427 21.7258 18.9137 22.3871 18.3975 22.9747C16.9478 24.6175 14.7958 25.6613 12.3962 25.6613C8.0402 25.6613 4.49742 22.2235 4.49742 18C4.49742 17.7834 4.50685 17.5668 4.5257 17.3548C4.86513 13.4309 8.26412 10.3387 12.3962 10.3387C14.5577 10.3387 16.5165 11.1843 17.9449 12.553C17.9284 12.5714 17.9119 12.5899 17.8954 12.6083C17.167 13.4516 16.6225 14.4194 16.2855 15.4539C16.2077 15.6912 16.1393 15.9355 16.0828 16.1797C15.3992 14.8779 14.0061 13.9862 12.3962 13.9862C10.336 13.9862 8.62948 15.4447 8.31362 17.3548C8.27827 17.5645 8.25941 17.7811 8.25941 18C8.25941 20.2166 10.1121 22.0115 12.3962 22.0115C13.537 22.0115 14.5718 21.5622 15.3214 20.8364C16.0686 20.1106 16.533 19.1083 16.533 18C16.533 17.1705 16.6673 16.3733 16.9172 15.6244C17.2354 14.6613 17.7445 13.7788 18.3975 13.023C19.8471 11.3456 22.0133 10.2788 24.4317 10.2788C28.7877 10.2788 32.3305 13.7419 32.3305 18C32.3305 18.2166 32.3211 18.4309 32.3022 18.6429Z" fill="#101729"/>
</svg>
