<svg width="32" height="32" viewBox="0 0 32 32" fill="none" xmlns="http://www.w3.org/2000/svg">
<path opacity="0.2" d="M4.22885 4.22872C2.66675 5.79082 2.66675 8.30498 2.66675 13.3333V18.6666C2.66675 23.6949 2.66675 26.2091 4.22885 27.7712C5.79094 29.3333 8.3051 29.3333 13.3334 29.3333H18.6667C23.6951 29.3333 26.2092 29.3333 27.7713 27.7712C29.3334 26.2091 29.3334 23.6949 29.3334 18.6666V13.3333C29.3334 8.30498 29.3334 5.79082 27.7713 4.22872C26.2092 2.66663 23.6951 2.66663 18.6667 2.66663H13.3334C8.3051 2.66663 5.79094 2.66663 4.22885 4.22872Z" fill="#272E3F"/>
<path d="M10.5506 11.6227C10.7932 10.8201 11.2103 10.1243 11.6623 9.64474C12.1429 9.13492 12.5304 9 12.6969 9C13.1044 9 13.6516 9.23685 14.1507 10.355C14.6556 11.4861 15.0001 13.3248 15.0001 16.0001C15.0001 18.7984 15.3533 20.9597 16.023 22.4602C16.6985 23.9737 17.8029 25 19.3031 25C20.2685 25 21.1474 24.412 21.7931 23.7271C22.4672 23.0118 23.0359 22.041 23.3639 20.956C23.5237 20.4273 23.2247 19.8692 22.696 19.7094C22.1673 19.5496 21.6092 19.8487 21.4494 20.3773C21.2068 21.1799 20.7897 21.8757 20.3377 22.3553C19.8571 22.8651 19.4696 23 19.3031 23C18.8956 23 18.3484 22.7632 17.8494 21.6451C17.3445 20.514 17.0001 18.6754 17.0001 16.0001C17.0001 13.2017 16.6469 11.0404 15.9771 9.53982C15.3015 8.02637 14.1971 7 12.6969 7C11.7315 7 10.8526 7.58797 10.2069 8.27293C9.53277 8.98817 8.96407 9.95904 8.63612 11.044C8.47632 11.5727 8.77534 12.1308 9.304 12.2906C9.83267 12.4504 10.3908 12.1513 10.5506 11.6227Z" fill="#272E3F"/>
<path d="M8 15C7.44772 15 7 15.4477 7 16C7 16.5523 7.44772 17 8 17H12.6667C13.219 17 13.6667 16.5523 13.6667 16C13.6667 15.4477 13.219 15 12.6667 15H8Z" fill="#272E3F"/>
<path d="M19.3333 15C18.781 15 18.3333 15.4477 18.3333 16C18.3333 16.5523 18.781 17 19.3333 17H24C24.5523 17 25 16.5523 25 16C25 15.4477 24.5523 15 24 15H19.3333Z" fill="#272E3F"/>
</svg>
