<svg width="32" height="32" viewBox="0 0 32 32" fill="none" xmlns="http://www.w3.org/2000/svg">
<path opacity="0.25" d="M29.3327 16C29.3327 23.3638 23.3631 29.3333 15.9993 29.3333C8.63555 29.3333 2.66602 23.3638 2.66602 16C2.66602 8.63616 8.63555 2.66663 15.9993 2.66663C23.3631 2.66663 29.3327 8.63616 29.3327 16Z" fill="#1E2330"/>
<path d="M12.334 16C12.334 15.4478 12.7817 15 13.334 15H15.0007V13.3334C15.0007 12.7811 15.4484 12.3334 16.0007 12.3334C16.5529 12.3334 17.0007 12.7811 17.0007 13.3334V15H18.6673C19.2196 15 19.6673 15.4478 19.6673 16C19.6673 16.5523 19.2196 17 18.6673 17H17.0007V18.6667C17.0007 19.219 16.5529 19.6667 16.0007 19.6667C15.4484 19.6667 15.0007 19.219 15.0007 18.6667V17H13.334C12.7817 17 12.334 16.5523 12.334 16Z" fill="#1E2330"/>
<path d="M2.70295 17C2.67847 16.6698 2.66602 16.3363 2.66602 16C2.66602 15.6636 2.67847 15.3301 2.70295 15H6.66602C7.2183 15 7.66602 15.4477 7.66602 16C7.66602 16.5522 7.2183 17 6.66602 17H2.70295Z" fill="#1E2330"/>
<path d="M16.9993 29.2964C16.6692 29.3208 16.3357 29.3333 15.9993 29.3333C15.663 29.3333 15.3295 29.3208 14.9993 29.2964V25.3333C14.9993 24.781 15.4471 24.3333 15.9993 24.3333C16.5516 24.3333 16.9993 24.781 16.9993 25.3333V29.2964Z" fill="#1E2330"/>
<path d="M29.2957 15C29.3202 15.3301 29.3327 15.6636 29.3327 16C29.3327 16.3363 29.3202 16.6698 29.2957 17H25.3327C24.7804 17 24.3327 16.5522 24.3327 16C24.3327 15.4477 24.7804 15 25.3327 15H29.2957Z" fill="#1E2330"/>
<path d="M16.9993 2.70356V6.66663C16.9993 7.21891 16.5516 7.66663 15.9993 7.66663C15.4471 7.66663 14.9993 7.21891 14.9993 6.66663V2.70356C15.3295 2.67908 15.663 2.66663 15.9993 2.66663C16.3357 2.66663 16.6692 2.67908 16.9993 2.70356Z" fill="#1E2330"/>
</svg>
