<svg width="40" height="40" viewBox="0 0 40 40" fill="none" xmlns="http://www.w3.org/2000/svg">
<path d="M19.8137 0C8.88795 0 0 8.97153 0 20C0 31.0285 8.88795 40 19.8137 40C30.7394 40 39.6274 31.0285 39.6274 20C39.6274 8.97153 30.7394 0 19.8137 0ZM19.8137 37.9339C10.0024 37.9339 2.04687 29.9036 2.04687 20C2.04687 10.0964 10.0024 2.06612 19.8137 2.06612C29.625 2.06612 37.5805 10.0964 37.5805 20C37.5805 29.9036 29.625 37.9339 19.8137 37.9339Z" fill="white"/>
<path d="M25.6198 12.3069C23.2864 12.3069 21.1963 13.3698 19.7976 15.0433C18.6764 16.384 17.9986 18.1127 17.9986 19.9997C17.9986 22.2082 16.211 23.9988 14.0072 23.9988C11.8034 23.9988 10.0158 22.2082 10.0158 19.9997C10.0158 19.7816 10.034 19.5681 10.0682 19.3592C10.3752 17.4561 12.0218 16.0029 14.0072 16.0029C15.5606 16.0029 16.9047 16.8914 17.5642 18.1884C17.8531 16.8868 18.4489 15.6632 19.3109 14.6301C19.3268 14.6118 19.3427 14.5934 19.3587 14.575C17.9804 13.2114 16.0905 12.3689 14.005 12.3689C10.0181 12.3689 6.73858 15.452 6.41108 19.3615C6.39289 19.5727 6.38379 19.7862 6.38379 20.002C6.38379 24.21 9.80206 27.6352 14.005 27.6352C16.3202 27.6352 18.3966 26.5952 19.7953 24.9584C20.9347 23.6246 21.6261 21.8914 21.6261 20.002C21.6261 17.7775 23.4137 15.9731 25.6175 15.9731C27.8213 15.9731 29.6089 17.7775 29.6089 20.002C29.6089 20.2201 29.5907 20.4336 29.5589 20.6425C29.2541 22.564 27.6053 24.0309 25.6175 24.0309C24.0619 24.0309 22.7155 23.131 22.056 21.8202C21.7626 23.1241 21.1553 24.3477 20.2752 25.3762C20.2593 25.3946 20.2434 25.4129 20.2274 25.4313C21.6079 26.8271 23.5138 27.6926 25.6175 27.6926C29.6066 27.6926 32.8884 24.5842 33.2114 20.6402C33.2296 20.429 33.2387 20.2155 33.2387 19.9997C33.2387 15.7573 29.8204 12.3069 25.6175 12.3069H25.6198Z" fill="white"/>
</svg>
