<svg width="32" height="32" viewBox="0 0 32 32" fill="none" xmlns="http://www.w3.org/2000/svg">
<path d="M12.3335 18.6668C14.5426 18.6668 16.3335 20.4577 16.3335 22.6668C16.3335 24.876 14.5426 26.6668 12.3335 26.6668C10.1244 26.6668 8.3335 24.876 8.3335 22.6668C8.3335 20.4577 10.1244 18.6668 12.3335 18.6668Z" fill="#1C274C"/>
<path d="M19.0002 5.3335C16.791 5.3335 15.0002 7.12436 15.0002 9.3335C15.0002 11.5426 16.791 13.3335 19.0002 13.3335C21.2093 13.3335 23.0002 11.5426 23.0002 9.3335C23.0002 7.12436 21.2093 5.3335 19.0002 5.3335Z" fill="#1C274C"/>
<g opacity="0.5">
<path d="M22.888 10.2778C22.9613 9.97493 23.0002 9.65857 23.0002 9.33313C23.0002 8.96786 22.9512 8.61403 22.8595 8.27783H29.0002C29.5524 8.27783 30.0002 8.72555 30.0002 9.27783C30.0002 9.83012 29.5524 10.2778 29.0002 10.2778L22.888 10.2778Z" fill="#272E3F"/>
<path d="M15.1408 8.27783C15.0491 8.61403 15.0002 8.96786 15.0002 9.33313C15.0002 9.65857 15.039 9.97493 15.1124 10.2778L2.3335 10.2778C1.78121 10.2778 1.3335 9.83012 1.3335 9.27783C1.3335 8.72555 1.78121 8.27783 2.3335 8.27783H15.1408Z" fill="#272E3F"/>
<path d="M8.47417 21.6112H2.3335C1.78121 21.6112 1.3335 22.0589 1.3335 22.6112C1.3335 23.1634 1.78121 23.6112 2.3335 23.6112H8.4457C8.37236 23.3083 8.3335 22.9919 8.3335 22.6665C8.3335 22.3012 8.38246 21.9474 8.47417 21.6112Z" fill="#272E3F"/>
<path d="M16.2213 23.6112H29.0002C29.5524 23.6112 30.0002 23.1634 30.0002 22.6112C30.0002 22.0589 29.5524 21.6112 29.0002 21.6112H16.1928C16.2845 21.9474 16.3335 22.3012 16.3335 22.6665C16.3335 22.9919 16.2946 23.3083 16.2213 23.6112Z" fill="#272E3F"/>
</g>
</svg>
