<svg width="32" height="32" viewBox="0 0 32 32" fill="none" xmlns="http://www.w3.org/2000/svg">
<path d="M12.3335 18.6666C14.5426 18.6666 16.3335 20.4574 16.3335 22.6666C16.3335 24.8757 14.5426 26.6666 12.3335 26.6666C10.1244 26.6666 8.3335 24.8757 8.3335 22.6666C8.3335 20.4574 10.1244 18.6666 12.3335 18.6666Z" fill="#1C274C"/>
<path d="M19.0002 5.33325C16.791 5.33325 15.0002 7.12411 15.0002 9.33325C15.0002 11.5424 16.791 13.3333 19.0002 13.3333C21.2093 13.3333 23.0002 11.5424 23.0002 9.33325C23.0002 7.12411 21.2093 5.33325 19.0002 5.33325Z" fill="#1C274C"/>
<g opacity="0.5">
<path d="M22.888 10.2781C22.9613 9.97518 23.0002 9.65881 23.0002 9.33337C23.0002 8.9681 22.9512 8.61427 22.8595 8.27808H29.0002C29.5524 8.27808 30.0002 8.72579 30.0002 9.27808C30.0002 9.83036 29.5524 10.2781 29.0002 10.2781L22.888 10.2781Z" fill="#272E3F"/>
<path d="M15.1408 8.27808C15.0491 8.61427 15.0002 8.9681 15.0002 9.33337C15.0002 9.65881 15.039 9.97518 15.1124 10.2781L2.3335 10.2781C1.78121 10.2781 1.3335 9.83036 1.3335 9.27808C1.3335 8.72579 1.78121 8.27808 2.3335 8.27808H15.1408Z" fill="#272E3F"/>
<path d="M8.47417 21.6114H2.3335C1.78121 21.6114 1.3335 22.0591 1.3335 22.6114C1.3335 23.1637 1.78121 23.6114 2.3335 23.6114H8.4457C8.37236 23.3085 8.3335 22.9921 8.3335 22.6667C8.3335 22.3014 8.38246 21.9476 8.47417 21.6114Z" fill="#272E3F"/>
<path d="M16.2213 23.6114H29.0002C29.5524 23.6114 30.0002 23.1637 30.0002 22.6114C30.0002 22.0591 29.5524 21.6114 29.0002 21.6114H16.1928C16.2845 21.9476 16.3335 22.3014 16.3335 22.6667C16.3335 22.9921 16.2946 23.3085 16.2213 23.6114Z" fill="#272E3F"/>
</g>
</svg>
