<svg width="32" height="32" viewBox="0 0 32 32" fill="none" xmlns="http://www.w3.org/2000/svg">
<path d="M12.333 18.6666C14.5421 18.6666 16.333 20.4575 16.333 22.6666C16.333 24.8758 14.5421 26.6666 12.333 26.6666C10.1239 26.6666 8.33301 24.8758 8.33301 22.6666C8.33301 20.4575 10.1239 18.6666 12.333 18.6666Z" fill="#1C274C"/>
<path d="M18.9997 5.33331C16.7905 5.33331 14.9997 7.12417 14.9997 9.33331C14.9997 11.5425 16.7905 13.3333 18.9997 13.3333C21.2088 13.3333 22.9997 11.5425 22.9997 9.33331C22.9997 7.12417 21.2088 5.33331 18.9997 5.33331Z" fill="#1C274C"/>
<g opacity="0.25">
<path d="M22.8875 10.278C22.9608 9.97512 22.9997 9.65875 22.9997 9.33331C22.9997 8.96804 22.9507 8.61421 22.859 8.27802H28.9997C29.552 8.27802 29.9997 8.72573 29.9997 9.27802C29.9997 9.8303 29.552 10.278 28.9997 10.278L22.8875 10.278Z" fill="#1E2330"/>
<path d="M15.1403 8.27802C15.0486 8.61421 14.9997 8.96804 14.9997 9.33331C14.9997 9.65875 15.0385 9.97512 15.1119 10.278L2.33301 10.278C1.78072 10.278 1.33301 9.8303 1.33301 9.27801C1.33301 8.72573 1.78072 8.27802 2.33301 8.27802H15.1403Z" fill="#1E2330"/>
<path d="M8.47368 21.6113H2.33301C1.78072 21.6113 1.33301 22.0591 1.33301 22.6113C1.33301 23.1636 1.78072 23.6113 2.33301 23.6113H8.44521C8.37187 23.3084 8.33301 22.9921 8.33301 22.6666C8.33301 22.3014 8.38197 21.9475 8.47368 21.6113Z" fill="#1E2330"/>
<path d="M16.2208 23.6113H28.9997C29.552 23.6113 29.9997 23.1636 29.9997 22.6113C29.9997 22.0591 29.552 21.6113 28.9997 21.6113H16.1923C16.284 21.9475 16.333 22.3014 16.333 22.6666C16.333 22.9921 16.2941 23.3084 16.2208 23.6113Z" fill="#1E2330"/>
</g>
</svg>
