<svg width="28" height="28" viewBox="0 0 28 28" fill="none" xmlns="http://www.w3.org/2000/svg">
<g clip-path="url(#clip0_5918_9939)">
<path d="M14 28C21.7584 28 28 21.7584 28 14C28 6.24162 21.7584 0 14 0C6.24162 0 0 6.24162 0 14C0 21.7584 6.24162 28 14 28Z" fill="#2775CA"/>
<path d="M17.8479 16.2162C17.8479 14.1746 16.6229 13.4746 14.1729 13.183C12.4229 12.9496 12.0729 12.483 12.0729 11.6662C12.0729 10.8495 12.6563 10.3246 13.8229 10.3246C14.8729 10.3246 15.4563 10.6746 15.7479 11.5496C15.8063 11.7246 15.9813 11.8412 16.1563 11.8412H17.0895C17.3229 11.8412 17.4979 11.6662 17.4979 11.433V11.3746C17.2645 10.0912 16.2145 9.09959 14.8729 8.98297V7.58297C14.8729 7.34959 14.6979 7.17459 14.4063 7.11621H13.5313C13.2979 7.11621 13.1229 7.29121 13.0645 7.58297V8.92459C11.3145 9.15797 10.2063 10.3246 10.2063 11.783C10.2063 13.708 11.3729 14.4662 13.8229 14.758C15.4563 15.0496 15.9813 15.3996 15.9813 16.333C15.9813 17.2664 15.1645 17.908 14.0563 17.908C12.5395 17.908 12.0145 17.2662 11.8395 16.3912C11.7813 16.158 11.6063 16.0412 11.4313 16.0412H10.4395C10.2063 16.0412 10.0312 16.2162 10.0312 16.4496V16.508C10.2645 17.9662 11.1979 19.0162 13.1229 19.308V20.708C13.1229 20.9412 13.2979 21.1162 13.5895 21.1746H14.4645C14.6979 21.1746 14.8729 20.9996 14.9313 20.708V19.308C16.6813 19.0162 17.8479 17.7912 17.8479 16.2162Z" fill="white"/>
<path d="M11.0222 22.3416C6.47223 20.7084 4.13885 15.6334 5.83061 11.1416C6.70561 8.69161 8.63061 6.82499 11.0222 5.94999C11.2556 5.83337 11.3722 5.65837 11.3722 5.36661V4.54999C11.3722 4.31661 11.2556 4.14161 11.0222 4.08337C10.9639 4.08337 10.8472 4.08337 10.7889 4.14161C5.24723 5.89161 2.21385 11.7834 3.96385 17.325C5.01385 20.5916 7.52223 23.1 10.7889 24.15C11.0222 24.2666 11.2556 24.15 11.3139 23.9166C11.3722 23.8584 11.3722 23.8 11.3722 23.6834V22.8666C11.3722 22.6916 11.1972 22.4584 11.0222 22.3416ZM17.2056 4.14161C16.9722 4.02499 16.7389 4.14161 16.6806 4.37499C16.6222 4.43337 16.6222 4.49161 16.6222 4.60837V5.42499C16.6222 5.65837 16.7972 5.89161 16.9722 6.00837C21.5222 7.64161 23.8556 12.7166 22.1639 17.2084C21.2889 19.6584 19.3639 21.525 16.9722 22.4C16.7389 22.5166 16.6222 22.6916 16.6222 22.9834V23.8C16.6222 24.0334 16.7389 24.2084 16.9722 24.2666C17.0306 24.2666 17.1472 24.2666 17.2056 24.2084C22.7472 22.4584 25.7806 16.5666 24.0306 11.025C22.9806 7.69999 20.4139 5.19161 17.2056 4.14161Z" fill="white"/>
</g>
<defs>
<clipPath id="clip0_5918_9939">
<rect width="28" height="28" fill="white"/>
</clipPath>
</defs>
</svg>
