<svg width="67" height="19" viewBox="0 0 67 19" fill="none" xmlns="http://www.w3.org/2000/svg">
<path d="M1.25 7.95508C0.559644 7.95508 0 8.51472 0 9.20508C0 9.89543 0.559644 10.4551 1.25 10.4551V9.20508V7.95508ZM66.1339 10.089C66.622 9.60081 66.622 8.80935 66.1339 8.32119L58.1789 0.366243C57.6908 -0.121912 56.8993 -0.121912 56.4112 0.366243C55.923 0.854399 55.923 1.64585 56.4112 2.13401L63.4822 9.20508L56.4112 16.2761C55.923 16.7643 55.923 17.5558 56.4112 18.0439C56.8993 18.5321 57.6908 18.5321 58.1789 18.0439L66.1339 10.089ZM1.25 9.20508V10.4551C1.25313 10.4551 1.2564 10.4551 1.25983 10.4551C1.26326 10.4551 1.26685 10.4551 1.27058 10.4551C1.27432 10.4551 1.27821 10.4551 1.28225 10.4551C1.28629 10.4551 1.29048 10.4551 1.29482 10.4551C1.29916 10.4551 1.30366 10.4551 1.3083 10.4551C1.31294 10.4551 1.31774 10.4551 1.32269 10.4551C1.32763 10.4551 1.33273 10.4551 1.33797 10.4551C1.34322 10.4551 1.34862 10.4551 1.35416 10.4551C1.35971 10.4551 1.3654 10.4551 1.37125 10.4551C1.37709 10.4551 1.38308 10.4551 1.38922 10.4551C1.39536 10.4551 1.40165 10.4551 1.40809 10.4551C1.41453 10.4551 1.42112 10.4551 1.42785 10.4551C1.43458 10.4551 1.44146 10.4551 1.44849 10.4551C1.45552 10.4551 1.4627 10.4551 1.47002 10.4551C1.47734 10.4551 1.48481 10.4551 1.49243 10.4551C1.50004 10.4551 1.5078 10.4551 1.51571 10.4551C1.52362 10.4551 1.53167 10.4551 1.53987 10.4551C1.54807 10.4551 1.55641 10.4551 1.5649 10.4551C1.57339 10.4551 1.58202 10.4551 1.5908 10.4551C1.59958 10.4551 1.6085 10.4551 1.61757 10.4551C1.62663 10.4551 1.63584 10.4551 1.6452 10.4551C1.65455 10.4551 1.66405 10.4551 1.67369 10.4551C1.68333 10.4551 1.69312 10.4551 1.70304 10.4551C1.71297 10.4551 1.72304 10.4551 1.73325 10.4551C1.74346 10.4551 1.75381 10.4551 1.76431 10.4551C1.7748 10.4551 1.78544 10.4551 1.79622 10.4551C1.80699 10.4551 1.81791 10.4551 1.82897 10.4551C1.84003 10.4551 1.85123 10.4551 1.86257 10.4551C1.87391 10.4551 1.8854 10.4551 1.89702 10.4551C1.90864 10.4551 1.9204 10.4551 1.9323 10.4551C1.9442 10.4551 1.95624 10.4551 1.96842 10.4551C1.9806 10.4551 1.99291 10.4551 2.00537 10.4551C2.01783 10.4551 2.03042 10.4551 2.04315 10.4551C2.05589 10.4551 2.06876 10.4551 2.08177 10.4551C2.09478 10.4551 2.10792 10.4551 2.1212 10.4551C2.13449 10.4551 2.14791 10.4551 2.16147 10.4551C2.17502 10.4551 2.18872 10.4551 2.20255 10.4551C2.21638 10.4551 2.23034 10.4551 2.24444 10.4551C2.25855 10.4551 2.27278 10.4551 2.28716 10.4551C2.30153 10.4551 2.31604 10.4551 2.33068 10.4551C2.34532 10.4551 2.3601 10.4551 2.37501 10.4551C2.38993 10.4551 2.40497 10.4551 2.42015 10.4551C2.43534 10.4551 2.45065 10.4551 2.4661 10.4551C2.48155 10.4551 2.49713 10.4551 2.51284 10.4551C2.52856 10.4551 2.54441 10.4551 2.56039 10.4551C2.57637 10.4551 2.59248 10.4551 2.60872 10.4551C2.62497 10.4551 2.64135 10.4551 2.65785 10.4551C2.67436 10.4551 2.691 10.4551 2.70778 10.4551C2.72455 10.4551 2.74145 10.4551 2.75848 10.4551C2.77552 10.4551 2.79268 10.4551 2.80998 10.4551C2.82727 10.4551 2.8447 10.4551 2.86225 10.4551C2.87981 10.4551 2.89749 10.4551 2.91531 10.4551C2.93312 10.4551 2.95106 10.4551 2.96914 10.4551C2.98721 10.4551 3.00541 10.4551 3.02374 10.4551C3.04207 10.4551 3.06053 10.4551 3.07911 10.4551C3.0977 10.4551 3.11641 10.4551 3.13526 10.4551C3.1541 10.4551 3.17307 10.4551 3.19216 10.4551C3.21126 10.4551 3.23048 10.4551 3.24983 10.4551C3.26918 10.4551 3.28866 10.4551 3.30826 10.4551C3.32787 10.4551 3.3476 10.4551 3.36745 10.4551C3.38731 10.4551 3.40729 10.4551 3.42739 10.4551C3.4475 10.4551 3.46773 10.4551 3.48809 10.4551C3.50844 10.4551 3.52892 10.4551 3.54953 10.4551C3.57014 10.4551 3.59087 10.4551 3.61172 10.4551C3.63257 10.4551 3.65355 10.4551 3.67465 10.4551C3.69575 10.4551 3.71698 10.4551 3.73832 10.4551C3.75967 10.4551 3.78114 10.4551 3.80274 10.4551C3.82433 10.4551 3.84604 10.4551 3.86788 10.4551C3.88972 10.4551 3.91168 10.4551 3.93376 10.4551C3.95584 10.4551 3.97804 10.4551 4.00037 10.4551C4.02269 10.4551 4.04514 10.4551 4.0677 10.4551C4.09027 10.4551 4.11296 10.4551 4.13577 10.4551C4.15857 10.4551 4.1815 10.4551 4.20455 10.4551C4.22759 10.4551 4.25076 10.4551 4.27405 10.4551C4.29733 10.4551 4.32074 10.4551 4.34426 10.4551C4.36779 10.4551 4.39143 10.4551 4.41519 10.4551C4.43896 10.4551 4.46284 10.4551 4.48684 10.4551C4.51083 10.4551 4.53495 10.4551 4.55918 10.4551C4.58342 10.4551 4.60777 10.4551 4.63224 10.4551C4.65671 10.4551 4.68129 10.4551 4.70599 10.4551C4.7307 10.4551 4.75551 10.4551 4.78045 10.4551C4.80538 10.4551 4.83044 10.4551 4.8556 10.4551C4.88077 10.4551 4.90605 10.4551 4.93145 10.4551C4.95685 10.4551 4.98236 10.4551 5.00799 10.4551C5.03362 10.4551 5.05936 10.4551 5.08522 10.4551C5.11107 10.4551 5.13704 10.4551 5.16313 10.4551C5.18921 10.4551 5.21541 10.4551 5.24173 10.4551C5.26804 10.4551 5.29447 10.4551 5.321 10.4551C5.34754 10.4551 5.37419 10.4551 5.40096 10.4551C5.42772 10.4551 5.4546 10.4551 5.48159 10.4551C5.50858 10.4551 5.53568 10.4551 5.56289 10.4551C5.5901 10.4551 5.61743 10.4551 5.64486 10.4551C5.6723 10.4551 5.69985 10.4551 5.7275 10.4551C5.75516 10.4551 5.78293 10.4551 5.81081 10.4551C5.83868 10.4551 5.86667 10.4551 5.89477 10.4551C5.92287 10.4551 5.95108 10.4551 5.97939 10.4551C6.00771 10.4551 6.03614 10.4551 6.06467 10.4551C6.09321 10.4551 6.12185 10.4551 6.15061 10.4551C6.17936 10.4551 6.20822 10.4551 6.23719 10.4551C6.26616 10.4551 6.29524 10.4551 6.32442 10.4551C6.3536 10.4551 6.3829 10.4551 6.4123 10.4551C6.44169 10.4551 6.4712 10.4551 6.50081 10.4551C6.53043 10.4551 6.56015 10.4551 6.58997 10.4551C6.6198 10.4551 6.64973 10.4551 6.67977 10.4551C6.7098 10.4551 6.73995 10.4551 6.77019 10.4551C6.80044 10.4551 6.8308 10.4551 6.86125 10.4551C6.89171 10.4551 6.92227 10.4551 6.95294 10.4551C6.98361 10.4551 7.01438 10.4551 7.04526 10.4551C7.07613 10.4551 7.10711 10.4551 7.13819 10.4551C7.16928 10.4551 7.20046 10.4551 7.23175 10.4551C7.26304 10.4551 7.29443 10.4551 7.32593 10.4551C7.35742 10.4551 7.38902 10.4551 7.42072 10.4551C7.45241 10.4551 7.48422 10.4551 7.51612 10.4551C7.54802 10.4551 7.58002 10.4551 7.61213 10.4551C7.64423 10.4551 7.67644 10.4551 7.70875 10.4551C7.74105 10.4551 7.77346 10.4551 7.80597 10.4551C7.83848 10.4551 7.87109 10.4551 7.90379 10.4551C7.9365 10.4551 7.96931 10.4551 8.00222 10.4551C8.03512 10.4551 8.06813 10.4551 8.10123 10.4551C8.13434 10.4551 8.16754 10.4551 8.20084 10.4551C8.23415 10.4551 8.26755 10.4551 8.30104 10.4551C8.33454 10.4551 8.36814 10.4551 8.40183 10.4551C8.43553 10.4551 8.46932 10.4551 8.50321 10.4551C8.5371 10.4551 8.57108 10.4551 8.60516 10.4551C8.63924 10.4551 8.67342 10.4551 8.7077 10.4551C8.74197 10.4551 8.77634 10.4551 8.81081 10.4551C8.84527 10.4551 8.87984 10.4551 8.91449 10.4551C8.94915 10.4551 8.9839 10.4551 9.01875 10.4551C9.0536 10.4551 9.08854 10.4551 9.12357 10.4551C9.15861 10.4551 9.19374 10.4551 9.22897 10.4551C9.26419 10.4551 9.29951 10.4551 9.33492 10.4551C9.37033 10.4551 9.40583 10.4551 9.44143 10.4551C9.47703 10.4551 9.51272 10.4551 9.5485 10.4551C9.58429 10.4551 9.62016 10.4551 9.65613 10.4551C9.6921 10.4551 9.72816 10.4551 9.76431 10.4551C9.80046 10.4551 9.8367 10.4551 9.87303 10.4551C9.90937 10.4551 9.94579 10.4551 9.98231 10.4551C10.0188 10.4551 10.0554 10.4551 10.0921 10.4551C10.1288 10.4551 10.1656 10.4551 10.2025 10.4551C10.2394 10.4551 10.2763 10.4551 10.3134 10.4551C10.3504 10.4551 10.3876 10.4551 10.4248 10.4551C10.462 10.4551 10.4994 10.4551 10.5368 10.4551C10.5742 10.4551 10.6117 10.4551 10.6493 10.4551C10.6869 10.4551 10.7245 10.4551 10.7623 10.4551C10.8001 10.4551 10.8379 10.4551 10.8758 10.4551C10.9138 10.4551 10.9518 10.4551 10.9899 10.4551C11.028 10.4551 11.0662 10.4551 11.1045 10.4551C11.1428 10.4551 11.1811 10.4551 11.2196 10.4551C11.2581 10.4551 11.2966 10.4551 11.3352 10.4551C11.3738 10.4551 11.4126 10.4551 11.4513 10.4551C11.4901 10.4551 11.529 10.4551 11.568 10.4551C11.6069 10.4551 11.646 10.4551 11.6851 10.4551C11.7243 10.4551 11.7635 10.4551 11.8028 10.4551C11.8421 10.4551 11.8815 10.4551 11.9209 10.4551C11.9604 10.4551 11.9999 10.4551 12.0396 10.4551C12.0792 10.4551 12.1189 10.4551 12.1587 10.4551C12.1985 10.4551 12.2384 10.4551 12.2783 10.4551C12.3183 10.4551 12.3583 10.4551 12.3984 10.4551C12.4386 10.4551 12.4788 10.4551 12.519 10.4551C12.5593 10.4551 12.5997 10.4551 12.6401 10.4551C12.6806 10.4551 12.7211 10.4551 12.7617 10.4551C12.8023 10.4551 12.843 10.4551 12.8838 10.4551C12.9245 10.4551 12.9654 10.4551 13.0063 10.4551C13.0472 10.4551 13.0882 10.4551 13.1293 10.4551C13.1703 10.4551 13.2115 10.4551 13.2527 10.4551C13.294 10.4551 13.3353 10.4551 13.3767 10.4551C13.4181 10.4551 13.4595 10.4551 13.5011 10.4551C13.5426 10.4551 13.5842 10.4551 13.6259 10.4551C13.6676 10.4551 13.7094 10.4551 13.7512 10.4551C13.7931 10.4551 13.835 10.4551 13.877 10.4551C13.919 10.4551 13.9611 10.4551 14.0032 10.4551C14.0454 10.4551 14.0876 10.4551 14.1299 10.4551C14.1722 10.4551 14.2146 10.4551 14.257 10.4551C14.2995 10.4551 14.342 10.4551 14.3846 10.4551C14.4272 10.4551 14.4699 10.4551 14.5126 10.4551C14.5554 10.4551 14.5982 10.4551 14.6411 10.4551C14.684 10.4551 14.7269 10.4551 14.77 10.4551C14.813 10.4551 14.8561 10.4551 14.8993 10.4551C14.9425 10.4551 14.9857 10.4551 15.029 10.4551C15.0724 10.4551 15.1158 10.4551 15.1592 10.4551C15.2027 10.4551 15.2462 10.4551 15.2898 10.4551C15.3335 10.4551 15.3771 10.4551 15.4209 10.4551C15.4646 10.4551 15.5084 10.4551 15.5523 10.4551C15.5962 10.4551 15.6402 10.4551 15.6842 10.4551C15.7282 10.4551 15.7723 10.4551 15.8165 10.4551C15.8607 10.4551 15.9049 10.4551 15.9492 10.4551C15.9935 10.4551 16.0379 10.4551 16.0823 10.4551C16.1267 10.4551 16.1712 10.4551 16.2158 10.4551C16.2604 10.4551 16.305 10.4551 16.3497 10.4551C16.3945 10.4551 16.4392 10.4551 16.4841 10.4551C16.5289 10.4551 16.5738 10.4551 16.6188 10.4551C16.6638 10.4551 16.7088 10.4551 16.7539 10.4551C16.799 10.4551 16.8442 10.4551 16.8894 10.4551C16.9347 10.4551 16.98 10.4551 17.0253 10.4551C17.0707 10.4551 17.1161 10.4551 17.1616 10.4551C17.2071 10.4551 17.2527 10.4551 17.2983 10.4551C17.3439 10.4551 17.3896 10.4551 17.4353 10.4551C17.4811 10.4551 17.5269 10.4551 17.5728 10.4551C17.6187 10.4551 17.6646 10.4551 17.7106 10.4551C17.7566 10.4551 17.8027 10.4551 17.8488 10.4551C17.8949 10.4551 17.9411 10.4551 17.9873 10.4551C18.0336 10.4551 18.0799 10.4551 18.1263 10.4551C18.1726 10.4551 18.2191 10.4551 18.2656 10.4551C18.312 10.4551 18.3586 10.4551 18.4052 10.4551C18.4518 10.4551 18.4985 10.4551 18.5452 10.4551C18.592 10.4551 18.6388 10.4551 18.6856 10.4551C18.7325 10.4551 18.7794 10.4551 18.8263 10.4551C18.8733 10.4551 18.9203 10.4551 18.9674 10.4551C19.0145 10.4551 19.0616 10.4551 19.1089 10.4551C19.1561 10.4551 19.2033 10.4551 19.2506 10.4551C19.2979 10.4551 19.3453 10.4551 19.3928 10.4551C19.4402 10.4551 19.4877 10.4551 19.5352 10.4551C19.5828 10.4551 19.6304 10.4551 19.678 10.4551C19.7257 10.4551 19.7734 10.4551 19.8212 10.4551C19.8689 10.4551 19.9167 10.4551 19.9646 10.4551C20.0125 10.4551 20.0604 10.4551 20.1084 10.4551C20.1564 10.4551 20.2045 10.4551 20.2526 10.4551C20.3007 10.4551 20.3488 10.4551 20.397 10.4551C20.4452 10.4551 20.4935 10.4551 20.5418 10.4551C20.5901 10.4551 20.6385 10.4551 20.6869 10.4551C20.7353 10.4551 20.7838 10.4551 20.8323 10.4551C20.8808 10.4551 20.9294 10.4551 20.978 10.4551C21.0267 10.4551 21.0753 10.4551 21.1241 10.4551C21.1728 10.4551 21.2216 10.4551 21.2704 10.4551C21.3192 10.4551 21.3681 10.4551 21.4171 10.4551C21.466 10.4551 21.515 10.4551 21.564 10.4551C21.6131 10.4551 21.6621 10.4551 21.7113 10.4551C21.7604 10.4551 21.8096 10.4551 21.8588 10.4551C21.9081 10.4551 21.9573 10.4551 22.0067 10.4551C22.056 10.4551 22.1054 10.4551 22.1548 10.4551C22.2042 10.4551 22.2537 10.4551 22.3032 10.4551C22.3528 10.4551 22.4023 10.4551 22.452 10.4551C22.5016 10.4551 22.5512 10.4551 22.601 10.4551C22.6507 10.4551 22.7004 10.4551 22.7502 10.4551C22.8 10.4551 22.8499 10.4551 22.8998 10.4551C22.9497 10.4551 22.9996 10.4551 23.0496 10.4551C23.0996 10.4551 23.1497 10.4551 23.1997 10.4551C23.2498 10.4551 23.2999 10.4551 23.3501 10.4551C23.4003 10.4551 23.4505 10.4551 23.5008 10.4551C23.551 10.4551 23.6013 10.4551 23.6517 10.4551C23.702 10.4551 23.7524 10.4551 23.8028 10.4551C23.8533 10.4551 23.9038 10.4551 23.9543 10.4551C24.0048 10.4551 24.0554 10.4551 24.106 10.4551C24.1566 10.4551 24.2072 10.4551 24.2579 10.4551C24.3086 10.4551 24.3593 10.4551 24.4101 10.4551C24.4609 10.4551 24.5117 10.4551 24.5625 10.4551C24.6134 10.4551 24.6643 10.4551 24.7152 10.4551C24.7662 10.4551 24.8171 10.4551 24.8682 10.4551C24.9192 10.4551 24.9702 10.4551 25.0213 10.4551C25.0724 10.4551 25.1236 10.4551 25.1747 10.4551C25.2259 10.4551 25.2771 10.4551 25.3284 10.4551C25.3796 10.4551 25.4309 10.4551 25.4822 10.4551C25.5336 10.4551 25.5849 10.4551 25.6363 10.4551C25.6878 10.4551 25.7392 10.4551 25.7907 10.4551C25.8422 10.4551 25.8937 10.4551 25.9452 10.4551C25.9968 10.4551 26.0484 10.4551 26.1 10.4551C26.1516 10.4551 26.2033 10.4551 26.255 10.4551C26.3067 10.4551 26.3584 10.4551 26.4102 10.4551C26.462 10.4551 26.5138 10.4551 26.5656 10.4551C26.6175 10.4551 26.6693 10.4551 26.7212 10.4551C26.7732 10.4551 26.8251 10.4551 26.8771 10.4551C26.9291 10.4551 26.9811 10.4551 27.0331 10.4551C27.0852 10.4551 27.1373 10.4551 27.1894 10.4551C27.2415 10.4551 27.2936 10.4551 27.3458 10.4551C27.398 10.4551 27.4502 10.4551 27.5025 10.4551C27.5547 10.4551 27.607 10.4551 27.6593 10.4551C27.7116 10.4551 27.7639 10.4551 27.8163 10.4551C27.8687 10.4551 27.9211 10.4551 27.9735 10.4551C28.026 10.4551 28.0784 10.4551 28.1309 10.4551C28.1834 10.4551 28.2359 10.4551 28.2885 10.4551C28.341 10.4551 28.3936 10.4551 28.4463 10.4551C28.4989 10.4551 28.5515 10.4551 28.6042 10.4551C28.6569 10.4551 28.7096 10.4551 28.7623 10.4551C28.815 10.4551 28.8678 10.4551 28.9206 10.4551C28.9734 10.4551 29.0262 10.4551 29.079 10.4551C29.1319 10.4551 29.1847 10.4551 29.2376 10.4551C29.2905 10.4551 29.3435 10.4551 29.3964 10.4551C29.4494 10.4551 29.5024 10.4551 29.5554 10.4551C29.6084 10.4551 29.6614 10.4551 29.7145 10.4551C29.7675 10.4551 29.8206 10.4551 29.8737 10.4551C29.9268 10.4551 29.98 10.4551 30.0331 10.4551C30.0863 10.4551 30.1395 10.4551 30.1927 10.4551C30.2459 10.4551 30.2991 10.4551 30.3524 10.4551C30.4057 10.4551 30.4589 10.4551 30.5122 10.4551C30.5655 10.4551 30.6189 10.4551 30.6722 10.4551C30.7256 10.4551 30.779 10.4551 30.8324 10.4551C30.8858 10.4551 30.9392 10.4551 30.9926 10.4551C31.0461 10.4551 31.0995 10.4551 31.153 10.4551C31.2065 10.4551 31.26 10.4551 31.3136 10.4551C31.3671 10.4551 31.4206 10.4551 31.4742 10.4551C31.5278 10.4551 31.5814 10.4551 31.635 10.4551C31.6886 10.4551 31.7422 10.4551 31.7959 10.4551C31.8496 10.4551 31.9032 10.4551 31.9569 10.4551C32.0106 10.4551 32.0643 10.4551 32.1181 10.4551C32.1718 10.4551 32.2256 10.4551 32.2793 10.4551C32.3331 10.4551 32.3869 10.4551 32.4407 10.4551C32.4945 10.4551 32.5483 10.4551 32.6022 10.4551C32.656 10.4551 32.7099 10.4551 32.7637 10.4551C32.8176 10.4551 32.8715 10.4551 32.9254 10.4551C32.9793 10.4551 33.0333 10.4551 33.0872 10.4551C33.1412 10.4551 33.1951 10.4551 33.2491 10.4551C33.3031 10.4551 33.3571 10.4551 33.4111 10.4551C33.4651 10.4551 33.5191 10.4551 33.5732 10.4551C33.6272 10.4551 33.6812 10.4551 33.7353 10.4551C33.7894 10.4551 33.8435 10.4551 33.8976 10.4551C33.9517 10.4551 34.0058 10.4551 34.0599 10.4551C34.114 10.4551 34.1682 10.4551 34.2223 10.4551C34.2765 10.4551 34.3306 10.4551 34.3848 10.4551C34.439 10.4551 34.4932 10.4551 34.5474 10.4551C34.6016 10.4551 34.6558 10.4551 34.71 10.4551C34.7642 10.4551 34.8185 10.4551 34.8727 10.4551C34.927 10.4551 34.9812 10.4551 35.0355 10.4551C35.0898 10.4551 35.1441 10.4551 35.1983 10.4551C35.2526 10.4551 35.3069 10.4551 35.3613 10.4551C35.4156 10.4551 35.4699 10.4551 35.5242 10.4551C35.5785 10.4551 35.6329 10.4551 35.6872 10.4551C35.7416 10.4551 35.7959 10.4551 35.8503 10.4551C35.9047 10.4551 35.9591 10.4551 36.0134 10.4551C36.0678 10.4551 36.1222 10.4551 36.1766 10.4551C36.231 10.4551 36.2854 10.4551 36.3398 10.4551C36.3943 10.4551 36.4487 10.4551 36.5031 10.4551C36.5575 10.4551 36.612 10.4551 36.6664 10.4551C36.7209 10.4551 36.7753 10.4551 36.8298 10.4551C36.8842 10.4551 36.9387 10.4551 36.9931 10.4551C37.0476 10.4551 37.1021 10.4551 37.1565 10.4551C37.211 10.4551 37.2655 10.4551 37.32 10.4551C37.3745 10.4551 37.429 10.4551 37.4835 10.4551C37.5379 10.4551 37.5924 10.4551 37.6469 10.4551C37.7014 10.4551 37.756 10.4551 37.8105 10.4551C37.865 10.4551 37.9195 10.4551 37.974 10.4551C38.0285 10.4551 38.083 10.4551 38.1375 10.4551C38.1921 10.4551 38.2466 10.4551 38.3011 10.4551C38.3556 10.4551 38.4101 10.4551 38.4647 10.4551C38.5192 10.4551 38.5737 10.4551 38.6282 10.4551C38.6828 10.4551 38.7373 10.4551 38.7918 10.4551C38.8464 10.4551 38.9009 10.4551 38.9554 10.4551C39.0099 10.4551 39.0645 10.4551 39.119 10.4551C39.1735 10.4551 39.228 10.4551 39.2826 10.4551C39.3371 10.4551 39.3916 10.4551 39.4461 10.4551C39.5007 10.4551 39.5552 10.4551 39.6097 10.4551C39.6642 10.4551 39.7187 10.4551 39.7733 10.4551C39.8278 10.4551 39.8823 10.4551 39.9368 10.4551C39.9913 10.4551 40.0458 10.4551 40.1003 10.4551C40.1548 10.4551 40.2093 10.4551 40.2638 10.4551C40.3183 10.4551 40.3728 10.4551 40.4273 10.4551C40.4818 10.4551 40.5363 10.4551 40.5908 10.4551C40.6452 10.4551 40.6997 10.4551 40.7542 10.4551C40.8087 10.4551 40.8631 10.4551 40.9176 10.4551C40.972 10.4551 41.0265 10.4551 41.0809 10.4551C41.1354 10.4551 41.1898 10.4551 41.2443 10.4551C41.2987 10.4551 41.3531 10.4551 41.4076 10.4551C41.462 10.4551 41.5164 10.4551 41.5708 10.4551C41.6252 10.4551 41.6796 10.4551 41.734 10.4551C41.7884 10.4551 41.8428 10.4551 41.8972 10.4551C41.9515 10.4551 42.0059 10.4551 42.0603 10.4551C42.1146 10.4551 42.169 10.4551 42.2233 10.4551C42.2776 10.4551 42.332 10.4551 42.3863 10.4551C42.4406 10.4551 42.4949 10.4551 42.5492 10.4551C42.6035 10.4551 42.6578 10.4551 42.7121 10.4551C42.7664 10.4551 42.8207 10.4551 42.8749 10.4551C42.9292 10.4551 42.9834 10.4551 43.0377 10.4551C43.0919 10.4551 43.1461 10.4551 43.2004 10.4551C43.2546 10.4551 43.3088 10.4551 43.363 10.4551C43.4172 10.4551 43.4713 10.4551 43.5255 10.4551C43.5797 10.4551 43.6338 10.4551 43.6879 10.4551C43.7421 10.4551 43.7962 10.4551 43.8503 10.4551C43.9044 10.4551 43.9585 10.4551 44.0126 10.4551C44.0667 10.4551 44.1208 10.4551 44.1748 10.4551C44.2289 10.4551 44.2829 10.4551 44.3369 10.4551C44.391 10.4551 44.445 10.4551 44.499 10.4551C44.553 10.4551 44.6069 10.4551 44.6609 10.4551C44.7149 10.4551 44.7688 10.4551 44.8227 10.4551C44.8767 10.4551 44.9306 10.4551 44.9845 10.4551C45.0384 10.4551 45.0922 10.4551 45.1461 10.4551C45.2 10.4551 45.2538 10.4551 45.3076 10.4551C45.3615 10.4551 45.4153 10.4551 45.4691 10.4551C45.5228 10.4551 45.5766 10.4551 45.6304 10.4551C45.6841 10.4551 45.7379 10.4551 45.7916 10.4551C45.8453 10.4551 45.899 10.4551 45.9527 10.4551C46.0063 10.4551 46.06 10.4551 46.1136 10.4551C46.1673 10.4551 46.2209 10.4551 46.2745 10.4551C46.3281 10.4551 46.3816 10.4551 46.4352 10.4551C46.4887 10.4551 46.5423 10.4551 46.5958 10.4551C46.6493 10.4551 46.7028 10.4551 46.7562 10.4551C46.8097 10.4551 46.8632 10.4551 46.9166 10.4551C46.97 10.4551 47.0234 10.4551 47.0768 10.4551C47.1302 10.4551 47.1835 10.4551 47.2368 10.4551C47.2902 10.4551 47.3435 10.4551 47.3968 10.4551C47.4501 10.4551 47.5033 10.4551 47.5565 10.4551C47.6098 10.4551 47.663 10.4551 47.7162 10.4551C47.7694 10.4551 47.8225 10.4551 47.8757 10.4551C47.9288 10.4551 47.9819 10.4551 48.035 10.4551C48.0881 10.4551 48.1411 10.4551 48.1942 10.4551C48.2472 10.4551 48.3002 10.4551 48.3532 10.4551C48.4062 10.4551 48.4591 10.4551 48.5121 10.4551C48.565 10.4551 48.6179 10.4551 48.6708 10.4551C48.7236 10.4551 48.7765 10.4551 48.8293 10.4551C48.8821 10.4551 48.9349 10.4551 48.9877 10.4551C49.0404 10.4551 49.0932 10.4551 49.1459 10.4551C49.1986 10.4551 49.2512 10.4551 49.3039 10.4551C49.3565 10.4551 49.4092 10.4551 49.4617 10.4551C49.5143 10.4551 49.5669 10.4551 49.6194 10.4551C49.6719 10.4551 49.7244 10.4551 49.7769 10.4551C49.8294 10.4551 49.8818 10.4551 49.9342 10.4551C49.9866 10.4551 50.039 10.4551 50.0913 10.4551C50.1437 10.4551 50.196 10.4551 50.2483 10.4551C50.3005 10.4551 50.3528 10.4551 50.405 10.4551C50.4572 10.4551 50.5094 10.4551 50.5615 10.4551C50.6137 10.4551 50.6658 10.4551 50.7179 10.4551C50.77 10.4551 50.822 10.4551 50.874 10.4551C50.926 10.4551 50.978 10.4551 51.03 10.4551C51.0819 10.4551 51.1338 10.4551 51.1857 10.4551C51.2376 10.4551 51.2894 10.4551 51.3412 10.4551C51.393 10.4551 51.4448 10.4551 51.4966 10.4551C51.5483 10.4551 51.6 10.4551 51.6517 10.4551C51.7033 10.4551 51.755 10.4551 51.8065 10.4551C51.8581 10.4551 51.9097 10.4551 51.9612 10.4551C52.0127 10.4551 52.0642 10.4551 52.1157 10.4551C52.1671 10.4551 52.2185 10.4551 52.2699 10.4551C52.3212 10.4551 52.3726 10.4551 52.4239 10.4551C52.4752 10.4551 52.5264 10.4551 52.5776 10.4551C52.6288 10.4551 52.68 10.4551 52.7311 10.4551C52.7823 10.4551 52.8334 10.4551 52.8844 10.4551C52.9355 10.4551 52.9865 10.4551 53.0375 10.4551C53.0885 10.4551 53.1394 10.4551 53.1903 10.4551C53.2412 10.4551 53.2921 10.4551 53.3429 10.4551C53.3937 10.4551 53.4445 10.4551 53.4952 10.4551C53.5459 10.4551 53.5966 10.4551 53.6473 10.4551C53.6979 10.4551 53.7485 10.4551 53.7991 10.4551C53.8496 10.4551 53.9002 10.4551 53.9506 10.4551C54.0011 10.4551 54.0516 10.4551 54.1019 10.4551C54.1523 10.4551 54.2027 10.4551 54.253 10.4551C54.3033 10.4551 54.3536 10.4551 54.4038 10.4551C54.454 10.4551 54.5042 10.4551 54.5543 10.4551C54.6044 10.4551 54.6545 10.4551 54.7045 10.4551C54.7546 10.4551 54.8046 10.4551 54.8545 10.4551C54.9045 10.4551 54.9544 10.4551 55.0042 10.4551C55.0541 10.4551 55.1039 10.4551 55.1536 10.4551C55.2034 10.4551 55.2531 10.4551 55.3028 10.4551C55.3524 10.4551 55.4021 10.4551 55.4516 10.4551C55.5012 10.4551 55.5507 10.4551 55.6002 10.4551C55.6497 10.4551 55.6991 10.4551 55.7485 10.4551C55.7979 10.4551 55.8472 10.4551 55.8965 10.4551C55.9458 10.4551 55.995 10.4551 56.0442 10.4551C56.0934 10.4551 56.1425 10.4551 56.1916 10.4551C56.2407 10.4551 56.2897 10.4551 56.3387 10.4551C56.3877 10.4551 56.4366 10.4551 56.4855 10.4551C56.5344 10.4551 56.5832 10.4551 56.632 10.4551C56.6808 10.4551 56.7295 10.4551 56.7782 10.4551C56.8269 10.4551 56.8755 10.4551 56.9241 10.4551C56.9727 10.4551 57.0212 10.4551 57.0697 10.4551C57.1182 10.4551 57.1666 10.4551 57.2149 10.4551C57.2633 10.4551 57.3116 10.4551 57.3599 10.4551C57.4081 10.4551 57.4564 10.4551 57.5045 10.4551C57.5527 10.4551 57.6008 10.4551 57.6488 10.4551C57.6968 10.4551 57.7448 10.4551 57.7928 10.4551C57.8407 10.4551 57.8886 10.4551 57.9364 10.4551C57.9842 10.4551 58.032 10.4551 58.0797 10.4551C58.1274 10.4551 58.1751 10.4551 58.2227 10.4551C58.2703 10.4551 58.3178 10.4551 58.3653 10.4551C58.4128 10.4551 58.4603 10.4551 58.5076 10.4551C58.555 10.4551 58.6023 10.4551 58.6496 10.4551C58.6968 10.4551 58.7441 10.4551 58.7912 10.4551C58.8383 10.4551 58.8854 10.4551 58.9325 10.4551C58.9795 10.4551 59.0265 10.4551 59.0734 10.4551C59.1203 10.4551 59.1671 10.4551 59.2139 10.4551C59.2607 10.4551 59.3075 10.4551 59.3541 10.4551C59.4008 10.4551 59.4474 10.4551 59.494 10.4551C59.5405 10.4551 59.587 10.4551 59.6334 10.4551C59.6799 10.4551 59.7263 10.4551 59.7726 10.4551C59.8189 10.4551 59.8651 10.4551 59.9113 10.4551C59.9575 10.4551 60.0036 10.4551 60.0497 10.4551C60.0958 10.4551 60.1418 10.4551 60.1877 10.4551C60.2336 10.4551 60.2795 10.4551 60.3253 10.4551C60.3711 10.4551 60.4169 10.4551 60.4626 10.4551C60.5083 10.4551 60.5539 10.4551 60.5994 10.4551C60.645 10.4551 60.6905 10.4551 60.7359 10.4551C60.7814 10.4551 60.8267 10.4551 60.872 10.4551C60.9173 10.4551 60.9626 10.4551 61.0077 10.4551C61.0529 10.4551 61.098 10.4551 61.1431 10.4551C61.1881 10.4551 61.2331 10.4551 61.278 10.4551C61.3229 10.4551 61.3677 10.4551 61.4125 10.4551C61.4573 10.4551 61.502 10.4551 61.5466 10.4551C61.5913 10.4551 61.6359 10.4551 61.6804 10.4551C61.7249 10.4551 61.7693 10.4551 61.8137 10.4551C61.8581 10.4551 61.9024 10.4551 61.9466 10.4551C61.9908 10.4551 62.035 10.4551 62.0791 10.4551C62.1232 10.4551 62.1672 10.4551 62.2112 10.4551C62.2551 10.4551 62.299 10.4551 62.3429 10.4551C62.3867 10.4551 62.4304 10.4551 62.4741 10.4551C62.5178 10.4551 62.5614 10.4551 62.6049 10.4551C62.6485 10.4551 62.6919 10.4551 62.7353 10.4551C62.7787 10.4551 62.8221 10.4551 62.8653 10.4551C62.9086 10.4551 62.9517 10.4551 62.9949 10.4551C63.038 10.4551 63.081 10.4551 63.124 10.4551C63.1669 10.4551 63.2098 10.4551 63.2526 10.4551C63.2955 10.4551 63.3382 10.4551 63.3809 10.4551C63.4236 10.4551 63.4662 10.4551 63.5087 10.4551C63.5512 10.4551 63.5937 10.4551 63.636 10.4551C63.6784 10.4551 63.7207 10.4551 63.7629 10.4551C63.8052 10.4551 63.8473 10.4551 63.8894 10.4551C63.9315 10.4551 63.9735 10.4551 64.0154 10.4551C64.0573 10.4551 64.0992 10.4551 64.141 10.4551C64.1827 10.4551 64.2244 10.4551 64.2661 10.4551C64.3077 10.4551 64.3492 10.4551 64.3907 10.4551C64.4322 10.4551 64.4735 10.4551 64.5149 10.4551C64.5562 10.4551 64.5974 10.4551 64.6386 10.4551C64.6797 10.4551 64.7208 10.4551 64.7618 10.4551C64.8028 10.4551 64.8437 10.4551 64.8846 10.4551C64.9254 10.4551 64.9662 10.4551 65.0069 10.4551C65.0475 10.4551 65.0881 10.4551 65.1287 10.4551C65.1692 10.4551 65.2096 10.4551 65.25 10.4551V9.20508V7.95508C65.2096 7.95508 65.1692 7.95508 65.1287 7.95508C65.0881 7.95508 65.0475 7.95508 65.0069 7.95508C64.9662 7.95508 64.9254 7.95508 64.8846 7.95508C64.8437 7.95508 64.8028 7.95508 64.7618 7.95508C64.7208 7.95508 64.6797 7.95508 64.6386 7.95508C64.5974 7.95508 64.5562 7.95508 64.5149 7.95508C64.4735 7.95508 64.4322 7.95508 64.3907 7.95508C64.3492 7.95508 64.3077 7.95508 64.2661 7.95508C64.2244 7.95508 64.1827 7.95508 64.141 7.95508C64.0992 7.95508 64.0573 7.95508 64.0154 7.95508C63.9735 7.95508 63.9315 7.95508 63.8894 7.95508C63.8473 7.95508 63.8052 7.95508 63.7629 7.95508C63.7207 7.95508 63.6784 7.95508 63.636 7.95508C63.5937 7.95508 63.5512 7.95508 63.5087 7.95508C63.4662 7.95508 63.4236 7.95508 63.3809 7.95508C63.3382 7.95508 63.2955 7.95508 63.2526 7.95508C63.2098 7.95508 63.1669 7.95508 63.124 7.95508C63.081 7.95508 63.038 7.95508 62.9949 7.95508C62.9517 7.95508 62.9086 7.95508 62.8653 7.95508C62.8221 7.95508 62.7787 7.95508 62.7353 7.95508C62.6919 7.95508 62.6485 7.95508 62.6049 7.95508C62.5614 7.95508 62.5178 7.95508 62.4741 7.95508C62.4304 7.95508 62.3867 7.95508 62.3429 7.95508C62.299 7.95508 62.2551 7.95508 62.2112 7.95508C62.1672 7.95508 62.1232 7.95508 62.0791 7.95508C62.035 7.95508 61.9908 7.95508 61.9466 7.95508C61.9024 7.95508 61.8581 7.95508 61.8137 7.95508C61.7693 7.95508 61.7249 7.95508 61.6804 7.95508C61.6359 7.95508 61.5913 7.95508 61.5466 7.95508C61.502 7.95508 61.4573 7.95508 61.4125 7.95508C61.3677 7.95508 61.3229 7.95508 61.278 7.95508C61.2331 7.95508 61.1881 7.95508 61.1431 7.95508C61.098 7.95508 61.0529 7.95508 61.0077 7.95508C60.9626 7.95508 60.9173 7.95508 60.872 7.95508C60.8267 7.95508 60.7814 7.95508 60.7359 7.95508C60.6905 7.95508 60.645 7.95508 60.5994 7.95508C60.5539 7.95508 60.5083 7.95508 60.4626 7.95508C60.4169 7.95508 60.3711 7.95508 60.3253 7.95508C60.2795 7.95508 60.2336 7.95508 60.1877 7.95508C60.1418 7.95508 60.0958 7.95508 60.0497 7.95508C60.0036 7.95508 59.9575 7.95508 59.9113 7.95508C59.8651 7.95508 59.8189 7.95508 59.7726 7.95508C59.7263 7.95508 59.6799 7.95508 59.6334 7.95508C59.587 7.95508 59.5405 7.95508 59.494 7.95508C59.4474 7.95508 59.4008 7.95508 59.3541 7.95508C59.3075 7.95508 59.2607 7.95508 59.2139 7.95508C59.1671 7.95508 59.1203 7.95508 59.0734 7.95508C59.0265 7.95508 58.9795 7.95508 58.9325 7.95508C58.8854 7.95508 58.8383 7.95508 58.7912 7.95508C58.7441 7.95508 58.6968 7.95508 58.6496 7.95508C58.6023 7.95508 58.555 7.95508 58.5076 7.95508C58.4603 7.95508 58.4128 7.95508 58.3653 7.95508C58.3178 7.95508 58.2703 7.95508 58.2227 7.95508C58.1751 7.95508 58.1274 7.95508 58.0797 7.95508C58.032 7.95508 57.9842 7.95508 57.9364 7.95508C57.8886 7.95508 57.8407 7.95508 57.7928 7.95508C57.7448 7.95508 57.6968 7.95508 57.6488 7.95508C57.6008 7.95508 57.5527 7.95508 57.5045 7.95508C57.4564 7.95508 57.4081 7.95508 57.3599 7.95508C57.3116 7.95508 57.2633 7.95508 57.2149 7.95508C57.1666 7.95508 57.1182 7.95508 57.0697 7.95508C57.0212 7.95508 56.9727 7.95508 56.9241 7.95508C56.8755 7.95508 56.8269 7.95508 56.7782 7.95508C56.7295 7.95508 56.6808 7.95508 56.632 7.95508C56.5832 7.95508 56.5344 7.95508 56.4855 7.95508C56.4366 7.95508 56.3877 7.95508 56.3387 7.95508C56.2897 7.95508 56.2407 7.95508 56.1916 7.95508C56.1425 7.95508 56.0934 7.95508 56.0442 7.95508C55.995 7.95508 55.9458 7.95508 55.8965 7.95508C55.8472 7.95508 55.7979 7.95508 55.7485 7.95508C55.6991 7.95508 55.6497 7.95508 55.6002 7.95508C55.5507 7.95508 55.5012 7.95508 55.4516 7.95508C55.4021 7.95508 55.3524 7.95508 55.3028 7.95508C55.2531 7.95508 55.2034 7.95508 55.1536 7.95508C55.1039 7.95508 55.0541 7.95508 55.0042 7.95508C54.9544 7.95508 54.9045 7.95508 54.8545 7.95508C54.8046 7.95508 54.7546 7.95508 54.7045 7.95508C54.6545 7.95508 54.6044 7.95508 54.5543 7.95508C54.5042 7.95508 54.454 7.95508 54.4038 7.95508C54.3536 7.95508 54.3033 7.95508 54.253 7.95508C54.2027 7.95508 54.1523 7.95508 54.1019 7.95508C54.0516 7.95508 54.0011 7.95508 53.9506 7.95508C53.9002 7.95508 53.8496 7.95508 53.7991 7.95508C53.7485 7.95508 53.6979 7.95508 53.6473 7.95508C53.5966 7.95508 53.5459 7.95508 53.4952 7.95508C53.4445 7.95508 53.3937 7.95508 53.3429 7.95508C53.2921 7.95508 53.2412 7.95508 53.1903 7.95508C53.1394 7.95508 53.0885 7.95508 53.0375 7.95508C52.9865 7.95508 52.9355 7.95508 52.8844 7.95508C52.8334 7.95508 52.7823 7.95508 52.7311 7.95508C52.68 7.95508 52.6288 7.95508 52.5776 7.95508C52.5264 7.95508 52.4752 7.95508 52.4239 7.95508C52.3726 7.95508 52.3212 7.95508 52.2699 7.95508C52.2185 7.95508 52.1671 7.95508 52.1157 7.95508C52.0642 7.95508 52.0127 7.95508 51.9612 7.95508C51.9097 7.95508 51.8581 7.95508 51.8065 7.95508C51.755 7.95508 51.7033 7.95508 51.6517 7.95508C51.6 7.95508 51.5483 7.95508 51.4966 7.95508C51.4448 7.95508 51.393 7.95508 51.3412 7.95508C51.2894 7.95508 51.2376 7.95508 51.1857 7.95508C51.1338 7.95508 51.0819 7.95508 51.03 7.95508C50.978 7.95508 50.926 7.95508 50.874 7.95508C50.822 7.95508 50.77 7.95508 50.7179 7.95508C50.6658 7.95508 50.6137 7.95508 50.5615 7.95508C50.5094 7.95508 50.4572 7.95508 50.405 7.95508C50.3528 7.95508 50.3005 7.95508 50.2483 7.95508C50.196 7.95508 50.1437 7.95508 50.0913 7.95508C50.039 7.95508 49.9866 7.95508 49.9342 7.95508C49.8818 7.95508 49.8294 7.95508 49.7769 7.95508C49.7244 7.95508 49.6719 7.95508 49.6194 7.95508C49.5669 7.95508 49.5143 7.95508 49.4617 7.95508C49.4092 7.95508 49.3565 7.95508 49.3039 7.95508C49.2512 7.95508 49.1986 7.95508 49.1459 7.95508C49.0932 7.95508 49.0404 7.95508 48.9877 7.95508C48.9349 7.95508 48.8821 7.95508 48.8293 7.95508C48.7765 7.95508 48.7236 7.95508 48.6708 7.95508C48.6179 7.95508 48.565 7.95508 48.5121 7.95508C48.4591 7.95508 48.4062 7.95508 48.3532 7.95508C48.3002 7.95508 48.2472 7.95508 48.1942 7.95508C48.1411 7.95508 48.0881 7.95508 48.035 7.95508C47.9819 7.95508 47.9288 7.95508 47.8757 7.95508C47.8225 7.95508 47.7694 7.95508 47.7162 7.95508C47.663 7.95508 47.6098 7.95508 47.5565 7.95508C47.5033 7.95508 47.4501 7.95508 47.3968 7.95508C47.3435 7.95508 47.2902 7.95508 47.2368 7.95508C47.1835 7.95508 47.1302 7.95508 47.0768 7.95508C47.0234 7.95508 46.97 7.95508 46.9166 7.95508C46.8632 7.95508 46.8097 7.95508 46.7562 7.95508C46.7028 7.95508 46.6493 7.95508 46.5958 7.95508C46.5423 7.95508 46.4887 7.95508 46.4352 7.95508C46.3816 7.95508 46.3281 7.95508 46.2745 7.95508C46.2209 7.95508 46.1673 7.95508 46.1136 7.95508C46.06 7.95508 46.0063 7.95508 45.9527 7.95508C45.899 7.95508 45.8453 7.95508 45.7916 7.95508C45.7379 7.95508 45.6841 7.95508 45.6304 7.95508C45.5766 7.95508 45.5228 7.95508 45.4691 7.95508C45.4153 7.95508 45.3615 7.95508 45.3076 7.95508C45.2538 7.95508 45.2 7.95508 45.1461 7.95508C45.0922 7.95508 45.0384 7.95508 44.9845 7.95508C44.9306 7.95508 44.8767 7.95508 44.8227 7.95508C44.7688 7.95508 44.7149 7.95508 44.6609 7.95508C44.6069 7.95508 44.553 7.95508 44.499 7.95508C44.445 7.95508 44.391 7.95508 44.3369 7.95508C44.2829 7.95508 44.2289 7.95508 44.1748 7.95508C44.1208 7.95508 44.0667 7.95508 44.0126 7.95508C43.9585 7.95508 43.9044 7.95508 43.8503 7.95508C43.7962 7.95508 43.7421 7.95508 43.6879 7.95508C43.6338 7.95508 43.5797 7.95508 43.5255 7.95508C43.4713 7.95508 43.4172 7.95508 43.363 7.95508C43.3088 7.95508 43.2546 7.95508 43.2004 7.95508C43.1461 7.95508 43.0919 7.95508 43.0377 7.95508C42.9834 7.95508 42.9292 7.95508 42.8749 7.95508C42.8207 7.95508 42.7664 7.95508 42.7121 7.95508C42.6578 7.95508 42.6035 7.95508 42.5492 7.95508C42.4949 7.95508 42.4406 7.95508 42.3863 7.95508C42.332 7.95508 42.2776 7.95508 42.2233 7.95508C42.169 7.95508 42.1146 7.95508 42.0603 7.95508C42.0059 7.95508 41.9515 7.95508 41.8972 7.95508C41.8428 7.95508 41.7884 7.95508 41.734 7.95508C41.6796 7.95508 41.6252 7.95508 41.5708 7.95508C41.5164 7.95508 41.462 7.95508 41.4076 7.95508C41.3531 7.95508 41.2987 7.95508 41.2443 7.95508C41.1898 7.95508 41.1354 7.95508 41.0809 7.95508C41.0265 7.95508 40.972 7.95508 40.9176 7.95508C40.8631 7.95508 40.8087 7.95508 40.7542 7.95508C40.6997 7.95508 40.6452 7.95508 40.5908 7.95508C40.5363 7.95508 40.4818 7.95508 40.4273 7.95508C40.3728 7.95508 40.3183 7.95508 40.2638 7.95508C40.2093 7.95508 40.1548 7.95508 40.1003 7.95508C40.0458 7.95508 39.9913 7.95508 39.9368 7.95508C39.8823 7.95508 39.8278 7.95508 39.7733 7.95508C39.7187 7.95508 39.6642 7.95508 39.6097 7.95508C39.5552 7.95508 39.5007 7.95508 39.4461 7.95508C39.3916 7.95508 39.3371 7.95508 39.2826 7.95508C39.228 7.95508 39.1735 7.95508 39.119 7.95508C39.0645 7.95508 39.0099 7.95508 38.9554 7.95508C38.9009 7.95508 38.8464 7.95508 38.7918 7.95508C38.7373 7.95508 38.6828 7.95508 38.6282 7.95508C38.5737 7.95508 38.5192 7.95508 38.4647 7.95508C38.4101 7.95508 38.3556 7.95508 38.3011 7.95508C38.2466 7.95508 38.1921 7.95508 38.1375 7.95508C38.083 7.95508 38.0285 7.95508 37.974 7.95508C37.9195 7.95508 37.865 7.95508 37.8105 7.95508C37.756 7.95508 37.7014 7.95508 37.6469 7.95508C37.5924 7.95508 37.5379 7.95508 37.4835 7.95508C37.429 7.95508 37.3745 7.95508 37.32 7.95508C37.2655 7.95508 37.211 7.95508 37.1565 7.95508C37.1021 7.95508 37.0476 7.95508 36.9931 7.95508C36.9387 7.95508 36.8842 7.95508 36.8298 7.95508C36.7753 7.95508 36.7209 7.95508 36.6664 7.95508C36.612 7.95508 36.5575 7.95508 36.5031 7.95508C36.4487 7.95508 36.3943 7.95508 36.3398 7.95508C36.2854 7.95508 36.231 7.95508 36.1766 7.95508C36.1222 7.95508 36.0678 7.95508 36.0134 7.95508C35.9591 7.95508 35.9047 7.95508 35.8503 7.95508C35.7959 7.95508 35.7416 7.95508 35.6872 7.95508C35.6329 7.95508 35.5785 7.95508 35.5242 7.95508C35.4699 7.95508 35.4156 7.95508 35.3613 7.95508C35.3069 7.95508 35.2526 7.95508 35.1983 7.95508C35.1441 7.95508 35.0898 7.95508 35.0355 7.95508C34.9812 7.95508 34.927 7.95508 34.8727 7.95508C34.8185 7.95508 34.7642 7.95508 34.71 7.95508C34.6558 7.95508 34.6016 7.95508 34.5474 7.95508C34.4932 7.95508 34.439 7.95508 34.3848 7.95508C34.3306 7.95508 34.2765 7.95508 34.2223 7.95508C34.1682 7.95508 34.114 7.95508 34.0599 7.95508C34.0058 7.95508 33.9517 7.95508 33.8976 7.95508C33.8435 7.95508 33.7894 7.95508 33.7353 7.95508C33.6812 7.95508 33.6272 7.95508 33.5732 7.95508C33.5191 7.95508 33.4651 7.95508 33.4111 7.95508C33.3571 7.95508 33.3031 7.95508 33.2491 7.95508C33.1951 7.95508 33.1412 7.95508 33.0872 7.95508C33.0333 7.95508 32.9793 7.95508 32.9254 7.95508C32.8715 7.95508 32.8176 7.95508 32.7637 7.95508C32.7099 7.95508 32.656 7.95508 32.6022 7.95508C32.5483 7.95508 32.4945 7.95508 32.4407 7.95508C32.3869 7.95508 32.3331 7.95508 32.2793 7.95508C32.2256 7.95508 32.1718 7.95508 32.1181 7.95508C32.0643 7.95508 32.0106 7.95508 31.9569 7.95508C31.9032 7.95508 31.8496 7.95508 31.7959 7.95508C31.7422 7.95508 31.6886 7.95508 31.635 7.95508C31.5814 7.95508 31.5278 7.95508 31.4742 7.95508C31.4206 7.95508 31.3671 7.95508 31.3136 7.95508C31.26 7.95508 31.2065 7.95508 31.153 7.95508C31.0995 7.95508 31.0461 7.95508 30.9926 7.95508C30.9392 7.95508 30.8858 7.95508 30.8324 7.95508C30.779 7.95508 30.7256 7.95508 30.6722 7.95508C30.6189 7.95508 30.5655 7.95508 30.5122 7.95508C30.4589 7.95508 30.4057 7.95508 30.3524 7.95508C30.2991 7.95508 30.2459 7.95508 30.1927 7.95508C30.1395 7.95508 30.0863 7.95508 30.0331 7.95508C29.98 7.95508 29.9268 7.95508 29.8737 7.95508C29.8206 7.95508 29.7675 7.95508 29.7145 7.95508C29.6614 7.95508 29.6084 7.95508 29.5554 7.95508C29.5024 7.95508 29.4494 7.95508 29.3964 7.95508C29.3435 7.95508 29.2905 7.95508 29.2376 7.95508C29.1847 7.95508 29.1319 7.95508 29.079 7.95508C29.0262 7.95508 28.9734 7.95508 28.9206 7.95508C28.8678 7.95508 28.815 7.95508 28.7623 7.95508C28.7096 7.95508 28.6569 7.95508 28.6042 7.95508C28.5515 7.95508 28.4989 7.95508 28.4463 7.95508C28.3936 7.95508 28.341 7.95508 28.2885 7.95508C28.2359 7.95508 28.1834 7.95508 28.1309 7.95508C28.0784 7.95508 28.026 7.95508 27.9735 7.95508C27.9211 7.95508 27.8687 7.95508 27.8163 7.95508C27.7639 7.95508 27.7116 7.95508 27.6593 7.95508C27.607 7.95508 27.5547 7.95508 27.5025 7.95508C27.4502 7.95508 27.398 7.95508 27.3458 7.95508C27.2936 7.95508 27.2415 7.95508 27.1894 7.95508C27.1373 7.95508 27.0852 7.95508 27.0331 7.95508C26.9811 7.95508 26.9291 7.95508 26.8771 7.95508C26.8251 7.95508 26.7732 7.95508 26.7212 7.95508C26.6693 7.95508 26.6175 7.95508 26.5656 7.95508C26.5138 7.95508 26.462 7.95508 26.4102 7.95508C26.3584 7.95508 26.3067 7.95508 26.255 7.95508C26.2033 7.95508 26.1516 7.95508 26.1 7.95508C26.0484 7.95508 25.9968 7.95508 25.9452 7.95508C25.8937 7.95508 25.8422 7.95508 25.7907 7.95508C25.7392 7.95508 25.6878 7.95508 25.6363 7.95508C25.5849 7.95508 25.5336 7.95508 25.4822 7.95508C25.4309 7.95508 25.3796 7.95508 25.3284 7.95508C25.2771 7.95508 25.2259 7.95508 25.1747 7.95508C25.1236 7.95508 25.0724 7.95508 25.0213 7.95508C24.9702 7.95508 24.9192 7.95508 24.8682 7.95508C24.8171 7.95508 24.7662 7.95508 24.7152 7.95508C24.6643 7.95508 24.6134 7.95508 24.5625 7.95508C24.5117 7.95508 24.4609 7.95508 24.4101 7.95508C24.3593 7.95508 24.3086 7.95508 24.2579 7.95508C24.2072 7.95508 24.1566 7.95508 24.106 7.95508C24.0554 7.95508 24.0048 7.95508 23.9543 7.95508C23.9038 7.95508 23.8533 7.95508 23.8028 7.95508C23.7524 7.95508 23.702 7.95508 23.6517 7.95508C23.6013 7.95508 23.551 7.95508 23.5008 7.95508C23.4505 7.95508 23.4003 7.95508 23.3501 7.95508C23.2999 7.95508 23.2498 7.95508 23.1997 7.95508C23.1497 7.95508 23.0996 7.95508 23.0496 7.95508C22.9996 7.95508 22.9497 7.95508 22.8998 7.95508C22.8499 7.95508 22.8 7.95508 22.7502 7.95508C22.7004 7.95508 22.6507 7.95508 22.601 7.95508C22.5512 7.95508 22.5016 7.95508 22.452 7.95508C22.4023 7.95508 22.3528 7.95508 22.3032 7.95508C22.2537 7.95508 22.2042 7.95508 22.1548 7.95508C22.1054 7.95508 22.056 7.95508 22.0067 7.95508C21.9573 7.95508 21.9081 7.95508 21.8588 7.95508C21.8096 7.95508 21.7604 7.95508 21.7113 7.95508C21.6621 7.95508 21.6131 7.95508 21.564 7.95508C21.515 7.95508 21.466 7.95508 21.4171 7.95508C21.3681 7.95508 21.3192 7.95508 21.2704 7.95508C21.2216 7.95508 21.1728 7.95508 21.1241 7.95508C21.0753 7.95508 21.0267 7.95508 20.978 7.95508C20.9294 7.95508 20.8808 7.95508 20.8323 7.95508C20.7838 7.95508 20.7353 7.95508 20.6869 7.95508C20.6385 7.95508 20.5901 7.95508 20.5418 7.95508C20.4935 7.95508 20.4452 7.95508 20.397 7.95508C20.3488 7.95508 20.3007 7.95508 20.2526 7.95508C20.2045 7.95508 20.1564 7.95508 20.1084 7.95508C20.0604 7.95508 20.0125 7.95508 19.9646 7.95508C19.9167 7.95508 19.8689 7.95508 19.8212 7.95508C19.7734 7.95508 19.7257 7.95508 19.678 7.95508C19.6304 7.95508 19.5828 7.95508 19.5352 7.95508C19.4877 7.95508 19.4402 7.95508 19.3928 7.95508C19.3453 7.95508 19.2979 7.95508 19.2506 7.95508C19.2033 7.95508 19.1561 7.95508 19.1089 7.95508C19.0616 7.95508 19.0145 7.95508 18.9674 7.95508C18.9203 7.95508 18.8733 7.95508 18.8263 7.95508C18.7794 7.95508 18.7325 7.95508 18.6856 7.95508C18.6388 7.95508 18.592 7.95508 18.5452 7.95508C18.4985 7.95508 18.4518 7.95508 18.4052 7.95508C18.3586 7.95508 18.312 7.95508 18.2656 7.95508C18.2191 7.95508 18.1726 7.95508 18.1263 7.95508C18.0799 7.95508 18.0336 7.95508 17.9873 7.95508C17.9411 7.95508 17.8949 7.95508 17.8488 7.95508C17.8027 7.95508 17.7566 7.95508 17.7106 7.95508C17.6646 7.95508 17.6187 7.95508 17.5728 7.95508C17.5269 7.95508 17.4811 7.95508 17.4353 7.95508C17.3896 7.95508 17.3439 7.95508 17.2983 7.95508C17.2527 7.95508 17.2071 7.95508 17.1616 7.95508C17.1161 7.95508 17.0707 7.95508 17.0253 7.95508C16.98 7.95508 16.9347 7.95508 16.8894 7.95508C16.8442 7.95508 16.799 7.95508 16.7539 7.95508C16.7088 7.95508 16.6638 7.95508 16.6188 7.95508C16.5738 7.95508 16.5289 7.95508 16.4841 7.95508C16.4392 7.95508 16.3945 7.95508 16.3497 7.95508C16.305 7.95508 16.2604 7.95508 16.2158 7.95508C16.1712 7.95508 16.1267 7.95508 16.0823 7.95508C16.0379 7.95508 15.9935 7.95508 15.9492 7.95508C15.9049 7.95508 15.8607 7.95508 15.8165 7.95508C15.7723 7.95508 15.7282 7.95508 15.6842 7.95508C15.6402 7.95508 15.5962 7.95508 15.5523 7.95508C15.5084 7.95508 15.4646 7.95508 15.4209 7.95508C15.3771 7.95508 15.3335 7.95508 15.2898 7.95508C15.2462 7.95508 15.2027 7.95508 15.1592 7.95508C15.1158 7.95508 15.0724 7.95508 15.029 7.95508C14.9857 7.95508 14.9425 7.95508 14.8993 7.95508C14.8561 7.95508 14.813 7.95508 14.77 7.95508C14.7269 7.95508 14.684 7.95508 14.6411 7.95508C14.5982 7.95508 14.5554 7.95508 14.5126 7.95508C14.4699 7.95508 14.4272 7.95508 14.3846 7.95508C14.342 7.95508 14.2995 7.95508 14.257 7.95508C14.2146 7.95508 14.1722 7.95508 14.1299 7.95508C14.0876 7.95508 14.0454 7.95508 14.0032 7.95508C13.9611 7.95508 13.919 7.95508 13.877 7.95508C13.835 7.95508 13.7931 7.95508 13.7512 7.95508C13.7094 7.95508 13.6676 7.95508 13.6259 7.95508C13.5842 7.95508 13.5426 7.95508 13.5011 7.95508C13.4595 7.95508 13.4181 7.95508 13.3767 7.95508C13.3353 7.95508 13.294 7.95508 13.2527 7.95508C13.2115 7.95508 13.1703 7.95508 13.1293 7.95508C13.0882 7.95508 13.0472 7.95508 13.0063 7.95508C12.9654 7.95508 12.9245 7.95508 12.8838 7.95508C12.843 7.95508 12.8023 7.95508 12.7617 7.95508C12.7211 7.95508 12.6806 7.95508 12.6401 7.95508C12.5997 7.95508 12.5593 7.95508 12.519 7.95508C12.4788 7.95508 12.4386 7.95508 12.3984 7.95508C12.3583 7.95508 12.3183 7.95508 12.2783 7.95508C12.2384 7.95508 12.1985 7.95508 12.1587 7.95508C12.1189 7.95508 12.0792 7.95508 12.0396 7.95508C11.9999 7.95508 11.9604 7.95508 11.9209 7.95508C11.8815 7.95508 11.8421 7.95508 11.8028 7.95508C11.7635 7.95508 11.7243 7.95508 11.6851 7.95508C11.646 7.95508 11.6069 7.95508 11.568 7.95508C11.529 7.95508 11.4901 7.95508 11.4513 7.95508C11.4126 7.95508 11.3738 7.95508 11.3352 7.95508C11.2966 7.95508 11.2581 7.95508 11.2196 7.95508C11.1811 7.95508 11.1428 7.95508 11.1045 7.95508C11.0662 7.95508 11.028 7.95508 10.9899 7.95508C10.9518 7.95508 10.9138 7.95508 10.8758 7.95508C10.8379 7.95508 10.8001 7.95508 10.7623 7.95508C10.7245 7.95508 10.6869 7.95508 10.6493 7.95508C10.6117 7.95508 10.5742 7.95508 10.5368 7.95508C10.4994 7.95508 10.462 7.95508 10.4248 7.95508C10.3876 7.95508 10.3504 7.95508 10.3134 7.95508C10.2763 7.95508 10.2394 7.95508 10.2025 7.95508C10.1656 7.95508 10.1288 7.95508 10.0921 7.95508C10.0554 7.95508 10.0188 7.95508 9.98231 7.95508C9.94579 7.95508 9.90937 7.95508 9.87303 7.95508C9.8367 7.95508 9.80046 7.95508 9.76431 7.95508C9.72816 7.95508 9.6921 7.95508 9.65613 7.95508C9.62016 7.95508 9.58429 7.95508 9.5485 7.95508C9.51272 7.95508 9.47703 7.95508 9.44143 7.95508C9.40583 7.95508 9.37033 7.95508 9.33492 7.95508C9.29951 7.95508 9.26419 7.95508 9.22897 7.95508C9.19374 7.95508 9.15861 7.95508 9.12357 7.95508C9.08854 7.95508 9.0536 7.95508 9.01875 7.95508C8.9839 7.95508 8.94915 7.95508 8.91449 7.95508C8.87984 7.95508 8.84527 7.95508 8.81081 7.95508C8.77634 7.95508 8.74197 7.95508 8.7077 7.95508C8.67342 7.95508 8.63924 7.95508 8.60516 7.95508C8.57108 7.95508 8.5371 7.95508 8.50321 7.95508C8.46932 7.95508 8.43553 7.95508 8.40183 7.95508C8.36814 7.95508 8.33454 7.95508 8.30104 7.95508C8.26755 7.95508 8.23415 7.95508 8.20084 7.95508C8.16754 7.95508 8.13434 7.95508 8.10123 7.95508C8.06813 7.95508 8.03512 7.95508 8.00222 7.95508C7.96931 7.95508 7.9365 7.95508 7.90379 7.95508C7.87109 7.95508 7.83848 7.95508 7.80597 7.95508C7.77346 7.95508 7.74105 7.95508 7.70875 7.95508C7.67644 7.95508 7.64423 7.95508 7.61213 7.95508C7.58002 7.95508 7.54802 7.95508 7.51612 7.95508C7.48422 7.95508 7.45241 7.95508 7.42072 7.95508C7.38902 7.95508 7.35742 7.95508 7.32593 7.95508C7.29443 7.95508 7.26304 7.95508 7.23175 7.95508C7.20046 7.95508 7.16928 7.95508 7.13819 7.95508C7.10711 7.95508 7.07613 7.95508 7.04526 7.95508C7.01438 7.95508 6.98361 7.95508 6.95294 7.95508C6.92227 7.95508 6.89171 7.95508 6.86125 7.95508C6.8308 7.95508 6.80044 7.95508 6.77019 7.95508C6.73995 7.95508 6.7098 7.95508 6.67977 7.95508C6.64973 7.95508 6.6198 7.95508 6.58997 7.95508C6.56015 7.95508 6.53043 7.95508 6.50081 7.95508C6.4712 7.95508 6.44169 7.95508 6.4123 7.95508C6.3829 7.95508 6.3536 7.95508 6.32442 7.95508C6.29524 7.95508 6.26616 7.95508 6.23719 7.95508C6.20822 7.95508 6.17936 7.95508 6.15061 7.95508C6.12185 7.95508 6.09321 7.95508 6.06467 7.95508C6.03614 7.95508 6.00771 7.95508 5.97939 7.95508C5.95108 7.95508 5.92287 7.95508 5.89477 7.95508C5.86667 7.95508 5.83868 7.95508 5.81081 7.95508C5.78293 7.95508 5.75516 7.95508 5.7275 7.95508C5.69985 7.95508 5.6723 7.95508 5.64486 7.95508C5.61743 7.95508 5.5901 7.95508 5.56289 7.95508C5.53568 7.95508 5.50858 7.95508 5.48159 7.95508C5.4546 7.95508 5.42772 7.95508 5.40096 7.95508C5.37419 7.95508 5.34754 7.95508 5.321 7.95508C5.29447 7.95508 5.26804 7.95508 5.24173 7.95508C5.21541 7.95508 5.18921 7.95508 5.16313 7.95508C5.13704 7.95508 5.11107 7.95508 5.08522 7.95508C5.05936 7.95508 5.03362 7.95508 5.00799 7.95508C4.98236 7.95508 4.95685 7.95508 4.93145 7.95508C4.90605 7.95508 4.88077 7.95508 4.8556 7.95508C4.83044 7.95508 4.80538 7.95508 4.78045 7.95508C4.75551 7.95508 4.7307 7.95508 4.70599 7.95508C4.68129 7.95508 4.65671 7.95508 4.63224 7.95508C4.60777 7.95508 4.58342 7.95508 4.55918 7.95508C4.53495 7.95508 4.51083 7.95508 4.48684 7.95508C4.46284 7.95508 4.43896 7.95508 4.41519 7.95508C4.39143 7.95508 4.36779 7.95508 4.34426 7.95508C4.32074 7.95508 4.29733 7.95508 4.27405 7.95508C4.25076 7.95508 4.22759 7.95508 4.20455 7.95508C4.1815 7.95508 4.15857 7.95508 4.13577 7.95508C4.11296 7.95508 4.09027 7.95508 4.0677 7.95508C4.04514 7.95508 4.02269 7.95508 4.00037 7.95508C3.97804 7.95508 3.95584 7.95508 3.93376 7.95508C3.91168 7.95508 3.88972 7.95508 3.86788 7.95508C3.84604 7.95508 3.82433 7.95508 3.80274 7.95508C3.78114 7.95508 3.75967 7.95508 3.73832 7.95508C3.71698 7.95508 3.69575 7.95508 3.67465 7.95508C3.65355 7.95508 3.63257 7.95508 3.61172 7.95508C3.59087 7.95508 3.57014 7.95508 3.54953 7.95508C3.52892 7.95508 3.50844 7.95508 3.48809 7.95508C3.46773 7.95508 3.4475 7.95508 3.42739 7.95508C3.40729 7.95508 3.38731 7.95508 3.36745 7.95508C3.3476 7.95508 3.32787 7.95508 3.30826 7.95508C3.28866 7.95508 3.26918 7.95508 3.24983 7.95508C3.23048 7.95508 3.21126 7.95508 3.19216 7.95508C3.17307 7.95508 3.1541 7.95508 3.13526 7.95508C3.11641 7.95508 3.0977 7.95508 3.07911 7.95508C3.06053 7.95508 3.04207 7.95508 3.02374 7.95508C3.00541 7.95508 2.98721 7.95508 2.96914 7.95508C2.95106 7.95508 2.93312 7.95508 2.91531 7.95508C2.89749 7.95508 2.87981 7.95508 2.86225 7.95508C2.8447 7.95508 2.82727 7.95508 2.80998 7.95508C2.79268 7.95508 2.77552 7.95508 2.75848 7.95508C2.74145 7.95508 2.72455 7.95508 2.70778 7.95508C2.691 7.95508 2.67436 7.95508 2.65785 7.95508C2.64135 7.95508 2.62497 7.95508 2.60872 7.95508C2.59248 7.95508 2.57637 7.95508 2.56039 7.95508C2.54441 7.95508 2.52856 7.95508 2.51284 7.95508C2.49713 7.95508 2.48155 7.95508 2.4661 7.95508C2.45065 7.95508 2.43534 7.95508 2.42015 7.95508C2.40497 7.95508 2.38993 7.95508 2.37501 7.95508C2.3601 7.95508 2.34532 7.95508 2.33068 7.95508C2.31604 7.95508 2.30153 7.95508 2.28716 7.95508C2.27278 7.95508 2.25855 7.95508 2.24444 7.95508C2.23034 7.95508 2.21638 7.95508 2.20255 7.95508C2.18872 7.95508 2.17502 7.95508 2.16147 7.95508C2.14791 7.95508 2.13449 7.95508 2.1212 7.95508C2.10792 7.95508 2.09478 7.95508 2.08177 7.95508C2.06876 7.95508 2.05589 7.95508 2.04315 7.95508C2.03042 7.95508 2.01783 7.95508 2.00537 7.95508C1.99291 7.95508 1.9806 7.95508 1.96842 7.95508C1.95624 7.95508 1.9442 7.95508 1.9323 7.95508C1.9204 7.95508 1.90864 7.95508 1.89702 7.95508C1.8854 7.95508 1.87391 7.95508 1.86257 7.95508C1.85123 7.95508 1.84003 7.95508 1.82897 7.95508C1.81791 7.95508 1.80699 7.95508 1.79622 7.95508C1.78544 7.95508 1.7748 7.95508 1.76431 7.95508C1.75381 7.95508 1.74346 7.95508 1.73325 7.95508C1.72304 7.95508 1.71297 7.95508 1.70304 7.95508C1.69312 7.95508 1.68333 7.95508 1.67369 7.95508C1.66405 7.95508 1.65455 7.95508 1.6452 7.95508C1.63584 7.95508 1.62663 7.95508 1.61757 7.95508C1.6085 7.95508 1.59958 7.95508 1.5908 7.95508C1.58202 7.95508 1.57339 7.95508 1.5649 7.95508C1.55641 7.95508 1.54807 7.95508 1.53987 7.95508C1.53167 7.95508 1.52362 7.95508 1.51571 7.95508C1.5078 7.95508 1.50004 7.95508 1.49243 7.95508C1.48481 7.95508 1.47734 7.95508 1.47002 7.95508C1.4627 7.95508 1.45552 7.95508 1.44849 7.95508C1.44146 7.95508 1.43458 7.95508 1.42785 7.95508C1.42112 7.95508 1.41453 7.95508 1.40809 7.95508C1.40165 7.95508 1.39536 7.95508 1.38922 7.95508C1.38308 7.95508 1.37709 7.95508 1.37125 7.95508C1.3654 7.95508 1.35971 7.95508 1.35416 7.95508C1.34862 7.95508 1.34322 7.95508 1.33797 7.95508C1.33273 7.95508 1.32763 7.95508 1.32269 7.95508C1.31774 7.95508 1.31294 7.95508 1.3083 7.95508C1.30366 7.95508 1.29916 7.95508 1.29482 7.95508C1.29048 7.95508 1.28629 7.95508 1.28225 7.95508C1.27821 7.95508 1.27432 7.95508 1.27058 7.95508C1.26685 7.95508 1.26326 7.95508 1.25983 7.95508C1.2564 7.95508 1.25313 7.95508 1.25 7.95508V9.20508Z" fill="#5FB98D"/>
</svg>
