<svg width="330" height="268" viewBox="0 0 330 268" fill="none" xmlns="http://www.w3.org/2000/svg">
<path d="M0 24C0 10.7452 10.7452 0 24 0H306C319.255 0 330 10.7452 330 24V48C330 61.2548 319.255 72 306 72H24C10.7452 72 0 61.2548 0 48V24Z" fill="#1C2233"/>
<circle cx="28" cy="36" r="4" fill="#9391F7"/>
<path d="M45.0898 43V29.9043H47.4102V40.9873H53.4834V43H45.0898ZM58.9766 43.2109C58.0508 43.2109 57.248 43.0029 56.5684 42.5869C55.8887 42.1709 55.3643 41.5996 54.9951 40.873C54.6318 40.1406 54.4502 39.3057 54.4502 38.3682C54.4502 37.4248 54.6377 36.5898 55.0127 35.8633C55.3936 35.1309 55.918 34.5566 56.5859 34.1406C57.2539 33.7188 58.0215 33.5078 58.8887 33.5078C59.7793 33.5078 60.5586 33.7129 61.2266 34.123C61.8945 34.5332 62.4131 35.1016 62.7822 35.8281C63.1514 36.5488 63.3359 37.3838 63.3359 38.333V38.9395H56.6211C56.6504 39.6953 56.873 40.3047 57.2891 40.7676C57.7051 41.2305 58.2852 41.4619 59.0293 41.4619C59.5859 41.4619 60.0459 41.3418 60.4092 41.1016C60.7725 40.8555 61.0186 40.5332 61.1475 40.1348H63.2217C63.1045 40.7383 62.8467 41.2715 62.4482 41.7344C62.0557 42.1973 61.5605 42.5605 60.9629 42.8242C60.3652 43.082 59.7031 43.2109 58.9766 43.2109ZM56.6387 37.4102H61.209C61.1387 36.748 60.8984 36.2266 60.4883 35.8457C60.084 35.459 59.5625 35.2656 58.9238 35.2656C58.2793 35.2656 57.7549 35.459 57.3506 35.8457C56.9521 36.2266 56.7148 36.748 56.6387 37.4102ZM67.0625 37.7529V43H64.8477V33.7188H67.0273V35.1426C67.6719 34.0703 68.6211 33.5342 69.875 33.5342C70.8477 33.5342 71.6416 33.8477 72.2568 34.4746C72.8779 35.1016 73.1885 36.0098 73.1885 37.1992V43H70.9648V37.5508C70.9648 36.8711 70.8008 36.3555 70.4727 36.0039C70.1445 35.6523 69.6846 35.4766 69.0928 35.4766C68.5127 35.4766 68.0293 35.6582 67.6426 36.0215C67.2559 36.3848 67.0625 36.9619 67.0625 37.7529ZM78.752 43.1846C77.9434 43.1846 77.2373 42.9824 76.6338 42.5781C76.0303 42.1738 75.5615 41.6113 75.2275 40.8906C74.8994 40.1641 74.7354 39.3174 74.7354 38.3506C74.7354 37.4014 74.9023 36.5664 75.2363 35.8457C75.5703 35.1191 76.0391 34.5537 76.6426 34.1494C77.2461 33.7393 77.9434 33.5342 78.7344 33.5342C79.3379 33.5342 79.8799 33.6572 80.3604 33.9033C80.8408 34.1494 81.2305 34.5273 81.5293 35.0371H81.5469V29.9043H83.7617V43H81.582V41.585H81.5645C81.2715 42.124 80.8789 42.5254 80.3867 42.7891C79.9004 43.0527 79.3555 43.1846 78.752 43.1846ZM79.2705 41.3301C79.9971 41.3301 80.5771 41.0605 81.0107 40.5215C81.4502 39.9766 81.6699 39.2529 81.6699 38.3506C81.6699 37.4482 81.4502 36.7275 81.0107 36.1885C80.5771 35.6436 79.9971 35.3711 79.2705 35.3711C78.585 35.3711 78.0312 35.6289 77.6094 36.1445C77.1875 36.6602 76.9766 37.3955 76.9766 38.3506C76.9766 39.3115 77.1875 40.0498 77.6094 40.5654C78.0312 41.0752 78.585 41.3301 79.2705 41.3301ZM85.7305 43V33.7188H87.9453V43H85.7305ZM86.8379 32.3389C86.457 32.3389 86.1406 32.2188 85.8887 31.9785C85.6367 31.7324 85.5107 31.4307 85.5107 31.0732C85.5107 30.7158 85.6367 30.417 85.8887 30.1768C86.1406 29.9365 86.457 29.8164 86.8379 29.8164C87.2129 29.8164 87.5264 29.9365 87.7783 30.1768C88.0303 30.417 88.1562 30.7158 88.1562 31.0732C88.1562 31.4307 88.0303 31.7324 87.7783 31.9785C87.5264 32.2188 87.2129 32.3389 86.8379 32.3389ZM92.1289 37.7529V43H89.9141V33.7188H92.0938V35.1426C92.7383 34.0703 93.6875 33.5342 94.9414 33.5342C95.9141 33.5342 96.708 33.8477 97.3232 34.4746C97.9443 35.1016 98.2549 36.0098 98.2549 37.1992V43H96.0312V37.5508C96.0312 36.8711 95.8672 36.3555 95.5391 36.0039C95.2109 35.6523 94.751 35.4766 94.1592 35.4766C93.5791 35.4766 93.0957 35.6582 92.709 36.0215C92.3223 36.3848 92.1289 36.9619 92.1289 37.7529ZM104.442 46.7969C103.218 46.7969 102.245 46.5332 101.524 46.0059C100.804 45.4785 100.382 44.7637 100.259 43.8613H102.43C102.535 44.2598 102.767 44.5615 103.124 44.7666C103.481 44.9775 103.921 45.083 104.442 45.083C105.134 45.083 105.67 44.8955 106.051 44.5205C106.438 44.1455 106.631 43.6035 106.631 42.8945V41.4795H106.622C106.323 42.0244 105.934 42.4258 105.453 42.6836C104.973 42.9355 104.428 43.0615 103.818 43.0615C103.01 43.0615 102.304 42.8594 101.7 42.4551C101.097 42.0508 100.628 41.4941 100.294 40.7852C99.9658 40.0703 99.8018 39.2471 99.8018 38.3154C99.8018 37.3779 99.9688 36.5488 100.303 35.8281C100.637 35.1074 101.105 34.5449 101.709 34.1406C102.312 33.7363 103.01 33.5342 103.801 33.5342C104.404 33.5342 104.949 33.6631 105.436 33.9209C105.928 34.1729 106.326 34.5654 106.631 35.0986H106.64V33.7188H108.828V42.7627C108.828 43.7178 108.638 44.4912 108.257 45.083C107.876 45.6807 107.354 46.1143 106.692 46.3838C106.03 46.6592 105.28 46.7969 104.442 46.7969ZM104.337 41.2334C105.063 41.2334 105.644 40.9668 106.077 40.4336C106.517 39.8945 106.736 39.1797 106.736 38.2891C106.736 37.3984 106.517 36.6865 106.077 36.1533C105.644 35.6143 105.063 35.3447 104.337 35.3447C103.651 35.3447 103.098 35.5996 102.676 36.1094C102.254 36.6191 102.043 37.3457 102.043 38.2891C102.043 39.2383 102.254 39.9678 102.676 40.4775C103.098 40.9814 103.651 41.2334 104.337 41.2334ZM114.98 43V29.9043H119.981C120.942 29.9043 121.771 30.0742 122.469 30.4141C123.172 30.7539 123.711 31.2373 124.086 31.8643C124.467 32.4912 124.657 33.2324 124.657 34.0879C124.657 34.9492 124.464 35.6934 124.077 36.3203C123.69 36.9473 123.143 37.4336 122.434 37.7793C121.73 38.1191 120.898 38.2891 119.938 38.2891H117.301V43H114.98ZM117.301 36.3027H119.85C120.629 36.3027 121.244 36.1064 121.695 35.7139C122.146 35.3154 122.372 34.7734 122.372 34.0879C122.372 33.4082 122.146 32.8721 121.695 32.4795C121.244 32.0869 120.629 31.8906 119.85 31.8906H117.301V36.3027ZM129.781 43.2109C128.867 43.2109 128.067 43.0088 127.382 42.6045C126.696 42.1943 126.16 41.626 125.773 40.8994C125.393 40.1729 125.202 39.3291 125.202 38.3682C125.202 37.4072 125.393 36.5635 125.773 35.8369C126.16 35.1045 126.696 34.5332 127.382 34.123C128.067 33.7129 128.867 33.5078 129.781 33.5078C130.689 33.5078 131.486 33.7129 132.172 34.123C132.863 34.5332 133.399 35.1045 133.78 35.8369C134.167 36.5635 134.36 37.4072 134.36 38.3682C134.36 39.3291 134.167 40.1729 133.78 40.8994C133.399 41.626 132.863 42.1943 132.172 42.6045C131.486 43.0088 130.689 43.2109 129.781 43.2109ZM129.781 41.3564C130.49 41.3564 131.056 41.0898 131.478 40.5566C131.899 40.0234 132.11 39.2939 132.11 38.3682C132.11 37.4424 131.899 36.71 131.478 36.1709C131.056 35.6318 130.49 35.3623 129.781 35.3623C129.066 35.3623 128.498 35.6318 128.076 36.1709C127.654 36.7041 127.443 37.4365 127.443 38.3682C127.443 39.2939 127.654 40.0234 128.076 40.5566C128.498 41.0898 129.066 41.3564 129.781 41.3564ZM140.047 43.2109C139.133 43.2109 138.333 43.0088 137.647 42.6045C136.962 42.1943 136.426 41.626 136.039 40.8994C135.658 40.1729 135.468 39.3291 135.468 38.3682C135.468 37.4072 135.658 36.5635 136.039 35.8369C136.426 35.1045 136.962 34.5332 137.647 34.123C138.333 33.7129 139.133 33.5078 140.047 33.5078C140.955 33.5078 141.752 33.7129 142.438 34.123C143.129 34.5332 143.665 35.1045 144.046 35.8369C144.433 36.5635 144.626 37.4072 144.626 38.3682C144.626 39.3291 144.433 40.1729 144.046 40.8994C143.665 41.626 143.129 42.1943 142.438 42.6045C141.752 43.0088 140.955 43.2109 140.047 43.2109ZM140.047 41.3564C140.756 41.3564 141.321 41.0898 141.743 40.5566C142.165 40.0234 142.376 39.2939 142.376 38.3682C142.376 37.4424 142.165 36.71 141.743 36.1709C141.321 35.6318 140.756 35.3623 140.047 35.3623C139.332 35.3623 138.764 35.6318 138.342 36.1709C137.92 36.7041 137.709 37.4365 137.709 38.3682C137.709 39.2939 137.92 40.0234 138.342 40.5566C138.764 41.0898 139.332 41.3564 140.047 41.3564ZM148.379 29.9043V43H146.164V29.9043H148.379ZM153.556 43L158.231 29.9043H161.149L165.808 43H163.25L162.204 39.8711H157.124L156.052 43H153.556ZM157.774 37.9639H161.571L160.956 36.1182C160.763 35.5146 160.563 34.8848 160.358 34.2285C160.159 33.5723 159.937 32.8311 159.69 32.0049C159.444 32.8311 159.219 33.5723 159.014 34.2285C158.809 34.8848 158.606 35.5146 158.407 36.1182L157.774 37.9639Z" fill="white"/>
<path d="M266.492 40.0645V38.2363L272.425 29.9043H275.281V38.1924H277.092V40.0645H275.281V43H273.075V40.0645H266.492ZM273.075 38.1924V32.2158H273.066L268.83 38.1748V38.1924H273.075ZM283.341 43.2109C282.286 43.2109 281.378 42.9355 280.616 42.3848C279.854 41.834 279.266 41.0547 278.85 40.0469C278.439 39.0391 278.234 37.8438 278.234 36.4609C278.234 35.0723 278.439 33.874 278.85 32.8662C279.266 31.8525 279.854 31.0703 280.616 30.5195C281.378 29.9688 282.286 29.6934 283.341 29.6934C284.396 29.6934 285.304 29.9688 286.065 30.5195C286.833 31.0703 287.422 31.8525 287.832 32.8662C288.242 33.874 288.447 35.0723 288.447 36.4609C288.447 37.8438 288.242 39.042 287.832 40.0557C287.422 41.0635 286.833 41.8428 286.065 42.3936C285.304 42.9385 284.396 43.2109 283.341 43.2109ZM283.341 41.2949C284.243 41.2949 284.952 40.8643 285.468 40.0029C285.989 39.1416 286.25 37.9609 286.25 36.4609C286.25 34.9492 285.989 33.7627 285.468 32.9014C284.952 32.04 284.243 31.6094 283.341 31.6094C282.438 31.6094 281.727 32.04 281.205 32.9014C280.689 33.7627 280.432 34.9492 280.432 36.4609C280.432 37.9609 280.689 39.1416 281.205 40.0029C281.727 40.8643 282.438 41.2949 283.341 41.2949ZM301.332 43.2109C300.752 43.2109 300.239 43.0791 299.794 42.8154C299.354 42.5459 299.012 42.1738 298.766 41.6992C298.52 41.2246 298.396 40.6797 298.396 40.0645V39.8008C298.396 39.1855 298.52 38.6406 298.766 38.166C299.012 37.6914 299.354 37.3193 299.794 37.0498C300.239 36.7803 300.752 36.6455 301.332 36.6455C301.912 36.6455 302.422 36.7803 302.861 37.0498C303.301 37.3193 303.644 37.6914 303.89 38.166C304.136 38.6406 304.259 39.1855 304.259 39.8008V40.0645C304.259 40.6797 304.136 41.2246 303.89 41.6992C303.644 42.1738 303.301 42.5459 302.861 42.8154C302.422 43.0791 301.912 43.2109 301.332 43.2109ZM293.149 36.2588C292.569 36.2588 292.057 36.124 291.611 35.8545C291.172 35.585 290.829 35.2158 290.583 34.7471C290.337 34.2725 290.214 33.7275 290.214 33.1123V32.8486C290.214 32.2275 290.337 31.6797 290.583 31.2051C290.829 30.7305 291.172 30.3613 291.611 30.0977C292.057 29.8281 292.569 29.6934 293.149 29.6934C293.729 29.6934 294.239 29.8281 294.679 30.0977C295.118 30.3613 295.461 30.7305 295.707 31.2051C295.953 31.6797 296.076 32.2275 296.076 32.8486V33.1123C296.076 33.7275 295.953 34.2725 295.707 34.7471C295.461 35.2158 295.118 35.585 294.679 35.8545C294.239 36.124 293.729 36.2588 293.149 36.2588ZM291.822 43L300.822 29.9043H302.615L293.615 43H291.822ZM293.149 34.7998C293.524 34.7998 293.823 34.6562 294.046 34.3691C294.274 34.0762 294.389 33.6572 294.389 33.1123V32.8486C294.389 32.2979 294.274 31.876 294.046 31.583C293.823 31.29 293.524 31.1436 293.149 31.1436C292.769 31.1436 292.464 31.29 292.235 31.583C292.013 31.876 291.901 32.2979 291.901 32.8486V33.1123C291.901 33.6572 292.013 34.0762 292.235 34.3691C292.464 34.6562 292.769 34.7998 293.149 34.7998ZM301.332 41.7607C301.707 41.7607 302.006 41.6143 302.229 41.3213C302.457 41.0283 302.571 40.6094 302.571 40.0645V39.8008C302.571 39.25 302.457 38.8281 302.229 38.5352C302.006 38.2422 301.707 38.0957 301.332 38.0957C300.951 38.0957 300.646 38.2422 300.418 38.5352C300.195 38.8281 300.084 39.25 300.084 39.8008V40.0645C300.084 40.6094 300.195 41.0283 300.418 41.3213C300.646 41.6143 300.951 41.7607 301.332 41.7607Z" fill="#5FB98D"/>
<path d="M0 104C0 90.7452 10.7452 80 24 80H306C319.255 80 330 90.7452 330 104V128C330 141.255 319.255 152 306 152H24C10.7452 152 0 141.255 0 128V104Z" fill="#1C2233"/>
<circle cx="28" cy="116" r="4" fill="#5FB98D"/>
<path d="M45.0898 123V109.904H47.4102V120.987H53.4834V123H45.0898ZM58.9766 123.211C58.0508 123.211 57.248 123.003 56.5684 122.587C55.8887 122.171 55.3643 121.6 54.9951 120.873C54.6318 120.141 54.4502 119.306 54.4502 118.368C54.4502 117.425 54.6377 116.59 55.0127 115.863C55.3936 115.131 55.918 114.557 56.5859 114.141C57.2539 113.719 58.0215 113.508 58.8887 113.508C59.7793 113.508 60.5586 113.713 61.2266 114.123C61.8945 114.533 62.4131 115.102 62.7822 115.828C63.1514 116.549 63.3359 117.384 63.3359 118.333V118.939H56.6211C56.6504 119.695 56.873 120.305 57.2891 120.768C57.7051 121.23 58.2852 121.462 59.0293 121.462C59.5859 121.462 60.0459 121.342 60.4092 121.102C60.7725 120.855 61.0186 120.533 61.1475 120.135H63.2217C63.1045 120.738 62.8467 121.271 62.4482 121.734C62.0557 122.197 61.5605 122.561 60.9629 122.824C60.3652 123.082 59.7031 123.211 58.9766 123.211ZM56.6387 117.41H61.209C61.1387 116.748 60.8984 116.227 60.4883 115.846C60.084 115.459 59.5625 115.266 58.9238 115.266C58.2793 115.266 57.7549 115.459 57.3506 115.846C56.9521 116.227 56.7148 116.748 56.6387 117.41ZM67.0625 117.753V123H64.8477V113.719H67.0273V115.143C67.6719 114.07 68.6211 113.534 69.875 113.534C70.8477 113.534 71.6416 113.848 72.2568 114.475C72.8779 115.102 73.1885 116.01 73.1885 117.199V123H70.9648V117.551C70.9648 116.871 70.8008 116.355 70.4727 116.004C70.1445 115.652 69.6846 115.477 69.0928 115.477C68.5127 115.477 68.0293 115.658 67.6426 116.021C67.2559 116.385 67.0625 116.962 67.0625 117.753ZM78.752 123.185C77.9434 123.185 77.2373 122.982 76.6338 122.578C76.0303 122.174 75.5615 121.611 75.2275 120.891C74.8994 120.164 74.7354 119.317 74.7354 118.351C74.7354 117.401 74.9023 116.566 75.2363 115.846C75.5703 115.119 76.0391 114.554 76.6426 114.149C77.2461 113.739 77.9434 113.534 78.7344 113.534C79.3379 113.534 79.8799 113.657 80.3604 113.903C80.8408 114.149 81.2305 114.527 81.5293 115.037H81.5469V109.904H83.7617V123H81.582V121.585H81.5645C81.2715 122.124 80.8789 122.525 80.3867 122.789C79.9004 123.053 79.3555 123.185 78.752 123.185ZM79.2705 121.33C79.9971 121.33 80.5771 121.061 81.0107 120.521C81.4502 119.977 81.6699 119.253 81.6699 118.351C81.6699 117.448 81.4502 116.728 81.0107 116.188C80.5771 115.644 79.9971 115.371 79.2705 115.371C78.585 115.371 78.0312 115.629 77.6094 116.145C77.1875 116.66 76.9766 117.396 76.9766 118.351C76.9766 119.312 77.1875 120.05 77.6094 120.565C78.0312 121.075 78.585 121.33 79.2705 121.33ZM85.7305 123V113.719H87.9453V123H85.7305ZM86.8379 112.339C86.457 112.339 86.1406 112.219 85.8887 111.979C85.6367 111.732 85.5107 111.431 85.5107 111.073C85.5107 110.716 85.6367 110.417 85.8887 110.177C86.1406 109.937 86.457 109.816 86.8379 109.816C87.2129 109.816 87.5264 109.937 87.7783 110.177C88.0303 110.417 88.1562 110.716 88.1562 111.073C88.1562 111.431 88.0303 111.732 87.7783 111.979C87.5264 112.219 87.2129 112.339 86.8379 112.339ZM92.1289 117.753V123H89.9141V113.719H92.0938V115.143C92.7383 114.07 93.6875 113.534 94.9414 113.534C95.9141 113.534 96.708 113.848 97.3232 114.475C97.9443 115.102 98.2549 116.01 98.2549 117.199V123H96.0312V117.551C96.0312 116.871 95.8672 116.355 95.5391 116.004C95.2109 115.652 94.751 115.477 94.1592 115.477C93.5791 115.477 93.0957 115.658 92.709 116.021C92.3223 116.385 92.1289 116.962 92.1289 117.753ZM104.442 126.797C103.218 126.797 102.245 126.533 101.524 126.006C100.804 125.479 100.382 124.764 100.259 123.861H102.43C102.535 124.26 102.767 124.562 103.124 124.767C103.481 124.978 103.921 125.083 104.442 125.083C105.134 125.083 105.67 124.896 106.051 124.521C106.438 124.146 106.631 123.604 106.631 122.895V121.479H106.622C106.323 122.024 105.934 122.426 105.453 122.684C104.973 122.936 104.428 123.062 103.818 123.062C103.01 123.062 102.304 122.859 101.7 122.455C101.097 122.051 100.628 121.494 100.294 120.785C99.9658 120.07 99.8018 119.247 99.8018 118.315C99.8018 117.378 99.9688 116.549 100.303 115.828C100.637 115.107 101.105 114.545 101.709 114.141C102.312 113.736 103.01 113.534 103.801 113.534C104.404 113.534 104.949 113.663 105.436 113.921C105.928 114.173 106.326 114.565 106.631 115.099H106.64V113.719H108.828V122.763C108.828 123.718 108.638 124.491 108.257 125.083C107.876 125.681 107.354 126.114 106.692 126.384C106.03 126.659 105.28 126.797 104.442 126.797ZM104.337 121.233C105.063 121.233 105.644 120.967 106.077 120.434C106.517 119.895 106.736 119.18 106.736 118.289C106.736 117.398 106.517 116.687 106.077 116.153C105.644 115.614 105.063 115.345 104.337 115.345C103.651 115.345 103.098 115.6 102.676 116.109C102.254 116.619 102.043 117.346 102.043 118.289C102.043 119.238 102.254 119.968 102.676 120.478C103.098 120.981 103.651 121.233 104.337 121.233ZM114.98 123V109.904H119.981C120.942 109.904 121.771 110.074 122.469 110.414C123.172 110.754 123.711 111.237 124.086 111.864C124.467 112.491 124.657 113.232 124.657 114.088C124.657 114.949 124.464 115.693 124.077 116.32C123.69 116.947 123.143 117.434 122.434 117.779C121.73 118.119 120.898 118.289 119.938 118.289H117.301V123H114.98ZM117.301 116.303H119.85C120.629 116.303 121.244 116.106 121.695 115.714C122.146 115.315 122.372 114.773 122.372 114.088C122.372 113.408 122.146 112.872 121.695 112.479C121.244 112.087 120.629 111.891 119.85 111.891H117.301V116.303ZM129.781 123.211C128.867 123.211 128.067 123.009 127.382 122.604C126.696 122.194 126.16 121.626 125.773 120.899C125.393 120.173 125.202 119.329 125.202 118.368C125.202 117.407 125.393 116.563 125.773 115.837C126.16 115.104 126.696 114.533 127.382 114.123C128.067 113.713 128.867 113.508 129.781 113.508C130.689 113.508 131.486 113.713 132.172 114.123C132.863 114.533 133.399 115.104 133.78 115.837C134.167 116.563 134.36 117.407 134.36 118.368C134.36 119.329 134.167 120.173 133.78 120.899C133.399 121.626 132.863 122.194 132.172 122.604C131.486 123.009 130.689 123.211 129.781 123.211ZM129.781 121.356C130.49 121.356 131.056 121.09 131.478 120.557C131.899 120.023 132.11 119.294 132.11 118.368C132.11 117.442 131.899 116.71 131.478 116.171C131.056 115.632 130.49 115.362 129.781 115.362C129.066 115.362 128.498 115.632 128.076 116.171C127.654 116.704 127.443 117.437 127.443 118.368C127.443 119.294 127.654 120.023 128.076 120.557C128.498 121.09 129.066 121.356 129.781 121.356ZM140.047 123.211C139.133 123.211 138.333 123.009 137.647 122.604C136.962 122.194 136.426 121.626 136.039 120.899C135.658 120.173 135.468 119.329 135.468 118.368C135.468 117.407 135.658 116.563 136.039 115.837C136.426 115.104 136.962 114.533 137.647 114.123C138.333 113.713 139.133 113.508 140.047 113.508C140.955 113.508 141.752 113.713 142.438 114.123C143.129 114.533 143.665 115.104 144.046 115.837C144.433 116.563 144.626 117.407 144.626 118.368C144.626 119.329 144.433 120.173 144.046 120.899C143.665 121.626 143.129 122.194 142.438 122.604C141.752 123.009 140.955 123.211 140.047 123.211ZM140.047 121.356C140.756 121.356 141.321 121.09 141.743 120.557C142.165 120.023 142.376 119.294 142.376 118.368C142.376 117.442 142.165 116.71 141.743 116.171C141.321 115.632 140.756 115.362 140.047 115.362C139.332 115.362 138.764 115.632 138.342 116.171C137.92 116.704 137.709 117.437 137.709 118.368C137.709 119.294 137.92 120.023 138.342 120.557C138.764 121.09 139.332 121.356 140.047 121.356ZM148.379 109.904V123H146.164V109.904H148.379ZM154.531 123V109.904H159.594C160.977 109.904 162.046 110.215 162.802 110.836C163.563 111.457 163.944 112.28 163.944 113.306C163.944 114.062 163.739 114.68 163.329 115.16C162.925 115.641 162.371 115.978 161.668 116.171V116.188C162.447 116.282 163.104 116.596 163.637 117.129C164.176 117.656 164.445 118.386 164.445 119.317C164.445 120.419 164.053 121.31 163.268 121.989C162.488 122.663 161.34 123 159.822 123H154.531ZM156.816 121.11H159.576C160.367 121.11 160.979 120.949 161.413 120.627C161.847 120.305 162.063 119.842 162.063 119.238C162.063 118.629 161.85 118.148 161.422 117.797C161 117.445 160.402 117.27 159.629 117.27H156.816V121.11ZM156.816 115.45H159.488C160.156 115.45 160.678 115.286 161.053 114.958C161.434 114.624 161.624 114.179 161.624 113.622C161.624 113.06 161.434 112.614 161.053 112.286C160.678 111.958 160.156 111.794 159.488 111.794H156.816V115.45Z" fill="white"/>
<path d="M272.555 123.211C271.529 123.211 270.653 123.015 269.927 122.622C269.206 122.224 268.652 121.688 268.266 121.014C267.885 120.34 267.694 119.584 267.694 118.746H269.953C269.953 119.566 270.179 120.205 270.63 120.662C271.087 121.113 271.72 121.339 272.528 121.339C273.29 121.339 273.908 121.146 274.383 120.759C274.863 120.372 275.104 119.856 275.104 119.212C275.104 118.608 274.846 118.122 274.33 117.753C273.82 117.384 273.146 117.199 272.309 117.199H271.184V115.415H272.309C273.064 115.415 273.668 115.248 274.119 114.914C274.57 114.58 274.796 114.132 274.796 113.569C274.796 112.948 274.585 112.453 274.163 112.084C273.741 111.715 273.188 111.53 272.502 111.53C271.793 111.53 271.228 111.735 270.806 112.146C270.384 112.55 270.173 113.101 270.173 113.798H267.967C267.967 113.001 268.154 112.295 268.529 111.68C268.91 111.059 269.44 110.572 270.12 110.221C270.8 109.869 271.597 109.693 272.511 109.693C273.372 109.693 274.14 109.852 274.813 110.168C275.487 110.479 276.018 110.909 276.404 111.46C276.797 112.011 276.993 112.644 276.993 113.358C276.993 114.067 276.768 114.674 276.316 115.178C275.865 115.682 275.273 116.021 274.541 116.197V116.224C275.432 116.347 276.129 116.698 276.633 117.278C277.143 117.853 277.397 118.529 277.397 119.309C277.397 120.064 277.189 120.738 276.773 121.33C276.357 121.916 275.786 122.376 275.06 122.71C274.333 123.044 273.498 123.211 272.555 123.211ZM283.374 123.185C282.472 123.185 281.669 123.012 280.966 122.666C280.269 122.314 279.712 121.828 279.296 121.207C278.886 120.586 278.66 119.868 278.619 119.054H280.843C280.89 119.71 281.147 120.252 281.616 120.68C282.091 121.107 282.68 121.321 283.383 121.321C284.121 121.321 284.716 121.075 285.167 120.583C285.624 120.085 285.853 119.449 285.853 118.676C285.853 117.902 285.63 117.267 285.185 116.769C284.745 116.271 284.168 116.021 283.453 116.021C282.832 116.021 282.299 116.15 281.854 116.408C281.414 116.66 281.109 117.023 280.939 117.498H278.795L279.208 109.904H287.312V111.829H281.273L281.01 115.31H281.027C281.748 114.554 282.683 114.176 283.831 114.176C284.628 114.176 285.346 114.369 285.984 114.756C286.623 115.143 287.13 115.673 287.505 116.347C287.88 117.015 288.067 117.773 288.067 118.623C288.067 119.514 287.871 120.305 287.479 120.996C287.092 121.682 286.547 122.218 285.844 122.604C285.141 122.991 284.317 123.185 283.374 123.185ZM300.961 123.211C300.381 123.211 299.868 123.079 299.423 122.815C298.983 122.546 298.641 122.174 298.395 121.699C298.148 121.225 298.025 120.68 298.025 120.064V119.801C298.025 119.186 298.148 118.641 298.395 118.166C298.641 117.691 298.983 117.319 299.423 117.05C299.868 116.78 300.381 116.646 300.961 116.646C301.541 116.646 302.051 116.78 302.49 117.05C302.93 117.319 303.272 117.691 303.519 118.166C303.765 118.641 303.888 119.186 303.888 119.801V120.064C303.888 120.68 303.765 121.225 303.519 121.699C303.272 122.174 302.93 122.546 302.49 122.815C302.051 123.079 301.541 123.211 300.961 123.211ZM292.778 116.259C292.198 116.259 291.686 116.124 291.24 115.854C290.801 115.585 290.458 115.216 290.212 114.747C289.966 114.272 289.843 113.728 289.843 113.112V112.849C289.843 112.228 289.966 111.68 290.212 111.205C290.458 110.73 290.801 110.361 291.24 110.098C291.686 109.828 292.198 109.693 292.778 109.693C293.358 109.693 293.868 109.828 294.308 110.098C294.747 110.361 295.09 110.73 295.336 111.205C295.582 111.68 295.705 112.228 295.705 112.849V113.112C295.705 113.728 295.582 114.272 295.336 114.747C295.09 115.216 294.747 115.585 294.308 115.854C293.868 116.124 293.358 116.259 292.778 116.259ZM291.451 123L300.451 109.904H302.244L293.244 123H291.451ZM292.778 114.8C293.153 114.8 293.452 114.656 293.675 114.369C293.903 114.076 294.018 113.657 294.018 113.112V112.849C294.018 112.298 293.903 111.876 293.675 111.583C293.452 111.29 293.153 111.144 292.778 111.144C292.397 111.144 292.093 111.29 291.864 111.583C291.642 111.876 291.53 112.298 291.53 112.849V113.112C291.53 113.657 291.642 114.076 291.864 114.369C292.093 114.656 292.397 114.8 292.778 114.8ZM300.961 121.761C301.336 121.761 301.635 121.614 301.857 121.321C302.086 121.028 302.2 120.609 302.2 120.064V119.801C302.2 119.25 302.086 118.828 301.857 118.535C301.635 118.242 301.336 118.096 300.961 118.096C300.58 118.096 300.275 118.242 300.047 118.535C299.824 118.828 299.713 119.25 299.713 119.801V120.064C299.713 120.609 299.824 121.028 300.047 121.321C300.275 121.614 300.58 121.761 300.961 121.761Z" fill="#5FB98D"/>
<path d="M0 184C0 170.745 10.7452 160 24 160H306C319.255 160 330 170.745 330 184V208C330 221.255 319.255 232 306 232H24C10.7452 232 0 221.255 0 208V184Z" fill="#1C2233"/>
<circle cx="28" cy="196" r="4" fill="#2470FF"/>
<path d="M45.0898 203V189.904H47.4102V200.987H53.4834V203H45.0898ZM58.9766 203.211C58.0508 203.211 57.248 203.003 56.5684 202.587C55.8887 202.171 55.3643 201.6 54.9951 200.873C54.6318 200.141 54.4502 199.306 54.4502 198.368C54.4502 197.425 54.6377 196.59 55.0127 195.863C55.3936 195.131 55.918 194.557 56.5859 194.141C57.2539 193.719 58.0215 193.508 58.8887 193.508C59.7793 193.508 60.5586 193.713 61.2266 194.123C61.8945 194.533 62.4131 195.102 62.7822 195.828C63.1514 196.549 63.3359 197.384 63.3359 198.333V198.939H56.6211C56.6504 199.695 56.873 200.305 57.2891 200.768C57.7051 201.23 58.2852 201.462 59.0293 201.462C59.5859 201.462 60.0459 201.342 60.4092 201.102C60.7725 200.855 61.0186 200.533 61.1475 200.135H63.2217C63.1045 200.738 62.8467 201.271 62.4482 201.734C62.0557 202.197 61.5605 202.561 60.9629 202.824C60.3652 203.082 59.7031 203.211 58.9766 203.211ZM56.6387 197.41H61.209C61.1387 196.748 60.8984 196.227 60.4883 195.846C60.084 195.459 59.5625 195.266 58.9238 195.266C58.2793 195.266 57.7549 195.459 57.3506 195.846C56.9521 196.227 56.7148 196.748 56.6387 197.41ZM67.0625 197.753V203H64.8477V193.719H67.0273V195.143C67.6719 194.07 68.6211 193.534 69.875 193.534C70.8477 193.534 71.6416 193.848 72.2568 194.475C72.8779 195.102 73.1885 196.01 73.1885 197.199V203H70.9648V197.551C70.9648 196.871 70.8008 196.355 70.4727 196.004C70.1445 195.652 69.6846 195.477 69.0928 195.477C68.5127 195.477 68.0293 195.658 67.6426 196.021C67.2559 196.385 67.0625 196.962 67.0625 197.753ZM78.752 203.185C77.9434 203.185 77.2373 202.982 76.6338 202.578C76.0303 202.174 75.5615 201.611 75.2275 200.891C74.8994 200.164 74.7354 199.317 74.7354 198.351C74.7354 197.401 74.9023 196.566 75.2363 195.846C75.5703 195.119 76.0391 194.554 76.6426 194.149C77.2461 193.739 77.9434 193.534 78.7344 193.534C79.3379 193.534 79.8799 193.657 80.3604 193.903C80.8408 194.149 81.2305 194.527 81.5293 195.037H81.5469V189.904H83.7617V203H81.582V201.585H81.5645C81.2715 202.124 80.8789 202.525 80.3867 202.789C79.9004 203.053 79.3555 203.185 78.752 203.185ZM79.2705 201.33C79.9971 201.33 80.5771 201.061 81.0107 200.521C81.4502 199.977 81.6699 199.253 81.6699 198.351C81.6699 197.448 81.4502 196.728 81.0107 196.188C80.5771 195.644 79.9971 195.371 79.2705 195.371C78.585 195.371 78.0312 195.629 77.6094 196.145C77.1875 196.66 76.9766 197.396 76.9766 198.351C76.9766 199.312 77.1875 200.05 77.6094 200.565C78.0312 201.075 78.585 201.33 79.2705 201.33ZM85.7305 203V193.719H87.9453V203H85.7305ZM86.8379 192.339C86.457 192.339 86.1406 192.219 85.8887 191.979C85.6367 191.732 85.5107 191.431 85.5107 191.073C85.5107 190.716 85.6367 190.417 85.8887 190.177C86.1406 189.937 86.457 189.816 86.8379 189.816C87.2129 189.816 87.5264 189.937 87.7783 190.177C88.0303 190.417 88.1562 190.716 88.1562 191.073C88.1562 191.431 88.0303 191.732 87.7783 191.979C87.5264 192.219 87.2129 192.339 86.8379 192.339ZM92.1289 197.753V203H89.9141V193.719H92.0938V195.143C92.7383 194.07 93.6875 193.534 94.9414 193.534C95.9141 193.534 96.708 193.848 97.3232 194.475C97.9443 195.102 98.2549 196.01 98.2549 197.199V203H96.0312V197.551C96.0312 196.871 95.8672 196.355 95.5391 196.004C95.2109 195.652 94.751 195.477 94.1592 195.477C93.5791 195.477 93.0957 195.658 92.709 196.021C92.3223 196.385 92.1289 196.962 92.1289 197.753ZM104.442 206.797C103.218 206.797 102.245 206.533 101.524 206.006C100.804 205.479 100.382 204.764 100.259 203.861H102.43C102.535 204.26 102.767 204.562 103.124 204.767C103.481 204.978 103.921 205.083 104.442 205.083C105.134 205.083 105.67 204.896 106.051 204.521C106.438 204.146 106.631 203.604 106.631 202.895V201.479H106.622C106.323 202.024 105.934 202.426 105.453 202.684C104.973 202.936 104.428 203.062 103.818 203.062C103.01 203.062 102.304 202.859 101.7 202.455C101.097 202.051 100.628 201.494 100.294 200.785C99.9658 200.07 99.8018 199.247 99.8018 198.315C99.8018 197.378 99.9688 196.549 100.303 195.828C100.637 195.107 101.105 194.545 101.709 194.141C102.312 193.736 103.01 193.534 103.801 193.534C104.404 193.534 104.949 193.663 105.436 193.921C105.928 194.173 106.326 194.565 106.631 195.099H106.64V193.719H108.828V202.763C108.828 203.718 108.638 204.491 108.257 205.083C107.876 205.681 107.354 206.114 106.692 206.384C106.03 206.659 105.28 206.797 104.442 206.797ZM104.337 201.233C105.063 201.233 105.644 200.967 106.077 200.434C106.517 199.895 106.736 199.18 106.736 198.289C106.736 197.398 106.517 196.687 106.077 196.153C105.644 195.614 105.063 195.345 104.337 195.345C103.651 195.345 103.098 195.6 102.676 196.109C102.254 196.619 102.043 197.346 102.043 198.289C102.043 199.238 102.254 199.968 102.676 200.478C103.098 200.981 103.651 201.233 104.337 201.233ZM114.98 203V189.904H119.981C120.942 189.904 121.771 190.074 122.469 190.414C123.172 190.754 123.711 191.237 124.086 191.864C124.467 192.491 124.657 193.232 124.657 194.088C124.657 194.949 124.464 195.693 124.077 196.32C123.69 196.947 123.143 197.434 122.434 197.779C121.73 198.119 120.898 198.289 119.938 198.289H117.301V203H114.98ZM117.301 196.303H119.85C120.629 196.303 121.244 196.106 121.695 195.714C122.146 195.315 122.372 194.773 122.372 194.088C122.372 193.408 122.146 192.872 121.695 192.479C121.244 192.087 120.629 191.891 119.85 191.891H117.301V196.303ZM129.781 203.211C128.867 203.211 128.067 203.009 127.382 202.604C126.696 202.194 126.16 201.626 125.773 200.899C125.393 200.173 125.202 199.329 125.202 198.368C125.202 197.407 125.393 196.563 125.773 195.837C126.16 195.104 126.696 194.533 127.382 194.123C128.067 193.713 128.867 193.508 129.781 193.508C130.689 193.508 131.486 193.713 132.172 194.123C132.863 194.533 133.399 195.104 133.78 195.837C134.167 196.563 134.36 197.407 134.36 198.368C134.36 199.329 134.167 200.173 133.78 200.899C133.399 201.626 132.863 202.194 132.172 202.604C131.486 203.009 130.689 203.211 129.781 203.211ZM129.781 201.356C130.49 201.356 131.056 201.09 131.478 200.557C131.899 200.023 132.11 199.294 132.11 198.368C132.11 197.442 131.899 196.71 131.478 196.171C131.056 195.632 130.49 195.362 129.781 195.362C129.066 195.362 128.498 195.632 128.076 196.171C127.654 196.704 127.443 197.437 127.443 198.368C127.443 199.294 127.654 200.023 128.076 200.557C128.498 201.09 129.066 201.356 129.781 201.356ZM140.047 203.211C139.133 203.211 138.333 203.009 137.647 202.604C136.962 202.194 136.426 201.626 136.039 200.899C135.658 200.173 135.468 199.329 135.468 198.368C135.468 197.407 135.658 196.563 136.039 195.837C136.426 195.104 136.962 194.533 137.647 194.123C138.333 193.713 139.133 193.508 140.047 193.508C140.955 193.508 141.752 193.713 142.438 194.123C143.129 194.533 143.665 195.104 144.046 195.837C144.433 196.563 144.626 197.407 144.626 198.368C144.626 199.329 144.433 200.173 144.046 200.899C143.665 201.626 143.129 202.194 142.438 202.604C141.752 203.009 140.955 203.211 140.047 203.211ZM140.047 201.356C140.756 201.356 141.321 201.09 141.743 200.557C142.165 200.023 142.376 199.294 142.376 198.368C142.376 197.442 142.165 196.71 141.743 196.171C141.321 195.632 140.756 195.362 140.047 195.362C139.332 195.362 138.764 195.632 138.342 196.171C137.92 196.704 137.709 197.437 137.709 198.368C137.709 199.294 137.92 200.023 138.342 200.557C138.764 201.09 139.332 201.356 140.047 201.356ZM148.379 189.904V203H146.164V189.904H148.379ZM160.244 203.211C159.037 203.211 157.971 202.933 157.045 202.376C156.119 201.819 155.393 201.034 154.865 200.021C154.338 199.007 154.074 197.82 154.074 196.461C154.074 195.09 154.338 193.897 154.865 192.884C155.393 191.87 156.119 191.085 157.045 190.528C157.971 189.972 159.037 189.693 160.244 189.693C161.229 189.693 162.119 189.887 162.916 190.273C163.713 190.66 164.369 191.205 164.885 191.908C165.406 192.611 165.74 193.44 165.887 194.396H163.522C163.347 193.563 162.969 192.919 162.389 192.462C161.809 192.005 161.1 191.776 160.262 191.776C159.465 191.776 158.776 191.97 158.196 192.356C157.622 192.743 157.18 193.288 156.869 193.991C156.564 194.694 156.412 195.518 156.412 196.461C156.412 197.398 156.564 198.219 156.869 198.922C157.18 199.619 157.622 200.161 158.196 200.548C158.771 200.935 159.459 201.128 160.262 201.128C161.094 201.128 161.8 200.902 162.38 200.451C162.96 200 163.344 199.358 163.531 198.526H165.887C165.74 199.481 165.406 200.311 164.885 201.014C164.369 201.711 163.713 202.253 162.916 202.64C162.119 203.021 161.229 203.211 160.244 203.211Z" fill="white"/>
<path d="M268.712 203V201.233L273.467 197.076C274.129 196.484 274.65 195.957 275.031 195.494C275.412 195.031 275.603 194.48 275.603 193.842C275.603 193.156 275.395 192.614 274.979 192.216C274.568 191.812 274.009 191.609 273.3 191.609C272.532 191.609 271.932 191.853 271.498 192.339C271.07 192.819 270.856 193.479 270.856 194.316H268.703C268.703 193.396 268.891 192.591 269.266 191.899C269.641 191.202 270.171 190.66 270.856 190.273C271.548 189.887 272.362 189.693 273.3 189.693C274.167 189.693 274.938 189.863 275.611 190.203C276.291 190.537 276.821 191.009 277.202 191.618C277.589 192.222 277.782 192.928 277.782 193.736C277.782 194.627 277.533 195.421 277.035 196.118C276.543 196.815 275.831 197.571 274.899 198.386L271.876 201.066V201.084H277.844V203H268.712ZM283.882 203.185C282.979 203.185 282.177 203.012 281.474 202.666C280.776 202.314 280.22 201.828 279.804 201.207C279.394 200.586 279.168 199.868 279.127 199.054H281.351C281.397 199.71 281.655 200.252 282.124 200.68C282.599 201.107 283.188 201.321 283.891 201.321C284.629 201.321 285.224 201.075 285.675 200.583C286.132 200.085 286.36 199.449 286.36 198.676C286.36 197.902 286.138 197.267 285.692 196.769C285.253 196.271 284.676 196.021 283.961 196.021C283.34 196.021 282.807 196.15 282.361 196.408C281.922 196.66 281.617 197.023 281.447 197.498H279.303L279.716 189.904H287.819V191.829H281.781L281.518 195.31H281.535C282.256 194.554 283.19 194.176 284.339 194.176C285.136 194.176 285.854 194.369 286.492 194.756C287.131 195.143 287.638 195.673 288.013 196.347C288.388 197.015 288.575 197.773 288.575 198.623C288.575 199.514 288.379 200.305 287.986 200.996C287.6 201.682 287.055 202.218 286.352 202.604C285.648 202.991 284.825 203.185 283.882 203.185ZM301.469 203.211C300.889 203.211 300.376 203.079 299.931 202.815C299.491 202.546 299.148 202.174 298.902 201.699C298.656 201.225 298.533 200.68 298.533 200.064V199.801C298.533 199.186 298.656 198.641 298.902 198.166C299.148 197.691 299.491 197.319 299.931 197.05C300.376 196.78 300.889 196.646 301.469 196.646C302.049 196.646 302.559 196.78 302.998 197.05C303.438 197.319 303.78 197.691 304.026 198.166C304.272 198.641 304.396 199.186 304.396 199.801V200.064C304.396 200.68 304.272 201.225 304.026 201.699C303.78 202.174 303.438 202.546 302.998 202.815C302.559 203.079 302.049 203.211 301.469 203.211ZM293.286 196.259C292.706 196.259 292.193 196.124 291.748 195.854C291.309 195.585 290.966 195.216 290.72 194.747C290.474 194.272 290.351 193.728 290.351 193.112V192.849C290.351 192.228 290.474 191.68 290.72 191.205C290.966 190.73 291.309 190.361 291.748 190.098C292.193 189.828 292.706 189.693 293.286 189.693C293.866 189.693 294.376 189.828 294.815 190.098C295.255 190.361 295.598 190.73 295.844 191.205C296.09 191.68 296.213 192.228 296.213 192.849V193.112C296.213 193.728 296.09 194.272 295.844 194.747C295.598 195.216 295.255 195.585 294.815 195.854C294.376 196.124 293.866 196.259 293.286 196.259ZM291.959 203L300.959 189.904H302.752L293.752 203H291.959ZM293.286 194.8C293.661 194.8 293.96 194.656 294.183 194.369C294.411 194.076 294.525 193.657 294.525 193.112V192.849C294.525 192.298 294.411 191.876 294.183 191.583C293.96 191.29 293.661 191.144 293.286 191.144C292.905 191.144 292.601 191.29 292.372 191.583C292.149 191.876 292.038 192.298 292.038 192.849V193.112C292.038 193.657 292.149 194.076 292.372 194.369C292.601 194.656 292.905 194.8 293.286 194.8ZM301.469 201.761C301.844 201.761 302.143 201.614 302.365 201.321C302.594 201.028 302.708 200.609 302.708 200.064V199.801C302.708 199.25 302.594 198.828 302.365 198.535C302.143 198.242 301.844 198.096 301.469 198.096C301.088 198.096 300.783 198.242 300.555 198.535C300.332 198.828 300.221 199.25 300.221 199.801V200.064C300.221 200.609 300.332 201.028 300.555 201.321C300.783 201.614 301.088 201.761 301.469 201.761Z" fill="#5FB98D"/>
<path d="M65.6797 265L62.5078 253.359H63.9297L65.8125 260.625C66.0677 261.615 66.2995 262.607 66.5078 263.602C66.6068 263.107 66.7161 262.612 66.8359 262.117C66.9557 261.617 67.0807 261.12 67.2109 260.625L69.1328 253.359H70.7578L72.6641 260.625C72.7943 261.115 72.9167 261.604 73.0312 262.094C73.151 262.578 73.2656 263.065 73.375 263.555C73.4792 263.065 73.5885 262.578 73.7031 262.094C73.8229 261.604 73.9453 261.115 74.0703 260.625L75.9453 253.359H77.3828L74.1953 265H72.5547L70.5156 257.5C70.4062 257.099 70.3047 256.695 70.2109 256.289C70.1172 255.883 70.026 255.479 69.9375 255.078C69.8542 255.479 69.7656 255.883 69.6719 256.289C69.5781 256.695 69.4766 257.099 69.3672 257.5L67.3359 265H65.6797ZM79.8516 260.172V265H78.5234V253.359H79.8516V257.906C80.138 257.458 80.4844 257.128 80.8906 256.914C81.3021 256.701 81.763 256.594 82.2734 256.594C82.8307 256.594 83.3385 256.716 83.7969 256.961C84.2552 257.201 84.6198 257.562 84.8906 258.047C85.1667 258.531 85.3047 259.141 85.3047 259.875V265H83.9766V259.969C83.9766 259.255 83.8047 258.719 83.4609 258.359C83.1224 257.995 82.6432 257.812 82.0234 257.812C81.4245 257.812 80.9115 257.997 80.4844 258.367C80.0625 258.737 79.8516 259.339 79.8516 260.172ZM87.2734 265V256.75H88.6016V265H87.2734ZM87.9375 255.141C87.6875 255.141 87.474 255.052 87.2969 254.875C87.1198 254.698 87.0312 254.484 87.0312 254.234C87.0312 253.984 87.1198 253.771 87.2969 253.594C87.474 253.417 87.6875 253.328 87.9375 253.328C88.1875 253.328 88.401 253.417 88.5781 253.594C88.7552 253.771 88.8438 253.984 88.8438 254.234C88.8438 254.484 88.7552 254.698 88.5781 254.875C88.401 255.052 88.1875 255.141 87.9375 255.141ZM94.3281 256.75V257.891H92.6562V263C92.6562 263.318 92.7214 263.542 92.8516 263.672C92.987 263.797 93.224 263.859 93.5625 263.859H94.3281V265H93.4375C92.0312 265 91.3281 264.38 91.3281 263.141V257.891H89.8594V256.75H91.3281V254.5H92.6562V256.75H94.3281ZM98.9609 265.188C98.1536 265.188 97.4635 265.003 96.8906 264.633C96.3229 264.263 95.888 263.755 95.5859 263.109C95.2839 262.458 95.1328 261.719 95.1328 260.891C95.1328 260.052 95.2917 259.307 95.6094 258.656C95.9271 258.005 96.3672 257.495 96.9297 257.125C97.4922 256.75 98.138 256.562 98.8672 256.562C99.6328 256.562 100.297 256.745 100.859 257.109C101.422 257.474 101.854 257.982 102.156 258.633C102.464 259.284 102.617 260.036 102.617 260.891V261.258H96.4453C96.4766 262.065 96.7083 262.721 97.1406 263.227C97.5729 263.732 98.1797 263.984 98.9609 263.984C99.5495 263.984 100.029 263.849 100.398 263.578C100.773 263.307 101.023 262.958 101.148 262.531H102.477C102.372 263.057 102.156 263.521 101.828 263.922C101.5 264.318 101.089 264.628 100.594 264.852C100.104 265.076 99.5599 265.188 98.9609 265.188ZM96.4609 260.117H101.289C101.216 259.393 100.964 258.818 100.531 258.391C100.099 257.964 99.5443 257.75 98.8672 257.75C98.1901 257.75 97.638 257.964 97.2109 258.391C96.7839 258.818 96.5339 259.393 96.4609 260.117ZM105.461 253.359V265H104.133V253.359H105.461ZM107.43 265V256.75H108.758V265H107.43ZM108.094 255.141C107.844 255.141 107.63 255.052 107.453 254.875C107.276 254.698 107.188 254.484 107.188 254.234C107.188 253.984 107.276 253.771 107.453 253.594C107.63 253.417 107.844 253.328 108.094 253.328C108.344 253.328 108.557 253.417 108.734 253.594C108.911 253.771 109 253.984 109 254.234C109 254.484 108.911 254.698 108.734 254.875C108.557 255.052 108.344 255.141 108.094 255.141ZM113.602 265.188C113.013 265.188 112.479 265.091 112 264.898C111.521 264.706 111.133 264.414 110.836 264.023C110.539 263.628 110.372 263.13 110.336 262.531H111.648C111.742 263.542 112.383 264.047 113.57 264.047C114.143 264.047 114.594 263.927 114.922 263.688C115.255 263.448 115.422 263.146 115.422 262.781C115.422 262.469 115.307 262.219 115.078 262.031C114.849 261.844 114.549 261.708 114.18 261.625L112.852 261.312C111.299 260.948 110.523 260.167 110.523 258.969C110.523 258.5 110.648 258.086 110.898 257.727C111.154 257.362 111.505 257.078 111.953 256.875C112.406 256.667 112.927 256.562 113.516 256.562C114.089 256.562 114.602 256.672 115.055 256.891C115.513 257.104 115.875 257.409 116.141 257.805C116.411 258.201 116.555 258.672 116.57 259.219H115.273C115.268 258.781 115.107 258.419 114.789 258.133C114.471 257.846 114.047 257.703 113.516 257.703C113.01 257.703 112.607 257.826 112.305 258.07C112.003 258.315 111.852 258.615 111.852 258.969C111.852 259.281 111.966 259.534 112.195 259.727C112.424 259.914 112.737 260.055 113.133 260.148L114.461 260.461C115.253 260.648 115.833 260.93 116.203 261.305C116.573 261.674 116.758 262.156 116.758 262.75C116.758 263.26 116.62 263.698 116.344 264.062C116.068 264.427 115.69 264.706 115.211 264.898C114.737 265.091 114.201 265.188 113.602 265.188ZM122.078 256.75V257.891H120.406V263C120.406 263.318 120.471 263.542 120.602 263.672C120.737 263.797 120.974 263.859 121.312 263.859H122.078V265H121.188C119.781 265 119.078 264.38 119.078 263.141V257.891H117.609V256.75H119.078V254.5H120.406V256.75H122.078ZM126.711 265.188C125.904 265.188 125.214 265.003 124.641 264.633C124.073 264.263 123.638 263.755 123.336 263.109C123.034 262.458 122.883 261.719 122.883 260.891C122.883 260.052 123.042 259.307 123.359 258.656C123.677 258.005 124.117 257.495 124.68 257.125C125.242 256.75 125.888 256.562 126.617 256.562C127.383 256.562 128.047 256.745 128.609 257.109C129.172 257.474 129.604 257.982 129.906 258.633C130.214 259.284 130.367 260.036 130.367 260.891V261.258H124.195C124.227 262.065 124.458 262.721 124.891 263.227C125.323 263.732 125.93 263.984 126.711 263.984C127.299 263.984 127.779 263.849 128.148 263.578C128.523 263.307 128.773 262.958 128.898 262.531H130.227C130.122 263.057 129.906 263.521 129.578 263.922C129.25 264.318 128.839 264.628 128.344 264.852C127.854 265.076 127.31 265.188 126.711 265.188ZM124.211 260.117H129.039C128.966 259.393 128.714 258.818 128.281 258.391C127.849 257.964 127.294 257.75 126.617 257.75C125.94 257.75 125.388 257.964 124.961 258.391C124.534 258.818 124.284 259.393 124.211 260.117ZM135.039 265.156C134.326 265.156 133.698 264.977 133.156 264.617C132.62 264.253 132.203 263.75 131.906 263.109C131.609 262.464 131.461 261.719 131.461 260.875C131.461 260.026 131.609 259.281 131.906 258.641C132.203 257.995 132.62 257.492 133.156 257.133C133.698 256.773 134.326 256.594 135.039 256.594C135.576 256.594 136.073 256.708 136.531 256.938C136.99 257.161 137.352 257.505 137.617 257.969H137.633V253.359H138.961V265H137.664V263.75H137.648C137.352 264.224 136.977 264.578 136.523 264.812C136.07 265.042 135.576 265.156 135.039 265.156ZM135.242 263.961C136.008 263.961 136.615 263.68 137.062 263.117C137.516 262.555 137.742 261.807 137.742 260.875C137.742 259.943 137.516 259.195 137.062 258.633C136.615 258.065 136.008 257.781 135.242 257.781C134.529 257.781 133.943 258.044 133.484 258.57C133.031 259.096 132.805 259.865 132.805 260.875C132.805 261.885 133.031 262.654 133.484 263.18C133.943 263.701 134.529 263.961 135.242 263.961ZM140.383 267.195L141.07 263.375H142.492L141.352 267.195H140.383ZM151.852 265.188C151.091 265.188 150.422 265.005 149.844 264.641C149.271 264.271 148.823 263.763 148.5 263.117C148.182 262.471 148.023 261.729 148.023 260.891C148.023 260.047 148.182 259.299 148.5 258.648C148.823 257.997 149.271 257.487 149.844 257.117C150.422 256.747 151.091 256.562 151.852 256.562C152.617 256.562 153.286 256.747 153.859 257.117C154.432 257.487 154.878 257.997 155.195 258.648C155.518 259.299 155.68 260.047 155.68 260.891C155.68 261.729 155.518 262.471 155.195 263.117C154.878 263.763 154.432 264.271 153.859 264.641C153.286 265.005 152.617 265.188 151.852 265.188ZM151.852 263.984C152.633 263.984 153.242 263.703 153.68 263.141C154.117 262.573 154.336 261.823 154.336 260.891C154.336 259.948 154.115 259.193 153.672 258.625C153.234 258.052 152.628 257.766 151.852 257.766C151.076 257.766 150.466 258.049 150.023 258.617C149.586 259.185 149.367 259.943 149.367 260.891C149.367 261.828 149.586 262.578 150.023 263.141C150.461 263.703 151.07 263.984 151.852 263.984ZM159.352 265L156.164 256.75H157.602L159.383 261.5C159.503 261.818 159.617 262.135 159.727 262.453C159.836 262.766 159.943 263.081 160.047 263.398C160.156 263.081 160.266 262.766 160.375 262.453C160.484 262.135 160.596 261.818 160.711 261.5L162.469 256.75H163.883L160.695 265H159.352ZM168.195 265.188C167.388 265.188 166.698 265.003 166.125 264.633C165.557 264.263 165.122 263.755 164.82 263.109C164.518 262.458 164.367 261.719 164.367 260.891C164.367 260.052 164.526 259.307 164.844 258.656C165.161 258.005 165.602 257.495 166.164 257.125C166.727 256.75 167.372 256.562 168.102 256.562C168.867 256.562 169.531 256.745 170.094 257.109C170.656 257.474 171.089 257.982 171.391 258.633C171.698 259.284 171.852 260.036 171.852 260.891V261.258H165.68C165.711 262.065 165.943 262.721 166.375 263.227C166.807 263.732 167.414 263.984 168.195 263.984C168.784 263.984 169.263 263.849 169.633 263.578C170.008 263.307 170.258 262.958 170.383 262.531H171.711C171.607 263.057 171.391 263.521 171.062 263.922C170.734 264.318 170.323 264.628 169.828 264.852C169.339 265.076 168.794 265.188 168.195 265.188ZM165.695 260.117H170.523C170.451 259.393 170.198 258.818 169.766 258.391C169.333 257.964 168.779 257.75 168.102 257.75C167.424 257.75 166.872 257.964 166.445 258.391C166.018 258.818 165.768 259.393 165.695 260.117ZM173.367 265V256.75H174.633V258.047H174.664C174.815 257.62 175.055 257.276 175.383 257.016C175.711 256.755 176.133 256.625 176.648 256.625C176.768 256.625 176.878 256.63 176.977 256.641C177.081 256.651 177.159 256.661 177.211 256.672V258C177.159 257.984 177.057 257.966 176.906 257.945C176.76 257.919 176.591 257.906 176.398 257.906C175.94 257.906 175.542 258.068 175.203 258.391C174.865 258.714 174.695 259.224 174.695 259.922V265H173.367ZM181.773 265.188C181.013 265.188 180.344 265.005 179.766 264.641C179.193 264.271 178.745 263.763 178.422 263.117C178.104 262.471 177.945 261.729 177.945 260.891C177.945 260.047 178.104 259.299 178.422 258.648C178.745 257.997 179.193 257.487 179.766 257.117C180.344 256.747 181.013 256.562 181.773 256.562C182.398 256.562 182.958 256.688 183.453 256.938C183.948 257.182 184.352 257.521 184.664 257.953C184.982 258.385 185.177 258.88 185.25 259.438H183.906C183.807 258.953 183.578 258.555 183.219 258.242C182.865 257.924 182.383 257.766 181.773 257.766C180.997 257.766 180.388 258.049 179.945 258.617C179.508 259.185 179.289 259.943 179.289 260.891C179.289 261.828 179.508 262.578 179.945 263.141C180.383 263.703 180.992 263.984 181.773 263.984C182.393 263.984 182.867 263.833 183.195 263.531C183.523 263.224 183.753 262.818 183.883 262.312H185.25C185.177 262.854 184.982 263.344 184.664 263.781C184.352 264.214 183.945 264.557 183.445 264.812C182.951 265.062 182.393 265.188 181.773 265.188ZM190.148 265.188C189.388 265.188 188.719 265.005 188.141 264.641C187.568 264.271 187.12 263.763 186.797 263.117C186.479 262.471 186.32 261.729 186.32 260.891C186.32 260.047 186.479 259.299 186.797 258.648C187.12 257.997 187.568 257.487 188.141 257.117C188.719 256.747 189.388 256.562 190.148 256.562C190.914 256.562 191.583 256.747 192.156 257.117C192.729 257.487 193.174 257.997 193.492 258.648C193.815 259.299 193.977 260.047 193.977 260.891C193.977 261.729 193.815 262.471 193.492 263.117C193.174 263.763 192.729 264.271 192.156 264.641C191.583 265.005 190.914 265.188 190.148 265.188ZM190.148 263.984C190.93 263.984 191.539 263.703 191.977 263.141C192.414 262.573 192.633 261.823 192.633 260.891C192.633 259.948 192.411 259.193 191.969 258.625C191.531 258.052 190.924 257.766 190.148 257.766C189.372 257.766 188.763 258.049 188.32 258.617C187.883 259.185 187.664 259.943 187.664 260.891C187.664 261.828 187.883 262.578 188.32 263.141C188.758 263.703 189.367 263.984 190.148 263.984ZM196.852 253.359V265H195.523V253.359H196.852ZM200.148 253.359V265H198.82V253.359H200.148ZM204.633 265.125C203.815 265.125 203.13 264.914 202.578 264.492C202.031 264.07 201.758 263.448 201.758 262.625C201.758 262.151 201.849 261.766 202.031 261.469C202.219 261.172 202.466 260.94 202.773 260.773C203.086 260.602 203.438 260.471 203.828 260.383C204.224 260.294 204.628 260.224 205.039 260.172C205.565 260.099 205.979 260.044 206.281 260.008C206.583 259.971 206.797 259.911 206.922 259.828C207.052 259.745 207.117 259.599 207.117 259.391V259.312C207.117 258.865 206.956 258.495 206.633 258.203C206.315 257.911 205.867 257.766 205.289 257.766C204.716 257.766 204.245 257.906 203.875 258.188C203.51 258.464 203.312 258.807 203.281 259.219H201.93C201.956 258.714 202.112 258.266 202.398 257.875C202.685 257.479 203.076 257.167 203.57 256.938C204.065 256.708 204.638 256.594 205.289 256.594C206.253 256.594 207.016 256.844 207.578 257.344C208.146 257.839 208.43 258.495 208.43 259.312V265H207.117V263.828H207.086C206.987 264.026 206.841 264.227 206.648 264.43C206.456 264.628 206.195 264.794 205.867 264.93C205.544 265.06 205.133 265.125 204.633 265.125ZM204.82 263.938C205.362 263.938 205.802 263.841 206.141 263.648C206.479 263.451 206.727 263.195 206.883 262.883C207.039 262.57 207.117 262.234 207.117 261.875V260.844C207.018 260.938 206.755 261.023 206.328 261.102C205.901 261.174 205.451 261.245 204.977 261.312C204.659 261.354 204.357 261.427 204.07 261.531C203.789 261.63 203.56 261.773 203.383 261.961C203.206 262.143 203.117 262.391 203.117 262.703C203.117 263.089 203.268 263.391 203.57 263.609C203.878 263.828 204.294 263.938 204.82 263.938ZM214 256.75V257.891H212.328V263C212.328 263.318 212.393 263.542 212.523 263.672C212.659 263.797 212.896 263.859 213.234 263.859H214V265H213.109C211.703 265 211 264.38 211 263.141V257.891H209.531V256.75H211V254.5H212.328V256.75H214ZM218.633 265.188C217.826 265.188 217.135 265.003 216.562 264.633C215.995 264.263 215.56 263.755 215.258 263.109C214.956 262.458 214.805 261.719 214.805 260.891C214.805 260.052 214.964 259.307 215.281 258.656C215.599 258.005 216.039 257.495 216.602 257.125C217.164 256.75 217.81 256.562 218.539 256.562C219.305 256.562 219.969 256.745 220.531 257.109C221.094 257.474 221.526 257.982 221.828 258.633C222.135 259.284 222.289 260.036 222.289 260.891V261.258H216.117C216.148 262.065 216.38 262.721 216.812 263.227C217.245 263.732 217.852 263.984 218.633 263.984C219.221 263.984 219.701 263.849 220.07 263.578C220.445 263.307 220.695 262.958 220.82 262.531H222.148C222.044 263.057 221.828 263.521 221.5 263.922C221.172 264.318 220.76 264.628 220.266 264.852C219.776 265.076 219.232 265.188 218.633 265.188ZM216.133 260.117H220.961C220.888 259.393 220.635 258.818 220.203 258.391C219.771 257.964 219.216 257.75 218.539 257.75C217.862 257.75 217.31 257.964 216.883 258.391C216.456 258.818 216.206 259.393 216.133 260.117ZM223.805 265V256.75H225.07V258.047H225.102C225.253 257.62 225.492 257.276 225.82 257.016C226.148 256.755 226.57 256.625 227.086 256.625C227.206 256.625 227.315 256.63 227.414 256.641C227.518 256.651 227.596 256.661 227.648 256.672V258C227.596 257.984 227.495 257.966 227.344 257.945C227.198 257.919 227.029 257.906 226.836 257.906C226.378 257.906 225.979 258.068 225.641 258.391C225.302 258.714 225.133 259.224 225.133 259.922V265H223.805ZM231.227 265.125C230.409 265.125 229.724 264.914 229.172 264.492C228.625 264.07 228.352 263.448 228.352 262.625C228.352 262.151 228.443 261.766 228.625 261.469C228.812 261.172 229.06 260.94 229.367 260.773C229.68 260.602 230.031 260.471 230.422 260.383C230.818 260.294 231.221 260.224 231.633 260.172C232.159 260.099 232.573 260.044 232.875 260.008C233.177 259.971 233.391 259.911 233.516 259.828C233.646 259.745 233.711 259.599 233.711 259.391V259.312C233.711 258.865 233.549 258.495 233.227 258.203C232.909 257.911 232.461 257.766 231.883 257.766C231.31 257.766 230.839 257.906 230.469 258.188C230.104 258.464 229.906 258.807 229.875 259.219H228.523C228.549 258.714 228.706 258.266 228.992 257.875C229.279 257.479 229.669 257.167 230.164 256.938C230.659 256.708 231.232 256.594 231.883 256.594C232.846 256.594 233.609 256.844 234.172 257.344C234.74 257.839 235.023 258.495 235.023 259.312V265H233.711V263.828H233.68C233.581 264.026 233.435 264.227 233.242 264.43C233.049 264.628 232.789 264.794 232.461 264.93C232.138 265.06 231.727 265.125 231.227 265.125ZM231.414 263.938C231.956 263.938 232.396 263.841 232.734 263.648C233.073 263.451 233.32 263.195 233.477 262.883C233.633 262.57 233.711 262.234 233.711 261.875V260.844C233.612 260.938 233.349 261.023 232.922 261.102C232.495 261.174 232.044 261.245 231.57 261.312C231.253 261.354 230.951 261.427 230.664 261.531C230.383 261.63 230.154 261.773 229.977 261.961C229.799 262.143 229.711 262.391 229.711 262.703C229.711 263.089 229.862 263.391 230.164 263.609C230.471 263.828 230.888 263.938 231.414 263.938ZM238.32 253.359V265H236.992V253.359H238.32ZM240.289 265V256.75H241.617V265H240.289ZM240.953 255.141C240.703 255.141 240.49 255.052 240.312 254.875C240.135 254.698 240.047 254.484 240.047 254.234C240.047 253.984 240.135 253.771 240.312 253.594C240.49 253.417 240.703 253.328 240.953 253.328C241.203 253.328 241.417 253.417 241.594 253.594C241.771 253.771 241.859 253.984 241.859 254.234C241.859 254.484 241.771 254.698 241.594 254.875C241.417 255.052 241.203 255.141 240.953 255.141ZM243.336 265V263.984L247.852 257.969V257.938H243.336V256.75H249.492V257.812L245.023 263.781V263.812H249.523V265H243.336ZM254.414 265.188C253.607 265.188 252.917 265.003 252.344 264.633C251.776 264.263 251.341 263.755 251.039 263.109C250.737 262.458 250.586 261.719 250.586 260.891C250.586 260.052 250.745 259.307 251.062 258.656C251.38 258.005 251.82 257.495 252.383 257.125C252.945 256.75 253.591 256.562 254.32 256.562C255.086 256.562 255.75 256.745 256.312 257.109C256.875 257.474 257.307 257.982 257.609 258.633C257.917 259.284 258.07 260.036 258.07 260.891V261.258H251.898C251.93 262.065 252.161 262.721 252.594 263.227C253.026 263.732 253.633 263.984 254.414 263.984C255.003 263.984 255.482 263.849 255.852 263.578C256.227 263.307 256.477 262.958 256.602 262.531H257.93C257.826 263.057 257.609 263.521 257.281 263.922C256.953 264.318 256.542 264.628 256.047 264.852C255.557 265.076 255.013 265.188 254.414 265.188ZM251.914 260.117H256.742C256.669 259.393 256.417 258.818 255.984 258.391C255.552 257.964 254.997 257.75 254.32 257.75C253.643 257.75 253.091 257.964 252.664 258.391C252.237 258.818 251.987 259.393 251.914 260.117ZM262.742 265.156C262.029 265.156 261.401 264.977 260.859 264.617C260.323 264.253 259.906 263.75 259.609 263.109C259.312 262.464 259.164 261.719 259.164 260.875C259.164 260.026 259.312 259.281 259.609 258.641C259.906 257.995 260.323 257.492 260.859 257.133C261.401 256.773 262.029 256.594 262.742 256.594C263.279 256.594 263.776 256.708 264.234 256.938C264.693 257.161 265.055 257.505 265.32 257.969H265.336V253.359H266.664V265H265.367V263.75H265.352C265.055 264.224 264.68 264.578 264.227 264.812C263.773 265.042 263.279 265.156 262.742 265.156ZM262.945 263.961C263.711 263.961 264.318 263.68 264.766 263.117C265.219 262.555 265.445 261.807 265.445 260.875C265.445 259.943 265.219 259.195 264.766 258.633C264.318 258.065 263.711 257.781 262.945 257.781C262.232 257.781 261.646 258.044 261.188 258.57C260.734 259.096 260.508 259.865 260.508 260.875C260.508 261.885 260.734 262.654 261.188 263.18C261.646 263.701 262.232 263.961 262.945 263.961Z" fill="#6B7280"/>
</svg>
