<svg width="384" height="234" viewBox="0 0 384 234" fill="none" xmlns="http://www.w3.org/2000/svg">
<path d="M0 24C0 10.7452 10.7452 0 24 0H360C373.255 0 384 10.7452 384 24V210C384 223.255 373.255 234 360 234H24C10.7452 234 0 223.255 0 210V24Z" fill="#1C2233"/>
<path d="M0 24C0 10.7452 10.7452 0 24 0H360C373.255 0 384 10.7452 384 24V210C384 223.255 373.255 234 360 234H24C10.7452 234 0 223.255 0 210V24Z" fill="url(#paint0_radial_5584_5695)" fill-opacity="0.1"/>
<g clip-path="url(#clip0_5584_5695)">
<path d="M60 88C75.5168 88 88 75.5168 88 60C88 44.4832 75.5168 32 60 32C44.4832 32 32 44.4832 32 60C32 75.5168 44.4832 88 60 88Z" fill="#2775CA"/>
<path d="M67.6996 64.4324C67.6996 60.3492 65.2496 58.9492 60.3496 58.3659C56.8496 57.8992 56.1496 56.9659 56.1496 55.3324C56.1496 53.6989 57.3164 52.6492 59.6496 52.6492C61.7496 52.6492 62.9164 53.3492 63.4996 55.0992C63.6164 55.4492 63.9664 55.6824 64.3164 55.6824H66.1829C66.6496 55.6824 66.9996 55.3324 66.9996 54.8659V54.7492C66.5329 52.1824 64.4329 50.1992 61.7496 49.9659V47.1659C61.7496 46.6992 61.3996 46.3492 60.8164 46.2324H59.0664C58.5996 46.2324 58.2496 46.5824 58.1329 47.1659V49.8492C54.6329 50.3159 52.4164 52.6492 52.4164 55.5659C52.4164 59.4159 54.7496 60.9324 59.6496 61.5159C62.9164 62.0992 63.9664 62.7992 63.9664 64.6659C63.9664 66.5327 62.3329 67.8159 60.1164 67.8159C57.0829 67.8159 56.0329 66.5324 55.6829 64.7824C55.5664 64.3159 55.2164 64.0824 54.8664 64.0824H52.8829C52.4164 64.0824 52.0664 64.4324 52.0664 64.8992V65.0159C52.5329 67.9324 54.3996 70.0324 58.2496 70.6159V73.4159C58.2496 73.8824 58.5996 74.2324 59.1829 74.3492H60.9329C61.3996 74.3492 61.7496 73.9992 61.8664 73.4159V70.6159C65.3664 70.0324 67.6996 67.5824 67.6996 64.4324Z" fill="white"/>
<path d="M54.0484 76.6835C44.9484 73.417 40.2816 63.267 43.6651 54.2835C45.4151 49.3835 49.2651 45.6502 54.0484 43.9002C54.5151 43.667 54.7484 43.317 54.7484 42.7335V41.1002C54.7484 40.6335 54.5151 40.2835 54.0484 40.167C53.9316 40.167 53.6984 40.167 53.5816 40.2835C42.4984 43.7835 36.4316 55.567 39.9316 66.6502C42.0316 73.1835 47.0484 78.2002 53.5816 80.3002C54.0484 80.5335 54.5151 80.3002 54.6316 79.8335C54.7484 79.717 54.7484 79.6002 54.7484 79.367V77.7335C54.7484 77.3835 54.3984 76.917 54.0484 76.6835ZM66.4151 40.2835C65.9484 40.0502 65.4816 40.2835 65.3651 40.7502C65.2484 40.867 65.2484 40.9835 65.2484 41.217V42.8502C65.2484 43.317 65.5984 43.7835 65.9484 44.017C75.0484 47.2835 79.7151 57.4335 76.3316 66.417C74.5816 71.317 70.7316 75.0502 65.9484 76.8002C65.4816 77.0335 65.2484 77.3835 65.2484 77.967V79.6002C65.2484 80.067 65.4816 80.417 65.9484 80.5335C66.0651 80.5335 66.2984 80.5335 66.4151 80.417C77.4984 76.917 83.5651 65.1335 80.0651 54.0502C77.9651 47.4002 72.8316 42.3835 66.4151 40.2835Z" fill="white"/>
</g>
<path d="M41.0703 153.281C39.4609 153.281 38.0391 152.91 36.8047 152.168C35.5703 151.426 34.6016 150.379 33.8984 149.027C33.1953 147.676 32.8438 146.094 32.8438 144.281C32.8438 142.453 33.1953 140.863 33.8984 139.512C34.6016 138.16 35.5703 137.113 36.8047 136.371C38.0391 135.629 39.4609 135.258 41.0703 135.258C42.3828 135.258 43.5703 135.516 44.6328 136.031C45.6953 136.547 46.5703 137.273 47.2578 138.211C47.9531 139.148 48.3984 140.254 48.5938 141.527H45.4414C45.207 140.418 44.7031 139.559 43.9297 138.949C43.1562 138.34 42.2109 138.035 41.0938 138.035C40.0312 138.035 39.1133 138.293 38.3398 138.809C37.5742 139.324 36.9844 140.051 36.5703 140.988C36.1641 141.926 35.9609 143.023 35.9609 144.281C35.9609 145.531 36.1641 146.625 36.5703 147.562C36.9844 148.492 37.5742 149.215 38.3398 149.73C39.1055 150.246 40.0234 150.504 41.0938 150.504C42.2031 150.504 43.1445 150.203 43.918 149.602C44.6914 149 45.2031 148.145 45.4531 147.035H48.5938C48.3984 148.309 47.9531 149.414 47.2578 150.352C46.5703 151.281 45.6953 152.004 44.6328 152.52C43.5703 153.027 42.3828 153.281 41.0703 153.281ZM55.9944 153.281C54.7756 153.281 53.7092 153.012 52.7952 152.473C51.8811 151.926 51.1663 151.168 50.6506 150.199C50.1428 149.23 49.8889 148.105 49.8889 146.824C49.8889 145.543 50.1428 144.418 50.6506 143.449C51.1663 142.473 51.8811 141.711 52.7952 141.164C53.7092 140.617 54.7756 140.344 55.9944 140.344C57.2053 140.344 58.2678 140.617 59.1819 141.164C60.1038 141.711 60.8186 142.473 61.3264 143.449C61.842 144.418 62.0998 145.543 62.0998 146.824C62.0998 148.105 61.842 149.23 61.3264 150.199C60.8186 151.168 60.1038 151.926 59.1819 152.473C58.2678 153.012 57.2053 153.281 55.9944 153.281ZM55.9944 150.809C56.9397 150.809 57.6936 150.453 58.2561 149.742C58.8186 149.031 59.0998 148.059 59.0998 146.824C59.0998 145.59 58.8186 144.613 58.2561 143.895C57.6936 143.176 56.9397 142.816 55.9944 142.816C55.0413 142.816 54.2834 143.176 53.7209 143.895C53.1584 144.605 52.8772 145.582 52.8772 146.824C52.8772 148.059 53.1584 149.031 53.7209 149.742C54.2834 150.453 55.0413 150.809 55.9944 150.809ZM63.9106 153V140.625H66.77V142.77C67.145 141.973 67.6645 141.375 68.3286 140.977C68.9927 140.578 69.7153 140.379 70.4966 140.379C71.3325 140.379 72.0708 140.594 72.7114 141.023C73.352 141.445 73.8013 142.012 74.0591 142.723C74.3872 142.012 74.8989 141.445 75.5942 141.023C76.2895 140.594 77.0903 140.379 77.9966 140.379C79.1684 140.379 80.1528 140.758 80.9497 141.516C81.7466 142.273 82.145 143.379 82.145 144.832V153H79.1802V145.254C79.1802 144.434 78.9536 143.836 78.5005 143.461C78.0552 143.078 77.5161 142.887 76.8833 142.887C76.1333 142.887 75.5395 143.121 75.102 143.59C74.6723 144.059 74.4575 144.664 74.4575 145.406V153H71.5864V145.113C71.5864 144.441 71.3755 143.902 70.9536 143.496C70.5317 143.09 69.9927 142.887 69.3364 142.887C68.6723 142.887 68.0942 143.121 67.602 143.59C67.1098 144.051 66.8638 144.727 66.8638 145.617V153H63.9106ZM84.53 157.898V140.625H87.4362V142.348H87.4714C87.862 141.691 88.3855 141.199 89.0417 140.871C89.698 140.543 90.4245 140.379 91.2214 140.379C92.2839 140.379 93.2136 140.652 94.0105 141.199C94.8152 141.738 95.4402 142.492 95.8855 143.461C96.3386 144.422 96.5652 145.535 96.5652 146.801C96.5652 148.09 96.3425 149.219 95.8972 150.188C95.4597 151.148 94.8386 151.898 94.0339 152.438C93.2292 152.977 92.2878 153.246 91.2097 153.246C90.3972 153.246 89.6745 153.07 89.0417 152.719C88.4167 152.367 87.9089 151.84 87.5183 151.137H87.4831V157.898H84.53ZM90.5183 150.773C91.4323 150.773 92.1706 150.434 92.7331 149.754C93.2956 149.066 93.5769 148.082 93.5769 146.801C93.5769 145.527 93.2956 144.547 92.7331 143.859C92.1706 143.172 91.4323 142.828 90.5183 142.828C89.5495 142.828 88.7722 143.191 88.1862 143.918C87.6081 144.637 87.3191 145.598 87.3191 146.801C87.3191 148.004 87.6081 148.969 88.1862 149.695C88.7722 150.414 89.5495 150.773 90.5183 150.773ZM102.313 153.199C101.079 153.199 100.056 152.891 99.2431 152.273C98.4384 151.648 98.0361 150.719 98.0361 149.484C98.0361 148.547 98.2627 147.824 98.7158 147.316C99.1767 146.801 99.7744 146.426 100.509 146.191C101.251 145.957 102.048 145.797 102.899 145.711C104.048 145.578 104.849 145.461 105.302 145.359C105.755 145.258 105.981 144.996 105.981 144.574V144.48C105.981 143.949 105.778 143.516 105.372 143.18C104.974 142.844 104.423 142.676 103.72 142.676C103.001 142.676 102.415 142.844 101.962 143.18C101.517 143.516 101.274 143.945 101.235 144.469H98.3877C98.458 143.242 98.9697 142.254 99.9228 141.504C100.876 140.754 102.161 140.379 103.778 140.379C105.388 140.379 106.645 140.754 107.552 141.504C108.458 142.254 108.911 143.273 108.911 144.562V153H106.005V151.254H105.958C105.661 151.801 105.231 152.262 104.669 152.637C104.106 153.012 103.321 153.199 102.313 153.199ZM103.04 151.008C104.009 151.008 104.743 150.758 105.243 150.258C105.743 149.75 105.993 149.137 105.993 148.418V147.082C105.813 147.199 105.466 147.309 104.95 147.41C104.435 147.504 103.872 147.598 103.263 147.691C102.63 147.785 102.079 147.965 101.61 148.23C101.149 148.488 100.919 148.898 100.919 149.461C100.919 149.945 101.11 150.324 101.493 150.598C101.876 150.871 102.392 151.008 103.04 151.008ZM114.238 146.004V153H111.284V140.625H114.191V142.523C115.05 141.094 116.316 140.379 117.988 140.379C119.284 140.379 120.343 140.797 121.163 141.633C121.991 142.469 122.405 143.68 122.405 145.266V153H119.441V145.734C119.441 144.828 119.222 144.141 118.784 143.672C118.347 143.203 117.734 142.969 116.945 142.969C116.171 142.969 115.527 143.211 115.011 143.695C114.495 144.18 114.238 144.949 114.238 146.004ZM124.486 157.898V155.496H125.951C126.349 155.496 126.658 155.387 126.876 155.168C127.103 154.957 127.302 154.609 127.474 154.125L127.931 152.93L123.162 140.625H126.29L128.564 147.07C128.72 147.531 128.872 147.992 129.021 148.453C129.169 148.906 129.314 149.359 129.455 149.812C129.736 148.906 130.033 147.992 130.345 147.07L132.607 140.625H135.701L130.169 155.039C129.435 156.945 128.185 157.898 126.419 157.898H124.486ZM141.408 138.223V135.539H155.365V138.223H149.951V153H146.846V138.223H141.408ZM155.067 153V140.625H157.914V142.676H157.949C158.176 141.973 158.531 141.438 159.016 141.07C159.508 140.695 160.152 140.508 160.949 140.508C161.152 140.508 161.332 140.516 161.488 140.531C161.652 140.539 161.793 140.547 161.91 140.555V143.18C161.801 143.164 161.613 143.145 161.348 143.121C161.082 143.098 160.805 143.086 160.516 143.086C159.813 143.086 159.219 143.328 158.735 143.812C158.258 144.297 158.02 145.023 158.02 145.992V153H155.067ZM168.678 153.281C167.444 153.281 166.373 153.004 165.467 152.449C164.561 151.895 163.862 151.133 163.37 150.164C162.885 149.188 162.643 148.074 162.643 146.824C162.643 145.566 162.893 144.453 163.393 143.484C163.901 142.508 164.6 141.742 165.491 141.188C166.381 140.625 167.405 140.344 168.561 140.344C169.748 140.344 170.788 140.617 171.678 141.164C172.569 141.711 173.26 142.469 173.752 143.438C174.245 144.398 174.491 145.512 174.491 146.777V147.586H165.538C165.577 148.594 165.873 149.406 166.428 150.023C166.983 150.641 167.756 150.949 168.748 150.949C169.491 150.949 170.104 150.789 170.588 150.469C171.073 150.141 171.401 149.711 171.573 149.18H174.338C174.182 149.984 173.838 150.695 173.307 151.312C172.784 151.93 172.123 152.414 171.327 152.766C170.53 153.109 169.647 153.281 168.678 153.281ZM165.561 145.547H171.655C171.561 144.664 171.241 143.969 170.694 143.461C170.155 142.945 169.459 142.688 168.608 142.688C167.748 142.688 167.049 142.945 166.51 143.461C165.979 143.969 165.663 144.664 165.561 145.547ZM180.204 153.199C178.969 153.199 177.946 152.891 177.133 152.273C176.329 151.648 175.926 150.719 175.926 149.484C175.926 148.547 176.153 147.824 176.606 147.316C177.067 146.801 177.665 146.426 178.399 146.191C179.141 145.957 179.938 145.797 180.79 145.711C181.938 145.578 182.739 145.461 183.192 145.359C183.645 145.258 183.872 144.996 183.872 144.574V144.48C183.872 143.949 183.669 143.516 183.262 143.18C182.864 142.844 182.313 142.676 181.61 142.676C180.891 142.676 180.305 142.844 179.852 143.18C179.407 143.516 179.165 143.945 179.126 144.469H176.278C176.348 143.242 176.86 142.254 177.813 141.504C178.766 140.754 180.051 140.379 181.669 140.379C183.278 140.379 184.536 140.754 185.442 141.504C186.348 142.254 186.801 143.273 186.801 144.562V153H183.895V151.254H183.848C183.551 151.801 183.122 152.262 182.559 152.637C181.997 153.012 181.212 153.199 180.204 153.199ZM180.93 151.008C181.899 151.008 182.633 150.758 183.133 150.258C183.633 149.75 183.883 149.137 183.883 148.418V147.082C183.704 147.199 183.356 147.309 182.84 147.41C182.325 147.504 181.762 147.598 181.153 147.691C180.52 147.785 179.969 147.965 179.501 148.23C179.04 148.488 178.809 148.898 178.809 149.461C178.809 149.945 179.001 150.324 179.383 150.598C179.766 150.871 180.282 151.008 180.93 151.008ZM194.026 153.293C192.518 153.293 191.257 152.941 190.241 152.238C189.233 151.527 188.682 150.508 188.589 149.18H191.507C191.569 149.781 191.811 150.25 192.233 150.586C192.655 150.914 193.237 151.078 193.979 151.078C194.69 151.078 195.249 150.938 195.655 150.656C196.069 150.375 196.276 150.016 196.276 149.578C196.276 149.203 196.124 148.902 195.819 148.676C195.515 148.449 195.104 148.281 194.589 148.172L192.479 147.738C190.073 147.238 188.87 146.047 188.87 144.164C188.87 143.023 189.323 142.105 190.229 141.41C191.136 140.707 192.343 140.355 193.85 140.355C195.35 140.355 196.569 140.727 197.507 141.469C198.452 142.203 198.94 143.207 198.972 144.48H196.194C196.179 143.926 195.964 143.469 195.55 143.109C195.136 142.75 194.593 142.57 193.921 142.57C193.272 142.57 192.761 142.715 192.386 143.004C192.011 143.293 191.823 143.648 191.823 144.07C191.823 144.438 191.968 144.738 192.257 144.973C192.546 145.199 192.948 145.371 193.464 145.488L195.69 145.945C196.917 146.203 197.819 146.609 198.397 147.164C198.983 147.719 199.276 148.449 199.276 149.355C199.276 150.16 199.05 150.859 198.597 151.453C198.151 152.039 197.534 152.492 196.745 152.812C195.956 153.133 195.05 153.293 194.026 153.293ZM205.458 153.246C204.161 153.246 203.103 152.828 202.282 151.992C201.462 151.156 201.052 149.945 201.052 148.359V140.625H204.005V147.891C204.005 148.797 204.224 149.484 204.661 149.953C205.099 150.422 205.712 150.656 206.501 150.656C207.282 150.656 207.927 150.414 208.435 149.93C208.95 149.445 209.208 148.676 209.208 147.621V140.625H212.173V153H209.267V151.102C208.4 152.531 207.13 153.246 205.458 153.246ZM214.57 153V140.625H217.417V142.676H217.452C217.679 141.973 218.035 141.438 218.519 141.07C219.011 140.695 219.656 140.508 220.452 140.508C220.656 140.508 220.835 140.516 220.992 140.531C221.156 140.539 221.296 140.547 221.413 140.555V143.18C221.304 143.164 221.117 143.145 220.851 143.121C220.585 143.098 220.308 143.086 220.019 143.086C219.316 143.086 218.722 143.328 218.238 143.812C217.761 144.297 217.523 145.023 217.523 145.992V153H214.57ZM223.412 157.898V155.496H224.877C225.275 155.496 225.584 155.387 225.802 155.168C226.029 154.957 226.228 154.609 226.4 154.125L226.857 152.93L222.087 140.625H225.216L227.49 147.07C227.646 147.531 227.798 147.992 227.947 148.453C228.095 148.906 228.24 149.359 228.38 149.812C228.662 148.906 228.959 147.992 229.271 147.07L231.533 140.625H234.627L229.095 155.039C228.361 156.945 227.111 157.898 225.345 157.898H223.412Z" fill="white"/>
<path d="M38.3281 196.211C37.3027 196.211 36.4062 196.009 35.6387 195.604C34.877 195.2 34.2852 194.649 33.8633 193.952C33.4414 193.249 33.2305 192.449 33.2305 191.553V182.904H34.8125V191.43C34.8125 192.068 34.9531 192.637 35.2344 193.135C35.5156 193.633 35.9199 194.025 36.4473 194.312C36.9746 194.594 37.6016 194.734 38.3281 194.734C39.0605 194.734 39.6875 194.594 40.209 194.312C40.7363 194.025 41.1406 193.633 41.4219 193.135C41.7031 192.637 41.8438 192.068 41.8438 191.43V182.904H43.4258V191.553C43.4258 192.449 43.2148 193.249 42.793 193.952C42.3711 194.649 41.7793 195.2 41.0176 195.604C40.2559 196.009 39.3594 196.211 38.3281 196.211ZM50.2812 196.211C49.2734 196.211 48.4004 196.032 47.6621 195.675C46.9238 195.312 46.3525 194.799 45.9482 194.137C45.5439 193.475 45.3418 192.689 45.3418 191.781H46.959C46.959 192.719 47.249 193.451 47.8291 193.979C48.415 194.506 49.2324 194.77 50.2812 194.77C51.2363 194.77 52.001 194.562 52.5752 194.146C53.1553 193.729 53.4453 193.17 53.4453 192.467C53.4453 191.922 53.249 191.479 52.8564 191.14C52.4639 190.8 51.7959 190.513 50.8525 190.278L49.3848 189.918C48.0488 189.59 47.085 189.15 46.4932 188.6C45.9014 188.049 45.6055 187.328 45.6055 186.438C45.6055 185.682 45.79 185.025 46.1592 184.469C46.5342 183.906 47.0615 183.47 47.7412 183.159C48.4209 182.849 49.2148 182.693 50.123 182.693C51.4883 182.693 52.5752 183.06 53.3838 183.792C54.1982 184.519 54.623 185.512 54.6582 186.771H53.0938C53.0469 185.951 52.7539 185.31 52.2148 184.847C51.6758 184.378 50.9609 184.144 50.0703 184.144C49.2207 184.144 48.5234 184.352 47.9785 184.768C47.4395 185.178 47.1699 185.708 47.1699 186.358C47.1699 186.868 47.3691 187.284 47.7676 187.606C48.1719 187.923 48.8486 188.201 49.7979 188.441L51.2832 188.811C52.5605 189.127 53.5039 189.575 54.1133 190.155C54.7227 190.735 55.0273 191.482 55.0273 192.396C55.0273 193.152 54.8281 193.817 54.4297 194.392C54.0371 194.966 53.4834 195.414 52.7686 195.736C52.0596 196.053 51.2305 196.211 50.2812 196.211ZM61.0566 196H57.0137V182.904H61.2324C62.5039 182.904 63.5938 183.165 64.502 183.687C65.416 184.208 66.1162 184.958 66.6025 185.937C67.0889 186.909 67.332 188.072 67.332 189.426C67.332 190.791 67.0859 191.966 66.5938 192.95C66.1016 193.929 65.3867 194.682 64.4492 195.209C63.5176 195.736 62.3867 196 61.0566 196ZM58.5957 194.594H60.9512C62.5801 194.594 63.7871 194.134 64.5723 193.214C65.3574 192.288 65.75 191.025 65.75 189.426C65.75 187.844 65.3633 186.596 64.5898 185.682C63.8223 184.768 62.668 184.311 61.127 184.311H58.5957V194.594ZM74.9697 196.211C73.7627 196.211 72.7051 195.924 71.7969 195.35C70.8887 194.77 70.1797 193.973 69.6699 192.959C69.166 191.939 68.9141 190.773 68.9141 189.461C68.9141 188.137 69.166 186.968 69.6699 185.954C70.1738 184.935 70.8799 184.138 71.7881 183.563C72.7021 182.983 73.7627 182.693 74.9697 182.693C75.8838 182.693 76.7188 182.875 77.4746 183.238C78.2305 183.596 78.8604 184.108 79.3643 184.776C79.874 185.438 80.208 186.227 80.3662 187.141H78.749C78.5381 186.186 78.0928 185.453 77.4131 184.943C76.7393 184.428 75.9248 184.17 74.9697 184.17C74.0498 184.17 73.2559 184.396 72.5879 184.847C71.9199 185.292 71.4043 185.913 71.041 186.71C70.6777 187.501 70.4961 188.418 70.4961 189.461C70.4961 190.498 70.6777 191.412 71.041 192.203C71.4043 192.994 71.9199 193.615 72.5879 194.066C73.2559 194.512 74.0498 194.734 74.9697 194.734C75.9131 194.734 76.7246 194.479 77.4043 193.97C78.084 193.46 78.5352 192.73 78.7578 191.781H80.3662C80.208 192.689 79.877 193.475 79.373 194.137C78.8691 194.799 78.2363 195.312 77.4746 195.675C76.7188 196.032 75.8838 196.211 74.9697 196.211ZM86.9316 196V182.904H91.792C93.1572 182.904 94.2383 183.262 95.0352 183.977C95.8379 184.686 96.2393 185.652 96.2393 186.877C96.2393 187.809 95.9873 188.597 95.4834 189.241C94.9854 189.886 94.3086 190.34 93.4531 190.604L96.3975 196H94.5518L91.792 190.858C91.751 190.858 91.71 190.858 91.6689 190.858H88.5137V196H86.9316ZM88.5137 189.452H91.7568C92.665 189.452 93.377 189.224 93.8926 188.767C94.4141 188.304 94.6748 187.674 94.6748 186.877C94.6748 186.08 94.4111 185.453 93.8838 184.996C93.3623 184.539 92.6475 184.311 91.7393 184.311H88.5137V189.452ZM101.609 196.211C100.701 196.211 99.9248 196.003 99.2803 195.587C98.6416 195.171 98.1523 194.6 97.8125 193.873C97.4727 193.141 97.3027 192.309 97.3027 191.377C97.3027 190.434 97.4814 189.596 97.8389 188.863C98.1963 188.131 98.6914 187.557 99.3242 187.141C99.957 186.719 100.684 186.508 101.504 186.508C102.365 186.508 103.112 186.713 103.745 187.123C104.378 187.533 104.864 188.104 105.204 188.837C105.55 189.569 105.723 190.416 105.723 191.377V191.79H98.7793C98.8145 192.698 99.0752 193.437 99.5615 194.005C100.048 194.573 100.73 194.857 101.609 194.857C102.271 194.857 102.811 194.705 103.227 194.4C103.648 194.096 103.93 193.703 104.07 193.223H105.564C105.447 193.814 105.204 194.336 104.835 194.787C104.466 195.232 104.003 195.581 103.446 195.833C102.896 196.085 102.283 196.211 101.609 196.211ZM98.7969 190.507H104.229C104.146 189.692 103.862 189.045 103.376 188.564C102.89 188.084 102.266 187.844 101.504 187.844C100.742 187.844 100.121 188.084 99.6406 188.564C99.1602 189.045 98.8789 189.692 98.7969 190.507ZM110.662 196.211C110 196.211 109.399 196.103 108.86 195.886C108.321 195.669 107.885 195.341 107.551 194.901C107.217 194.456 107.029 193.896 106.988 193.223H108.465C108.57 194.359 109.291 194.928 110.627 194.928C111.271 194.928 111.778 194.793 112.147 194.523C112.522 194.254 112.71 193.914 112.71 193.504C112.71 193.152 112.581 192.871 112.323 192.66C112.065 192.449 111.729 192.297 111.312 192.203L109.818 191.852C108.072 191.441 107.199 190.562 107.199 189.215C107.199 188.688 107.34 188.222 107.621 187.817C107.908 187.407 108.304 187.088 108.808 186.859C109.317 186.625 109.903 186.508 110.565 186.508C111.21 186.508 111.787 186.631 112.297 186.877C112.812 187.117 113.22 187.46 113.519 187.905C113.823 188.351 113.984 188.881 114.002 189.496H112.543C112.537 189.004 112.355 188.597 111.998 188.274C111.641 187.952 111.163 187.791 110.565 187.791C109.997 187.791 109.543 187.929 109.203 188.204C108.863 188.479 108.693 188.816 108.693 189.215C108.693 189.566 108.822 189.851 109.08 190.067C109.338 190.278 109.689 190.437 110.135 190.542L111.629 190.894C112.52 191.104 113.173 191.421 113.589 191.843C114.005 192.259 114.213 192.801 114.213 193.469C114.213 194.043 114.058 194.535 113.747 194.945C113.437 195.355 113.012 195.669 112.473 195.886C111.939 196.103 111.336 196.211 110.662 196.211ZM119.803 196.211C118.895 196.211 118.118 196.003 117.474 195.587C116.835 195.171 116.346 194.6 116.006 193.873C115.666 193.141 115.496 192.309 115.496 191.377C115.496 190.434 115.675 189.596 116.032 188.863C116.39 188.131 116.885 187.557 117.518 187.141C118.15 186.719 118.877 186.508 119.697 186.508C120.559 186.508 121.306 186.713 121.938 187.123C122.571 187.533 123.058 188.104 123.397 188.837C123.743 189.569 123.916 190.416 123.916 191.377V191.79H116.973C117.008 192.698 117.269 193.437 117.755 194.005C118.241 194.573 118.924 194.857 119.803 194.857C120.465 194.857 121.004 194.705 121.42 194.4C121.842 194.096 122.123 193.703 122.264 193.223H123.758C123.641 193.814 123.397 194.336 123.028 194.787C122.659 195.232 122.196 195.581 121.64 195.833C121.089 196.085 120.477 196.211 119.803 196.211ZM116.99 190.507H122.422C122.34 189.692 122.056 189.045 121.569 188.564C121.083 188.084 120.459 187.844 119.697 187.844C118.936 187.844 118.314 188.084 117.834 188.564C117.354 189.045 117.072 189.692 116.99 190.507ZM125.621 196V186.719H127.045V188.178H127.08C127.25 187.697 127.52 187.311 127.889 187.018C128.258 186.725 128.732 186.578 129.312 186.578C129.447 186.578 129.57 186.584 129.682 186.596C129.799 186.607 129.887 186.619 129.945 186.631V188.125C129.887 188.107 129.772 188.087 129.603 188.063C129.438 188.034 129.248 188.02 129.031 188.02C128.516 188.02 128.067 188.201 127.687 188.564C127.306 188.928 127.115 189.502 127.115 190.287V196H125.621ZM134.322 196L130.736 186.719H132.354L134.357 192.062C134.492 192.42 134.621 192.777 134.744 193.135C134.867 193.486 134.987 193.841 135.104 194.198C135.228 193.841 135.351 193.486 135.474 193.135C135.597 192.777 135.723 192.42 135.852 192.062L137.829 186.719H139.42L135.834 196H134.322ZM144.271 196.211C143.363 196.211 142.587 196.003 141.942 195.587C141.304 195.171 140.814 194.6 140.475 193.873C140.135 193.141 139.965 192.309 139.965 191.377C139.965 190.434 140.144 189.596 140.501 188.863C140.858 188.131 141.354 187.557 141.986 187.141C142.619 186.719 143.346 186.508 144.166 186.508C145.027 186.508 145.774 186.713 146.407 187.123C147.04 187.533 147.526 188.104 147.866 188.837C148.212 189.569 148.385 190.416 148.385 191.377V191.79H141.441C141.477 192.698 141.737 193.437 142.224 194.005C142.71 194.573 143.393 194.857 144.271 194.857C144.934 194.857 145.473 194.705 145.889 194.4C146.311 194.096 146.592 193.703 146.732 193.223H148.227C148.109 193.814 147.866 194.336 147.497 194.787C147.128 195.232 146.665 195.581 146.108 195.833C145.558 196.085 144.945 196.211 144.271 196.211ZM141.459 190.507H146.891C146.809 189.692 146.524 189.045 146.038 188.564C145.552 188.084 144.928 187.844 144.166 187.844C143.404 187.844 142.783 188.084 142.303 188.564C141.822 189.045 141.541 189.692 141.459 190.507ZM153.324 196.211C152.662 196.211 152.062 196.103 151.522 195.886C150.983 195.669 150.547 195.341 150.213 194.901C149.879 194.456 149.691 193.896 149.65 193.223H151.127C151.232 194.359 151.953 194.928 153.289 194.928C153.934 194.928 154.44 194.793 154.81 194.523C155.185 194.254 155.372 193.914 155.372 193.504C155.372 193.152 155.243 192.871 154.985 192.66C154.728 192.449 154.391 192.297 153.975 192.203L152.48 191.852C150.734 191.441 149.861 190.562 149.861 189.215C149.861 188.688 150.002 188.222 150.283 187.817C150.57 187.407 150.966 187.088 151.47 186.859C151.979 186.625 152.565 186.508 153.228 186.508C153.872 186.508 154.449 186.631 154.959 186.877C155.475 187.117 155.882 187.46 156.181 187.905C156.485 188.351 156.646 188.881 156.664 189.496H155.205C155.199 189.004 155.018 188.597 154.66 188.274C154.303 187.952 153.825 187.791 153.228 187.791C152.659 187.791 152.205 187.929 151.865 188.204C151.525 188.479 151.355 188.816 151.355 189.215C151.355 189.566 151.484 189.851 151.742 190.067C152 190.278 152.352 190.437 152.797 190.542L154.291 190.894C155.182 191.104 155.835 191.421 156.251 191.843C156.667 192.259 156.875 192.801 156.875 193.469C156.875 194.043 156.72 194.535 156.409 194.945C156.099 195.355 155.674 195.669 155.135 195.886C154.602 196.103 153.998 196.211 153.324 196.211Z" fill="#B2B6BC"/>
<defs>
<radialGradient id="paint0_radial_5584_5695" cx="0" cy="0" r="1" gradientTransform="matrix(316 171.419 -281.302 426.574 68 62.5814)" gradientUnits="userSpaceOnUse">
<stop stop-color="#2775CA"/>
<stop offset="1" stop-color="#2775CA" stop-opacity="0"/>
</radialGradient>
<clipPath id="clip0_5584_5695">
<rect width="56" height="56" fill="white" transform="translate(32 32)"/>
</clipPath>
</defs>
</svg>
