<svg width="434" height="292" viewBox="0 0 434 292" fill="none" xmlns="http://www.w3.org/2000/svg">
<path d="M0 24C0 10.7452 10.7452 0 24 0H410C423.255 0 434 10.7452 434 24V268C434 281.255 423.255 292 410 292H24C10.7452 292 0 281.255 0 268V24Z" fill="#1C2233" fill-opacity="0.5"/>
<path d="M0 24C0 10.7452 10.7452 0 24 0H410C423.255 0 434 10.7452 434 24V268C434 281.255 423.255 292 410 292H24C10.7452 292 0 281.255 0 268V24Z" fill="url(#paint0_radial_5584_5701)" fill-opacity="0.1"/>
<g clip-path="url(#clip0_5584_5701)">
<path d="M103.446 43.1953C98.0242 43.1953 94.3828 46.7594 94.3828 52.061C94.3828 57.3627 97.8871 60.8213 103.309 60.8213C105.643 60.8213 107.231 59.8978 108.322 59.0218L108.367 60.5197H112.51V52.0631C112.51 46.7594 108.866 43.1974 103.446 43.1974V43.1953ZM108.111 53.1953C107.745 55.2098 105.806 56.7284 103.606 56.7284C100.841 56.7284 99.0558 54.8957 99.0558 52.061C99.0558 49.2263 100.843 47.3937 103.606 47.3937C105.806 47.3937 108.156 48.6189 108.156 52.061C108.156 52.154 108.142 53.0238 108.111 53.1953Z" fill="white"/>
<path d="M131.854 52.4216V38.8203H127.711L127.666 45.4608C126.575 44.5848 124.986 43.6612 122.653 43.6612C117.231 43.6612 113.727 47.0992 113.727 52.4216C113.727 57.7439 117.37 61.2873 122.79 61.2873C128.21 61.2873 131.854 57.7232 131.854 52.4216ZM127.498 52.4216C127.498 55.8637 125.146 57.0889 122.948 57.0889C120.182 57.0889 118.398 55.2563 118.398 52.4216C118.398 49.5868 120.184 47.7542 122.948 47.7542C125.15 47.7542 127.086 49.2728 127.453 51.2873C127.484 51.4587 127.498 52.3286 127.498 52.4216Z" fill="white"/>
<path d="M95.5441 44.4181V43.4719C93.3765 43.2239 90.6848 43.3685 89.293 45.5607L89.2479 43.7797H85.1562V60.6371H89.6962V52.0731C89.6962 51.9801 89.7412 51.1144 89.7412 50.9388C89.7412 48.2611 91.5138 47.5276 93.5054 47.4223C94.0171 46.3582 94.6967 45.3727 95.5441 44.4181Z" fill="white"/>
<path d="M83.0698 47.3836V43.7844H79.7969V39.4766L75.0092 40.2576V43.7865H73.6562V47.3857H75.0092V55.6894C75.0092 58.9146 77.2096 60.6439 80.1182 60.6439C81.7393 60.6439 83.0698 60.3877 83.0698 60.3877V56.2823C83.0698 56.2823 82.3063 56.3629 82.03 56.3815C80.8715 56.458 79.7969 56.5138 79.7969 55.3381V47.3857H83.0698V47.3836Z" fill="white"/>
<path d="M155.005 43.7422C152.344 43.7422 149.959 44.955 148.365 46.862C147.085 48.3909 146.314 50.362 146.314 52.5149C146.314 55.0335 144.275 57.0748 141.761 57.0748C139.248 57.0748 137.209 55.0335 137.209 52.5149C137.209 52.267 137.23 52.0211 137.268 51.7835C137.618 49.612 139.495 47.955 141.761 47.955C143.532 47.955 145.065 48.9695 145.818 50.4467C146.148 48.9633 146.827 47.5666 147.812 46.3889C147.83 46.3682 147.849 46.3455 147.867 46.3248C146.297 44.769 144.14 43.8083 141.761 43.8083C137.215 43.8083 133.474 47.3228 133.101 51.7835C133.081 52.0252 133.07 52.269 133.07 52.5149C133.07 57.3145 136.97 61.2195 141.761 61.2195C144.402 61.2195 146.77 60.0335 148.365 58.1678C149.664 56.6451 150.452 54.6699 150.452 52.5149C150.452 49.9777 152.491 47.9199 155.005 47.9199C157.518 47.9199 159.557 49.9777 159.557 52.5149C159.557 52.7628 159.536 53.0087 159.499 53.2463C159.151 55.4364 157.272 57.11 155.005 57.11C153.23 57.11 151.695 56.0852 150.944 54.5893C150.608 56.0769 149.916 57.4715 148.913 58.6451C148.895 58.6657 148.876 58.6864 148.858 58.7091C150.432 60.3021 152.606 61.2876 155.005 61.2876C159.553 61.2876 163.296 57.7422 163.665 53.2463C163.685 53.0046 163.696 52.7608 163.696 52.5149C163.696 47.6781 159.796 43.7422 155.005 43.7422Z" fill="white"/>
<path d="M168.002 40.8324C168.002 42.0307 167.07 42.9708 165.857 42.9708C164.643 42.9708 163.699 42.0307 163.699 40.8324C163.699 39.634 164.657 38.7188 165.857 38.7188C167.056 38.7188 168.002 39.6588 168.002 40.8324ZM164.236 40.8324C164.236 41.7725 164.925 42.5204 165.869 42.5204C166.813 42.5204 167.465 41.7725 167.465 40.8448C167.465 39.9171 166.788 39.1444 165.857 39.1444C164.925 39.1444 164.236 39.9047 164.236 40.8324ZM165.525 41.9419H165.04V39.8283C165.232 39.789 165.5 39.7642 165.844 39.7642C166.239 39.7642 166.42 39.8283 166.573 39.9192C166.688 40.0101 166.778 40.1774 166.778 40.384C166.778 40.6154 166.6 40.7973 166.344 40.8737V40.8985C166.548 40.9749 166.663 41.1299 166.727 41.415C166.79 41.7373 166.829 41.8654 166.88 41.944H166.356C166.293 41.8675 166.254 41.6733 166.19 41.4274C166.151 41.196 166.024 41.0927 165.756 41.0927H165.527V41.944L165.525 41.9419ZM165.537 40.7415H165.767C166.035 40.7415 166.252 40.6506 166.252 40.4316C166.252 40.2373 166.11 40.1092 165.805 40.1092C165.679 40.1092 165.588 40.1216 165.537 40.134V40.7394V40.7415Z" fill="white"/>
<path d="M49.8323 32C39.9992 32 32 40.0744 32 50C32 59.9256 39.9992 68 49.8323 68C59.6655 68 67.6646 59.9256 67.6646 50C67.6646 40.0744 59.6655 32 49.8323 32ZM49.8323 66.1405C41.0021 66.1405 33.8422 58.9132 33.8422 50C33.8422 41.0868 41.0021 33.8595 49.8323 33.8595C58.6625 33.8595 65.8224 41.0868 65.8224 50C65.8224 58.9132 58.6625 66.1405 49.8323 66.1405Z" fill="white"/>
<path d="M55.0585 43.0781C52.9584 43.0781 51.0773 44.0347 49.8185 45.5409C48.8094 46.7475 48.1994 48.3033 48.1994 50.0017C48.1994 51.9893 46.5906 53.6009 44.6072 53.6009C42.6238 53.6009 41.0149 51.9893 41.0149 50.0017C41.0149 49.8054 41.0313 49.6132 41.062 49.4252C41.3383 47.7124 42.8203 46.4046 44.6072 46.4046C46.0052 46.4046 47.2149 47.2042 47.8085 48.3715C48.0684 47.2 48.6047 46.0988 49.3805 45.169C49.3948 45.1525 49.4091 45.136 49.4235 45.1194C48.1831 43.8922 46.4821 43.1339 44.6051 43.1339C41.017 43.1339 38.0654 45.9087 37.7707 49.4273C37.7543 49.6174 37.7461 49.8095 37.7461 50.0037C37.7461 53.7909 40.8225 56.8736 44.6051 56.8736C46.6889 56.8736 48.5576 55.9376 49.8165 54.4645C50.842 53.2641 51.4642 51.7042 51.4642 50.0037C51.4642 48.0017 53.073 46.3777 55.0564 46.3777C57.0399 46.3777 58.6487 48.0017 58.6487 50.0037C58.6487 50.2 58.6323 50.3922 58.6037 50.5802C58.3294 52.3095 56.8454 53.6298 55.0564 53.6298C53.6564 53.6298 52.4446 52.8199 51.8511 51.6401C51.587 52.8137 51.0405 53.9149 50.2484 54.8405C50.234 54.857 50.2197 54.8736 50.2054 54.8901C51.4478 56.1463 53.1631 56.9252 55.0564 56.9252C58.6467 56.9252 61.6003 54.1277 61.8909 50.5781C61.9073 50.388 61.9155 50.1959 61.9155 50.0017C61.9155 46.1835 58.8391 43.0781 55.0564 43.0781H55.0585Z" fill="white"/>
</g>
<path d="M33.4531 149V131.539H36.793L42.9219 141.277C43.1328 141.605 43.4102 142.07 43.7539 142.672C44.0977 143.273 44.4453 143.887 44.7969 144.512C44.7734 143.855 44.7539 143.203 44.7383 142.555C44.7305 141.898 44.7266 141.398 44.7266 141.055V131.539H47.832V149H44.4805L38.9492 140.234C38.6992 139.844 38.3555 139.281 37.918 138.547C37.4805 137.805 36.9961 136.961 36.4648 136.016C36.5039 136.984 36.5273 137.832 36.5352 138.559C36.543 139.285 36.5469 139.84 36.5469 140.223V149H33.4531ZM55.9006 149.281C54.6819 149.281 53.6155 149.012 52.7014 148.473C51.7873 147.926 51.0725 147.168 50.5569 146.199C50.0491 145.23 49.7952 144.105 49.7952 142.824C49.7952 141.543 50.0491 140.418 50.5569 139.449C51.0725 138.473 51.7873 137.711 52.7014 137.164C53.6155 136.617 54.6819 136.344 55.9006 136.344C57.1116 136.344 58.1741 136.617 59.0881 137.164C60.01 137.711 60.7248 138.473 61.2327 139.449C61.7483 140.418 62.0061 141.543 62.0061 142.824C62.0061 144.105 61.7483 145.23 61.2327 146.199C60.7248 147.168 60.01 147.926 59.0881 148.473C58.1741 149.012 57.1116 149.281 55.9006 149.281ZM55.9006 146.809C56.8459 146.809 57.5998 146.453 58.1623 145.742C58.7248 145.031 59.0061 144.059 59.0061 142.824C59.0061 141.59 58.7248 140.613 58.1623 139.895C57.5998 139.176 56.8459 138.816 55.9006 138.816C54.9475 138.816 54.1897 139.176 53.6272 139.895C53.0647 140.605 52.7834 141.582 52.7834 142.824C52.7834 144.059 53.0647 145.031 53.6272 145.742C54.1897 146.453 54.9475 146.809 55.9006 146.809ZM66.77 142.004V149H63.8169V136.625H66.7231V138.523C67.5825 137.094 68.8481 136.379 70.52 136.379C71.8169 136.379 72.8755 136.797 73.6958 137.633C74.5239 138.469 74.938 139.68 74.938 141.266V149H71.9731V141.734C71.9731 140.828 71.7544 140.141 71.3169 139.672C70.8794 139.203 70.2661 138.969 69.477 138.969C68.7036 138.969 68.0591 139.211 67.5434 139.695C67.0278 140.18 66.77 140.949 66.77 142.004ZM85.2097 140.797V143.281H77.3816V140.797H85.2097ZM95.3994 149.281C93.79 149.281 92.3681 148.91 91.1338 148.168C89.8994 147.426 88.9306 146.379 88.2275 145.027C87.5244 143.676 87.1728 142.094 87.1728 140.281C87.1728 138.453 87.5244 136.863 88.2275 135.512C88.9306 134.16 89.8994 133.113 91.1338 132.371C92.3681 131.629 93.79 131.258 95.3994 131.258C96.7119 131.258 97.8994 131.516 98.9619 132.031C100.024 132.547 100.899 133.273 101.587 134.211C102.282 135.148 102.728 136.254 102.923 137.527H99.7705C99.5361 136.418 99.0322 135.559 98.2588 134.949C97.4853 134.34 96.54 134.035 95.4228 134.035C94.3603 134.035 93.4423 134.293 92.6689 134.809C91.9033 135.324 91.3134 136.051 90.8994 136.988C90.4931 137.926 90.29 139.023 90.29 140.281C90.29 141.531 90.4931 142.625 90.8994 143.562C91.3134 144.492 91.9033 145.215 92.6689 145.73C93.4345 146.246 94.3525 146.504 95.4228 146.504C96.5322 146.504 97.4736 146.203 98.247 145.602C99.0205 145 99.5322 144.145 99.7822 143.035H102.923C102.728 144.309 102.282 145.414 101.587 146.352C100.899 147.281 100.024 148.004 98.9619 148.52C97.8994 149.027 96.7119 149.281 95.3994 149.281ZM109.198 149.246C107.902 149.246 106.843 148.828 106.023 147.992C105.202 147.156 104.792 145.945 104.792 144.359V136.625H107.745V143.891C107.745 144.797 107.964 145.484 108.402 145.953C108.839 146.422 109.452 146.656 110.241 146.656C111.023 146.656 111.667 146.414 112.175 145.93C112.691 145.445 112.948 144.676 112.948 143.621V136.625H115.913V149H113.007V147.102C112.14 148.531 110.87 149.246 109.198 149.246ZM123.162 149.293C121.654 149.293 120.392 148.941 119.376 148.238C118.369 147.527 117.818 146.508 117.724 145.18H120.642C120.705 145.781 120.947 146.25 121.369 146.586C121.79 146.914 122.372 147.078 123.115 147.078C123.826 147.078 124.384 146.938 124.79 146.656C125.205 146.375 125.412 146.016 125.412 145.578C125.412 145.203 125.259 144.902 124.955 144.676C124.65 144.449 124.24 144.281 123.724 144.172L121.615 143.738C119.208 143.238 118.005 142.047 118.005 140.164C118.005 139.023 118.458 138.105 119.365 137.41C120.271 136.707 121.478 136.355 122.986 136.355C124.486 136.355 125.705 136.727 126.642 137.469C127.587 138.203 128.076 139.207 128.107 140.48H125.33C125.314 139.926 125.099 139.469 124.685 139.109C124.271 138.75 123.728 138.57 123.056 138.57C122.408 138.57 121.896 138.715 121.521 139.004C121.146 139.293 120.958 139.648 120.958 140.07C120.958 140.438 121.103 140.738 121.392 140.973C121.681 141.199 122.083 141.371 122.599 141.488L124.826 141.945C126.052 142.203 126.955 142.609 127.533 143.164C128.119 143.719 128.412 144.449 128.412 145.355C128.412 146.16 128.185 146.859 127.732 147.453C127.287 148.039 126.669 148.492 125.88 148.812C125.091 149.133 124.185 149.293 123.162 149.293ZM135.672 136.625V139.004H133.14V145.449C133.14 145.895 133.23 146.203 133.41 146.375C133.59 146.539 133.922 146.621 134.406 146.621H135.672V149H133.89C132.625 149 131.691 148.746 131.09 148.238C130.488 147.73 130.187 146.945 130.187 145.883V133.25H133.14V136.625H135.672ZM142.627 149.281C141.408 149.281 140.342 149.012 139.428 148.473C138.514 147.926 137.799 147.168 137.283 146.199C136.775 145.23 136.521 144.105 136.521 142.824C136.521 141.543 136.775 140.418 137.283 139.449C137.799 138.473 138.514 137.711 139.428 137.164C140.342 136.617 141.408 136.344 142.627 136.344C143.838 136.344 144.9 136.617 145.814 137.164C146.736 137.711 147.451 138.473 147.959 139.449C148.475 140.418 148.732 141.543 148.732 142.824C148.732 144.105 148.475 145.23 147.959 146.199C147.451 147.168 146.736 147.926 145.814 148.473C144.9 149.012 143.838 149.281 142.627 149.281ZM142.627 146.809C143.572 146.809 144.326 146.453 144.889 145.742C145.451 145.031 145.732 144.059 145.732 142.824C145.732 141.59 145.451 140.613 144.889 139.895C144.326 139.176 143.572 138.816 142.627 138.816C141.674 138.816 140.916 139.176 140.353 139.895C139.791 140.605 139.51 141.582 139.51 142.824C139.51 144.059 139.791 145.031 140.353 145.742C140.916 146.453 141.674 146.809 142.627 146.809ZM155.324 149.246C154.246 149.246 153.305 148.977 152.5 148.438C151.695 147.898 151.07 147.148 150.625 146.188C150.188 145.219 149.969 144.09 149.969 142.801C149.969 141.535 150.192 140.422 150.637 139.461C151.082 138.492 151.707 137.738 152.512 137.199C153.317 136.652 154.246 136.379 155.301 136.379C156.106 136.379 156.828 136.543 157.469 136.871C158.11 137.199 158.629 137.703 159.027 138.383H159.051V131.539H162.004V149H159.098V147.113H159.074C158.684 147.832 158.16 148.367 157.504 148.719C156.856 149.07 156.129 149.246 155.324 149.246ZM156.016 146.773C156.985 146.773 157.758 146.414 158.336 145.695C158.922 144.969 159.215 144.004 159.215 142.801C159.215 141.598 158.922 140.637 158.336 139.918C157.758 139.191 156.985 138.828 156.016 138.828C155.102 138.828 154.363 139.172 153.801 139.859C153.238 140.547 152.957 141.527 152.957 142.801C152.957 144.082 153.238 145.066 153.801 145.754C154.363 146.434 155.102 146.773 156.016 146.773ZM164.389 149V136.625H167.342V149H164.389ZM165.866 134.785C165.358 134.785 164.936 134.625 164.6 134.305C164.264 133.977 164.096 133.574 164.096 133.098C164.096 132.621 164.264 132.223 164.6 131.902C164.936 131.582 165.358 131.422 165.866 131.422C166.366 131.422 166.784 131.582 167.12 131.902C167.455 132.223 167.623 132.621 167.623 133.098C167.623 133.574 167.455 133.977 167.12 134.305C166.784 134.625 166.366 134.785 165.866 134.785ZM173.501 149.199C172.266 149.199 171.243 148.891 170.43 148.273C169.626 147.648 169.223 146.719 169.223 145.484C169.223 144.547 169.45 143.824 169.903 143.316C170.364 142.801 170.962 142.426 171.696 142.191C172.438 141.957 173.235 141.797 174.087 141.711C175.235 141.578 176.036 141.461 176.489 141.359C176.942 141.258 177.169 140.996 177.169 140.574V140.48C177.169 139.949 176.965 139.516 176.559 139.18C176.161 138.844 175.61 138.676 174.907 138.676C174.188 138.676 173.602 138.844 173.149 139.18C172.704 139.516 172.462 139.945 172.423 140.469H169.575C169.645 139.242 170.157 138.254 171.11 137.504C172.063 136.754 173.348 136.379 174.965 136.379C176.575 136.379 177.833 136.754 178.739 137.504C179.645 138.254 180.098 139.273 180.098 140.562V149H177.192V147.254H177.145C176.848 147.801 176.419 148.262 175.856 148.637C175.294 149.012 174.508 149.199 173.501 149.199ZM174.227 147.008C175.196 147.008 175.93 146.758 176.43 146.258C176.93 145.75 177.18 145.137 177.18 144.418V143.082C177.001 143.199 176.653 143.309 176.137 143.41C175.622 143.504 175.059 143.598 174.45 143.691C173.817 143.785 173.266 143.965 172.798 144.23C172.337 144.488 172.106 144.898 172.106 145.461C172.106 145.945 172.298 146.324 172.68 146.598C173.063 146.871 173.579 147.008 174.227 147.008ZM186.186 149C184.866 149 183.917 148.758 183.339 148.273C182.761 147.781 182.472 146.969 182.472 145.836V131.539H185.425V145.543C185.425 145.98 185.503 146.277 185.659 146.434C185.823 146.59 186.12 146.668 186.55 146.668H187.042V149H186.186ZM200.097 149.281C197.933 149.281 196.238 148.754 195.011 147.699C193.792 146.637 193.183 145.172 193.183 143.305H196.218C196.234 144.359 196.581 145.184 197.261 145.777C197.949 146.371 198.902 146.668 200.12 146.668C201.206 146.668 202.081 146.441 202.745 145.988C203.41 145.527 203.742 144.914 203.742 144.148C203.742 143.531 203.492 143.031 202.992 142.648C202.492 142.258 201.66 141.93 200.495 141.664L198.62 141.242C196.878 140.844 195.593 140.254 194.765 139.473C193.937 138.691 193.523 137.688 193.523 136.461C193.523 135.422 193.788 134.512 194.32 133.73C194.859 132.949 195.609 132.344 196.57 131.914C197.538 131.477 198.663 131.258 199.945 131.258C201.898 131.258 203.445 131.754 204.585 132.746C205.734 133.738 206.331 135.102 206.378 136.836H203.437C203.374 135.914 203.031 135.191 202.406 134.668C201.781 134.145 200.956 133.883 199.933 133.883C198.964 133.883 198.171 134.109 197.554 134.562C196.937 135.016 196.628 135.598 196.628 136.309C196.628 136.895 196.87 137.371 197.355 137.738C197.847 138.098 198.663 138.406 199.804 138.664L201.574 139.074C203.386 139.473 204.714 140.066 205.558 140.855C206.402 141.645 206.824 142.68 206.824 143.961C206.824 145.047 206.55 145.988 206.003 146.785C205.456 147.582 204.679 148.199 203.671 148.637C202.663 149.066 201.472 149.281 200.097 149.281ZM208.752 149V136.625H211.611V138.77C211.986 137.973 212.505 137.375 213.17 136.977C213.834 136.578 214.556 136.379 215.337 136.379C216.173 136.379 216.912 136.594 217.552 137.023C218.193 137.445 218.642 138.012 218.9 138.723C219.228 138.012 219.74 137.445 220.435 137.023C221.13 136.594 221.931 136.379 222.837 136.379C224.009 136.379 224.994 136.758 225.791 137.516C226.587 138.273 226.986 139.379 226.986 140.832V149H224.021V141.254C224.021 140.434 223.795 139.836 223.341 139.461C222.896 139.078 222.357 138.887 221.724 138.887C220.974 138.887 220.38 139.121 219.943 139.59C219.513 140.059 219.298 140.664 219.298 141.406V149H216.427V141.113C216.427 140.441 216.216 139.902 215.795 139.496C215.373 139.09 214.834 138.887 214.177 138.887C213.513 138.887 212.935 139.121 212.443 139.59C211.951 140.051 211.705 140.727 211.705 141.617V149H208.752ZM233.144 149.199C231.91 149.199 230.887 148.891 230.074 148.273C229.269 147.648 228.867 146.719 228.867 145.484C228.867 144.547 229.094 143.824 229.547 143.316C230.008 142.801 230.605 142.426 231.34 142.191C232.082 141.957 232.879 141.797 233.73 141.711C234.879 141.578 235.68 141.461 236.133 141.359C236.586 141.258 236.812 140.996 236.812 140.574V140.48C236.812 139.949 236.609 139.516 236.203 139.18C235.805 138.844 235.254 138.676 234.551 138.676C233.832 138.676 233.246 138.844 232.793 139.18C232.348 139.516 232.105 139.945 232.066 140.469H229.219C229.289 139.242 229.801 138.254 230.754 137.504C231.707 136.754 232.992 136.379 234.609 136.379C236.219 136.379 237.476 136.754 238.383 137.504C239.289 138.254 239.742 139.273 239.742 140.562V149H236.836V147.254H236.789C236.492 147.801 236.062 148.262 235.5 148.637C234.937 149.012 234.152 149.199 233.144 149.199ZM233.871 147.008C234.84 147.008 235.574 146.758 236.074 146.258C236.574 145.75 236.824 145.137 236.824 144.418V143.082C236.644 143.199 236.297 143.309 235.781 143.41C235.265 143.504 234.703 143.598 234.094 143.691C233.461 143.785 232.91 143.965 232.441 144.23C231.98 144.488 231.75 144.898 231.75 145.461C231.75 145.945 231.941 146.324 232.324 146.598C232.707 146.871 233.223 147.008 233.871 147.008ZM242.115 149V136.625H244.963V138.676H244.998C245.225 137.973 245.58 137.438 246.065 137.07C246.557 136.695 247.201 136.508 247.998 136.508C248.201 136.508 248.381 136.516 248.537 136.531C248.701 136.539 248.842 136.547 248.959 136.555V139.18C248.85 139.164 248.662 139.145 248.397 139.121C248.131 139.098 247.854 139.086 247.565 139.086C246.861 139.086 246.268 139.328 245.783 139.812C245.307 140.297 245.068 141.023 245.068 141.992V149H242.115ZM255.75 136.625V139.004H253.219V145.449C253.219 145.895 253.309 146.203 253.489 146.375C253.668 146.539 254 146.621 254.485 146.621H255.75V149H253.969C252.703 149 251.77 148.746 251.168 148.238C250.567 147.73 250.266 146.945 250.266 145.883V133.25H253.219V136.625H255.75ZM267.634 149L261.399 131.539H264.751L267.903 140.715C268.137 141.449 268.391 142.27 268.665 143.176C268.946 144.074 269.255 145.078 269.591 146.188C269.919 145.078 270.22 144.074 270.493 143.176C270.766 142.27 271.016 141.449 271.243 140.715L274.29 131.539H277.606L271.489 149H267.634ZM280.929 149.199C279.694 149.199 278.671 148.891 277.858 148.273C277.054 147.648 276.651 146.719 276.651 145.484C276.651 144.547 276.878 143.824 277.331 143.316C277.792 142.801 278.39 142.426 279.124 142.191C279.866 141.957 280.663 141.797 281.515 141.711C282.663 141.578 283.464 141.461 283.917 141.359C284.37 141.258 284.597 140.996 284.597 140.574V140.48C284.597 139.949 284.394 139.516 283.987 139.18C283.589 138.844 283.038 138.676 282.335 138.676C281.616 138.676 281.03 138.844 280.577 139.18C280.132 139.516 279.89 139.945 279.851 140.469H277.003C277.073 139.242 277.585 138.254 278.538 137.504C279.491 136.754 280.776 136.379 282.394 136.379C284.003 136.379 285.261 136.754 286.167 137.504C287.073 138.254 287.526 139.273 287.526 140.562V149H284.62V147.254H284.573C284.276 147.801 283.847 148.262 283.284 148.637C282.722 149.012 281.937 149.199 280.929 149.199ZM281.655 147.008C282.624 147.008 283.358 146.758 283.858 146.258C284.358 145.75 284.608 145.137 284.608 144.418V143.082C284.429 143.199 284.081 143.309 283.565 143.41C283.05 143.504 282.487 143.598 281.878 143.691C281.245 143.785 280.694 143.965 280.226 144.23C279.765 144.488 279.534 144.898 279.534 145.461C279.534 145.945 279.726 146.324 280.108 146.598C280.491 146.871 281.007 147.008 281.655 147.008ZM294.306 149.246C293.009 149.246 291.95 148.828 291.13 147.992C290.31 147.156 289.9 145.945 289.9 144.359V136.625H292.853V143.891C292.853 144.797 293.072 145.484 293.509 145.953C293.947 146.422 294.56 146.656 295.349 146.656C296.13 146.656 296.775 146.414 297.283 145.93C297.798 145.445 298.056 144.676 298.056 143.621V136.625H301.021V149H298.115V147.102C297.247 148.531 295.978 149.246 294.306 149.246ZM307.132 149C305.812 149 304.863 148.758 304.285 148.273C303.707 147.781 303.418 146.969 303.418 145.836V131.539H306.371V145.543C306.371 145.98 306.449 146.277 306.605 146.434C306.769 146.59 307.066 146.668 307.496 146.668H307.988V149H307.132ZM314.873 136.625V139.004H312.342V145.449C312.342 145.895 312.431 146.203 312.611 146.375C312.791 146.539 313.123 146.621 313.607 146.621H314.873V149H313.092C311.826 149 310.892 148.746 310.291 148.238C309.689 147.73 309.388 146.945 309.388 145.883V133.25H312.342V136.625H314.873Z" fill="white"/>
<path d="M32 186C32 182.686 34.6863 180 38 180H187C190.314 180 193 182.686 193 186V210C193 213.314 190.314 216 187 216H38C34.6863 216 32 213.314 32 210V186Z" fill="#192E3C"/>
<path d="M47.2812 204L44.125 192.359H45.9297L47.6406 199.133C47.7656 199.633 47.8828 200.135 47.9922 200.641C48.1016 201.141 48.2083 201.643 48.3125 202.148C48.4167 201.643 48.526 201.141 48.6406 200.641C48.7552 200.135 48.8776 199.633 49.0078 199.133L50.7734 192.359H52.6719L54.4219 199.133C54.6719 200.122 54.9036 201.115 55.1172 202.109C55.2214 201.615 55.3281 201.12 55.4375 200.625C55.5521 200.125 55.6693 199.628 55.7891 199.133L57.5 192.359H59.3125L56.1406 204H54.1562L52.2422 196.883C52.1484 196.523 52.0573 196.156 51.9688 195.781C51.8854 195.401 51.7995 195.013 51.7109 194.617C51.6276 195.013 51.5443 195.401 51.4609 195.781C51.3776 196.156 51.2865 196.523 51.1875 196.883L49.2891 204H47.2812ZM62.0156 199.25V204H60.3672V192.359H62.0156V196.938C62.5833 196.036 63.4036 195.586 64.4766 195.586C65.0443 195.586 65.5521 195.711 66 195.961C66.4531 196.206 66.8099 196.57 67.0703 197.055C67.3307 197.539 67.4609 198.141 67.4609 198.859V204H65.8125V199.062C65.8125 198.401 65.6536 197.904 65.3359 197.57C65.0182 197.232 64.5755 197.062 64.0078 197.062C63.4453 197.062 62.9714 197.237 62.5859 197.586C62.2057 197.93 62.0156 198.484 62.0156 199.25ZM69.3203 204V195.75H70.9688V204H69.3203ZM70.1406 194.328C69.849 194.328 69.6016 194.232 69.3984 194.039C69.2005 193.841 69.1016 193.602 69.1016 193.32C69.1016 193.034 69.2005 192.794 69.3984 192.602C69.6016 192.404 69.849 192.305 70.1406 192.305C70.4323 192.305 70.6797 192.404 70.8828 192.602C71.0859 192.794 71.1875 193.034 71.1875 193.32C71.1875 193.602 71.0859 193.841 70.8828 194.039C70.6797 194.232 70.4323 194.328 70.1406 194.328ZM76.9531 195.75V197.109H75.2812V201.82C75.2812 202.128 75.3438 202.341 75.4688 202.461C75.5938 202.581 75.8203 202.641 76.1484 202.641H76.9531V204H75.9141C74.388 204 73.625 203.344 73.625 202.031V197.109H72.1719V195.75H73.625V193.5H75.2812V195.75H76.9531ZM81.6406 204.188C80.8229 204.188 80.1198 204.003 79.5312 203.633C78.9479 203.263 78.4974 202.755 78.1797 202.109C77.8672 201.458 77.7109 200.719 77.7109 199.891C77.7109 199.052 77.875 198.307 78.2031 197.656C78.5312 197.005 78.9844 196.495 79.5625 196.125C80.1406 195.75 80.8047 195.562 81.5547 195.562C82.3359 195.562 83.013 195.745 83.5859 196.109C84.1641 196.474 84.612 196.982 84.9297 197.633C85.2474 198.279 85.4062 199.026 85.4062 199.875V200.32H79.3359C79.3672 201.065 79.5807 201.667 79.9766 202.125C80.3776 202.583 80.9401 202.812 81.6641 202.812C82.2057 202.812 82.651 202.69 83 202.445C83.349 202.201 83.5807 201.883 83.6953 201.492H85.2812C85.1823 202.023 84.9609 202.492 84.6172 202.898C84.2786 203.305 83.8516 203.622 83.3359 203.852C82.8255 204.076 82.2604 204.188 81.6406 204.188ZM79.3516 199.07H83.7969C83.7292 198.414 83.4974 197.896 83.1016 197.516C82.7057 197.13 82.1953 196.938 81.5703 196.938C80.9453 196.938 80.4349 197.13 80.0391 197.516C79.6484 197.896 79.4193 198.414 79.3516 199.07ZM88.4844 192.359V204H86.8359V192.359H88.4844ZM90.3516 204V195.75H92V204H90.3516ZM91.1719 194.328C90.8802 194.328 90.6328 194.232 90.4297 194.039C90.2318 193.841 90.1328 193.602 90.1328 193.32C90.1328 193.034 90.2318 192.794 90.4297 192.602C90.6328 192.404 90.8802 192.305 91.1719 192.305C91.4635 192.305 91.7109 192.404 91.9141 192.602C92.1172 192.794 92.2188 193.034 92.2188 193.32C92.2188 193.602 92.1172 193.841 91.9141 194.039C91.7109 194.232 91.4635 194.328 91.1719 194.328ZM96.9219 204.195C96.2917 204.195 95.724 204.094 95.2188 203.891C94.7135 203.688 94.3047 203.385 93.9922 202.984C93.6849 202.583 93.513 202.086 93.4766 201.492H95.1016C95.1953 202.419 95.7917 202.883 96.8906 202.883C97.4115 202.883 97.8229 202.776 98.125 202.562C98.4323 202.349 98.5859 202.078 98.5859 201.75C98.5859 201.469 98.4766 201.245 98.2578 201.078C98.0391 200.906 97.7526 200.781 97.3984 200.703L96.0312 200.398C94.4531 200.055 93.6641 199.268 93.6641 198.039C93.6641 197.31 93.9531 196.716 94.5312 196.258C95.1146 195.799 95.8776 195.57 96.8203 195.57C97.7526 195.57 98.5182 195.812 99.1172 196.297C99.7214 196.776 100.034 197.432 100.055 198.266H98.4766C98.4714 197.865 98.3203 197.534 98.0234 197.273C97.7266 197.008 97.3333 196.875 96.8438 196.875C96.375 196.875 96.0026 196.984 95.7266 197.203C95.4505 197.422 95.3125 197.69 95.3125 198.008C95.3125 198.289 95.4167 198.516 95.625 198.688C95.8385 198.859 96.1302 198.987 96.5 199.07L97.9062 199.383C98.7083 199.56 99.2995 199.833 99.6797 200.203C100.06 200.573 100.25 201.057 100.25 201.656C100.25 202.182 100.104 202.635 99.8125 203.016C99.526 203.391 99.1328 203.682 98.6328 203.891C98.1328 204.094 97.5625 204.195 96.9219 204.195ZM105.844 195.75V197.109H104.172V201.82C104.172 202.128 104.234 202.341 104.359 202.461C104.484 202.581 104.711 202.641 105.039 202.641H105.844V204H104.805C103.279 204 102.516 203.344 102.516 202.031V197.109H101.062V195.75H102.516V193.5H104.172V195.75H105.844ZM110.531 204.188C109.714 204.188 109.01 204.003 108.422 203.633C107.839 203.263 107.388 202.755 107.07 202.109C106.758 201.458 106.602 200.719 106.602 199.891C106.602 199.052 106.766 198.307 107.094 197.656C107.422 197.005 107.875 196.495 108.453 196.125C109.031 195.75 109.695 195.562 110.445 195.562C111.227 195.562 111.904 195.745 112.477 196.109C113.055 196.474 113.503 196.982 113.82 197.633C114.138 198.279 114.297 199.026 114.297 199.875V200.32H108.227C108.258 201.065 108.471 201.667 108.867 202.125C109.268 202.583 109.831 202.812 110.555 202.812C111.096 202.812 111.542 202.69 111.891 202.445C112.24 202.201 112.471 201.883 112.586 201.492H114.172C114.073 202.023 113.852 202.492 113.508 202.898C113.169 203.305 112.742 203.622 112.227 203.852C111.716 204.076 111.151 204.188 110.531 204.188ZM108.242 199.07H112.688C112.62 198.414 112.388 197.896 111.992 197.516C111.596 197.13 111.086 196.938 110.461 196.938C109.836 196.938 109.326 197.13 108.93 197.516C108.539 197.896 108.31 198.414 108.242 199.07ZM118.898 204.164C118.18 204.164 117.552 203.984 117.016 203.625C116.479 203.26 116.062 202.758 115.766 202.117C115.469 201.471 115.32 200.724 115.32 199.875C115.32 199.026 115.469 198.281 115.766 197.641C116.068 196.995 116.487 196.492 117.023 196.133C117.56 195.768 118.182 195.586 118.891 195.586C119.427 195.586 119.917 195.698 120.359 195.922C120.802 196.146 121.156 196.487 121.422 196.945H121.438V192.359H123.086V204H121.469V202.742H121.453C121.177 203.221 120.815 203.578 120.367 203.812C119.924 204.047 119.435 204.164 118.898 204.164ZM119.234 202.742C119.938 202.742 120.497 202.482 120.914 201.961C121.336 201.435 121.547 200.74 121.547 199.875C121.547 199.005 121.336 198.31 120.914 197.789C120.497 197.263 119.938 197 119.234 197C118.568 197 118.026 197.247 117.609 197.742C117.198 198.232 116.992 198.943 116.992 199.875C116.992 200.807 117.198 201.518 117.609 202.008C118.026 202.497 118.568 202.742 119.234 202.742ZM132.18 204L127.953 192.359H129.82L132.125 198.922C132.266 199.344 132.427 199.841 132.609 200.414C132.792 200.987 133.005 201.656 133.25 202.422C133.484 201.656 133.69 200.987 133.867 200.414C134.049 199.841 134.211 199.344 134.352 198.922L136.594 192.359H138.43L134.266 204H132.18ZM141.859 204.188C141.042 204.188 140.339 204.003 139.75 203.633C139.167 203.263 138.716 202.755 138.398 202.109C138.086 201.458 137.93 200.719 137.93 199.891C137.93 199.052 138.094 198.307 138.422 197.656C138.75 197.005 139.203 196.495 139.781 196.125C140.359 195.75 141.023 195.562 141.773 195.562C142.555 195.562 143.232 195.745 143.805 196.109C144.383 196.474 144.831 196.982 145.148 197.633C145.466 198.279 145.625 199.026 145.625 199.875V200.32H139.555C139.586 201.065 139.799 201.667 140.195 202.125C140.596 202.583 141.159 202.812 141.883 202.812C142.424 202.812 142.87 202.69 143.219 202.445C143.568 202.201 143.799 201.883 143.914 201.492H145.5C145.401 202.023 145.18 202.492 144.836 202.898C144.497 203.305 144.07 203.622 143.555 203.852C143.044 204.076 142.479 204.188 141.859 204.188ZM139.57 199.07H144.016C143.948 198.414 143.716 197.896 143.32 197.516C142.924 197.13 142.414 196.938 141.789 196.938C141.164 196.938 140.654 197.13 140.258 197.516C139.867 197.896 139.638 198.414 139.57 199.07ZM148.703 199.25V204H147.055V195.75H148.672V196.992C149.234 196.055 150.065 195.586 151.164 195.586C151.732 195.586 152.24 195.711 152.688 195.961C153.141 196.206 153.497 196.57 153.758 197.055C154.018 197.539 154.148 198.141 154.148 198.859V204H152.5V199.062C152.5 198.401 152.341 197.904 152.023 197.57C151.706 197.232 151.263 197.062 150.695 197.062C150.133 197.062 149.659 197.237 149.273 197.586C148.893 197.93 148.703 198.484 148.703 199.25ZM158.992 204.164C158.43 204.164 157.922 204.042 157.469 203.797C157.021 203.547 156.664 203.18 156.398 202.695C156.138 202.211 156.008 201.609 156.008 200.891V195.75H157.656V200.688C157.656 201.349 157.815 201.849 158.133 202.188C158.451 202.521 158.896 202.688 159.469 202.688C160.026 202.688 160.495 202.516 160.875 202.172C161.26 201.823 161.453 201.266 161.453 200.5V195.75H163.102V204H161.484V202.758C160.922 203.695 160.091 204.164 158.992 204.164ZM168.484 204.188C167.667 204.188 166.964 204.003 166.375 203.633C165.792 203.263 165.341 202.755 165.023 202.109C164.711 201.458 164.555 200.719 164.555 199.891C164.555 199.052 164.719 198.307 165.047 197.656C165.375 197.005 165.828 196.495 166.406 196.125C166.984 195.75 167.648 195.562 168.398 195.562C169.18 195.562 169.857 195.745 170.43 196.109C171.008 196.474 171.456 196.982 171.773 197.633C172.091 198.279 172.25 199.026 172.25 199.875V200.32H166.18C166.211 201.065 166.424 201.667 166.82 202.125C167.221 202.583 167.784 202.812 168.508 202.812C169.049 202.812 169.495 202.69 169.844 202.445C170.193 202.201 170.424 201.883 170.539 201.492H172.125C172.026 202.023 171.805 202.492 171.461 202.898C171.122 203.305 170.695 203.622 170.18 203.852C169.669 204.076 169.104 204.188 168.484 204.188ZM166.195 199.07H170.641C170.573 198.414 170.341 197.896 169.945 197.516C169.549 197.13 169.039 196.938 168.414 196.938C167.789 196.938 167.279 197.13 166.883 197.516C166.492 197.896 166.263 198.414 166.195 199.07ZM176.734 204.195C176.104 204.195 175.536 204.094 175.031 203.891C174.526 203.688 174.117 203.385 173.805 202.984C173.497 202.583 173.326 202.086 173.289 201.492H174.914C175.008 202.419 175.604 202.883 176.703 202.883C177.224 202.883 177.635 202.776 177.938 202.562C178.245 202.349 178.398 202.078 178.398 201.75C178.398 201.469 178.289 201.245 178.07 201.078C177.852 200.906 177.565 200.781 177.211 200.703L175.844 200.398C174.266 200.055 173.477 199.268 173.477 198.039C173.477 197.31 173.766 196.716 174.344 196.258C174.927 195.799 175.69 195.57 176.633 195.57C177.565 195.57 178.331 195.812 178.93 196.297C179.534 196.776 179.846 197.432 179.867 198.266H178.289C178.284 197.865 178.133 197.534 177.836 197.273C177.539 197.008 177.146 196.875 176.656 196.875C176.188 196.875 175.815 196.984 175.539 197.203C175.263 197.422 175.125 197.69 175.125 198.008C175.125 198.289 175.229 198.516 175.438 198.688C175.651 198.859 175.943 198.987 176.312 199.07L177.719 199.383C178.521 199.56 179.112 199.833 179.492 200.203C179.872 200.573 180.062 201.057 180.062 201.656C180.062 202.182 179.917 202.635 179.625 203.016C179.339 203.391 178.945 203.682 178.445 203.891C177.945 204.094 177.375 204.195 176.734 204.195Z" fill="#5FB98D"/>
<path d="M201 186C201 182.686 203.686 180 207 180H296C299.314 180 302 182.686 302 186V210C302 213.314 299.314 216 296 216H207C203.686 216 201 213.314 201 210V186Z" fill="#192E3C"/>
<path d="M214.062 204V192.359H218.492C219.737 192.359 220.724 192.685 221.453 193.336C222.182 193.987 222.547 194.87 222.547 195.984C222.547 196.797 222.339 197.49 221.922 198.062C221.505 198.63 220.935 199.044 220.211 199.305L222.727 204H220.773L218.453 199.594C218.427 199.594 218.401 199.594 218.375 199.594H215.797V204H214.062ZM215.797 198.117H218.422C219.172 198.117 219.76 197.927 220.188 197.547C220.62 197.161 220.836 196.641 220.836 195.984C220.836 195.328 220.62 194.81 220.188 194.43C219.755 194.049 219.164 193.859 218.414 193.859H215.797V198.117ZM224.148 204V195.75H225.797V204H224.148ZM224.969 194.328C224.677 194.328 224.43 194.232 224.227 194.039C224.029 193.841 223.93 193.602 223.93 193.32C223.93 193.034 224.029 192.794 224.227 192.602C224.43 192.404 224.677 192.305 224.969 192.305C225.26 192.305 225.508 192.404 225.711 192.602C225.914 192.794 226.016 193.034 226.016 193.32C226.016 193.602 225.914 193.841 225.711 194.039C225.508 194.232 225.26 194.328 224.969 194.328ZM230.719 204.195C230.089 204.195 229.521 204.094 229.016 203.891C228.51 203.688 228.102 203.385 227.789 202.984C227.482 202.583 227.31 202.086 227.273 201.492H228.898C228.992 202.419 229.589 202.883 230.688 202.883C231.208 202.883 231.62 202.776 231.922 202.562C232.229 202.349 232.383 202.078 232.383 201.75C232.383 201.469 232.273 201.245 232.055 201.078C231.836 200.906 231.549 200.781 231.195 200.703L229.828 200.398C228.25 200.055 227.461 199.268 227.461 198.039C227.461 197.31 227.75 196.716 228.328 196.258C228.911 195.799 229.674 195.57 230.617 195.57C231.549 195.57 232.315 195.812 232.914 196.297C233.518 196.776 233.831 197.432 233.852 198.266H232.273C232.268 197.865 232.117 197.534 231.82 197.273C231.523 197.008 231.13 196.875 230.641 196.875C230.172 196.875 229.799 196.984 229.523 197.203C229.247 197.422 229.109 197.69 229.109 198.008C229.109 198.289 229.214 198.516 229.422 198.688C229.635 198.859 229.927 198.987 230.297 199.07L231.703 199.383C232.505 199.56 233.096 199.833 233.477 200.203C233.857 200.573 234.047 201.057 234.047 201.656C234.047 202.182 233.901 202.635 233.609 203.016C233.323 203.391 232.93 203.682 232.43 203.891C231.93 204.094 231.359 204.195 230.719 204.195ZM235.508 204V192.359H237.156V199.273H237.18L240.695 195.75H242.742L239.25 199.297L242.977 204H240.953L237.992 200.289L237.156 201.102V204H235.508ZM247.797 204V192.359H249.531V202.477H255.039V204H247.797ZM256.352 204V195.75H258V204H256.352ZM257.172 194.328C256.88 194.328 256.633 194.232 256.43 194.039C256.232 193.841 256.133 193.602 256.133 193.32C256.133 193.034 256.232 192.794 256.43 192.602C256.633 192.404 256.88 192.305 257.172 192.305C257.464 192.305 257.711 192.404 257.914 192.602C258.117 192.794 258.219 193.034 258.219 193.32C258.219 193.602 258.117 193.841 257.914 194.039C257.711 194.232 257.464 194.328 257.172 194.328ZM259.867 204V195.75H261.469V197.133C261.724 196.622 262.07 196.237 262.508 195.977C262.945 195.716 263.419 195.586 263.93 195.586C264.492 195.586 264.984 195.729 265.406 196.016C265.833 196.302 266.133 196.667 266.305 197.109C266.529 196.661 266.867 196.297 267.32 196.016C267.779 195.729 268.312 195.586 268.922 195.586C269.432 195.586 269.896 195.698 270.312 195.922C270.729 196.146 271.06 196.479 271.305 196.922C271.549 197.359 271.672 197.909 271.672 198.57V204H270.016V198.711C270.016 198.122 269.852 197.695 269.523 197.43C269.195 197.164 268.807 197.031 268.359 197.031C267.807 197.031 267.372 197.203 267.055 197.547C266.737 197.885 266.578 198.318 266.578 198.844V204H264.953V198.602C264.953 198.128 264.799 197.747 264.492 197.461C264.19 197.174 263.805 197.031 263.336 197.031C262.857 197.031 262.432 197.201 262.062 197.539C261.698 197.878 261.516 198.372 261.516 199.023V204H259.867ZM273.539 204V195.75H275.188V204H273.539ZM274.359 194.328C274.068 194.328 273.82 194.232 273.617 194.039C273.419 193.841 273.32 193.602 273.32 193.32C273.32 193.034 273.419 192.794 273.617 192.602C273.82 192.404 274.068 192.305 274.359 192.305C274.651 192.305 274.898 192.404 275.102 192.602C275.305 192.794 275.406 193.034 275.406 193.32C275.406 193.602 275.305 193.841 275.102 194.039C274.898 194.232 274.651 194.328 274.359 194.328ZM281.172 195.75V197.109H279.5V201.82C279.5 202.128 279.562 202.341 279.688 202.461C279.812 202.581 280.039 202.641 280.367 202.641H281.172V204H280.133C278.607 204 277.844 203.344 277.844 202.031V197.109H276.391V195.75H277.844V193.5H279.5V195.75H281.172ZM285.391 204.195C284.76 204.195 284.193 204.094 283.688 203.891C283.182 203.688 282.773 203.385 282.461 202.984C282.154 202.583 281.982 202.086 281.945 201.492H283.57C283.664 202.419 284.26 202.883 285.359 202.883C285.88 202.883 286.292 202.776 286.594 202.562C286.901 202.349 287.055 202.078 287.055 201.75C287.055 201.469 286.945 201.245 286.727 201.078C286.508 200.906 286.221 200.781 285.867 200.703L284.5 200.398C282.922 200.055 282.133 199.268 282.133 198.039C282.133 197.31 282.422 196.716 283 196.258C283.583 195.799 284.346 195.57 285.289 195.57C286.221 195.57 286.987 195.812 287.586 196.297C288.19 196.776 288.503 197.432 288.523 198.266H286.945C286.94 197.865 286.789 197.534 286.492 197.273C286.195 197.008 285.802 196.875 285.312 196.875C284.844 196.875 284.471 196.984 284.195 197.203C283.919 197.422 283.781 197.69 283.781 198.008C283.781 198.289 283.885 198.516 284.094 198.688C284.307 198.859 284.599 198.987 284.969 199.07L286.375 199.383C287.177 199.56 287.768 199.833 288.148 200.203C288.529 200.573 288.719 201.057 288.719 201.656C288.719 202.182 288.573 202.635 288.281 203.016C287.995 203.391 287.602 203.682 287.102 203.891C286.602 204.094 286.031 204.195 285.391 204.195Z" fill="#5FB98D"/>
<path d="M32 230C32 226.686 34.6863 224 38 224H127C130.314 224 133 226.686 133 230V254C133 257.314 130.314 260 127 260H38C34.6863 260 32 257.314 32 254V230Z" fill="#192E3C"/>
<path d="M45.0625 248V236.359H47.5078L50.1172 243.18C50.2214 243.477 50.3568 243.867 50.5234 244.352C50.6901 244.831 50.8411 245.273 50.9766 245.68C51.1068 245.273 51.2552 244.831 51.4219 244.352C51.5885 243.867 51.724 243.477 51.8281 243.18L54.3984 236.359H56.8516V248H55.1484V241.656C55.1484 241.24 55.1536 240.755 55.1641 240.203C55.1745 239.646 55.1875 239.091 55.2031 238.539C54.9896 239.169 54.7865 239.763 54.5938 240.32C54.4062 240.878 54.25 241.323 54.125 241.656L51.6719 248H50.25L47.7734 241.656C47.6536 241.339 47.5 240.919 47.3125 240.398C47.1302 239.872 46.9323 239.307 46.7188 238.703C46.7344 239.234 46.7474 239.76 46.7578 240.281C46.7682 240.802 46.7734 241.26 46.7734 241.656V248H45.0625ZM62.3984 248.188C61.612 248.188 60.9219 248.005 60.3281 247.641C59.7344 247.276 59.2708 246.771 58.9375 246.125C58.6094 245.479 58.4453 244.734 58.4453 243.891C58.4453 243.036 58.6094 242.286 58.9375 241.641C59.2708 240.99 59.7344 240.482 60.3281 240.117C60.9219 239.747 61.612 239.562 62.3984 239.562C63.1849 239.562 63.8724 239.747 64.4609 240.117C65.0547 240.482 65.5156 240.99 65.8438 241.641C66.1771 242.286 66.3438 243.036 66.3438 243.891C66.3438 244.734 66.1771 245.479 65.8438 246.125C65.5156 246.771 65.0547 247.276 64.4609 247.641C63.8724 248.005 63.1849 248.188 62.3984 248.188ZM62.3984 246.766C63.1068 246.766 63.6641 246.505 64.0703 245.984C64.4766 245.464 64.6797 244.766 64.6797 243.891C64.6797 243.005 64.474 242.299 64.0625 241.773C63.6562 241.247 63.1016 240.984 62.3984 240.984C61.6953 240.984 61.138 241.247 60.7266 241.773C60.3203 242.294 60.1172 243 60.1172 243.891C60.1172 244.771 60.3203 245.471 60.7266 245.992C61.1328 246.508 61.6901 246.766 62.3984 246.766ZM69.4531 243.25V248H67.8047V239.75H69.4219V240.992C69.9844 240.055 70.8151 239.586 71.9141 239.586C72.4818 239.586 72.9896 239.711 73.4375 239.961C73.8906 240.206 74.2474 240.57 74.5078 241.055C74.7682 241.539 74.8984 242.141 74.8984 242.859V248H73.25V243.062C73.25 242.401 73.0911 241.904 72.7734 241.57C72.4557 241.232 72.013 241.062 71.4453 241.062C70.8828 241.062 70.4089 241.237 70.0234 241.586C69.6432 241.93 69.4531 242.484 69.4531 243.25ZM76.7578 248V239.75H78.4062V248H76.7578ZM77.5781 238.328C77.2865 238.328 77.0391 238.232 76.8359 238.039C76.638 237.841 76.5391 237.602 76.5391 237.32C76.5391 237.034 76.638 236.794 76.8359 236.602C77.0391 236.404 77.2865 236.305 77.5781 236.305C77.8698 236.305 78.1172 236.404 78.3203 236.602C78.5234 236.794 78.625 237.034 78.625 237.32C78.625 237.602 78.5234 237.841 78.3203 238.039C78.1172 238.232 77.8698 238.328 77.5781 238.328ZM84.3906 239.75V241.109H82.7188V245.82C82.7188 246.128 82.7812 246.341 82.9062 246.461C83.0312 246.581 83.2578 246.641 83.5859 246.641H84.3906V248H83.3516C81.8255 248 81.0625 247.344 81.0625 246.031V241.109H79.6094V239.75H81.0625V237.5H82.7188V239.75H84.3906ZM89.1016 248.188C88.3151 248.188 87.625 248.005 87.0312 247.641C86.4375 247.276 85.974 246.771 85.6406 246.125C85.3125 245.479 85.1484 244.734 85.1484 243.891C85.1484 243.036 85.3125 242.286 85.6406 241.641C85.974 240.99 86.4375 240.482 87.0312 240.117C87.625 239.747 88.3151 239.562 89.1016 239.562C89.888 239.562 90.5755 239.747 91.1641 240.117C91.7578 240.482 92.2188 240.99 92.5469 241.641C92.8802 242.286 93.0469 243.036 93.0469 243.891C93.0469 244.734 92.8802 245.479 92.5469 246.125C92.2188 246.771 91.7578 247.276 91.1641 247.641C90.5755 248.005 89.888 248.188 89.1016 248.188ZM89.1016 246.766C89.8099 246.766 90.3672 246.505 90.7734 245.984C91.1797 245.464 91.3828 244.766 91.3828 243.891C91.3828 243.005 91.1771 242.299 90.7656 241.773C90.3594 241.247 89.8047 240.984 89.1016 240.984C88.3984 240.984 87.8411 241.247 87.4297 241.773C87.0234 242.294 86.8203 243 86.8203 243.891C86.8203 244.771 87.0234 245.471 87.4297 245.992C87.8359 246.508 88.3932 246.766 89.1016 246.766ZM94.5078 248V239.75H96.0859V241.086H96.1172C96.2682 240.633 96.5052 240.281 96.8281 240.031C97.1562 239.776 97.5833 239.648 98.1094 239.648C98.2344 239.648 98.349 239.654 98.4531 239.664C98.5573 239.674 98.6432 239.682 98.7109 239.688V241.227C98.6484 241.211 98.5365 241.195 98.375 241.18C98.2135 241.159 98.0365 241.148 97.8438 241.148C97.3802 241.148 96.9818 241.31 96.6484 241.633C96.3203 241.956 96.1562 242.453 96.1562 243.125V248H94.5078ZM99.9766 248V239.75H101.625V248H99.9766ZM100.797 238.328C100.505 238.328 100.258 238.232 100.055 238.039C99.8568 237.841 99.7578 237.602 99.7578 237.32C99.7578 237.034 99.8568 236.794 100.055 236.602C100.258 236.404 100.505 236.305 100.797 236.305C101.089 236.305 101.336 236.404 101.539 236.602C101.742 236.794 101.844 237.034 101.844 237.32C101.844 237.602 101.742 237.841 101.539 238.039C101.336 238.232 101.089 238.328 100.797 238.328ZM105.141 243.25V248H103.492V239.75H105.109V240.992C105.672 240.055 106.503 239.586 107.602 239.586C108.169 239.586 108.677 239.711 109.125 239.961C109.578 240.206 109.935 240.57 110.195 241.055C110.456 241.539 110.586 242.141 110.586 242.859V248H108.938V243.062C108.938 242.401 108.779 241.904 108.461 241.57C108.143 241.232 107.701 241.062 107.133 241.062C106.57 241.062 106.096 241.237 105.711 241.586C105.331 241.93 105.141 242.484 105.141 243.25ZM116.047 251.375C115.036 251.375 114.211 251.151 113.57 250.703C112.93 250.255 112.555 249.628 112.445 248.82H114.094C114.198 249.221 114.424 249.523 114.773 249.727C115.122 249.93 115.547 250.031 116.047 250.031C116.714 250.031 117.234 249.852 117.609 249.492C117.984 249.133 118.172 248.62 118.172 247.953V246.703H118.164C117.878 247.182 117.516 247.536 117.078 247.766C116.646 247.995 116.159 248.109 115.617 248.109C114.898 248.109 114.271 247.93 113.734 247.57C113.198 247.206 112.781 246.706 112.484 246.07C112.188 245.43 112.039 244.69 112.039 243.852C112.039 243.013 112.188 242.273 112.484 241.633C112.786 240.992 113.206 240.492 113.742 240.133C114.279 239.768 114.901 239.586 115.609 239.586C116.146 239.586 116.638 239.701 117.086 239.93C117.534 240.159 117.896 240.518 118.172 241.008H118.18V239.75H119.805V247.891C119.805 248.724 119.635 249.396 119.297 249.906C118.958 250.417 118.505 250.789 117.938 251.023C117.37 251.258 116.74 251.375 116.047 251.375ZM115.953 246.695C116.656 246.695 117.216 246.438 117.633 245.922C118.055 245.401 118.266 244.708 118.266 243.844C118.266 242.979 118.055 242.289 117.633 241.773C117.216 241.253 116.656 240.992 115.953 240.992C115.286 240.992 114.745 241.237 114.328 241.727C113.917 242.211 113.711 242.917 113.711 243.844C113.711 244.771 113.917 245.479 114.328 245.969C114.745 246.453 115.286 246.695 115.953 246.695Z" fill="#5FB98D"/>
<defs>
<radialGradient id="paint0_radial_5584_5701" cx="0" cy="0" r="1" gradientTransform="matrix(434 292 -447.419 654.891 0 0)" gradientUnits="userSpaceOnUse">
<stop stop-color="#0D9488"/>
<stop offset="1" stop-color="#0D9488" stop-opacity="0"/>
</radialGradient>
<clipPath id="clip0_5584_5701">
<rect width="136" height="36" fill="white" transform="translate(32 32)"/>
</clipPath>
</defs>
</svg>
