<svg width="32" height="32" viewBox="0 0 32 32" fill="none" xmlns="http://www.w3.org/2000/svg">
<path d="M12.332 18.6654C14.5412 18.6654 16.332 20.4562 16.332 22.6654C16.332 24.8745 14.5412 26.6654 12.332 26.6654C10.1229 26.6654 8.33203 24.8745 8.33203 22.6654C8.33203 20.4562 10.1229 18.6654 12.332 18.6654Z" fill="white"/>
<path d="M18.9987 5.33203C16.7896 5.33203 14.9987 7.12289 14.9987 9.33203C14.9987 11.5412 16.7896 13.332 18.9987 13.332C21.2078 13.332 22.9987 11.5412 22.9987 9.33203C22.9987 7.12289 21.2078 5.33203 18.9987 5.33203Z" fill="white"/>
<g opacity="0.5">
<path d="M22.8865 10.2773C22.9598 9.97445 22.9987 9.65808 22.9987 9.33264C22.9987 8.96737 22.9497 8.61354 22.858 8.27734H28.9987C29.551 8.27734 29.9987 8.72506 29.9987 9.27734C29.9987 9.82963 29.551 10.2773 28.9987 10.2773L22.8865 10.2773Z" fill="white"/>
<path d="M15.1394 8.27734C15.0477 8.61354 14.9987 8.96737 14.9987 9.33264C14.9987 9.65808 15.0376 9.97445 15.1109 10.2773L2.33203 10.2773C1.77975 10.2773 1.33203 9.82963 1.33203 9.27734C1.33203 8.72506 1.77975 8.27734 2.33203 8.27734H15.1394Z" fill="white"/>
<path d="M8.47271 21.6107H2.33203C1.77975 21.6107 1.33203 22.0584 1.33203 22.6107C1.33203 23.163 1.77975 23.6107 2.33203 23.6107H8.44424C8.3709 23.3078 8.33203 22.9914 8.33203 22.666C8.33203 22.3007 8.38099 21.9469 8.47271 21.6107Z" fill="white"/>
<path d="M16.2198 23.6107H28.9987C29.551 23.6107 29.9987 23.163 29.9987 22.6107C29.9987 22.0584 29.551 21.6107 28.9987 21.6107H16.1914C16.2831 21.9469 16.332 22.3007 16.332 22.666C16.332 22.9914 16.2932 23.3078 16.2198 23.6107Z" fill="white"/>
</g>
</svg>
