<svg width="32" height="32" viewBox="0 0 32 32" fill="none" xmlns="http://www.w3.org/2000/svg">
<path opacity="0.2" d="M4.50335 6.77663C4 7.49379 4 9.62551 4 13.889V15.9886C4 23.506 9.65195 27.1541 13.1981 28.7031C14.16 29.1233 14.641 29.3334 16 29.3334C17.359 29.3334 17.84 29.1233 18.8019 28.7031C22.348 27.1541 28 23.506 28 15.9886V13.889C28 9.62551 28 7.49379 27.4966 6.77663C26.9933 6.05947 24.9889 5.37336 20.9801 4.00114L20.2164 3.7397C18.1267 3.0244 17.0819 2.66675 16 2.66675C14.9181 2.66675 13.8733 3.0244 11.7836 3.7397L11.0199 4.00114C7.0111 5.37336 5.00671 6.05947 4.50335 6.77663Z" fill="white"/>
<path d="M20.0806 13.9993C20.4484 13.5873 20.4126 12.9552 20.0007 12.5873C19.5887 12.2195 18.9565 12.2553 18.5887 12.6672L14.5727 17.1651L13.4139 15.8672C13.0461 15.4553 12.4139 15.4195 12.002 15.7873C11.59 16.1552 11.5542 16.7873 11.922 17.1993L13.8268 19.3326C14.0165 19.5451 14.2879 19.6666 14.5727 19.6666C14.8576 19.6666 15.129 19.5451 15.3187 19.3326L20.0806 13.9993Z" fill="white"/>
</svg>
