<svg width="32" height="32" viewBox="0 0 32 32" fill="none" xmlns="http://www.w3.org/2000/svg">
<path fill-rule="evenodd" clip-rule="evenodd" d="M11.6409 7.69543L7.55807 13.2195C5.8451 15.5371 4.98862 16.6959 5.46056 17.607C5.46837 17.6221 5.47642 17.6371 5.48469 17.652C5.98463 18.5492 7.46387 18.5492 10.4224 18.5492C12.0664 18.5492 12.8884 18.5492 13.404 19.0342L13.4308 19.0598L18.5934 12.9665L18.5667 12.9409C18.0619 12.4455 18.0619 11.6557 18.0619 10.0761V9.66315C18.0619 5.28365 18.0619 3.0939 16.8308 2.71661C15.5996 2.33932 14.2801 4.12469 11.6409 7.69543Z" fill="white"/>
<path opacity="0.25" d="M13.9383 21.9239L13.9383 22.3367C13.9382 26.7162 13.9382 28.906 15.1693 29.2833C16.4005 29.6606 17.7201 27.8752 20.3593 24.3045L24.4421 18.7805C26.1551 16.4629 27.0116 15.3041 26.5397 14.3929C26.5319 14.3778 26.5238 14.3629 26.5155 14.348C26.0156 13.4508 24.5364 13.4508 21.5778 13.4508C19.9338 13.4508 19.1118 13.4508 18.5962 12.9658L13.4336 19.0591C13.9383 19.5545 13.9383 20.3443 13.9383 21.9239Z" fill="white"/>
</svg>
