<svg width="32" height="32" viewBox="0 0 32 32" fill="none" xmlns="http://www.w3.org/2000/svg">
<path opacity="0.25" fill-rule="evenodd" clip-rule="evenodd" d="M12.2188 5.03363C12.3843 5.56053 12.0913 6.12183 11.5644 6.28732C6.98663 7.72512 3.66797 12.0024 3.66797 17.0522C3.66797 23.2825 8.7187 28.3333 14.9491 28.3333C19.9989 28.3333 24.2761 25.0146 25.7139 20.4368C25.8794 19.9099 26.4407 19.617 26.9676 19.7824C27.4945 19.9479 27.7875 20.5092 27.622 21.0361C25.9299 26.4235 20.8974 30.3333 14.9491 30.3333C7.61413 30.3333 1.66797 24.3871 1.66797 17.0522C1.66797 11.1038 5.57771 6.07131 10.9651 4.37923C11.492 4.21373 12.0533 4.50672 12.2188 5.03363Z" fill="#1E2330"/>
<path d="M29.2188 13.2631C27.8034 8.19258 23.8088 4.19802 18.7383 2.78262C16.5468 2.17088 14.668 4.07233 14.668 6.34757V15.2736C14.668 16.4112 15.5902 17.3334 16.7278 17.3334H25.6538C27.9291 17.3334 29.8305 15.4546 29.2188 13.2631Z" fill="#1E2330"/>
</svg>
