<svg width="32" height="32" viewBox="0 0 32 32" fill="none" xmlns="http://www.w3.org/2000/svg">
<rect x="16" y="2.66675" width="13.3333" height="13.3333" rx="2" fill="#1E2330"/>
<path opacity="0.5" d="M15.9987 9.33325H14.6654C12.1512 9.33325 10.8941 9.33325 10.1131 10.1143C9.33203 10.8953 9.33203 12.1524 9.33203 14.6666V17.3333C9.33203 19.8474 9.33203 21.1045 10.1131 21.8855C10.8941 22.6666 12.1512 22.6666 14.6654 22.6666H17.332C19.8462 22.6666 21.1033 22.6666 21.8843 21.8855C22.6654 21.1045 22.6654 19.8474 22.6654 17.3333V15.9999H21.332C18.8179 15.9999 17.5608 15.9999 16.7797 15.2189C15.9987 14.4378 15.9987 13.1807 15.9987 10.6666V9.33325Z" fill="#1E2330"/>
<path opacity="0.25" d="M9.33463 16V17.3333C9.33463 19.8475 9.33463 21.1046 10.1157 21.8856C10.8967 22.6667 12.1538 22.6667 14.668 22.6667H16.0013V24C16.0013 26.5142 16.0013 27.7712 15.2203 28.5523C14.4392 29.3333 13.1821 29.3333 10.668 29.3333H8.0013C5.48714 29.3333 4.23007 29.3333 3.44902 28.5523C2.66797 27.7712 2.66797 26.5142 2.66797 24V21.3333C2.66797 18.8192 2.66797 17.5621 3.44902 16.781C4.23007 16 5.48714 16 8.0013 16H9.33463Z" fill="#1E2330"/>
</svg>
