<svg width="32" height="32" viewBox="0 0 32 32" fill="none" xmlns="http://www.w3.org/2000/svg">
<path d="M6.63974 12.9134C3.99189 11.8542 2.66797 11.3247 2.66797 10.6666C2.66797 10.0085 3.99189 9.47895 6.63974 8.41981L10.3844 6.92196C13.0322 5.86282 14.3561 5.33325 16.0013 5.33325C17.6465 5.33325 18.9704 5.86282 21.6182 6.92196L25.3629 8.41981C28.0107 9.47895 29.3346 10.0085 29.3346 10.6666C29.3346 11.3247 28.0107 11.8542 25.3629 12.9134L21.6182 14.4112C18.9704 15.4703 17.6465 15.9999 16.0013 15.9999C14.3561 15.9999 13.0322 15.4703 10.3844 14.4112L6.63974 12.9134Z" fill="#1C274C"/>
<path fill-rule="evenodd" clip-rule="evenodd" d="M2.66797 10.6666C2.66797 11.3247 3.99189 11.8542 6.63974 12.9134L10.3844 14.4112C13.0322 15.4703 14.3561 15.9999 16.0013 15.9999C17.6465 15.9999 18.9704 15.4703 21.6182 14.4112L25.3629 12.9134C28.0107 11.8542 29.3346 11.3247 29.3346 10.6666C29.3346 10.0085 28.0107 9.47895 25.3629 8.41981L21.6182 6.92196C18.9704 5.86282 17.6465 5.33325 16.0013 5.33325C14.3561 5.33325 13.0322 5.86282 10.3844 6.92196L6.63974 8.41981C3.99189 9.47895 2.66797 10.0085 2.66797 10.6666Z" fill="#1E2330"/>
<path opacity="0.5" d="M7.68947 13.3333L6.63974 13.7531C3.99189 14.8123 2.66797 15.3419 2.66797 15.9999C2.66797 16.658 3.99189 17.1876 6.63974 18.2467L10.3844 19.7445C13.0322 20.8037 14.3561 21.3333 16.0013 21.3333C17.6465 21.3333 18.9704 20.8037 21.6182 19.7445L25.3629 18.2467C28.0107 17.1876 29.3346 16.658 29.3346 15.9999C29.3346 15.3419 28.0107 14.8123 25.3629 13.7531L24.3131 13.3333L21.6182 14.4112C18.9704 15.4703 17.6465 15.9999 16.0013 15.9999C14.3561 15.9999 13.0322 15.4703 10.3844 14.4112L7.68947 13.3333Z" fill="#1E2330"/>
<path opacity="0.25" d="M7.68947 18.6667L6.63974 19.0866C3.99189 20.1458 2.66797 20.6753 2.66797 21.3334C2.66797 21.9915 3.99189 22.521 6.63974 23.5802L10.3844 25.078C13.0322 26.1372 14.3561 26.6667 16.0013 26.6667C17.6465 26.6667 18.9704 26.1372 21.6182 25.078L25.3629 23.5802C28.0107 22.521 29.3346 21.9915 29.3346 21.3334C29.3346 20.6753 28.0107 20.1458 25.3629 19.0866L24.3131 18.6667L21.6182 19.7447C18.9704 20.8038 17.6465 21.3334 16.0013 21.3334C14.3561 21.3334 13.0322 20.8038 10.3844 19.7447L7.68947 18.6667Z" fill="#1E2330"/>
</svg>
