<svg width="32" height="32" viewBox="0 0 32 32" fill="none" xmlns="http://www.w3.org/2000/svg">
<path fill-rule="evenodd" clip-rule="evenodd" d="M2.66797 8.84561C2.66797 5.43312 5.43434 2.66675 8.84683 2.66675C12.2593 2.66675 15.0257 5.43312 15.0257 8.84561C15.0257 12.2581 12.2593 15.0245 8.84683 15.0245C5.43434 15.0245 2.66797 12.2581 2.66797 8.84561Z" fill="white"/>
<path opacity="0.25" fill-rule="evenodd" clip-rule="evenodd" d="M16.9766 23.1544C16.9766 19.742 19.7429 16.9756 23.1554 16.9756C26.5679 16.9756 29.3343 19.742 29.3343 23.1544C29.3343 26.5669 26.5679 29.3333 23.1554 29.3333C19.7429 29.3333 16.9766 26.5669 16.9766 23.1544Z" fill="white"/>
<path d="M2.66797 23.3333C2.66797 20.5048 2.66797 19.0906 3.54665 18.2119C4.42533 17.3333 5.83954 17.3333 8.66797 17.3333C11.4964 17.3333 12.9106 17.3333 13.7893 18.2119C14.668 19.0906 14.668 20.5048 14.668 23.3333C14.668 26.1617 14.668 27.5759 13.7893 28.4546C12.9106 29.3333 11.4964 29.3333 8.66797 29.3333C5.83954 29.3333 4.42533 29.3333 3.54665 28.4546C2.66797 27.5759 2.66797 26.1617 2.66797 23.3333Z" fill="white"/>
<path opacity="0.25" d="M17.332 8.66675C17.332 5.83832 17.332 4.42411 18.2107 3.54543C19.0894 2.66675 20.5036 2.66675 23.332 2.66675C26.1605 2.66675 27.5747 2.66675 28.4534 3.54543C29.332 4.42411 29.332 5.83832 29.332 8.66675C29.332 11.4952 29.332 12.9094 28.4534 13.7881C27.5747 14.6667 26.1605 14.6667 23.332 14.6667C20.5036 14.6667 19.0894 14.6667 18.2107 13.7881C17.332 12.9094 17.332 11.4952 17.332 8.66675Z" fill="white"/>
</svg>
