<svg width="32" height="32" viewBox="0 0 32 32" fill="none" xmlns="http://www.w3.org/2000/svg">
<path fill-rule="evenodd" clip-rule="evenodd" d="M2.66406 8.84561C2.66406 5.43312 5.43043 2.66675 8.84292 2.66675C12.2554 2.66675 15.0218 5.43312 15.0218 8.84561C15.0218 12.2581 12.2554 15.0245 8.84292 15.0245C5.43043 15.0245 2.66406 12.2581 2.66406 8.84561Z" fill="#202533"/>
<path opacity="0.25" fill-rule="evenodd" clip-rule="evenodd" d="M16.9766 23.1544C16.9766 19.742 19.7429 16.9756 23.1554 16.9756C26.5679 16.9756 29.3343 19.742 29.3343 23.1544C29.3343 26.5669 26.5679 29.3333 23.1554 29.3333C19.7429 29.3333 16.9766 26.5669 16.9766 23.1544Z" fill="#202533"/>
<path d="M2.66406 23.3333C2.66406 20.5048 2.66406 19.0906 3.54274 18.2119C4.42142 17.3333 5.83564 17.3333 8.66406 17.3333C11.4925 17.3333 12.9067 17.3333 13.7854 18.2119C14.6641 19.0906 14.6641 20.5048 14.6641 23.3333C14.6641 26.1617 14.6641 27.5759 13.7854 28.4546C12.9067 29.3333 11.4925 29.3333 8.66406 29.3333C5.83564 29.3333 4.42142 29.3333 3.54274 28.4546C2.66406 27.5759 2.66406 26.1617 2.66406 23.3333Z" fill="#202533"/>
<path opacity="0.25" d="M17.3359 8.66675C17.3359 5.83832 17.3359 4.42411 18.2146 3.54543C19.0933 2.66675 20.5075 2.66675 23.3359 2.66675C26.1644 2.66675 27.5786 2.66675 28.4573 3.54543C29.3359 4.42411 29.3359 5.83832 29.3359 8.66675C29.3359 11.4952 29.3359 12.9094 28.4573 13.7881C27.5786 14.6667 26.1644 14.6667 23.3359 14.6667C20.5075 14.6667 19.0933 14.6667 18.2146 13.7881C17.3359 12.9094 17.3359 11.4952 17.3359 8.66675Z" fill="#202533"/>
</svg>
